<?xml version="1.0" encoding="UTF-8"?>
<svg id="Layer_2" data-name="Layer 2" xmlns="http://www.w3.org/2000/svg" xmlns:xlink="http://www.w3.org/1999/xlink" viewBox="0 0 83.8922 34.6561">
  <defs>
    <linearGradient id="linear-gradient-keyboard" x1="1.8205" y1="16.1994" x2="83.7681" y2="16.1994" gradientUnits="userSpaceOnUse">
      <stop offset="0" stop-color="#dedee0"/>
      <stop offset="1" stop-color="#b9b8bb"/>
    </linearGradient>
    <linearGradient id="linear-gradient-keyboard-2" x1="2.3517" y1="10.7993" x2="83.8922" y2="10.7993" xlink:href="#linear-gradient-keyboard"/>
    <linearGradient id="linear-gradient-keyboard-3" x1="3.2668" y1="10.8787" x2="83.6635" y2="10.8787" xlink:href="#linear-gradient-keyboard"/>
    <linearGradient id="linear-gradient-keyboard-4" x1=".5185" y1="22.0254" x2="81.6521" y2="22.0254" xlink:href="#linear-gradient-keyboard"/>
    <linearGradient id="linear-gradient-keyboard-5" x1=".264" y1="22.5004" x2="59.5531" y2="22.5004" xlink:href="#linear-gradient-keyboard"/>
    <linearGradient id="linear-gradient-keyboard-6" x1="1.3838" y1="20.946" x2="77.6329" y2="20.946" xlink:href="#linear-gradient-keyboard"/>
    <linearGradient id="linear-gradient-keyboard-7" x1=".9257" y1="18.1403" x2="37.6712" y2="18.1403" xlink:href="#linear-gradient-keyboard"/>
    <linearGradient id="linear-gradient-keyboard-8" x1="51.5073" y1="28.3228" x2="82.212" y2="28.3228" xlink:href="#linear-gradient-keyboard"/>
    <linearGradient id="linear-gradient-keyboard-9" x1="59.4431" y1="28.9024" x2="81.3467" y2="28.9024" xlink:href="#linear-gradient-keyboard"/>
    <linearGradient id="linear-gradient-keyboard-10" x1="77.3617" y1="24.0691" x2="82.6277" y2="24.0691" xlink:href="#linear-gradient-keyboard"/>
    <linearGradient id="linear-gradient-keyboard-11" x1="3.2743" y1="20.9087" x2="53.6359" y2="20.9087" xlink:href="#linear-gradient-keyboard"/>
    <linearGradient id="linear-gradient-keyboard-12" x1="37.2745" y1="29.0993" x2="52.1245" y2="29.0993" xlink:href="#linear-gradient-keyboard"/>
    <linearGradient id="linear-gradient-keyboard-13" x1="50.3027" y1="30.0929" x2="79.8285" y2="30.0929" xlink:href="#linear-gradient-keyboard"/>
  </defs>
  <g id="main-keyboard">
    <g>
      <path d="m3.2668,8.2181c-.2141.0987-.3299.1332-.4325.1853-.0311.0158-.0902.1651-.6276.3117-.2843.3603-.4325.4325-.3734.7166.0467.2244,1.0707.7084,1.441.8383l.5767-.2471c-.296-.2566.3279-.1783.5428-.4467.0545-.0878.0782-.1759.1103-.2614.1123-.2986.242-.4893.6108-.7755.2118-.1644.6365-.3738.9201-.5013,1.2772-.5745,10.7052-3.4245,13.0249-4.1685,1.2192-.3911,8.0366-2.7866,8.4544-2.8522.2117-.0333.7-.0558.8903-.039q10.8337,4.0705,21.6675,8.1411c2.2217.8735-1.3012,2.0213,2.594,1.072,5.2169,1.8887,10.1771,3.9754,15.2672,5.9599,3.3298,1.2983,10.4807,3.6618,12.8978,5.0271.3082.1741.6674.2271.8561.4895.0185.0258.0288.0364.0424.0675.2517.5765-.2158.781-.4414,1.0454-.0069.0081.0821-.0038.1102.1026l-.318.2219c-4.1703,1.2576-21.3845,7.6979-23.4723,8.2173-2.2078.5492-2.5542.3547-3.9722.0109-.6014.4248.1131.2263-.0765.4609,1.7523.3436,3.4874.1504,5.7783-.4852.9115-.2529,15.4495-5.416,18.024-6.3322,1.7601-.6264,3.5399-1.2422,5.266-1.9569.3695-.499.8379-.8906,1.1198-1.4218.0684-.0785-.0532-.1049-.0847-.135-1.0155-.9693-1.0423-.9305-2.6064-1.6019-13.8998-5.065-27.1978-10.5745-41.0376-15.6825-1.7295-.6383-9.373-3.5726-10.5541-3.698-1.3211-.1403-2.7085.0549-4.2819.4648-2.3364.6086-17.7361,6.0852-21.916,7.2721Z" style="fill: url(#linear-gradient-keyboard); stroke-width: 0px;"/>
      <path d="m2.3594,8.5213l.4749-.1179c.1026-.0522.2184-.0866.4325-.1853C5.6531,7.1179,20.6279,2.4616,24.7165.9317c4.0395-1.117,5.3487-.5922,7.9273.2423l48.7009,18.5641c.9249.4728,2.356.7538,2.3181,1.7255.0315.0301.1532.0564.0847.135.5814-1.0954-.7148-1.5039-1.6482-1.9697Q58.3423,10.5634,34.5852,1.4981c-3.6011-1.0925-4.4542-2.3491-10.2333-.7099-.9253.2625-17.0242,5.627-18.3842,6.1226-.5548.2022-3.3319,1.2494-3.5743,1.4461-.1023.083.0229.1056-.034.1644Z" style="fill: url(#linear-gradient-keyboard-2); stroke-width: 0px;"/>
      <path d="m81.2958,24.8327c-.19.2-.2918.3996-.5768.6111-.2734.1687-.6075.2725-.8904.403-1.018.4696-20.1614,7.3762-21.2888,7.6884-3.2379.8966-6.2662,1.1472-8.237.2115Q26.1542,23.1472,2.0058,12.5477c-.535-.4123-1.6466-.6318-1.7418-1.2445-.0058.0081-.0724-.0085-.2629.0912-.0483.9259,1.4922,1.1412,2.2503,1.6903q23.1461,10.2049,46.2921,20.4098c3.0884,1.4702,5.6001,1.6251,10.8864.0019,1.0146-.3115,19.0718-6.8429,20.0465-7.2631.7855-.3386,2.4294-1.0293,1.8193-1.4004Z" style="fill: #ecedf0; stroke-width: 0px;"/>
      <path d="m2.3594,8.5213c-.06.062-.1026.1304-.1527.1939.5373-.1467.5964-.2959.6276-.3117l-.4749.1179Z" style="fill: #494748; stroke-width: 0px;"/>
      <path d="m3.2668,8.2181C7.4467,7.0312,22.8464,1.5545,25.1828.946c1.5734-.4098,2.9608-.605,4.2819-.4648,1.1811.1254,8.8246,3.0597,10.5541,3.698,13.8397,5.108,27.1377,10.6175,41.0376,15.6825,1.5641.6713,1.5909.6326,2.6064,1.6019.0379-.9716-1.3932-1.2526-2.3181-1.7255L32.6438,1.174c-2.5786-.8345-3.8878-1.3593-7.9273-.2423C20.6279,2.4616,5.6531,7.1179,3.2668,8.2181Z" style="fill: url(#linear-gradient-keyboard-3); stroke-width: 0px;"/>
      <g>
        <path d="m.9257,10.4629c-.136.1718-.2809.3452-.4072.517,16.4059,7.4126,33.2207,14.545,49.7974,21.8406,3.0009,1.0142,4.5585,1.1131,9.1273-.2505,4.1667-1.2436,16.6889-6.0752,21.9035-7.802.117-.1268.1943-.2599.3054-.3878l-.708.1107c-4.4444,1.4279-19.2101,7.0185-22.0901,7.7963-3.4615.9349-5.0284.8433-7.3467.1725-2.5903-.7495-11.0784-4.706-14.2327-6.0607C25.0632,21.1551,12.839,15.9067.9257,10.4629Z" style="fill: url(#linear-gradient-keyboard-4); stroke-width: 0px;"/>
        <path d="m.5185,10.98c-.0791.1076-.1772.2156-.2545.3231.0952.6128,1.2068.8323,1.7418,1.2445q24.1485,10.5995,48.297,21.1991c3.3854.3664,5.062.5584,9.2504-.71l-.11-.4666c-4.5687,1.3636-6.1264,1.2646-9.1273.2505C33.7392,25.525,16.9244,18.3926.5185,10.98Z" style="fill: url(#linear-gradient-keyboard-5); stroke-width: 0px;"/>
        <path d="m1.3838,9.8813c11.6735,5.4846,24.1215,10.4589,35.9334,15.8574,4.1753,1.5191,10.1977,4.7642,14.1904,5.9932,2.2257.6851,3.2884,1.1289,6.7615.2067,2.3213-.6164,15.8673-5.5821,19.3638-6.8207l-.2713-.1407c-2.5745.9162-17.1125,6.0793-18.024,6.3322-2.291.6356-4.026.8288-5.7783.4852-1.2542-.2459-9.6899-3.9133-11.6092-4.723C28.9154,21.5727,16.2328,15.8224,3.2743,10.27c-.3703-.1298-1.3943-.6139-1.441-.8383-.3872-.0274-.3933.3713-.4496.4495Z" style="fill: url(#linear-gradient-keyboard-6); stroke-width: 0px;"/>
        <path d="m1.3838,9.8813c-.1385.1927-.3054.3889-.4581.5817,11.9133,5.4437,24.1376,10.6921,36.3488,15.9363.9599-.5999-.149-.2553.0427-.6605C25.5053,20.3402,13.0573,15.3659,1.3838,9.8813Z" style="fill: url(#linear-gradient-keyboard-7); stroke-width: 0px;"/>
        <path d="m77.6329,25.1179c-3.4964,1.2386-17.0425,6.2043-19.3638,6.8207-3.4731.9223-4.5358.4784-6.7615-.2067.1219.4838,1.3251.5412-.0003.728,2.3183.6708,3.8852.7624,7.3467-.1725,2.88-.7778,17.6456-6.3684,22.0901-7.7963l.708-.1107c.2041-.2348.3649-.4751.5599-.7109-.9118.1216-3.3026.9963-4.5791,1.4484Z" style="fill: url(#linear-gradient-keyboard-8); stroke-width: 0px;"/>
        <path d="m59.4431,32.5701l.11.4666c4.5875-1.3892,14.9265-5.4988,20.2754-7.1899.2829-.1305.6171-.2342.8904-.403.285-.2115.3868-.4111.5768-.6111.0201-.0212.0313-.0433.0509-.0646-5.2146,1.7268-17.7368,6.5583-21.9035,7.802Z" style="fill: url(#linear-gradient-keyboard-9); stroke-width: 0px;"/>
        <path d="m77.3617,24.9772l.2713.1407c1.2764-.4522,3.6672-1.3269,4.5791-1.4484.1872-.2264.2629-.4428.4157-.6491-1.7261.7148-3.5059,1.3305-5.266,1.9569Z" style="fill: url(#linear-gradient-keyboard-10); stroke-width: 0px;"/>
        <path d="m3.851,10.0229l-.5767.2471c12.9584,5.5524,25.6411,11.3027,38.6758,16.8016,1.9194.8097,10.3551,4.477,11.6092,4.723.1896-.2346-.5249-.0361.0765-.4609-1.6889-.4094-9.4612-3.8274-11.7449-4.7933C29.0856,21.1237,16.63,15.4583,3.851,10.0229Z" style="fill: url(#linear-gradient-keyboard-11); stroke-width: 0px;"/>
        <path d="m37.3172,25.7387c-.1916.4052.9172.0606-.0427.6605,3.1543,1.3546,11.6425,5.3112,14.2327,6.0607,1.3254-.1868.1222-.2442.0003-.728-3.9927-1.229-10.0151-4.4741-14.1904-5.9932Z" style="fill: url(#linear-gradient-keyboard-12); stroke-width: 0px;"/>
        <path d="m59.5531,33.0367c-4.1884,1.2684-5.865,1.0764-9.2504.71,1.9708.9357,4.9991.6851,8.237-.2115,1.1274-.3122,20.2708-7.2188,21.2888-7.6884-5.3489,1.6911-15.6879,5.8007-20.2754,7.1899Z" style="fill: url(#linear-gradient-keyboard-13); stroke-width: 0px;"/>
      </g>
      <g>
        <path d="m4.5041,9.3148c-.0322.0855-.0558.1736-.1103.2614,16.6685,7.4561,33.5689,14.7555,50.73,21.8691.3063-.0135.6416.0517.9326.0285,1.2054-.0961,22.0157-7.862,25.2318-8.693.2256-.2645.693-.469.4414-1.0454-.465.3006-1.0489.5384-1.5901.7456-2.259.8649-8.9978,3.0377-11.8929,4.0046-.8579.2865-1.7183.5626-2.5779.8478.0372.1201-.0579.1438-.3435.2542-.9003.3481-8.1729,2.9497-8.6071,3.0461-.406.0902-.7856.1326-1.1277.0979C39.2957,23.9972,23.1631,17.1341,7.2551,10.127c-.6543-.2882-1.7527-.9462-2.0344-1.0549-.6062-.2339-.335-.0973-.7165.2428Z" style="fill: #090808; stroke-width: 0px;"/>
        <path d="m3.851,10.0229c12.779,5.4355,25.2347,11.1008,38.04,16.5174,2.2837.966,10.056,4.3839,11.7449,4.7933,1.418.3437,1.7644.5383,3.9722-.0109,2.0878-.5194,19.3019-6.9597,23.4723-8.2173l.318-.2219c-.028-.1064-.117-.0946-.1102-.1026-3.2161.831-24.0264,8.5969-25.2318,8.693-.291.0232-.6263-.042-.9326-.0285C37.9627,24.3317,21.0623,17.0323,4.3938,9.5762c-.2149.2684-.8389.1901-.5428.4467Z" style="fill: #594640; stroke-width: 0px;"/>
        <path d="m5.1149,8.5393c-.3688.2863-.4985.4769-.6108.7755.3816-.3401.1104-.4767.7165-.2428.2817.1087,1.38.7667,2.0344,1.0549,15.9081,7.0071,32.0406,13.8703,48.3354,20.6046.3421.0347.7217-.0077,1.1277-.0979.4341-.0964,7.7067-2.698,8.6071-3.0461.2856-.1104.3807-.1341.3435-.2542-1.4633.4854-2.9305.9613-4.3925,1.4541-1.3839.4665-4.2608,1.7493-5.4312,1.6209-12.3845-5.2145-24.8755-10.3728-37.112-15.6949-3.6716-1.5969-7.4188-3.1764-10.9945-4.8366-.8408-.3904-2.0571-1.1656-2.437-1.332-.023-.0101-.1223.0013-.1865-.0057Z" style="fill: #2b0a0b; stroke-width: 0px;"/>
        <path d="m80.8311,21.1784c-.1287.3211.0219.5222-.3819.8487.4193.0243.8731-.0931,1.238-.3593-.1887-.2624-.5479-.3154-.8561-.4895Z" style="fill: #682b39; stroke-width: 0px;"/>
        <path d="m5.3015,8.545c.3799.1664,1.5962.9416,2.437,1.332,3.5757,1.6602,7.3229,3.2397,10.9945,4.8366,12.2365,5.322,24.7275,10.4803,37.112,15.6949,1.1704.1284,4.0473-1.1545,5.4312-1.6209l.0085-.1321c-.5412.1729-3.8985,1.233-4.0999,1.2645-.6473.1014-3.4174-.9525-3.077-1.5501-.7825.3939-2.7591-.6932-2.7805-1.0777-.1784.0696-.7089.1815-.8055.1739-.2709-.0211-2.6669-1.395-3.1194-1.6176-.0098-.0048-.2144.1133-.3307.0561-.8753-.4306-2.1618-.9183-1.6443-1.3078-.0411-.0366-.6805.1771-.7123.1768-.4069-.0035-5.4033-2.1198-5.5948-2.3551-.1339-.1645.1891-.3279.1189-.3935-1.0195.3478-1.82-.4666-2.7043-.8107-1.6456-.6403-3.5108-1.1679-4.9676-1.9388-.1433-.0758.0782-.2348.0171-.2642-.6936.3001-2.675-.7976-2.7296-1.1424-.7423.1377-2.6895-.7843-2.7719-1.2099-.1774.0565-.5991.1843-.7123.1768-.1865-.0124-2.4341-1.1895-2.5345-1.2688-.0707-.0558.1104-.3074.068-.3288-.6234.2928-3.1589-.8454-2.721-1.2745-.7603.325-2.826-.6719-2.6872-1.0749-.7335.3427-2.8018-.5945-2.4583-1.0017-.6778.303-2.8869-.7959-2.2547-1.2602-.2434.064-.476.1931-.7123.1768-.2025-.014-2.9866-1.1977-2.4751-1.4655-1.0274.3275-2.1606-.6731-3.213-.8924-.2643-.1321.533-.3551.3563-.4524-.0811-.0447-1.3188.3849-1.4374.5517Z" style="fill: #29303e; stroke-width: 0px;"/>
        <g>
          <path d="m5.1149,8.5393c.0642.007.1636-.0044.1865.0057.1186-.1668,1.3562-.5964,1.4374-.5517.1767.0973-.6206.3203-.3563.4524,1.0524.2193,2.1856,1.2199,3.213.8924-.5116.2678,2.2726,1.4515,2.4751,1.4655.2363.0163.4689-.1127.7123-.1768-.6322.4644,1.5769,1.5632,2.2547,1.2602-.3434.4072,1.7248,1.3444,2.4583,1.0017-.1387.403,1.9269,1.3999,2.6872,1.0749-.4379.4291,2.0977,1.5673,2.721,1.2745.0424.0215-.1387.273-.068.3288.1004.0793,2.348,1.2564,2.5345,1.2688.1132.0075.5349-.1203.7123-.1768.0824.4256,2.0296,1.3475,2.7719,1.2099.0546.3448,2.036,1.4425,2.7296,1.1424.0611.0294-.1604.1884-.0171.2642,1.4567.7709,3.322,1.2985,4.9676,1.9388.8843.3441,1.6847,1.1585,2.7043.8107.0702.0655-.2528.2289-.1189.3935.1915.2353,5.1879,2.3515,5.5948,2.3551.0318.0003.6712-.2134.7123-.1768-.5176.3894.769.8772,1.6443,1.3078.1163.0572.3209-.0609.3307-.0561.4525.2226,2.8485,1.5965,3.1194,1.6176.0967.0075.6272-.1043.8055-.1739.0214.3846,1.998,1.4717,2.7805,1.0777-.3403.5976,2.4297,1.6515,3.077,1.5501.2014-.0315,3.5587-1.0916,4.0999-1.2645,2.3251-.7428,4.6956-1.5883,7.0213-2.3665,3.8579-1.291,7.6976-2.6804,11.5622-3.9485.282-.1233.3494-.126.5809-.3132.4038-.3265.2532-.5276.3819-.8487-2.4172-1.3653-9.568-3.7289-12.8978-5.0271-5.09-1.9845-10.0503-4.0712-15.2672-5.9599-3.8951.9492-.3723-.1986-2.594-1.072Q39.2384,5.0488,28.4046.9783c-.1903-.0168-.6785.0057-.8903.039-.4178.0656-7.2352,2.4611-8.4544,2.8522-2.3197.7441-11.7477,3.5941-13.0249,4.1685-.2837.1276-.7083.3369-.9201.5013Z" style="fill: #090808; stroke-width: 0px;"/>
          <g>
            <path d="m80.4492,22.0272c-.2315.1872-.2989.1898-.5809.3132-3.8647,1.2681-7.7044,2.6575-11.5622,3.9485l-.0594.1967c2.8951-.9669,9.6339-3.1397,11.8929-4.0046.5412-.2072,1.1251-.445,1.5901-.7456-.0136-.0311-.0238-.0417-.0424-.0675-.3649.2662-.8188.3836-1.238.3593Z" style="fill: #2b0a0b; stroke-width: 0px;"/>
            <path d="m23.2318,2.938l-.2798-.0086q-7.689,2.3958-15.378,4.7915l2.0217.8891c5.2615-1.5113,10.5116-3.097,15.751-4.7801l-2.115-.8919Z" style="fill: #b3c8cb; stroke-width: 0px;"/>
            <path d="m36.223,17.3661c-.2922-.0082-3.0272,1.0646-3.6082,1.2465,1.2531.5736,2.6928,1.025,3.9376,1.6095l3.7353-1.044c.2319-.2035-3.7576-1.5798-4.0646-1.8119Z" style="fill: #b3c8cb; stroke-width: 0px;"/>
            <path d="m31.4518,12.3888l-3.4131,1.1201c-.1357.1735,3.23,1.2368,3.573,1.466l3.4555-1.0526-3.6154-1.5335Z" style="fill: #b3c8cb; stroke-width: 0px;"/>
            <path d="m52.3801,24.015c-.3692-.0019-3.8636,1.2498-3.7821,1.4066l2.594,1.072,4.0321-1.2997q-1.422-.5895-2.844-1.179Z" style="fill: #b3c8cb; stroke-width: 0px;"/>
            <path d="m59.0855,26.5364c-.4267-.0343-3.4362,1.2569-4.1848,1.4936l2.5304.9708q2.0267-.633,4.0533-1.266l.1018-.1293-2.5007-1.0692Z" style="fill: #b3c8cb; stroke-width: 0px;"/>
            <path d="m46.4632,21.5839c-.3626.168-3.8255,1.1689-3.7312,1.342l2.4583,1.0017q1.8719-.5881,3.7438-1.1761l-2.471-1.1676Z" style="fill: #b3c8cb; stroke-width: 0px;"/>
            <path d="m43.6403,20.4387c-.4076-.0173-2.9851,1.0192-3.6082,1.2465l.0635.1012,2.2294.9285,3.8371-1.1733-2.5219-1.1029Z" style="fill: #b3c8cb; stroke-width: 0px;"/>
            <path d="m42.1343,13.3772c-.5159-.0333-2.8712.9455-3.6505,1.179.8148.3947,1.867.6279,2.666,1.0412l3.5064-1.1172-2.5219-1.1029Z" style="fill: #b3c8cb; stroke-width: 0px;"/>
            <path d="m36.4193,14.3276c-.3397-.028-2.8513.9185-3.4131,1.1201,2.8962,1.1908,1.6579,1.3221,5.8841.0475l-2.471-1.1676Z" style="fill: #b3c8cb; stroke-width: 0px;"/>
            <path d="m40.2086,15.7009c-.37-.027-3.7926,1.1381-3.587,1.2802l2.2803.8639,3.5996-1.1144-2.293-1.0298Z" style="fill: #b3c8cb; stroke-width: 0px;"/>
            <path d="m35.7934,10.9993c-.2589-.0047-2.9385.9896-3.464,1.1847l.0635.1012,2.2803.8639,3.6929-1.1115-2.5728-1.0383Z" style="fill: #b3c8cb; stroke-width: 0px;"/>
            <path d="m56.1694,25.3884l-3.9474,1.4347,1.8861.8188c4.9823-1.7288,4.7703-.9788,2.0613-2.2534Z" style="fill: #b3c8cb; stroke-width: 0px;"/>
            <path d="m27.1949,13.9133c-.3726-.0379-3.4151.9538-3.341,1.0892l2.2294.9285,3.3113-.9908-2.1997-1.0269Z" style="fill: #b3c8cb; stroke-width: 0px;"/>
            <path d="m46.8913,12.0666l-3.5149,1.2493q1.0363.4122,2.0726.8245c.3639-.1967,3.6221-1.0566,3.5361-1.2156l-2.0938-.8582Z" style="fill: #b3c8cb; stroke-width: 0px;"/>
            <path d="m69.0334,20.8178q-1.7829.657-3.5658,1.314c2.0285,1.0885,1.81.8052,5.5664-.4586l-2.0006-.8554Z" style="fill: #b3c8cb; stroke-width: 0px;"/>
            <path d="m25.857,10.0337c-.5253-.0492-2.7306.8898-3.5064,1.1172l2.0726.8245,3.3325-.9571.1018-.1293-2.0006-.8554Z" style="fill: #b3c8cb; stroke-width: 0px;"/>
            <path d="m54.6026,21.4356l-3.4725,1.3168,1.8437.7513c.4108-.2137,3.5761-1.0391,3.5361-1.2156l-1.9073-.8525Z" style="fill: #b3c8cb; stroke-width: 0px;"/>
            <path d="m17.7868,6.9411l-3.5487,1.0497c2.1337,1.0581,1.7785,1.0285,5.4348-.231l-1.8861-.8188Z" style="fill: #b3c8cb; stroke-width: 0px;"/>
            <path d="m40.9107,19.2963l-3.5149,1.2493,1.7505.7484c4.5893-1.4916,4.3689-.7573,1.7644-1.9978Z" style="fill: #b3c8cb; stroke-width: 0px;"/>
            <path d="m51.8221,20.3579l-.2798-.0086q-1.6642.6275-3.3284,1.255l1.8014.6838c4.5781-1.5565,4.3124-.7212,1.8068-1.9303Z" style="fill: #b3c8cb; stroke-width: 0px;"/>
            <path d="m52.4014,14.2867q-1.7108.6261-3.4216,1.2522l1.6572.7456c.3884-.1653,3.6996-1.0471,3.6294-1.2127l-1.8649-.785Z" style="fill: #b3c8cb; stroke-width: 0px;"/>
            <path d="m33.2136,16.2151l-3.2775,1.1904,1.6063.8102c4.503-1.4251,4.2646-.8224,1.6712-2.0006Z" style="fill: #b3c8cb; stroke-width: 0px;"/>
            <path d="m57.6034,22.7187l-3.4216,1.2522c2.0886,1.0637,1.7589.6171,5.2357-.4025l-1.814-.8497Z" style="fill: #b3c8cb; stroke-width: 0px;"/>
            <path d="m49.8794,22.9459c-.4833-.0292-2.9824,1.0495-3.7523,1.3083,1.9181.9463,1.3915.7426,5.3884-.5964l-1.636-.7118Z" style="fill: #b3c8cb; stroke-width: 0px;"/>
            <path d="m43.9329,10.851l-3.4725,1.3168,1.759.6163c.4026-.1814,3.5288-.9565,3.4852-1.151l-1.7717-.7822Z" style="fill: #b3c8cb; stroke-width: 0px;"/>
            <path d="m30.5264,15.1402l-3.3198,1.1229,1.8437.7513c4.1878-1.3454,3.9288-.6999,1.4761-1.8742Z" style="fill: #b3c8cb; stroke-width: 0px;"/>
            <path d="m25.2327,12.4635l1.636.7118c.4055-.1307,3.5963-1.0032,3.6463-1.1129-.6034-.2876-1.2607-.5429-1.8861-.8188-1.0367.385-2.4269.7691-3.3962,1.2199Z" style="fill: #b3c8cb; stroke-width: 0px;"/>
            <path d="m13.2248,8.1254l-2.7135.7774-.1018.1293,2.2294.9285,2.7856-.8083-2.1997-1.0269Z" style="fill: #b3c8cb; stroke-width: 0px;"/>
            <path d="m26.1989,13.4196c-.526-.1285-1.0643-.5118-1.5004-.6415-.1796-.0534-.3608-.1012-.4535-.2124-1.0316.3254-2.0616.6846-3.0824,1.064,1.9453,1.2484,1.9794.7281,5.0363-.2101Z" style="fill: #b3c8cb; stroke-width: 0px;"/>
            <path d="m49.0926,19.2155l-3.4725,1.3168,1.5216.6753c.3768-.152,3.6295-1.0786,3.6294-1.2127l-1.6784-.7793Z" style="fill: #b3c8cb; stroke-width: 0px;"/>
            <path d="m63.2011,18.5217l-3.286,1.3225,1.759.6163c3.9829-1.439,4.0704-.7732,1.527-1.9388Z" style="fill: #b3c8cb; stroke-width: 0px;"/>
            <path d="m49.9431,13.285l-3.5149,1.2493c.1689.1179,1.4099.6747,1.5216.6753.1667.0009,3.6537-1.1047,3.6294-1.2127l-1.636-.7118Z" style="fill: #b3c8cb; stroke-width: 0px;"/>
            <path d="m60.5139,17.4468l-3.3284,1.255,1.6149.6781,3.2901-1.0246.1951-.1264-1.7717-.7822Z" style="fill: #b3c8cb; stroke-width: 0px;"/>
            <path d="m46.4053,18.1406l-3.286,1.3225c-.0227.0693,1.2848.6161,1.4792.6078.1715-.0073,4.0017-1.1712,3.5361-1.2156l-1.7293-.7147Z" style="fill: #b3c8cb; stroke-width: 0px;"/>
            <path d="m56.4436,18.9769l-.2798-.0086q-1.5455.598-3.091,1.1961l1.6149.6781c.3372-.1488,3.5037-1.0271,3.4852-1.151l-1.7293-.7147Z" style="fill: #b3c8cb; stroke-width: 0px;"/>
            <path d="m44.3414,16.82l1.8268.6515,3.3877-1.0878-1.9116-.7865c-.1812.005-2.8468,1.0593-3.3029,1.2227Z" style="fill: #b3c8cb; stroke-width: 0px;"/>
            <path d="m45.2481,17.9729c.4001-.2599-1.3253-.5087-1.5766-.9086-.3085.1153-3.4517,1.1898-3.4471,1.2845l1.5937.6444c1.1317-.3791,2.2999-.6663,3.43-1.0203Z" style="fill: #b3c8cb; stroke-width: 0px;"/>
            <path d="m59.2664,20.1222q-1.6387.5952-3.2775,1.1904l1.4707.7399c.324-.1415,3.5397-1.041,3.4428-1.2184l-1.636-.7118Z" style="fill: #b3c8cb; stroke-width: 0px;"/>
            <path d="m55.2242,15.4319l-3.2351,1.2579c1.8901,1.0088,1.8098.4799,4.8626-.4139l.1018-.1293-1.7293-.7147Z" style="fill: #b3c8cb; stroke-width: 0px;"/>
            <path d="m41.1439,9.9054l-3.4216,1.2522,1.6658.6135c4.3209-1.4071,4.0476-.7481,1.7559-1.8657Z" style="fill: #b3c8cb; stroke-width: 0px;"/>
            <path d="m60.4772,23.7993l-3.286,1.3225c1.7851.9655,1.7252.5115,4.9856-.5094.0805-.1226-1.5389-.6478-1.6996-.8131Z" style="fill: #b3c8cb; stroke-width: 0px;"/>
            <path d="m50.8826,16.8214c-.2618-.0185-3.3665,1.0928-3.3707,1.1875,2.1254.9997,1.7493.4764,4.9982-.3436l.1018-.1293-1.7293-.7147Z" style="fill: #b3c8cb; stroke-width: 0px;"/>
            <path d="m39.4471,12.3023c-.4723.1519-3.2543,1.1736-3.286,1.3225,1.7924.9903,1.5586.3964,4.9135-.4786l.1018-.1293-1.7293-.7147Z" style="fill: #b3c8cb; stroke-width: 0px;"/>
            <path d="m61.8603,21.1942l-3.3793,1.3197,1.5725.6106,3.4343-1.0863-1.6275-.844Z" style="fill: #b3c8cb; stroke-width: 0px;"/>
            <path d="m28.8453,1.3888l-3.5064,1.1172c1.7273,1.1208,1.8233.4704,4.905-.3464l.1951-.1264-1.5937-.6444Z" style="fill: #b3c8cb; stroke-width: 0px;"/>
            <path d="m57.8691,16.4393l-.2798-.0086-3.091,1.1961c1.7627,1.0328,1.6573.5812,4.9347-.4448l-.0635-.1012-1.5004-.6415Z" style="fill: #b3c8cb; stroke-width: 0px;"/>
            <path d="m30.7411,8.9255l-3.4131,1.1201c1.6215,1.1539,2.0797.4013,4.9982-.3436l-1.5851-.7765Z" style="fill: #b3c8cb; stroke-width: 0px;"/>
            <path d="m33.3945,9.8009l-3.5149,1.2493c.2827.1155,1.3737.6186,1.5725.6106.1497-.006,3.0844-.8921,3.2392-.9599.7353-.3221-1.2383-.6719-1.2968-.9Z" style="fill: #b3c8cb; stroke-width: 0px;"/>
            <path d="m23.2122,9.0263c-.5057-.0406-2.6322.832-3.3198,1.1229,1.8545,1.0172,1.8567.4618,4.905-.3464l-1.5851-.7765Z" style="fill: #b3c8cb; stroke-width: 0px;"/>
            <path d="m32.811,6.54l-3.5149,1.2493c1.9566.9252,1.6235.4905,4.8626-.4139l.1951-.1264-1.5428-.709Z" style="fill: #b3c8cb; stroke-width: 0px;"/>
            <path d="m53.6631,17.8992l-3.3284,1.255c1.7431,1.0399,1.9029.3852,4.8626-.4139l.1018-.1293-1.636-.7118Z" style="fill: #b3c8cb; stroke-width: 0px;"/>
            <path d="m28.3761,7.9267l-3.4216,1.2522,1.5725.6106,3.2901-1.0246.1951-.1264-1.636-.7118Z" style="fill: #b3c8cb; stroke-width: 0px;"/>
            <path d="m22.1285,5.5516c-.5652-.0536-2.8726.9338-3.6505,1.179,1.6634.969,1.6664.4954,4.8923-.5123.1823-.2163-1.1462-.4633-1.2418-.6667Z" style="fill: #b3c8cb; stroke-width: 0px;"/>
            <path d="m28.0214,4.739l-3.464,1.1847c1.7208,1.0371,1.8391.3219,4.7694-.4168l.1951-.1264-1.5004-.6415Z" style="fill: #b3c8cb; stroke-width: 0px;"/>
            <path d="m30.395,5.6058l-3.464,1.1847c1.3426.9943,1.9298.4051,4.9644-.5432l-1.5004-.6415Z" style="fill: #b3c8cb; stroke-width: 0px;"/>
            <path d="m32.4343,5.1386c-.1284.2483.7441.3905,1.1697.6976,3.2264-1.2653,5.0493-.8889,2.0314-1.791-.6311.2305-2.9677.9719-3.2011,1.0935Z" style="fill: #b3c8cb; stroke-width: 0px;"/>
            <path d="m21.4221,11.4204l-2.9892,1.0668,1.5216.6753c4.163-1.2837,3.7297-.5831,1.4676-1.7421Z" style="fill: #b3c8cb; stroke-width: 0px;"/>
            <path d="m35.2693,7.5417c-.4091-.0285-3.5334,1.0776-3.5573,1.1818,1.8247.9834,1.9014.2044,4.8203-.4814l.1018-.1293c-.3461-.083-1.202-.5598-1.3648-.5712Z" style="fill: #b3c8cb; stroke-width: 0px;"/>
            <path d="m37.5496,8.4056l-3.3198,1.1229c1.7331,1.0527,1.8601.3052,4.7185-.3521l.1018-.1293-1.5004-.6415Z" style="fill: #b3c8cb; stroke-width: 0px;"/>
            <path d="m16.4122,9.4141l-2.8874.9376,1.6572.7456c3.5593-1.1754,3.4113-.6349,1.2301-1.6832Z" style="fill: #b3c8cb; stroke-width: 0px;"/>
            <path d="m64.4034,22.3309l-3.1333,1.1286,1.4792.6078c3.9127-1.3281,3.7493-.7053,1.6541-1.7364Z" style="fill: #b3c8cb; stroke-width: 0px;"/>
            <path d="m33.5416,3.187c-.5185-.0369-2.6896.888-3.4131,1.1201,1.5285,1.0295,1.7417.3355,4.6761-.4196.2797-.1919-1.1744-.5478-1.263-.7004Z" style="fill: #b3c8cb; stroke-width: 0px;"/>
            <path d="m20.474,8.016l-3.2266,1.1258c1.722.9644,1.7186.4116,4.6252-.355l-1.3986-.7708Z" style="fill: #b3c8cb; stroke-width: 0px;"/>
            <path d="m45.6586,10.1757c.0441.0285.9437.2525,1.0935.4305,3.9214-1.1062,4.3611-.9826,1.7431-1.6675l-2.9892,1.0668c-.0118.0125.1266.1534.1525.1701Z" style="fill: #b3c8cb; stroke-width: 0px;"/>
            <path d="m27.9669,3.4137l1.1274.6301c.3529-.1363,3.5315-1.0257,3.5318-1.1495-.3538-.0881-1.2932-.5917-1.5513-.5769-.1468.0084-2.9518,1.0255-3.1079,1.0963Z" style="fill: #b3c8cb; stroke-width: 0px;"/>
            <path d="m26.2314,7.1331c-.3711-.008-2.9133,1.0161-3.5573,1.1818-.0599.0694,1.0445.546,1.2503.5346.1695-.0094,3.5937-1.109,3.5361-1.2156-.3519-.027-1.0836-.4977-1.2292-.5009Z" style="fill: #b3c8cb; stroke-width: 0px;"/>
            <path d="m26.1056,4.0186c-.1833-.0015-3.4076,1.1441-3.4216,1.2522,1.3889.8827,1.9379.097,4.6423-.6192.09-.0666-1.1252-.6322-1.2206-.633Z" style="fill: #b3c8cb; stroke-width: 0px;"/>
            <path d="m24.2732,6.3452q-1.732.5923-3.464,1.1847c-.0404.0615,1.0133.5529,1.2503.5346.1517-.0117,3.0473-.9553,3.1969-1.0274.5801-.2796-.9622-.4862-.9832-.6919Z" style="fill: #b3c8cb; stroke-width: 0px;"/>
            <path d="m19.0994,10.489c-.1436-.0001-2.7557.904-3.1757,1.0611.3797.105,1.0466.5576,1.4369.5403.1479-.0065,3.1755-.8962,3.1036-1.0303-.3208-.0129-1.2665-.5711-1.3648-.5712Z" style="fill: #b3c8cb; stroke-width: 0px;"/>
            <path d="m45.4573,14.7363c-.3091-.0133-3.2834,1.0132-3.3198,1.1229.153.0753.9804.5308,1.0638.5289.1546-.0035,2.8923-1.0142,3.3834-1.0217l.1018-.1293c-.3625-.0295-1.0684-.4939-1.2292-.5009Z" style="fill: #b3c8cb; stroke-width: 0px;"/>
            <path d="m65.9393,19.5319c-.1926.0016-3.0741,1.0998-3.5658,1.314.827.8138,1.9904-.0909,4.494-.8554.0378-.0578-.8556-.4592-.9282-.4586Z" style="fill: #b3c8cb; stroke-width: 0px;"/>
            <path d="m67.3973,20.106c-.1789-.0014-3.2183,1.0641-3.2775,1.1904-.0145.031.3142.3259.5637.3151.1656-.0072,2.7411-.9132,3.2901-1.0246.3169-.1569-.5146-.4804-.5763-.4809Z" style="fill: #b3c8cb; stroke-width: 0px;"/>
            <path d="m44.3414,16.82c-.2195.0786-.4526.163-.6699.2443.2513.3999,1.9767.6487,1.5766.9086,1.4495-.454,2.8762-1.0754,4.3459-1.4556l-.0381-.1335-3.3877,1.0878-1.8268-.6515Z" style="fill: #090808; stroke-width: 0px;"/>
            <g>
              <path d="m68.3411,23.5764q1.1825.4994,2.3651.9989c1.3839-.4476,2.7869-.8474,4.172-1.2954.1182-.1382-2.6215-1.2059-2.844-1.179-1.2256.5267-2.4778.9206-3.6931,1.4755Z" style="fill: #b3c8cb; stroke-width: 0px;"/>
              <path d="m68.3411,23.5764c-.0439.0201-.5469-.0774-.4919.3821.6714.2511,2.2799.8041,1.992.9875.6775-.2096.8201-.3562.865-.3707q-1.1825-.4994-2.3651-.9989Z" style="fill: #090808; stroke-width: 0px;"/>
            </g>
            <g>
              <path d="m58.8319,15.2775l2.0938.8582,3.43-1.0203c.1666-.1014-2.2197-.9563-2.4583-1.0017-.7919.3385-2.4454.855-3.0655,1.1638Z" style="fill: #b3c8cb; stroke-width: 0px;"/>
              <path d="m60.9257,16.1357l-2.0938-.8582c-.1834.0913-.5937.2129-.5386.3806.0236.0719,1.6732.7503,1.7717.7822.4395.1424.6804.2612.8607-.3046Z" style="fill: #170805; stroke-width: 0px;"/>
            </g>
            <g>
              <path d="m61.9684,16.6308c.3202.095,1.9972.7231,2.0515.7907l3.4597-1.1186c-.4747-.148-1.9869-.9386-2.3948-.9005-1.0079.4276-2.1578.7139-3.1164,1.2284Z" style="fill: #b3c8cb; stroke-width: 0px;"/>
              <path d="m61.9684,16.6308c-.0186.01-.0807-.066-.407.153.8554.6485,3.1783,1.5347,2.4585.6377-.0543-.0676-1.7313-.6957-2.0515-.7907Z" style="fill: #170805; stroke-width: 0px;"/>
            </g>
            <g>
              <path d="m49.6258,11.6869l2.1871.8611,3.3156-1.0569c-.4994-.1601-1.9984-.9496-2.488-.9034-.8393.3288-2.2986.709-3.0146,1.0992Z" style="fill: #b3c8cb; stroke-width: 0px;"/>
              <path d="m51.8129,12.5479l-2.1871-.8611c-.1213.0661-.2328.0737-.4579.2176.9982.4925,2.6474,1.5077,2.645.6434Z" style="fill: #170805; stroke-width: 0px;"/>
            </g>
            <path d="m61.2847,28.6554l-.0085.1321c1.4621-.4928,2.9292-.9687,4.3925-1.4541.8596-.2852,1.72-.5613,2.5779-.8478l.0594-.1967c-2.3256.7783-4.6962,1.6237-7.0213,2.3665Z" style="fill: #362835; stroke-width: 0px;"/>
            <path d="m71.2053,17.575c-.0977,0-.1677-.0276-.2586.0252l-.9459,1.2617,2.226-.8254c-.176-.0518-.9456-.4614-1.0215-.4614Z" style="fill: #737583; stroke-width: 0px;"/>
            <g>
              <path d="m74.6331,21.6508l1.9582.7879,3.553-1.1158q-.9388-.4754-1.8776-.9509l-.2289-.0732c-1.0559.4538-2.4102.8496-3.4047,1.352Z" style="fill: #b3c8cb; stroke-width: 0px;"/>
              <path d="m76.5912,22.4387l-1.9582-.7879c-.1377.0696-.5586.0342-.3944.3189.0528.0915,2.6692,1.329,2.3526.469Z" style="fill: #170805; stroke-width: 0px;"/>
            </g>
            <g>
              <path d="m65.0201,17.8492l1.9158.7204,3.4597-1.1186c-.2962-.1645-1.9148-.8475-2.1659-.8273-.9086.3875-2.4177.8304-3.2097,1.2256Z" style="fill: #b3c8cb; stroke-width: 0px;"/>
              <path d="m66.9359,18.5696l-1.9158-.7204c-.0191.0095-.2788.0768-.407.153,1.0852.6248,2.2302,1.5943,2.3229.5674Z" style="fill: #170805; stroke-width: 0px;"/>
            </g>
            <g>
              <path d="m69.2163,19.4335q.9579.3602,1.9158.7204l3.4597-1.1186c.0946-.1022-1.8128-.8655-2.1659-.8273-.9205.3913-2.3952.8229-3.2097,1.2256Z" style="fill: #b3c8cb; stroke-width: 0px;"/>
              <path d="m69.2163,19.4335c-.0888.0439-.4978.1173-.4368.2514,1.1779.4071,2.2333,1.3187,2.3526.469q-.9579-.3602-1.9158-.7204Z" style="fill: #170805; stroke-width: 0px;"/>
            </g>
            <path d="m25.2327,12.4635c-.1907.0887-.2525.0868-.5343.3146.4362.1297.9744.513,1.5004.6415.6211-.1906.6318-.232.6699-.2443l-1.636-.7118Z" style="fill: #090808; stroke-width: 0px;"/>
            <g>
              <path d="m63.211,24.8756c.6433.1308,1.0547.4415,1.5937.6444.4525.1703.9191.3326,1.3691.5051,1.2083-.4159,2.4611-.7059,3.6674-1.0792.2879-.1834-1.3206-.7363-1.992-.9875-.4357-.163-.817-.3832-1.2249-.5669q-1.7363.6584-3.4725,1.3168c-.1458.1321.1416.0717.0593.1673Z" style="fill: #b3c8cb; stroke-width: 0px;"/>
              <path d="m64.6773,26.0455c-.3738-.1914-1.4769-.6816-1.8649-.785-.1427-.038-.2032-.1851-.5044-.1478-3.9111,1.5052-2.8192.6889-.1366,2.1137l2.9806-.9347c-.0616-.145-.3138-.1637-.4747-.2462Z" style="fill: #b3c8cb; stroke-width: 0px;"/>
              <path d="m63.211,24.8756c-.1619.188-.3569.1402-.3987.3849.3881.1034,1.4911.5936,1.8649.785.1435-.2746-.6475-.1695.1274-.5256-.539-.2028-.9503-.5135-1.5937-.6444Z" style="fill: #0d1d24; stroke-width: 0px;"/>
            </g>
            <g>
              <path d="m71.9967,20.5113l1.4495.7061,3.6251-1.1467c.1968-.1354-1.5278-.7474-1.7717-.7822-.7676.3175-2.8798,1.0281-3.3029,1.2227Z" style="fill: #b3c8cb; stroke-width: 0px;"/>
              <path d="m73.4463,21.2174l-1.4495-.7061c-.1254.0577-.5289.2673-.5597.3469-.0423.1094,2.1901,1.3149,2.0093.3592Z" style="fill: #170805; stroke-width: 0px;"/>
            </g>
            <path d="m39.7282,9.3988l-1.073,1.0592.0635.1012,2.0309-.699-1.0215-.4614Z" style="fill: #656372; stroke-width: 0px;"/>
            <g>
              <path d="m37.0288,7.066l1.3648.5712c.5268-.2958,3.5543-1.0221,3.6039-1.1804-.5492-.2365-1.1413-.452-1.7081-.681-.8876.3658-2.2319.7361-3.0612,1.0977-.3551.1548-.1217.1527-.1993.1925Z" style="fill: #b3c8cb; stroke-width: 0px;"/>
              <path d="m37.0288,7.066c-.0207.0106-.2193-.0521-.4494.0855,1.6284,1.4703,1.6627.5707,1.8142.4856l-1.3648-.5712Z" style="fill: #170805; stroke-width: 0px;"/>
            </g>
            <g>
              <path d="m55.5937,14.0534c.2127.2052,1.4885.6308,1.5428.709l3.43-1.0203.2162-.0927c-.421-.1343-1.6409-.7844-2.0303-.757-.6957.2756-2.7998.9685-3.1588,1.1609Z" style="fill: #b3c8cb; stroke-width: 0px;"/>
              <path d="m57.1364,14.7623c-.0542-.0782-1.3301-.5038-1.5428-.709-.0249.0133-.4371.0957-.3944.3189.0178.0928,2.5595,1.2873,1.9372.3901Z" style="fill: #170805; stroke-width: 0px;"/>
            </g>
            <g>
              <path d="m52.6267,12.9699l1.9158.7204q1.7299-.5593,3.4597-1.1186l-1.8861-.8188c-.2662-.0187-3.1489,1.022-3.4895,1.217Z" style="fill: #b3c8cb; stroke-width: 0px;"/>
              <path d="m52.6267,12.9699c-.1526.0874-.3814.0833-.3435.2542,1.1876.3274,1.9112,1.3014,2.2593.4662l-1.9158-.7204Z" style="fill: #170805; stroke-width: 0px;"/>
            </g>
            <g>
              <path d="m42.9713,9.1008c-.1045.3264,1.331.537,1.3986.7708,3.9645-1.4865,4.4495-.944,1.7093-1.8671-.8125.3035-2.4666.8154-3.1079,1.0963Z" style="fill: #b3c8cb; stroke-width: 0px;"/>
              <path d="m44.37,9.8716c-.0676-.2338-1.5032-.4444-1.3986-.7708-.2042.0895-.3864.2029-.6021.2794.633.3808,2.2128,1.2252,2.0007.4914Z" style="fill: #170805; stroke-width: 0px;"/>
            </g>
            <g>
              <path d="m34.6637,6.0672c.4356.158.9499.5763,1.509.5094.2618-.0313,2.7582-.8812,3.4088-1.054l-1.4792-.6078c-.3852-.0274-2.9546.9046-3.4386,1.1524Z" style="fill: #b3c8cb; stroke-width: 0px;"/>
              <path d="m36.1727,6.5766c-.5591.0668-1.0733-.3514-1.509-.5094-.1469.0752-.2386.1234-.407.153l.0635.1012c1.1065.4281,1.4402,1.1132,1.8524.2552Z" style="fill: #170805; stroke-width: 0px;"/>
            </g>
            <g>
              <path d="m39.5889,7.9385c.4267.0442.956.524,1.3224.5037.1621-.009,2.9918-.9614,3.4597-1.1186-.2344-.0714-1.2868-.6018-1.386-.6049-.3161-.0099-3.0512.9785-3.3962,1.2199Z" style="fill: #b3c8cb; stroke-width: 0px;"/>
              <path d="m39.5889,7.9385c-.1022.0715-.1302.1852-.3435.2542.7641.2322,1.4763,1.2242,1.6659.2495-.3664.0203-.8957-.4595-1.3224-.5037Z" style="fill: #170805; stroke-width: 0px;"/>
            </g>
            <path d="m33.604,5.8362c-.4257-.307-1.2981-.4493-1.1697-.6976-.9291.4838.1527.6686.9195.9547.1415-.0454.2028-.2385.2502-.2571Z" style="fill: #170805; stroke-width: 0px;"/>
            <path d="m45.6586,10.1757c-.8987.2756,1.7848,1.2521,1.0935.4305-.1498-.1781-1.0494-.4021-1.0935-.4305Z" style="fill: #170805; stroke-width: 0px;"/>
            <path d="m29.0942,4.0438l-1.1274-.6301c-.0196.0089-.2446.0637-.407.153-.1019.1501,1.1427.7823,1.2842.7342.1569-.0679.2077-.2407.2502-.2571Z" style="fill: #170805; stroke-width: 0px;"/>
          </g>
        </g>
      </g>
    </g>
  </g>
</svg>