<?xml version="1.0" encoding="UTF-8"?>
<svg id="Layer_2" data-name="Layer 2" xmlns="http://www.w3.org/2000/svg" xmlns:xlink="http://www.w3.org/1999/xlink" viewBox="0 0 194.4994 237.0073">
  <defs>
    <linearGradient id="linear-gradient-bookshelf" x1="91.7767" y1="-106.2578" x2="45.4801" y2="-86.9927" gradientTransform="translate(-25.2669 132.7026) rotate(2.8386) scale(.9272 .6633) skewX(.1644)" gradientUnits="userSpaceOnUse">
      <stop offset="0" stop-color="#670f1d"/>
      <stop offset="1" stop-color="#843032"/>
    </linearGradient>
    <linearGradient id="linear-gradient-bookshelf-2" x1="156.0714" y1="27.0466" x2="69.7047" y2="83.862" gradientTransform="translate(-25.2669 132.7026) rotate(2.8386) scale(.9272 .6633) skewX(.1644)" gradientUnits="userSpaceOnUse">
      <stop offset="0" stop-color="#d8772c"/>
      <stop offset=".2995" stop-color="#65111e"/>
      <stop offset="1" stop-color="#943730"/>
    </linearGradient>
    <linearGradient id="linear-gradient-bookshelf-3" x1="117.5389" y1="57.9949" x2="117.0404" y2="72.9105" gradientTransform="translate(-39.1055 116.1707) rotate(2.8528) scale(1.1226 .976) skewX(.1869)" gradientUnits="userSpaceOnUse">
      <stop offset="0" stop-color="#0f3f8c"/>
      <stop offset="1" stop-color="#0b68be"/>
    </linearGradient>
    <linearGradient id="linear-gradient-bookshelf-4" x1="151.2371" y1="-15.4749" x2="148.4306" y2="-.3268" gradientTransform="translate(-25.2669 132.7026) rotate(2.8386) scale(.9272 .6633) skewX(.1644)" gradientUnits="userSpaceOnUse">
      <stop offset="0" stop-color="#019cbd"/>
      <stop offset="1" stop-color="#12bdd6"/>
    </linearGradient>
    <linearGradient id="linear-gradient-bookshelf-5" x1="104.9172" y1="34.6" x2="104.5018" y2="47.0276" gradientTransform="translate(-25.2669 132.7026) rotate(2.8386) scale(.9272 .6633) skewX(.1644)" xlink:href="#linear-gradient-bookshelf-3"/>
    <linearGradient id="linear-gradient-bookshelf-6" x1="104.4394" y1="-53.5981" x2="97.455" y2="-39.7614" gradientTransform="translate(-25.2669 132.7026) rotate(2.8386) scale(.9272 .6633) skewX(.1644)" gradientUnits="userSpaceOnUse">
      <stop offset="0" stop-color="#00475e"/>
      <stop offset="1" stop-color="#019db8"/>
    </linearGradient>
    <linearGradient id="linear-gradient-bookshelf-7" x1="120.8701" y1="-43.2872" x2="116.832" y2="-31.5936" gradientTransform="translate(-25.2669 132.7026) rotate(2.8386) scale(.9272 .6633) skewX(.1644)" gradientUnits="userSpaceOnUse">
      <stop offset="0" stop-color="#016d8e"/>
      <stop offset="1" stop-color="#02acc7"/>
    </linearGradient>
  </defs>
  <g id="main-book-shelf">
    <g>
      <path d="m194.2611,54.6935c-.8382-1.0508-11.3834-2.3654-12.4426-2.3796-6.6251,1.4212-37.6676,13.3669-41.2593,12.963-33.8386-12.8404-76.9843-27.4566-109.8628-40.9094,4.8305-.5959,8.5645-2.2492,12.7904-3.2814,12.4563-3.0426,25.2563-5.8245,37.4747-9.0763,33.0812,11.9888,65.1525,24.8068,98.3397,36.708,2.0147.7225,17.2742,4.2753,14.9597,5.9758Z" style="fill: #f3a247; stroke-width: 0px;"/>
      <path d="m165.5377,134.4982c1.9765,10.7331,4.8965,43.0821,5.6639,45.3391.872,2.5646,3.9746,1.4336,4.3027.9962.4211.8794,2.0938.6437,3.3458.7901.3926.9294,4.6095,2.5064,4.7089,2.6842.1972.3526-.1995,1.7362-.1193,2.6187.0914,1.0062-.1504,2.0253-.1382,3.0322.0213,1.7483-.2016,3.4913-.2387,5.2374-.1017,4.7862-.6683,9.5394-.6532,14.3338-16.6367,5.3037-33.3647,10.5435-50.924,14.9204.0678-.8173.5426-1.7229.5946-2.4467,5.4509-2.0877,48.6095-13.878,49.4982-15.4362.4921-.8629.6384-2.0394-1.1223-1.877-2.7524.2538-41.5173,12.9983-48.2503,14.5567.3098-4.657-1.1339-14.2255.3474-18.2271.6541-1.767,2.8294-1.6956,4.9412-2.4153.1376-.0469,1.6291.0878,2.9333-.7601-1.3079-1.8052,6.7245-3.6613,11.346-5.1418,2.1503-.6889,17.3353-4.6861,17.6314-5.2496-1.4933-4.8799-3.5101-9.7352-5.1319-14.6054-1.1483-3.4484-2.8733-6.9316-3.8756-10.3683-3.1386-10.7618-10.367-52.2043-10.6827-62.4254-.0222-.7184.0979-11.5741,1.4655-10.9578,8.4205,14.8363,11.5605,30.2156,14.3571,45.4019Z" style="fill: #854541; stroke-width: 0px;"/>
      <path d="m47.9813,21.3608c.0502.014-.3728.142.9506.3439.8387.9914,3.606,1.5642,3.7897,1.6512,1.3949.6607,2.7727,1.53,4.2461,2.2366,27.5477,13.2113,57.1301,24.9914,85.4901,37.5823,3.0176.3765,36.0783-11.6137,41.6613-13.0878.8907.0059,9.4809,3.5473,10.1777,4.5926.0386.3385-.47.2291-.4941.2415-2.7605,1.4196-40.1332,12.3464-47.5657,15.4349l-.4941.2415c-1.5167-.3139-2.9335-.8952-4.2838-1.4097,1.6696-2.9038-1.9427-2.0682-4.6398-4.2003,1.0515-.3636,1.5779-1.3001.3287-1.9125-31.431-13.5271-62.3944-27.5102-94.0389-40.8151,3.3089-.1979,1.7202-.9456-1.3882-1.3428.3543-.5372.4728-.598,1.0134-1.0344.0189-.0152.1632-.0488.4941-.2415,1.7095.0122,2.9315,1.2135,4.7528,1.7194Z" style="fill: #f3a247; stroke-width: 0px;"/>
      <path d="m193.8027,54.9212c.2287,8.6004-.1002,5.4437-9.6081,9.413-.4864,9.5059-.7956,19.0253-1.3,28.5298-.5839-.027-.7437.2692-.9882.4831.9457-8.9692-5.6839-18.1302-3.1094-27.183-.6902-.7514-2.3492.6674-3.4275,1.0016-6.8904,2.1355-13.6515,4.5031-20.5899,6.5609-2.8206.8365-5.6956,1.6473-8.5655,2.4351q.0115-2.9029.023-5.8057c7.4325-3.0884,44.8052-14.0153,47.5657-15.4349Z" style="fill: #854541; stroke-width: 0px;"/>
      <path d="m178.85,181.6236c-1.252-.1464-2.9247.0893-3.3458-.7901,1.8083-2.4114-2.5021-47.3676.0604-54.3359,2.3924-9.2657,2.7304-22.2675,5.2781-31.0134.2206-.7574-.2018-1.0305,1.0636-2.137.2446-.2139.4044-.5101.9882-.4831-1.5692,29.5698-2.5308,59.1855-4.0445,88.7595Z" style="fill: #975d56; stroke-width: 0px;"/>
      <path d="m28.1745,21.3402c-.0882.6346.0263,1.2992-.0879,1.9296-.4102,2.2631.3597,2.9148.3434,3.0663-3.0437,28.2415-3.7493,67.923-4.928,97.5462-.1326,3.3321.2602,23.8963-.6552,24.9805-.1761.2086-4.0767.7431-4.8721.8993l-.938-.6195c8.0694.6498-2.5618-3.8793-4.6272-4.4759.3007.0357.9436-.259.982-.3452,2.5091-5.6406,2.281-103.502,4.9321-118.8396-7.1622-2.661-4.0721-4.4332-4.4325-8.7485q7.1418,2.3035,14.2836,4.607Z" style="fill: #ee902c; stroke-width: 0px;"/>
      <path d="m119.6851,218.3599c.1786-4.2242.5187-8.4489.5778-12.6799.0429-3.0695.6871-6.729.4396-9.6478,3.6052,1.8267,7.3615,4.1889,11.8506,4.9877-1.4814,4.0016-.0376,13.5701-.3474,18.2271-.0616.9254-.0611,1.8577-.1256,2.7565-.052.7239-.5268,1.6294-.5946,2.4467-.1159,1.397-.5198,2.7105-.67,4.1006-.2824,2.6138-.4915,5.3498-.3643,7.9939l-.0126.2757c-.7641-.2195-1.1433.3173-1.698.1562-12.3945-6.0096-16.1208-4.1346-14.895-12.3934q-41.8447-17.3447-83.6894-34.6894l-2.8203-1.7208c1.0621-2.7051-2.6083-2.2183,1.6519-4.4459.1579.0663,1.9085.1132,3.5866.8072,10.494,4.3402,21.3497,8.3981,31.7874,12.7606,4.3156,1.8037,53.964,24.3903,55.7232,22.8908.3759-1.9531-.4038-1.7352-.3999-1.8258Z" style="fill: #dd7f25; stroke-width: 0px;"/>
      <g>
        <path d="m17.0366,149.1425l.938.6195c.0279.2739-.0934.5558-.0377.827.8559,4.1656-2.1142,23.8776-1.1619,25.4977.3779.6428,3.6494.7433,2.7952,2.2721-5.8311.2434-2.9025,7.9911-3.8608,10.5116-.1572-.0201-1.3175.4136-3.1427.0539-.985-.1941-12.3412-4.7599-12.5667-5.1767.4173-1.837-.0931-7.8982.3894-8.5452.3443-.4617,5.1864-1.0581,5.3725-1.2786,1.0567-1.2519.1348-25.9591,1.3126-28.8055,2.4285-.19,6.7046,2.7752,9.9621,4.0243Z" style="fill: #ee902c; stroke-width: 0px;"/>
        <path d="m12.4094,144.6666c2.0654.5966,12.6966,5.1257,4.6272,4.4759-3.2575-1.249-7.5335-4.2143-9.9621-4.0243.7419-1.793,3.0032-1.1252,5.3349-.4517Z" style="fill: #f9b555; stroke-width: 0px;"/>
      </g>
      <path d="m181.9063,93.3471c-1.2654,1.1064-.843,1.3795-1.0636,2.137-2.164-.2071-.9595,1.1011-2.0079,1.6553-1.5785,6.984-5.3229,13.6215-7.6965,20.4718-.9234,2.6648-4.0967,16.0395-4.6313,16.8174-.1414.2058-.651.0916-.9694.0696-2.7966-15.1863-5.9366-30.5656-14.3571-45.4019-1.3676-.6163-1.4877,10.2394-1.4655,10.9578.3157,10.2211,7.5441,51.6636,10.6827,62.4254,1.0023,3.4367,2.7273,6.9199,3.8756,10.3683q-5.8855,1.9336-11.771,3.8672c.1287-7.1102-.4092-34.1848-2.0752-39.2775-.0366-.1119-3.3444-.5475.0377-.827-1.4535-2.7361-.6706-19.6092-1.4783-20.5687-.1111-.1319-4.4762-1.1752-4.7905-.8925-.6196,3.2108.6617,8.8744-1.3965,9.4417.8685-18.0053,2.4949-35.9563,2.9434-53.9934l.4941-.2415q-.0115,2.9029-.023,5.8057c2.8699-.7879,5.7449-1.5986,8.5655-2.4351.9782,2.2153-.7949,9.7168,4.1101,10.5232,7.5771,1.2456,18.8132-13.0689,16.4798-17.0841,1.0783-.3342,2.7373-1.753,3.4275-1.0016-2.5745,9.0528,4.0551,18.2138,3.1094,27.183Z" style="fill: #7e312e; stroke-width: 0px;"/>
      <path d="m141.4591,69.1879c1.3503.5145,2.7672,1.0958,4.2838,1.4097-.4485,18.0371-2.075,35.9881-2.9434,53.9934-.9808,20.3328-.3806,50.2012-2.6586,68.9468-.2837,2.3348,1.049,3.9846-2.6465,5.0668-2.1118.7197-4.2871.6483-4.9412,2.4153-4.4892-.7988-8.2454-3.161-11.8506-4.9877-.2049-2.4171-2.3215-4.1881-1.3966-6.4594.4342-.1648,6.5587,4.498,7.504,4.9563.052.0252.6533-.4361,1.2165-.1904.0929.0405-.141.6456-.0314.6891,11.4046,4.5312,15.6066,1.3537,6.8612-2.141q.7401-10.9401,1.4801-21.8801c-1.2751-.1943-1.9243-.6753-2.8454-1.1695,1.4128-2.1882.3119-4.6087.314-6.8913.0028-3.0508.7992-6.0595.8961-9.0624.0052-.1612-.4601-.2679-.4313-1.1367.045-1.3571.1031-2.7852.1884-4.1348.0927-1.4679.0987-2.9433.201-4.4104.0384-.5501.0327-1.1042.0754-1.6539.0922-1.1892.0232-2.3997.1633-3.5835.2265-1.9134.0746-3.8708.2638-5.7887.5086-.0452,1.4502-.4649,1.4824-.7246.4678-3.781.7988-7.4652.9965-11.2676.2079-3.9979,3.541-9.4778-2.8308-12.0918.9345-.0702,1.16.5476,1.4384.2402.1032-1.2357.0483-2.4876.1696-3.7213.314-3.1953.252-6.4402.4396-9.6478.0644-1.1015.0896-2.2061.1507-3.3078.0153-.2754.0233-.5514.0377-.827.2078-3.9764.0605-7.9061.0585-11.8871-.0001-.2078.9094-1.3984.67-4.1006-.0691-.7799.1449-1.5625.1068-2.343-1.5742-.7879-3.1447-1.6286-4.7214-2.4086l.4669-4.9447c2.7142.9115,5.2117,2.0451,7.8327,3.0438Z" style="fill: #ee902c; stroke-width: 0px;"/>
      <path d="m180.8427,95.4841c-2.5478,8.7459-2.8857,21.7477-5.2781,31.0134-2.5624,6.9683,1.748,51.9246-.0604,54.3359-.328.4374-3.4307,1.5684-4.3027-.9962-.7674-2.257-3.6873-34.6061-5.6639-45.3391.3184.022.828.1362.9694-.0696.5345-.7779,3.7079-14.1526,4.6313-16.8174,2.3736-6.8504,6.1179-13.4878,7.6965-20.4718,1.0484-.5542-.1561-1.8624,2.0079-1.6553Z" style="fill: #62171f; stroke-width: 0px;"/>
      <path d="m164.2733,172.8477c1.6218,4.8703,3.6386,9.7255,5.1319,14.6054-.2961.5634-15.4811,4.5607-17.6314,5.2496.4374-1.8487-.3628-2.6521-.356-2.7906.2171-4.398,1.0043-8.766,1.0845-13.1971q5.8855-1.9336,11.771-3.8672Z" style="fill: #62171f; stroke-width: 0px;"/>
      <path d="m186.6557,211.7664c.686,1.2784.3794,7.2418.0796,8.8549-.345,1.8563.2245,3.813-4.5225,3.8277-2.6212.0081-6.0742-1.1592-8.1112-2.2339.4729-.3296,3.5291-.8226,3.44-1.2773-.0378-.193-5.2312-2.6085-5.2407-1.6157.1196-.0423-.307-.4974,1.7483-1.2588,1.7411-.645,11.5508-3.266,12.0181-3.988.5704-.8813.2945-2.8977-3.0359-2.2891-6.7162,1.2272-38.199,12.271-49.9358,14.4373-2.6979.8385-1.1901,2.0143-2.2801,2.3273.1502-1.3902.5541-2.7036.67-4.1006,17.5594-4.3769,34.2873-9.6167,50.924-14.9204l4.2461,2.2366Z" style="fill: #62171f; stroke-width: 0px;"/>
      <path d="m132.0802,222.0035c.0645-.8988.064-1.8311.1256-2.7565,6.7331-1.5585,45.498-14.303,48.2503-14.5567,1.7607-.1623,1.6144,1.0142,1.1223,1.877-.8887,1.5582-44.0473,13.3486-49.4982,15.4362Z" style="fill: #62171f; stroke-width: 0px;"/>
      <path d="m151.7737,192.7027c-4.6215,1.4805-12.6539,3.3366-11.346,5.1418-1.3043.8479-2.7957.7132-2.9333.7601,3.6955-1.0822,2.3627-2.732,2.6465-5.0668l11.2769-3.6257c-.0068.1385.7934.9419.356,2.7906Z" style="fill: #7e312e; stroke-width: 0px;"/>
      <path d="m136.8193,64.9877c2.697,2.132,6.3094,1.2965,4.6398,4.2003-2.621-.9987-5.1185-2.1323-7.8327-3.0438l-.4669,4.9447c-2.2003-1.0884-10.0384-3.9975-13.2828-5.3657-2.8692-1.21-5.6208-2.4494-8.53-3.6463-19.1254-8.7127-38.8556-16.9388-58.265-25.4215-2.5517-1.1152-19.3273-7.9296-19.4112-8.7035.627-.5265.914-1.1493,1.5263-1.6894.2046-.1805,4.6465-2.5676,5.9169-2.6228q47.8527,20.674,95.7055,41.348Z" style="fill: #f3a247; stroke-width: 0px;"/>
      <path d="m136.8193,64.9877q-47.8527-20.674-95.7055-41.348c1.1416-.7099.1234-1.989.6072-2.7224,3.1084.3971,4.6971,1.1449,1.3882,1.3428,31.6445,13.3049,62.6079,27.288,94.0389,40.8151,1.2492.6124.7228,1.5489-.3287,1.9125Z" style="fill: #f3a247; stroke-width: 0px;"/>
      <g>
        <path d="m81.5691,5.2122c.1187.6884-.0464,1.7356-.113,2.4809-5.0343.9542-36.7053,11.0618-38.2276,11.9483-.331.1927-.4753.2263-.4941.2415-4.8199.0947-10.6484,2.0462-14.6478,3.3869.1143-.6304-.0003-1.2949.0879-1.9296q26.4628-8.2189,52.9256-16.4378c.0224.016.538-.0215.469.3098Z" style="fill: #a64431; stroke-width: 0px;"/>
        <path d="m81.4561,7.693c-.0809.9045.0599,1.8682-.1256,2.7565-1.135-.1103-1.9235.4948-2.4581.932l-30.8911,9.9792c-1.8214-.5059-3.0433-1.7072-4.7528-1.7194,1.5223-.8866,33.1932-10.9941,38.2276-11.9483Z" style="fill: #c05a3a; stroke-width: 0px;"/>
        <path d="m81.3305,10.4495c-.1076.5153-2.0016,1.2649-.6763,4.2385-.2735.6173-10.8907,3.6253-12.753,4.2125-4.9864,1.5721-10.0575,3.0214-15.1796,4.4554-.1837-.087-2.9509-.6598-3.7897-1.6512.1069.0163-.1445-.4337,2.167.1535,9.8421-3.3243,21.1095-5.0263,27.7735-10.4767.5345-.4372,1.323-1.0423,2.4581-.932Z" style="fill: #7e312e; stroke-width: 0px;"/>
        <path d="m81.1001,4.9024q-26.4628,8.2189-52.9256,16.4378-7.1418-2.3035-14.2836-4.607C33.5811,11.9863,52.0371,6.0445,70.4534,0c3.1726,1.6937,7.905,2.9484,10.6467,4.9024Z" style="fill: #f3a247; stroke-width: 0px;"/>
        <path d="m42.7344,19.8829c-.5406.4363-.659.4972-1.0134,1.0344-.4838.7334.5344,2.0125-.6072,2.7224-1.2704.0552-5.7123,2.4422-5.9169,2.6228-1.8059-1.4261-4.515.025-6.767.0737.0163-.1515-.7536-.8032-.3434-3.0663,3.9994-1.3407,9.8279-3.2922,14.6478-3.3869Z" style="fill: #c05a3a; stroke-width: 0px;"/>
        <path d="m78.8724,11.3815c-6.664,5.4504-17.9314,7.1524-27.7735,10.4767-2.3115-.5872-2.0601-.1372-2.167-.1535-1.3233-.2019-.9003-.3299-.9506-.3439l30.8911-9.9792Z" style="fill: #854541; stroke-width: 0px;"/>
      </g>
      <path d="m154.7796,73.7267c6.9384-2.0578,13.6995-4.4255,20.5899-6.5609,2.3334,4.0152-8.9026,18.3298-16.4798,17.0841-4.905-.8063-3.1319-8.3079-4.1101-10.5232Z" style="fill: #62171f; stroke-width: 0px;"/>
      <path d="m35.1969,26.2624c-.6123.5401-.8994,1.1629-1.5263,1.6894.0839.7739,16.8595,7.5884,19.4112,8.7035-.6803,1.0097-.0377.7855-.0377.827-.0006,6.49-.8096,12.9464-.8855,19.4334-5.0358,2.3145-9.9919,5.8912-16.2684,7.1437-.4074,1.1863.4013,2.212.3497,2.9284-.3605,5.0012,1.4226,7.3606-5.161,7.2392l.0544-6.4948c-.6622-.047-.2734,6.9174-.5862,7.5633-.1158.2391-5.962,1.547,2.5418,2.5307.3138.5499,1.1014,1.3875,1.1411,1.4635.7745,1.4831-.3353,26.1105-.406,30.1142-.0764,4.3249-.4829,8.6323-.5903,12.9556-.9598.1928-5.3321,1.7329-9.7317,1.5229,1.1787-29.6232,1.8843-69.3047,4.928-97.5462,2.252-.0486,4.9611-1.4998,6.767-.0737Z" style="fill: url(#linear-gradient-bookshelf); stroke-width: 0px;"/>
      <path d="m41.9897,121.044c-4.9719.8912-9.4716,2.4558-14.4071,3.404-.3438.386,2.0303.8323,2.6109,1.0146,9.7818,4.4937,19.7941,8.8937,29.836,13.1754-14.0786,3.9288-27.4116,8.6783-42.0926,11.9511-.0557-.2711.0656-.5531.0377-.827.7955-.1561,4.6961-.6907,4.8721-.8993.9154-1.0842.5226-21.6484.6552-24.9805,4.3996.21,8.7719-1.3301,9.7317-1.5229,2.5905-.5204,6.596-1.644,8.756-1.3154Z" style="fill: #62171f; stroke-width: 0px;"/>
      <path d="m172.301,219.3222c-1.1754.4158-1.3985.6958-1.4824.7246-3.9147,1.344-29.5568,7.9534-30.3656,9.0486l-1.2332,5.8583c-2.8613.5182-5.5778,1.5013-8.7686,1.5911-.1273-2.6441.0819-5.3801.3643-7.9939,1.09-.313-.4179-1.4888,2.2801-2.3273,11.7368-2.1664,43.2196-13.2102,49.9358-14.4373,3.3305-.6085,3.6063,1.4078,3.0359,2.2891-.4672.722-10.277,3.343-12.0181,3.988-2.0553.7614-1.6286,1.2165-1.7483,1.2588Z" style="fill: #7e312e; stroke-width: 0px;"/>
      <path d="m133.491,169.8373c.9211.4941,1.5703.9752,2.8454,1.1695q-.7401,10.9401-1.4801,21.8801c-.9113-.3642.4973-1.9505-6.8298,1.4519-.5632-.2458-1.1645.2155-1.2165.1904-.9453-.4583-7.0698-5.1211-7.504-4.9563-.9249,2.2713,1.1916,4.0422,1.3966,6.4594.2474,2.9188-.3968,6.5783-.4396,9.6478l-.6889-11.387c-5.1307.6308-27.365,6.2762-32.1629,7.3172.0256-1.6613-23.064-10.1361-25-10-.1389-.834-1.5499-7.5037-1.5521-7.5608-.005-.1254.6511.0828.5946-2.4467.3608-.0328.6389.3395.7098.3268,1.4004-.2511,21.6267-6.9816,25.2526-8.1664.112-.0366,1.5208.0534,2.4392-.5185-.2393-3.0515.1651-4.7874,1.7901-7.478.0309-.0511.9837-.3477,1.0071-.8965-2.4118-1.089-16.371-7.7397-17.7634-7.7572-3.5071,1.3089-25.9428,7.5572-26.7099,8.3397-1.0506,1.0717.7942,2.3259,2.2696,3.2027-.0461.1985.0471.4664-.0251.5513-.6339.7456-2.206.5503.3936,1.9637-3.1272-.1665,1.1443,2.03.3497,2.9284-.613.693-4.5793-.6231-4.9726,3.1045-.0289.2734.0101.5564-.0377.827.0261.4401-.7894.1516-.9757.2074-.077-2.238.259-3.9381,4.5539-4.5168.28-1.0285-1.3466-1.7947-1.363-1.8941-.2049-1.2412,1.6483-3.328-.0649-3.8762-2.0985-.3229-24.3126,9.0924-27.7735,10.4767-.3125-.0064-.6673-.0806-.9631-.0682.8542-1.5287-2.4173-1.6292-2.7952-2.2721-.9523-1.6201,2.0177-21.3321,1.1619-25.4977,14.681-3.2728,28.0141-8.0222,42.0926-11.9511,14.0366,5.9849,65.8446,27.1132,73.4614,31.1993Z" style="fill: url(#linear-gradient-bookshelf-2); stroke-width: 0px;"/>
      <g>
        <path d="m123.0713,193.9215c-9.0309.6314-16.2239,6.4976-26.9141,5.499-10.6901-.9985-31.6741-7.6201-41.8486-15.1632,16.2353-4.1457,19.212-6.3621,33.0861-11.6022,13.5286,2.6091,25.7876,12.399,36.8942,19.9919-.1608.7376-.9699.769-1.2177,1.2745Z" style="fill: url(#linear-gradient-bookshelf-3); stroke-width: 0px;"/>
        <path d="m97.0595,199.7568c-3.5128.6237-6.6737.4268-10.0094,2.2615-7.1543-1.9194-23.416-8.4522-27.7456-11.1714-5.6309-3.5363-4.9392-3.4827-5.3746-6.904,12.8113,8.8827,28.2662,12.733,43.1296,15.8138Z" style="fill: #1480d7; stroke-width: 0px;"/>
      </g>
      <path d="m31.9527,182.278c2.8354.9211,12.1865,4.4704,15.678,5.8119,9.3857,3.6062,22.0583,9.2513,31.7622,13.3119,2.3702.9918,4.7455,1.9953,7.1104,2.9926,10.2713,4.3317,20.3055,8.8295,30.8117,12.968.8023.316,1.4564.7693,2.3701.9975-.0038.0907.7758-.1273.3999,1.8258-1.7592,1.4994-51.4076-21.0871-55.7232-22.8908-10.4376-4.3625-21.2934-8.4204-31.7874-12.7606-1.6781-.694-3.4287-.7409-3.5866-.8072-10.9279-4.5864-6.6629-4.5769,2.9647-1.4492Z" style="fill: #f3a247; stroke-width: 0px;"/>
      <path d="m48.3718,171.8265c-8.7121,2.1902-22.0933,10.1794-27.8384,6.6005,3.4609-1.3843,25.675-10.7996,27.7735-10.4767,1.7133.5482-.14,2.6349.0649,3.8762Z" style="fill: #62171f; stroke-width: 0px;"/>
      <path d="m152.5023,176.715c-.0802,4.4311-.8674,8.7992-1.0845,13.1971l-11.2769,3.6257c2.278-18.7455,1.6778-48.614,2.6586-68.9468,2.0581-.5673.7768-6.231,1.3965-9.4417.3143-.2827,4.6794.7605,4.7905.8925.8077.9595.0248,17.8327,1.4783,20.5687-3.382.2794-.0743.7151-.0377.827,1.6659,5.0927,2.2039,32.1673,2.0752,39.2775Z" style="fill: #854541; stroke-width: 0px;"/>
      <path d="m119.7599,121.2995c-3.5208.9206,11.6541,7.4249,14.8552,7.966-.9836,1.8742.0622.8955,1.6855.1194.3469,1.083-1.5752,2.1484.3434,3.0663-.0321.2597-.9738.6794-1.4824.7246q-8.1688-3.6207-16.3376-7.2414c-2.1943.5891-4.3764,1.1888-6.6016,1.7446-1.5447-.7827,4.9492-1.7789,6.3922-2.4508-5.9467-4.6737-3.858-4.4826-4.1331-4.7175-1.0799-.922-5.9091-1.8933-4.6712-3.5112,3.8198,1.2264,6.5471,2.8045,9.9495,4.2999Z" style="fill: #823620; stroke-width: 0px;"/>
      <path d="m133.1595,71.0888c1.5767.7799,3.1473,1.6207,4.7214,2.4086.0382.7806-.1758,1.5632-.1068,2.343-6.4421-1.7925-11.8859-4.5413-17.554-7.051-1.1257-.4984-1.552-.8133-1.8886-.9634.6406-.6655-.7307-1.3296,1.5452-2.1029,3.2444,1.3682,11.0825,4.2773,13.2828,5.3657Z" style="fill: #93401b; stroke-width: 0px;"/>
      <path d="m133.805,162.946c-3.3224-1.8161-6.842-3.7832-10.3808-5.4366q5.6385-1.8129,11.2769-3.6257c-.0969,3.0029-.8933,6.0115-.8961,9.0624Z" style="fill: #f9b555; stroke-width: 0px;"/>
      <path d="m134.8563,192.8869c8.7454,3.4947,4.5434,6.6722-6.8612,2.141-.1096-.0435.1243-.6486.0314-.6891,7.3271-3.4024,5.9185-1.8161,6.8298-1.4519Z" style="fill: #dd7f25; stroke-width: 0px;"/>
      <g>
        <path d="m134.6591,144.2018c-.1023,1.4671-.1082,2.9425-.201,4.4104q-9.5412,2.6425-19.0824,5.285c-3.4632-1.6271-3.5802-1.8363-3.7771-1.9268,5.6331-2.9449,15.7961-6.0641,23.0605-7.7686Z" style="fill: #891d13; stroke-width: 0px;"/>
        <path d="m134.2697,152.7469c-4.5378.9267-8.6139,2.3942-11.7961,4.4185-2.3384-1.0995-4.7443-2.1625-7.0978-3.2683q9.5412-2.6425,19.0824-5.285c-.0853,1.3496-.1434,2.7777-.1884,4.1348Z" style="fill: #dc5832; stroke-width: 0px;"/>
        <path d="m134.2697,152.7469c-.0288.8688.4365.9755.4313,1.1367q-5.6385,1.8129-11.2769,3.6257c-.0438-.0205-.2048.0068-.9506-.3439,3.1822-2.0244,7.2584-3.4918,11.7961-4.4185Z" style="fill: #93401b; stroke-width: 0px;"/>
      </g>
      <path d="m174.1017,222.2152c-1.3289-.7011-1.9707-1.4933-3.283-2.1684.0839-.0288.3069-.3088,1.4824-.7246.0094-.9928,5.2029,1.4227,5.2407,1.6157.089.4547-2.9671.9477-3.44,1.2773Z" style="fill: #360906; stroke-width: 0px;"/>
      <path d="m111.3468,62.0768c-7.4147-3.0505-15.1611-5.7952-22.0409-9.3047-.941.0045-.2764,1.3953.1591,1.8088.9531.9048,25.1823,11.601,28.8666,13.245.3365.1502.7629.465,1.8886.9634l-1.9388.1392c.2075-.6269-.4277-.5577-.4564-.5854-1.0901-1.051-29.6955-12.8431-33.3598-15.3608-1.5685-.2312-18.2316,5.9659-20.8432,6.8195-1.5441.5047-12.6314,3.2367-12.7279,3.6612.7886.3404,1.2323,1.0033,1.8697,1.3769-.0221.3671-.0251.7358-.0502,1.1026-.0738,1.0787.0022,2.1187-.626,3.1359.029.1253.7748.6197.9317.7574l-.5067.5172-.4816-.0341c-1.426-.1518-3.1652.8269-4.3969,1.0712-2.0585.4083-15.0634,3.1468-15.6235,3.5943-.8737.6982-.8212,1.1971.1529,1.9466.9954.7659,23.1492,9.7553,26.7812,11.2997-1.0451.1847-2.9151-1.0764-3.3521-.6523-1.8154,1.7621,3.517,12.3597-5.6279,12.1839l.9002-14.4546c-4.5149-1.703-16.1574-7.5351-16.6349-6.018-.0397-.0761-.8273-.9136-1.1411-1.4635-8.5038-.9837-2.6576-2.2916-2.5418-2.5307.3128-.6459-.0761-7.6103.5862-7.5633l-.0544,6.4948c6.5836.1214,4.8005-2.238,5.161-7.2392,3.7307-2.5661,37.2647-16.7626,37.5471-18.2187.1339-.6907-4.5102-3.8143-4.8994-3.8039l-11.503,8.5874c-.851-4.9789,4.6536-15.2945-4.3404-16.0703,0-.0415-.6426.1828.0377-.827,19.4094,8.4828,39.1396,16.7088,58.265,25.4215Z" style="fill: #62171f; stroke-width: 0px;"/>
      <path d="m111.3468,62.0768c2.9092,1.1969,5.6607,2.4363,8.53,3.6463-2.2759.7733-.9045,1.4374-1.5452,2.1029-3.6843-1.644-27.9135-12.3402-28.8666-13.245-.4356-.4135-1.1002-1.8042-.1591-1.8088,6.8799,3.5095,14.6262,6.2542,22.0409,9.3047Z" style="fill: #7e312e; stroke-width: 0px;"/>
      <path d="m58.9446,88.2307c2.0659.8785,4.1014,1.771,6.1598,2.6487l1.25,4.3749c-10.9274,4.6063-22.726,8.8179-32.5305,14.1495.0707-4.0036,1.1805-28.631.406-30.1142.4775-1.5171,12.12,4.315,16.6349,6.018l-.9002,14.4546c9.1449.1758,3.8125-10.4218,5.6279-12.1839.437-.4241,2.307.837,3.3521.6523Z" style="fill: #7e312e; stroke-width: 0px;"/>
      <path d="m80.2758,97.2085c-.4704.7248-2.8167,1.5916-3.953,1.9323-9.2047,2.7598-18.8348,5.1352-27.673,8.2715l-1.2353.6038c-.2955,1.1.4549.9505.4376.9989-.0615.1719-.3811.2182-.5318,1.0685-.7644,4.3138-.2423,8.9961-.6092,13.3691-.1955.2635-.2121-.271-1.451.0355-.1252.031-.3669-.0672-.4816-.0341-.1118-.9201.3443-2.6406.1319-2.8943-.4196-.5013-2.4137.3935-2.9208.4844-2.1601-.3285-6.1655.7951-8.756,1.3154.1075-4.3233.514-8.6307.5903-12.9556,9.8044-5.3315,21.603-9.5431,32.5305-14.1495l-1.25-4.3749c5.012,2.1371,10.1503,4.1792,15.1713,6.3291Z" style="fill: #62171f; stroke-width: 0px;"/>
      <path d="m36.2399,66.9878c.0516-.7164-.757-1.7422-.3497-2.9284,6.2765-1.2524,11.2326-4.8291,16.2684-7.1437.0759-6.487.8849-12.9434.8855-19.4334,8.994.7758,3.4894,11.0914,4.3404,16.0703l11.503-8.5874c.3892-.0105,5.0333,3.1132,4.8994,3.8039-.2824,1.4561-33.8164,15.6526-37.5471,18.2187Z" style="fill: #7e312e; stroke-width: 0px;"/>
      <g>
        <path d="m44.7786,123.4539c.1147-.0331.3563.0651.4816.0341,12.2565,6.0445,25.0937,11.7253,38.1126,17.0803.8987.3697,1.1613-.213,1.2165-.1904,9.1328,3.7501,18.2249,7.554,27.0094,11.5925.197.0906.3139.2997,3.7771,1.9268,2.3535,1.1057,4.7594,2.1687,7.0978,3.2683.7458.3506.9068.3234.9506.3439,3.5388,1.6534,7.0584,3.6205,10.3808,5.4366-.0021,2.2826,1.0988,4.703-.314,6.8913-7.6169-4.0861-59.4249-25.2144-73.4614-31.1993-10.0419-4.2817-20.0542-8.6817-29.836-13.1754,6.0091,1.8872,5.6468.0005,10.8728-.0593,1.324-2.1588,1.3177-1.2579,3.7122-1.9493Z" style="fill: #f3a247; stroke-width: 0px;"/>
        <path d="m44.7786,123.4539c-2.3945.6915-2.3882-.2095-3.7122,1.9493-5.226.0599-4.8637,1.9465-10.8728.0593-.5806-.1823-2.9547-.6286-2.6109-1.0146,4.9355-.9482,9.4351-2.5128,14.4071-3.404.507-.0909,2.5012-.9857,2.9208-.4844.2124.2537-.2437,1.9742-.1319,2.8943Z" style="fill: #b05810; stroke-width: 0px;"/>
      </g>
      <g>
        <path d="m45.1809,178.2374c-4.3766,1.3127-8.4427,3.3735-13.2283,4.0405-9.6277-3.1277-13.8927-3.1372-2.9647,1.4492-4.2602,2.2276-.5899,1.7408-1.6519,4.4459l2.8203,1.7208c-4.9844-.0019-9.4732-.3865-14.4469-1.0235.9583-2.5204-1.9703-10.2682,3.8608-10.5116.2959-.0123.6506.0619.9631.0682,5.7452,3.5789,19.1264-4.4102,27.8384-6.6005.0164.0994,1.643.8655,1.363,1.8941-4.2949.5788-4.6308,2.2788-4.5539,4.5168Z" style="fill: #7e312e; stroke-width: 0px;"/>
        <path d="m46.0561,180.2352c-.0954.1307-3.0465,1.0255-1.317,2.3956.7989.6329,18.8037,8.3651,21.5468,9.5462-3.3786.5234-14.8228-6.3912-15.8937-6.3803-1.3416.0136,1.0022,2.0646-2.7616,2.2932-3.4915-1.3415-12.8426-4.8908-15.678-5.8119,4.7856-.6671,8.8516-2.7278,13.2283-4.0405.1862-.0559,1.0018.2326.9757-.2074-.0292.1657,1.7396-.3143-.1005,2.2052Z" style="fill: #dc5832; stroke-width: 0px;"/>
        <g>
          <path d="m120.2629,205.68c-.0591,4.231-.3992,8.4557-.5778,12.6799-.9137-.2282-1.5678-.6815-2.3701-.9975,2.308.7877,1.7689-5.3825,1.4677-5.7034-1.0932-1.1646-20.8061-6.3388-24.2959-7.5286-1.6319-.5564-3.2708-3.1242-5.4249-2.8732,5.0066-1.639,10.7035-2.6611,16.1176-3.8358,4.7979-1.041,9.2638-2.4975,14.3945-3.1283l.6889,11.387Z" style="fill: #b92236; stroke-width: 0px;"/>
          <path d="m105.8369,193.5963c1.2922-.0328,1.9173,1.1691,2.8391,1.3073-2.3809.8411-3.471.8563-3.4965,2.5177-5.4141,1.1747-11.111,2.1968-16.1176,3.8358-.6164-.0952-1.6194-.0337-1.9262-.1365-.3436-.1151-.5964-.2401-.9506-.3439l.0126-.2757c1.5143-.1706.8457-1.0008,1.0385-1.5857,6.2945-1.5094,12.8737-3.267,18.6008-5.3192Z" style="fill: #62171f; stroke-width: 0px;"/>
          <path d="m108.6761,194.9036c.0766-.027.354-.8459,1.2416-.7417,1.3331.1566.1325.9477-1.2416.7417Z" style="fill: #62171f; stroke-width: 0px;"/>
          <path d="m89.0619,201.2572c2.1541-.251,3.793,2.3168,5.4249,2.8732,3.4898,1.1898,23.2027,6.3641,24.2959,7.5286.3012.3209.8403,6.4911-1.4677,5.7034-10.5061-4.1385-20.5403-8.6363-30.8117-12.968l.6323-3.2737c.3068.1028,1.3098.0413,1.9262.1365Z" style="fill: #d13936; stroke-width: 0px;"/>
          <path d="m66.286,192.177c6.5534,2.8216,13.5921,5.2963,19.9116,8.3242l-.0126.2757c-1.7604-.516-4.6008-2.0497-5.4626-2.0463-.4234.0017-2.2372.9985-2.2236,1.0869.1318.8519,2.8238.1559.894,1.5843-9.704-4.0606-22.3766-9.7057-31.7622-13.3119,3.7638-.2286,1.4201-2.2796,2.7616-2.2932,1.0709-.0109,12.5151,6.9037,15.8937,6.3803Z" style="fill: #cb6e2d; stroke-width: 0px;"/>
          <path d="m86.1851,200.7768c.3541.1038.607.2288.9506.3439l-.6323,3.2737c-2.3649-.9973-4.7402-2.0008-7.1104-2.9926,1.9298-1.4284-.7623-.7325-.894-1.5843-.0137-.0884,1.8001-1.0852,2.2236-1.0869.8618-.0035,3.7022,1.5303,5.4626,2.0463Z" style="fill: #c05a3a; stroke-width: 0px;"/>
        </g>
      </g>
      <path d="m109.8103,116.9996c-1.238,1.6178,3.5913,2.5891,4.6712,3.5112.2751.2349-1.8137.0438,4.1331,4.7175-1.443.6719-7.9369,1.6681-6.3922,2.4508-2.5701.642-4.6473.9706-4.8784,1.0371-1.4119.2577-2.048-1.8678-2.2948-2.6514-.4529-1.4383-.3159-2.4955-.3057-3.8932.0004-.0557,1.0041-.7961,1.0071-.8965.0487-1.6161.2961-4.5188.2575-5.6508.7307.0335,2.813,1.0579,3.8023,1.3755Z" style="fill: #62171f; stroke-width: 0px;"/>
      <g>
        <path d="m113.3071,146.2841c.4307.0867.985.0364,1.4447.1024-2.6557,4.8358,11.8112-2.0442,19.9827-3.8386-.0426.5497-.037,1.1038-.0754,1.6539-7.2644,1.7045-17.4274,4.8237-23.0605,7.7686-8.7845-4.0384-17.8766-7.8424-27.0094-11.5925.202-.7101-.3769-1.2419-.3936-1.9637,4.0874.1354,9.1893,2.3383,12.6232,3.9363,3.6419-1.7169,17.2588,7.4026,16.4883,3.9336Z" style="fill: #0caed4; stroke-width: 0px;"/>
        <g>
          <path d="m135.1615,133.1757c-.1892,1.9179-.0373,3.8753-.2638,5.7887-1.7244.4596-3.2901,1.0242-4.9035,1.5884l-14.9137,3.9211c-7.9412-3.4079-16.1084-6.6374-23.9358-10.1303,4.9965-1.4266,9.7286-3.4523,14.7169-4.903,2.0145-.5858,1.3947-.6994,1.4824-.7246.2311-.0664,2.3083-.3951,4.8784-1.0371,2.2252-.5558,4.4073-1.1555,6.6016-1.7446q8.1688,3.6207,16.3376,7.2414Z" style="fill: url(#linear-gradient-bookshelf-4); stroke-width: 0px;"/>
          <path d="m134.7345,142.5479c-8.1715,1.7944-22.6384,8.6744-19.9827,3.8386.1927-.0076.4079.0616.4816.0341,1.1806-.4397-.6099-1.2129-1.1285-1.7392,2.6534.3553,12.1862-2.8335,15.8894-4.1286,1.6134-.5642,3.1792-1.1288,4.9035-1.5884-.1401,1.1837-.0711,2.3943-.1633,3.5835Z" style="fill: #302219; stroke-width: 0px;"/>
        </g>
        <path d="m113.3071,146.2841c.7705,3.469-12.8464-5.6505-16.4883-3.9336-3.434-1.598-8.5358-3.8009-12.6232-3.9363-.0328-1.4118,1.7309-3.1628,4.4848-3.0008,1.4712,1.848,23.1801,10.5794,24.6267,10.8706Z" style="fill: #0179a6; stroke-width: 0px;"/>
        <path d="m115.2333,146.4205c-.0737.0275-.2888-.0418-.4816-.0341-.4597-.0659-1.0139-.0157-1.4447-.1024-1.4466-.2911-23.1555-9.0225-24.6267-10.8706,1.5656.0921,23.4902,9.557,26.553,11.007Z" style="fill: #5ccbe9; stroke-width: 0px;"/>
      </g>
      <g>
        <path d="m133.524,94.8971c.9458.3911,2.2349.8309,3.3333,1.0658-.1876,3.2076-.1256,6.4525-.4396,9.6478-.6446-1.1117-1.1223-.5478-4.0556-1.1169-1.7729-2.9563-7.5394-3.4726-3.9174-4.1491,1.2568.5367,2.3769.9897,3.8023,1.3755.0564.0153.4235.6196.6972.6025,1.4617-.0914,2.1169-2.7527.4418-4.3934-.2959-.2898-1.7508-.9629-2.3576-1.2732-.5822-1.2607.1797-1.9846,2.4957-1.759Z" style="fill: #5e292b; stroke-width: 0px;"/>
        <g>
          <path d="m137.0456,91.8281c-.0144.2755-.0224.5515-.0377.827-6.6083-.9042-15.4422-6.4729-20.9878-5.9116l.0126-.2757c4.9615-1.5288,9.7902-3.1995,14.7106-4.7651-5.8827,2.7173,3.4264,2.1495,5.1527,3.5453.3663.2962-.681,6.5178,1.1495,6.5801Z" style="fill: #01516b; stroke-width: 0px;"/>
          <path d="m137.008,92.6551c-.0612,1.1017-.0863,2.2063-.1507,3.3078-1.0984-.2349-2.3874-.6747-3.3333-1.0658-2.4223-1.0016-17.1424-6.8322-17.7822-7.3437-.5945-.4751.1539-.4827.2785-.8099,5.5455-.5614,14.3794,5.0073,20.9878,5.9116Z" style="fill: #0caed4; stroke-width: 0px;"/>
          <path d="m137.1042,79.941c.002,3.981.1492,7.9107-.0585,11.8871-1.8305-.0623-.7832-6.284-1.1495-6.5801-1.7264-1.3958-11.0354-.828-5.1527-3.5453,2.0312-.6463,4.1582-1.2963,6.3608-1.7617Z" style="fill: #013044; stroke-width: 0px;"/>
          <path d="m116.0202,86.7435c-.1245.3272-.8729.3348-.2785.8099.6399.5115,15.3599,6.3421,17.7822,7.3437-2.316-.2256-3.0779.4983-2.4957,1.759-1.7291-.8841-15.454-6.8061-16.147-6.1217-.2385.2355.069,1.9311-.1256,2.7565-.1442-.0352-.3295-.0047-.4816-.0341l-.4816-.0341c-.1104-2.0095,1.8068-4.2285.2638-5.7887.0918-.0396.3655-.6169,1.4949-1.0003.1127-.0346.369.0688.4816.0341l-.0126.2757Z" style="fill: #463b3e; stroke-width: 0px;"/>
        </g>
        <g>
          <path d="m127.5066,99.7251c.8402.3722.8808.5951.938.6195-3.622.6765,2.1446,1.1928,3.9174,4.1491,2.9333.5691,3.411.0052,4.0556,1.1169-.1212,1.2337-.0664,2.4856-.1696,3.7213-.2785.3074-.5039-.3104-1.4384-.2402-.3688.0277-.5352.1409-1.4572.1733-.0714.0025.3951-.4183-1.4447-.1024-.0708.0122.1785.4176-1.4572.1733-5.8418-3.5535-14.7696-7.0149-21.775-9.8389l2.9145-.3466c.4619.6423,18.2764,8.9756,19.4363,8.1522-.2809-2.3911.6639-2.845.6197-2.998-.3207-1.1103-15.1084-6.6895-17.5101-8.0158-.0805-.0444.4287-.6623-.938-.6195.054-.0208.2409-.4887.9882-.4831,6.1016,2.1494,12.8021,7.0795,13.3205,4.5387Z" style="fill: #20353d; stroke-width: 0px;"/>
          <path d="m111.5899,99.1505c-1.0868-1.5113.5175-2.1789,2.546-2.8616,2.4017,1.3263,17.1894,6.9055,17.5101,8.0158.0442.153-.9006.6069-.6197,2.998-1.1599.8233-18.9744-7.51-19.4363-8.1522Z" style="fill: #1787ad; stroke-width: 0px;"/>
          <path d="m127.5066,99.7251c-.5183,2.5408-7.2189-2.3894-13.3205-4.5387-1.4569-1.3533-.3647-1.4366-.3936-1.9637l.4816.0341c3.9406,2.3951,8.7177,4.4685,13.2325,6.4683Z" style="fill: #35626d; stroke-width: 0px;"/>
          <path d="m113.1979,95.6694c1.3667-.0427.8576.5751.938.6195-2.0285.6827-3.6327,1.3503-2.546,2.8616l-2.9145.3466c-1.4179-.5716-2.8381-1.1276-4.2713-1.6853,1.4406-1.0437,8.4007-1.9907,8.7937-2.1424Z" style="fill: #025558; stroke-width: 0px;"/>
          <path d="m132.2468,101.7201c-1.4253-.3858-2.5455-.8388-3.8023-1.3755-.0572-.0244-.0978-.2474-.938-.6195-4.5148-1.9998-9.2919-4.0732-13.2325-6.4683.1521.0294.3373-.0011.4816.0341,2.0641.5041,14.7093,6.7689,17.4912,8.4293Z" style="fill: #63a5af; stroke-width: 0px;"/>
          <path d="m133.3524,109.2651l-1.4447-.1024c1.8398-.316,1.3733.1049,1.4447.1024Z" style="fill: #360906; stroke-width: 0px;"/>
        </g>
        <path d="m133.3858,97.9293c1.6752,1.6407,1.02,4.302-.4418,4.3934-.2737.0171-.6408-.5872-.6972-.6025-2.782-1.6603-15.4271-7.9251-17.4912-8.4293.1946-.8254-.1129-2.521.1256-2.7565q9.2523,3.6974,18.5046,7.3949Z" style="fill: #0b7b8b; stroke-width: 0px;"/>
        <path d="m131.0282,96.6561c.6067.3102,2.0617.9834,2.3576,1.2732q-9.2523-3.6974-18.5046-7.3949c.6931-.6844,14.4179,5.2376,16.147,6.1217Z" style="fill: #0caed4; stroke-width: 0px;"/>
      </g>
      <g>
        <path d="m129.567,118.1227c1.4413,1.2282,5.1278,1.7271,8.0735,3.0608-.1977,3.8023-.5288,7.4866-.9965,11.2676-1.9186-.9179.0035-1.9833-.3434-3.0663-.2862-.8935-14.2346-7.0718-16.5407-8.0854-3.4024-1.4954-6.1297-3.0736-9.9495-4.2999-.9892-.3176-3.0716-1.3421-3.8023-1.3755-.0235-.6904.1012-1.3772.0942-2.0674l-10.362-5.8501c1.0237.1313,7.3089,3.7945,6.3357-1.2104,9.1254,3.9035,18.0729,7.9713,27.491,11.6266Z" style="fill: #cb6e2d; stroke-width: 0px;"/>
        <path d="m137.6405,121.1836c-2.9457-1.3338-6.6322-1.8326-8.0735-3.0608,3.5818-5.5147,15.5045.107.8835-8.7867,1.6358.2443,1.3865-.1611,1.4572-.1733l1.4447.1024c.9221-.0323,1.0885-.1456,1.4572-.1733,6.3718,2.614,3.0387,8.0939,2.8308,12.0918Z" style="fill: #dd7f25; stroke-width: 0px;"/>
        <path d="m87.8007,91.1047c3.4077,2.1211,7.789,3.4298,11.8506,4.9877,1.5511.5949,3.2767,1.145,4.7528,1.7194,1.4331.5577,2.8534,1.1137,4.2713,1.6853,7.0054,2.8241,15.9332,6.2854,21.775,9.8389,14.621,8.8937,2.6983,3.272-.8835,8.7867-9.418-3.6553-18.3656-7.7231-27.491-11.6266-7.2558-3.1038-14.5487-6.1827-21.8002-9.2876-5.021-2.1499-10.1593-4.192-15.1713-6.3291-2.0584-.8777-4.0939-1.7702-6.1598-2.6487-3.632-1.5444-25.7858-10.5339-26.7812-11.2997-.9741-.7495-1.0266-1.2484-.1529-1.9466-1.125,1.187,4.2713,2.6786,5.4375,2.5976.4864-.0338,8.1821-2.2742,8.5655-2.4351,2.9708.3864,10.9536,4.2567,12.1165,4.4534,7.3614,1.2454-9.0966-4.4213-9.1644-5.627,9.6509,3.4709,31.9823,14.9684,38.835,17.1314Z" style="fill: #f3a247; stroke-width: 0px;"/>
        <path d="m102.076,106.4961c.9732,5.0049-5.312,1.3417-6.3357,1.2104-.3095-.0397-.651-.061-.9631-.0682-1.3655-.7682-2.7685-1.5427-4.2461-2.2366-4.6248-2.1718-9.7469-3.9589-14.2082-6.2609,1.1363-.3407,3.4826-1.2074,3.953-1.9323,7.2515,3.1049,14.5444,6.1838,21.8002,9.2876Z" style="fill: #b05810; stroke-width: 0px;"/>
        <path d="m136.3005,129.3849c-1.6232.7761-2.669,1.7548-1.6855-.1194-3.2011-.5411-18.376-7.0453-14.8552-7.966,2.306,1.0135,16.2545,7.1919,16.5407,8.0854Z" style="fill: #93401b; stroke-width: 0px;"/>
        <path d="m47.6341,71.39c2.5185,1.2546.7871,2.7465-1.6205,3.7568-.3834.1609-8.0791,2.4013-8.5655,2.4351-1.1662.0811-6.5625-1.4106-5.4375-2.5976.5601-.4475,13.565-3.186,15.6235-3.5943Z" style="fill: #dd7f25; stroke-width: 0px;"/>
        <path d="m52.031,70.3188c.5483.9413-.0586.9161-.0502,1.1026-1.3934.8025-1.435,1.4775-1.5201,1.5516-.2706.2358-1.5605-.1662-1.4949,1.0003.0678,1.2057,16.5257,6.8724,9.1644,5.627-1.163-.1967-9.1457-4.0671-12.1165-4.4534,2.4076-1.0102,4.139-2.5022,1.6205-3.7568,1.2317-.2443,2.9708-1.223,4.3969-1.0712Z" style="fill: #ee902c; stroke-width: 0px;"/>
      </g>
      <g>
        <path d="m50.8173,171.1701c.0988.0537,1.0769.1174,2.3827.7219,3.2864,1.5214,6.8166,2.3263,7.9856,4.9904-2.8445,2.8432-6.868-4.9025-9.068-2.44-1.5597,1.7458,6.8972,5.2027,9.3863,6.0575-.002.3681-.0585.7343-.0502,1.1026.0565,2.5296-.5997,2.3213-.5946,2.4467q-7.3323-3.4231-14.6647-6.8463c.3933-3.7275,4.3597-2.4114,4.9726-3.1045.7946-.8984-3.4768-3.095-.3497-2.9284Z" style="fill: #1787ad; stroke-width: 0px;"/>
        <path d="m87.416,173.7631c-3.6259,1.1848-23.8522,7.9153-25.2526,8.1664-.0709.0127-.349-.3596-.7098-.3268-.0082-.3683.0483-.7345.0502-1.1026.0006-.1218.5543-.2408.5444-1.3441,4.2568.0906,24.6761-8.5972,26.2283-8.3738,1.4345.2065.8769,2.6209-.8605,2.981Z" style="fill: #044082; stroke-width: 0px;"/>
        <path d="m57.5089,172.7504l-4.3089-.8584c-1.3058-.6045-2.2839-.6681-2.3827-.7219-2.5996-1.4134-1.0276-1.2181-.3936-1.9637,2.3187,1.1866,4.9658,2.2302,7.0853,3.5439Z" style="fill: #c0b96e; stroke-width: 0px;"/>
        <path d="m61.1855,176.8824c.023-.023.6737.0619.9631.0682.1356.6078-.1068,1.4973-.1005,2.2052.0099,1.1033-.5437,1.2223-.5444,1.3441-2.4891-.8548-10.946-4.3117-9.3863-6.0575,2.2-2.4626,6.2235,5.2832,9.068,2.44Z" style="fill: #63a5af; stroke-width: 0px;"/>
        <g>
          <path d="m91.6453,165.7665c-4.6031,1.0625-14.8803,5.4202-19.1075,5.8363-3.9942.3932-20.7227-3.9734-24.3587-6.1504.7671-.7825,23.2028-7.0308,26.7099-8.3397,1.3925.0175,15.3516,6.6682,17.7634,7.7572-.0234.5488-.9762.8454-1.0071.8965Z" style="fill: url(#linear-gradient-bookshelf-5); stroke-width: 0px;"/>
          <path d="m91.6453,165.7665c-1.625,2.6907-2.0294,4.4265-1.7901,7.478-.9184.572-2.3272.4819-2.4392.5185,1.7374-.3601,2.295-2.7745.8605-2.981-1.5522-.2234-21.9715,8.4644-26.2283,8.3738-.0064-.7079.2361-1.5974.1005-2.2052-.1159-.5195-.5864-.8909-.4188-1.4124.7295-.6603-.4014-.5099,1.0134-1.0344,1.9633-.7278,7.5193-1.7258,9.7945-2.9011,4.2272-.4162,14.5044-4.7738,19.1075-5.8363Z" style="fill: #092c59; stroke-width: 0px;"/>
          <path d="m72.5378,171.6028c-2.2752,1.1753-7.8313,2.1733-9.7945,2.9011-3.0342-2.524-11.16-5.1745-12.2945-5.8488-1.4755-.8769-3.3202-2.131-2.2696-3.2027,3.636,2.1769,20.3645,6.5436,24.3587,6.1504Z" style="fill: #1480d7; stroke-width: 0px;"/>
          <path d="m62.7433,174.5039c-1.4147.5245-.2839.3741-1.0134,1.0344-1.0384-1.1554-2.739-1.8693-4.221-2.7879-2.1195-1.3137-4.7666-2.3573-7.0853-3.5439.0722-.0849-.021-.3528.0251-.5513,1.1345.6743,9.2603,3.3247,12.2945,5.8488Z" style="fill: #01516b; stroke-width: 0px;"/>
          <path d="m57.5089,172.7504c1.482.9186,3.1826,1.6325,4.221,2.7879-.1676.5215.3029.8929.4188,1.4124-.2894-.0064-.9401-.0912-.9631-.0682-1.169-2.6641-4.6992-3.469-7.9856-4.9904l4.3089.8584Z" style="fill: #b3dcb6; stroke-width: 0px;"/>
        </g>
      </g>
      <g>
        <path d="m112.717,191.0418c-.273.2246-5.6525,2.1147-6.88,2.5545-5.7271,2.0522-12.3064,3.8098-18.6008,5.3192.0569-.1728-.0214-.3755.0251-.5513.1531-.579.472-.6079.5192-.7928.0677-.2651.0004-.5559.0377-.827.4618.3676,2.1497-.0514,3.1553-.3295,2.9258-.8092,19.3595-6.9194,20.6024-6.8366.9751.0649,1.257,1.0445,1.1411,1.4635Z" style="fill: #044082; stroke-width: 0px;"/>
        <path d="m60.859,184.0494c.0023.0571.2924.3027.4313,1.1367.1735,1.0416.0132,1.2898.8501,2.5491q-8.0421-3.75-16.0842-7.5c1.84-2.5195.0712-2.0396.1005-2.2052.0478-.2705.0088-.5536.0377-.827q7.3323,3.4231,14.6647,6.8463Z" style="fill: #9eae95; stroke-width: 0px;"/>
        <path d="m62.1404,187.7352c.0834.1255-.0803.9655.6595,1.4294.6645.0792,1.5669.0599,1.6855.1194,5.8327,2.9281,16.0606,6.8369,22.7759,9.0802-.0465.1758.0318.3785-.0251.5513-.1928.5849.4758,1.4151-1.0385,1.5857-6.3195-3.0279-13.3582-5.5026-19.9116-8.3242-2.7432-1.1811-20.7479-8.9133-21.5468-9.5462-1.7296-1.3701,1.2215-2.2649,1.317-2.3956q8.0421,3.75,16.0842,7.5Z" style="fill: #139cbb; stroke-width: 0px;"/>
        <path d="m81.1391,194.8885c.2737.1123.687-.2439.7349-.2245.3316.1348-.5549.6248,5.9065,2.9073-.0472.1849-.3661.2138-.5192.7928-6.7153-2.2433-16.9431-6.1521-22.7759-9.0802.1016-.4289,1.4204-.6814,1.4824-.7246,5.097,2.0748,10.088,4.2433,15.1713,6.3291Z" style="fill: #79b7af; stroke-width: 0px;"/>
      </g>
      <g>
        <path d="m120.2201,68.7894c5.6681,2.5097,11.1119,5.2585,17.554,7.051.2394,2.7022-.6701,3.8928-.67,4.1006-2.2026.4654-4.3296,1.1154-6.3608,1.7617-4.9205,1.5657-9.7492,3.2363-14.7106,4.7651-.1126.0347-.3689-.0688-.4816-.0341-.1474.0453-.8164-.1136-.9631-.0682l-1.8258-2.3417c6.135-3.229,7.7254-4.7608-.8626-2.2734-1.6447-.9008-8.6143-.8552-10.0374-2.3704,1.9903-.6451,15.3031-4.9106,15.7052-5.386.2335-.2761.8909-4.5684.7139-5.0654l1.9388-.1392Z" style="fill: #b05810; stroke-width: 0px;"/>
        <path d="m94.9947,81.6589c-3.678,3.1608-11.9138.4406-.023,5.8057,5.414-2.0549,11.1083-4.0287,16.9279-5.7142,8.588-2.4874,6.9977-.9555.8626,2.2734-3.9504,2.0792-18.9343,6.2607-12.1625,7.158,2.0687.2741,11.265-3.9751,13.9883-4.8163.1468-.0453.8157.1136.9631.0682-1.1295.3834-1.4032.9606-1.4949,1.0003-3.4889,1.507-8.133,2.3717-11.302,4.177l-2.6612.088c-5.5682-3.2536-45.4187-20.4116-47.0739-21.8633-.1569-.1376-.9027-.632-.9317-.7574.6282-1.0171.5522-2.0572.626-3.1359l36.6554,17.2536c1.2789.2037,4.3781-1.175,5.6259-1.5372Z" style="fill: #e5a524; stroke-width: 0px;"/>
        <path d="m111.8997,81.7504c-5.8197,1.6856-11.5139,3.6593-16.9279,5.7142-11.8908-5.3651-3.655-2.6449.023-5.8057,2.3356-.678,4.5834-1.5386,6.8675-2.2789,1.4232,1.5152,8.3928,1.4696,10.0374,2.3704Z" style="fill: #dd7f25; stroke-width: 0px;"/>
        <path d="m114.5881,86.3655c-2.7233.8412-11.9196,5.0904-13.9883,4.8163-6.7718-.8973,8.2121-5.0788,12.1625-7.158l1.8258,2.3417Z" style="fill: #dd7f25; stroke-width: 0px;"/>
        <path d="m113.7925,93.2227c.0289.5271-1.0633.6104.3936,1.9637-.7474-.0057-.9343.4622-.9882.4831-.393.1517-7.3532,1.0987-8.7937,2.1424-1.4761-.5744-3.2017-1.1245-4.7528-1.7194-.1328-.154.8223-.1467,1.4572-.1733,5.2413-.2193,9.1339-3.0748,8.8502-3.3828-.3576-.3882-2.2226.0918-1.8948-.8256,1.207-.6968,2.8965-1.1676,2.7742-2.5689-2.2854.714-5.0328,2.1927-7.1334,2.8131-.2731.0807-.683.1386-.9757.2074l.0251-.5513c3.169-1.8053,7.8131-2.67,11.302-4.177,1.5431,1.5602-.3742,3.7792-.2638,5.7887Z" style="fill: #201f17; stroke-width: 0px;"/>
        <g>
          <path d="m118.2813,68.9286c.1769.497-.4805,4.7893-.7139,5.0654-.402.4755-13.7148,4.741-15.7052,5.386-2.2841.7403-4.5319,1.6008-6.8675,2.2789-1.2478.3623-4.347,1.7409-5.6259,1.5372l-36.6554-17.2536c.0251-.3668.0281-.7355.0502-1.1026,3.7959,2.2245,27.6115,12.3491,34.2727,16.5317,3.1383.334-1.4498-1.3024,2.077-3.1713.8768-.4647,17.9042-5.8826,20.8432-6.8195,2.7673-.8823,7.369-1.9339,7.8683-3.0376.0288.0277.6639-.0414.4564.5854Z" style="fill: #124d20; stroke-width: 0px;"/>
          <path d="m117.8249,68.3432c-.4993,1.1037-5.101,2.1553-7.8683,3.0376l-15.5252-3.8653c-2.6274.5785-18.4403,6.1713-19.6016,6.0779-.4279-.0344-6.5423-2.6449-5.8751-3.5964.3097-.4417,12.6148-3.825,13.7601-5.109l-19.0929-5.086c2.6116-.8536,19.2747-7.0507,20.8432-6.8195,3.6642,2.5178,32.2697,14.3098,33.3598,15.3608Z" style="fill: #03674c; stroke-width: 0px;"/>
          <path d="m63.6219,59.8018l19.0929,5.086c-1.1453,1.2841-13.4504,4.6674-13.7601,5.109-.6672.9515,5.4472,3.562,5.8751,3.5964,1.1613.0934,16.9742-5.4994,19.6016-6.0779l15.5252,3.8653c-2.939.937-19.9664,6.3549-20.8432,6.8195-3.5268,1.869,1.0613,3.5053-2.077,3.1713-6.6612-4.1826-30.4768-14.3072-34.2727-16.5317-.6374-.3736-1.0811-1.0365-1.8697-1.3769.0964-.4245,11.1837-3.1565,12.7279-3.6612Z" style="fill: #13a37c; stroke-width: 0px;"/>
        </g>
        <path d="m91.2972,88.587l2.8077,1.9964-.7412.3623c-12.9393-5.5292-26.2648-11.2721-37.8593-17.3389-1.5545-.8134-3.4263-.0078-3.5238-2.1854-.0084-.1865.5985-.1613.0502-1.1026l.4816.0341c12.7638,6.1706,25.6419,12.3497,38.7847,18.234Z" style="fill: #cb9617; stroke-width: 0px;"/>
        <path d="m102.7542,91.611l-.0251.5513c-.1346.0316-.9269.864-2.6863.6393-2.7562-1.5131-5.7501-2.8735-8.7456-4.2146-13.1429-5.8844-26.0209-12.0634-38.7847-18.234l.5067-.5172c1.6552,1.4516,41.5057,18.6097,47.0739,21.8633l2.6612-.088Z" style="fill: #4e5319; stroke-width: 0px;"/>
        <path d="m90.2085,91.2753c1.2175,1.0569-1.6148.0797-2.4078-.1706-6.8526-2.163-29.184-13.6605-38.835-17.1314-.0656-1.1665,1.2243-.7644,1.4949-1.0003,13.3996,5.9104,26.1797,12.5466,39.7478,18.3023Z" style="fill: #124d20; stroke-width: 0px;"/>
        <path d="m108.064,91.7107c-2.0227,1.1677-8.0264,2.9309-6.9554,4.2084-.6349.0266-1.59.0193-1.4572.1733-4.0617-1.5579-8.443-2.8666-11.8506-4.9877.793.2503,3.6253,1.2275,2.4078.1706,1.1801.5006,8.7174,3.7069,9.2523,3.6974.3853-.0068,6.0233-2.7867,4.244-3.0178,2.1006-.6204,4.848-2.0991,7.1334-2.8131.1223,1.4012-1.5672,1.8721-2.7742,2.5689Z" style="fill: #4e5319; stroke-width: 0px;"/>
        <path d="m91.2972,88.587c2.9955,1.3412,5.9895,2.7015,8.7456,4.2146,1.7593.2247,2.5517-.6077,2.6863-.6393.2927-.0688.7026-.1268.9757-.2074,1.7793.2311-3.8587,3.011-4.244,3.0178-.5349.0095-8.0722-3.1968-9.2523-3.6974-13.5682-5.7557-26.3482-12.3919-39.7478-18.3023.085-.0741.1266-.7491,1.5201-1.5516.0975,2.1777,1.9693,1.3721,3.5238,2.1854,11.5944,6.0668,24.92,11.8096,37.8593,17.3389l.7412-.3623-2.8077-1.9964Z" style="fill: #e5a524; stroke-width: 0px;"/>
        <path d="m101.1086,95.9191c-1.071-1.2775,4.9327-3.0407,6.9554-4.2084-.3277.9174,1.5373.4374,1.8948.8256.2837.308-3.609,3.1635-8.8502,3.3828Z" style="fill: #262a17; stroke-width: 0px;"/>
      </g>
      <g>
        <path d="m94.7772,107.6383c-3.2909-.0757-27.2886,8.2657-32.3295,9.7391q6.9869,3.053,13.9737,6.106,14.7933-3.9297,29.5867-7.8593c.0386,1.132-.2088,4.0347-.2575,5.6508-.003.1004-1.0067.8408-1.0071.8965l-1.9011-.6878c1.0191-.4189,3.1011.2169,1.786-2.0858-5.0997,1.2172-23.6504,6.7265-26.6471,6.9614-5.9804-3.3343-14.1791-5.9896-20.837-9.2194-.2922-.1418-1.559-1.0794-1.876-1.2391-1.0979-.5528-6.8013-4.0486-7.5731-3.4402-.4103.9152.4414,1.2124.425,1.2745-.3399,1.2925-.0921,1.8588-.1382,3.0322-.0263.6699-.1572,1.2239-.0879,1.9296.1484,1.5117-.2961,3.0347-.2073,4.5482,4.2504,1.1693,26.8207,13.6297,28.6007,13.7792,2.4046.2021.5402-1.4,1.5577-2.3785.478-.4597,13.9771-4.8738,15.9522-5.5068,3.2046-1.027,6.8042-2.1267,10.2761-2.867-.0979,1.043-4.0627.81-3.0213,2.6896,1.384,2.498,3.7096-1.0013,4.8093.479-4.9883,1.4507-9.7204,3.4764-14.7169,4.903,7.8274,3.4929,15.9946,6.7224,23.9358,10.1303l14.9137-3.9211c-3.7033,1.295-13.2361,4.4839-15.8894,4.1286.5186.5263,2.3092,1.2995,1.1285,1.7392-3.0628-1.45-24.9874-10.9149-26.553-11.007-2.7539-.162-4.5176,1.5889-4.4848,3.0008.0168.7217.5956,1.2536.3936,1.9637-.0552-.0226-.3177.56-1.2165.1904-13.0189-5.3549-25.8561-11.0358-38.1126-17.0803,1.2389-.3065,1.2554.2281,1.451-.0355.3669-4.3729-.1552-9.0553.6092-13.3691l12.0663,5.5561c.7438.1032.9761-.3306,1.7106-.4319,1.6234-.224,27.9213-8.099,29.1428-8.7204,1.0746-.5467.3383-.2927.291-1.0855,1.4776.6939,2.8807,1.4684,4.2461,2.2366Z" style="fill: #20353d; stroke-width: 0px;"/>
        <path d="m107.344,128.7161c-.0877.0252.5321.1388-1.4824.7246-1.0997-1.4803-3.4253,2.019-4.8093-.479-1.0414-1.8796,2.9234-1.6466,3.0213-2.6896.3355-.0715.6128-.1935.9757-.2074.2468.7837.8829,2.9091,2.2948,2.6514Z" style="fill: #360906; stroke-width: 0px;"/>
        <g>
          <path d="m76.3228,99.1408c4.4614,2.3019,9.5834,4.0891,14.2082,6.2609.0473.7929.7836.5389-.291,1.0855-1.2215.6214-27.5194,8.4964-29.1428,8.7204l-13.2451-6.1926c.0173-.0484-.7331.1011-.4376-.9989l1.2353-.6038c8.8382-3.1362,18.4683-5.5117,27.673-8.2715Z" style="fill: url(#linear-gradient-bookshelf-6); stroke-width: 0px;"/>
          <path d="m61.0972,115.2076c-.7345.1013-.9668.535-1.7106.4319l-12.0663-5.5561c.1507-.8503.4703-.8966.5318-1.0685l13.2451,6.1926Z" style="fill: #9fe1cf; stroke-width: 0px;"/>
        </g>
        <path d="m77.7677,131.0453c.6779.448,3.5182-.4111,5.8415-.9688.9884,3.4183,5.1068-.7602,10.1882-.9374-1.9752.633-15.4742,5.0471-15.9522,5.5068-1.0175.9785.8469,2.5806-1.5577,2.3785-1.78-.1496-24.3503-12.61-28.6007-13.7792-.0888-1.5135.3557-3.0365.2073-4.5482q14.9368,6.1742,29.8737,12.3485Z" style="fill: #139cbb; stroke-width: 0px;"/>
        <path d="m55.2682,115.9008c.3171.1596,1.5838,1.0973,1.876,1.2391-4.1056,1.334,12.0689,6.0023,18.4167,9.3244-.22.6758.3885,1.385.8752,1.9978q-14.2271-5.8474-28.4541-11.6948c.046-1.1733-.2017-1.7397.1382-3.0322,3.1155,1.0279,4.0687,2.816,7.1481,2.1657Z" style="fill: #0b7b8b; stroke-width: 0px;"/>
        <path d="m76.4361,128.4621c.321.4041.456.291.469.3098.0736.1063,1.3766.0776.8752,1.9978l-.0126.2757q-14.9368-6.1742-29.8737-12.3485c-.0693-.7056.0616-1.2596.0879-1.9296q14.2271,5.8474,28.4541,11.6948Z" style="fill: #63a5af; stroke-width: 0px;"/>
        <path d="m102.8424,121.4836c-1.2954.5325-2.5858.7022-3.9153,1.1053-7.6974,2.3337-17.5064,3.9149-22.022,6.1829-.013-.0188-.1481.0944-.469-.3098-.4867-.6128-1.0952-1.322-.8752-1.9978,1.5369.2486,1.9827-.0708,2.4204-.1051,2.9966-.2349,21.5474-5.7443,26.6471-6.9614,1.3151,2.3027-.7668,1.6669-1.786,2.0858Z" style="fill: #0569bc; stroke-width: 0px;"/>
        <path d="m104.0735,126.2721c-3.4719.7403-7.0715,1.84-10.2761,2.867-5.0814.1773-9.1997,4.3557-10.1882.9374,2.538-.6093,18.2195-5.6906,19.3357-5.5436.7203.0948,1.1369,1.6499,1.1285,1.7392Z" style="fill: #0569bc; stroke-width: 0px;"/>
        <path d="m104.7435,122.1714c-.0102,1.3977-.1472,2.4549.3057,3.8932-.3629.0139-.6402.1359-.9757.2074.0084-.0893-.4082-1.6444-1.1285-1.7392-1.1163-.1469-16.7977,4.9343-19.3357,5.5436-2.3233.5578-5.1636,1.4168-5.8415.9688l.0126-.2757c2.8125-.5987,17.5484-4.4321,18.3349-4.7849,1.6011-.7182-.8749-.4142-.6658-1.2916.2497-1.0479,2.6948,1.5426,3.4777-2.1042,1.3295-.4031,2.6199-.5728,3.9153-1.1053l1.9011.6878Z" style="fill: #1f1e33; stroke-width: 0px;"/>
        <path d="m77.9812,126.3593c-.4376.0343-.8834.3537-2.4204.1051-6.3478-3.3221-22.5223-7.9904-18.4167-9.3244,6.658,3.2298,14.8567,5.8851,20.837,9.2194Z" style="fill: #45b7bf; stroke-width: 0px;"/>
        <path d="m55.2682,115.9008c-3.0794.6503-4.0326-1.1378-7.1481-2.1657.0163-.0621-.8353-.3593-.425-1.2745.7718-.6084,6.4753,2.8874,7.5731,3.4402Z" style="fill: #0caed4; stroke-width: 0px;"/>
        <g>
          <path d="m94.7772,107.6383c.3121.0072.6537.0285.9631.0682l10.362,5.8501c.007.6901-.1177,1.377-.0942,2.0674q-14.7933,3.9297-29.5867,7.8593-6.9869-3.053-13.9737-6.106c5.0408-1.4734,29.0386-9.8148,32.3295-9.7391Z" style="fill: url(#linear-gradient-bookshelf-7); stroke-width: 0px;"/>
          <path d="m67.0916,116.1854c5.4972,2.0921,17.6748,3.4056,12.8138,5.0559-2.1277.7224-13.5827-4.5081-12.8138-5.0559Z" style="fill: #2fd9ec; stroke-width: 0px;"/>
        </g>
        <path d="m77.7803,130.7697c.5014-1.9201-.8016-1.8915-.8752-1.9978,4.5156-2.2681,14.3246-3.8492,22.022-6.1829-.7829,3.6468-3.228,1.0563-3.4777,2.1042-.2091.8774,2.267.5734.6658,1.2916-.7865.3528-15.5224,4.1862-18.3349,4.7849Z" style="fill: #0f1f3e; stroke-width: 0px;"/>
      </g>
    </g>
    <path d="m65.1553,185.1834c1.2545.3252,3.5696,1.8451,3.7771,1.9268-2.8731-.8423-1.5706.1577-1.9514.4148-1.1839.7993-.9481.9888-1.0134,1.0344-.0619.0432-1.3808.2957-1.4824.7246-.1186-.0595-1.021-.0402-1.6855-.1194-.7398-.4639-.5761-1.3039-.6595-1.4294-.8369-1.2593-.6765-1.5075-.8501-2.5491,1.936-.1361,1.883-.5165,3.8651-.0027Z" style="fill: #013044; stroke-width: 0px;"/>
    <path d="m68.9325,187.1102c6.3919,2.5176,12.43,5.3258,18.9736,7.7047.0755.6948.0051,1.2533-.0879,1.9296-.0373.2711.03.5619-.0377.827-6.4614-2.2825-5.5749-2.7725-5.9065-2.9073-.0479-.0195-.4612.3368-.7349.2245,1.2165-1.757-9.1484-4.8846-14.158-7.3635.3808-.2571-.9217-1.2571,1.9514-.4148Z" style="fill: #056b7b; stroke-width: 0px;"/>
    <path d="m81.1391,194.8885c-5.0833-2.0858-10.0744-4.2543-15.1713-6.3291.0653-.0455-.1705-.235,1.0134-1.0344,5.0096,2.4789,15.3745,5.6065,14.158,7.3635Z" style="fill: #0179a6; stroke-width: 0px;"/>
  </g>
</svg>