<?xml version="1.0" encoding="UTF-8"?>
<svg id="Layer_2" data-name="Layer 2" xmlns="http://www.w3.org/2000/svg" xmlns:xlink="http://www.w3.org/1999/xlink" viewBox="0 0 127.9373 132.8509">
  <defs>
    <linearGradient id="linear-gradient-plant" x1="72.5147" y1="112.6278" x2="76.9813" y2="122.2142" gradientUnits="userSpaceOnUse">
      <stop offset="0" stop-color="#605768"/>
      <stop offset="1" stop-color="#433848"/>
    </linearGradient>
    <linearGradient id="linear-gradient-plant-2" x1="64.4668" y1="114.7938" x2="68.5372" y2="126.8392" gradientUnits="userSpaceOnUse">
      <stop offset="0" stop-color="#6b6372"/>
      <stop offset="1" stop-color="#594e5f"/>
    </linearGradient>
    <linearGradient id="linear-gradient-plant-3" x1="75.3471" y1="15.3539" x2="97.6959" y2="23.5643" gradientUnits="userSpaceOnUse">
      <stop offset="0" stop-color="#7aaa2d"/>
      <stop offset="1" stop-color="#327817"/>
    </linearGradient>
    <linearGradient id="linear-gradient-plant-4" x1="87.5228" y1="3.7571" x2="76.5527" y2="8.4923" gradientUnits="userSpaceOnUse">
      <stop offset="0" stop-color="#3d871c"/>
      <stop offset="1" stop-color="#86b535"/>
    </linearGradient>
    <linearGradient id="linear-gradient-plant-5" x1="35.4693" y1="22.0279" x2="16.2233" y2="26.8077" gradientUnits="userSpaceOnUse">
      <stop offset="0" stop-color="#608a1f"/>
      <stop offset="1" stop-color="#7cad2a"/>
    </linearGradient>
  </defs>
  <g id="main-plant">
    <g>
      <g>
        <g>
          <path d="m47.2334,88.1408c-.1718.6097-.3734,1.1283.1881,1.5775-.0687.1093-.1294.2739-.1881.3944-.4597.9428-1.0159,2.9375-.9406,3.9439-4.7981-.2228.1519,2.7469,1.505,3.7467,1.2587.93,2.4366,1.9849,3.9505,2.4649-1.0403.3716-1.7705.4639-2.6337,1.2818-1.7207,1.6305-1.6064,5.6522-1.8812,7.9863,3.3384.8459,6.6127,2.3211,9.9704,3.0565-2.8914-.2658-8.8129-1.8854-11.2873-3.1551-1.1765-.6037-2.2058-1.7412-3.3862-2.3663l-.1881-.6902c-.1289-.2366-.4143-.1826-.9406-.6902-.2565-4.2201,1.4318-10.6557,4.1387-13.9021.0639-1.8472.2094-2.6691,1.6931-3.6481Z" style="fill: #c5bec8; stroke-width: 0px;"/>
          <path d="m77.8971,90.5071c.0241.029.4019.2291.5644.493-.2626,3.1476.8442,6.1358,1.3168,9.1695.1972,1.2654.4846,2.4563.5644,3.7467-1.2335.2107-.2776.8199-.5644,1.6761-.1641.4901-5.6534,3.5042-6.4902,3.8453-2.5795,1.0512-13.5341,4.0035-15.8022,3.5495-.293-.2252-.2592-.3893-.2822-.3944-3.3577-.7354-6.632-2.2106-9.9704-3.0565.2748-2.3341.1605-6.3558,1.8812-7.9863,4.0713-2.1034,9.0625-.0533,13.4506.3944l7.9011-2.1691.6584-.2958-.1881-.2958c.1502-.5659.64-.3356.7525-.3944,1.48.8506,4.6691-1.2968,5.2674-2.7607.0093-.0227.3408-.1277.3762-.2958.0683-1.7909-.037-5.1599.5644-5.2256Z" style="fill: #776d77; stroke-width: 0px;"/>
          <path d="m80.1546,106.4797c-2.6624,1.0251-4.9092,3.0193-7.5248,4.141-1.9499.8362-10.4298,3.3308-12.416,3.5495-.1421.0156-.2081.0279-.1881.1972-3.5061.2715-9.7408-2.2381-13.3566-3.1551-.1668-.6177-.4868-1.1997-.7525-1.7747,2.4744,1.2697,8.3958,2.8892,11.2873,3.1551.023.005-.0108.1692.2822.3944,2.268.454,13.2227-2.4983,15.8022-3.5495.8368-.341,6.326-3.3552,6.4902-3.8453.2868-.8563-.6691-1.4654.5644-1.6761.0046.0744.3038-.095.1881,1.4789-.1112.1726-.369,1.0274-.3762,1.0846Z" style="fill: #5f5566; stroke-width: 0px;"/>
          <path d="m50.6196,98.1976c3.6729,2.2166,2.1012.7956,2.9159.5916.1447-.0362,1.3663.8144,2.8218.1972,1.3083.783,2.8095.8541,4.2327,1.1832.2492.0576.3149.3355.5644.3944.2986.0705.6506.5231,1.2228.3944,2.4957-1.3005,6.3583-1.4185,7.9951-1.9719l.5644.1972.1881.2958-.6584.2958-7.9011,2.1691c-4.3881-.4477-9.3794-2.4977-13.4506-.3944.8632-.8179,1.5934-.9102,2.6337-1.2818-1.5139-.48-2.6919-1.5349-3.9505-2.4649,1.1884-.5972,2.2578,2.2197,2.8218.3944Z" style="fill: #c5bec8; stroke-width: 0px;"/>
          <path d="m46.2928,94.0566c.0097.1301-.0045.2635,0,.3944.207.9542,3.4132,3.1953,4.3268,3.7467-.564,1.8253-1.6335-.9916-2.8218-.3944-1.3531-.9998-6.3031-3.9695-1.505-3.7467Z" style="fill: #e2e1e1; stroke-width: 0px;"/>
          <path d="m77.8971,90.5071c-.6013.0657-.496,3.4347-.5644,5.2256-.0354.1681-.367.2731-.3762.2958-1.1635.0334-2.9157,1.5304-5.2674,2.7607-.1125.0588-.6023-.1715-.7525.3944l-.5644-.1972c.2666-.0902,1.7391-1.1028,2.2575-1.3803.66-.3534,1.0474-.5435,1.6931-.986,1.0806-.7405,2.7857-.8891,1.6931-4.2396-.4996-1.532-2.532-1.8517-3.104-2.2677-3.2853-2.3892-3.5102-3.8724-8.9357-2.7607.132-.8833.1803-1.6655.3762-2.5635,3.3364-.0664,11.6144,3.3959,13.5447,5.7186Z" style="fill: #8a8796; stroke-width: 0px;"/>
          <path d="m76.9565,96.0285c-.5983,1.4639-3.7873,3.6113-5.2674,2.7607,2.3516-1.2303,4.1039-2.7273,5.2674-2.7607Z" style="fill: #5f5566; stroke-width: 0px;"/>
        </g>
        <g>
          <path d="m80.1546,106.4797c-.0817.6406-.2725,1.1695-.3762,1.7747-.6114,3.5672-1.4372,7.1282-2.2575,10.6484-.1233.5293-.2499,1.0498-.3762,1.5775-.1137.4749-.1281,1.1364-.1881,1.3803-.0861.35-.1072.6837-.1881.986-.0958.358-.1016.6926-.1881.986-.0177.0601.0189.1383,0,.1972l-.3762.7888c-2.3713.9797-4.2336,3.1635-6.5842,4.141q1.505-9.1695,3.0099-18.3389c2.6156-1.1217,4.8625-3.1159,7.5248-4.141Z" style="fill: url(#linear-gradient-plant); stroke-width: 0px;"/>
          <path d="m45.9166,109.4376c.2657.5751.5857,1.1571.7525,1.7747,1.397,5.1734,2.0478,11.9713,3.3862,17.353-.1677-.195-3.5402-2.532-4.1387-2.9579-.418-1.2805-.6414-2.9699-.9406-4.3382-.1545-.7067-.2092-1.9414-.3762-2.7607-.2677-1.3127-.4921-2.6327-.7525-3.9439-.4938-2.4859-1.0353-4.9668-1.3168-7.4933,1.1804.6251,2.2097,1.7626,3.3862,2.3663Z" style="fill: #b3a9b4; stroke-width: 0px;"/>
          <path d="m72.6297,110.6208q-1.505,9.1695-3.0099,18.3389c-2.0389.8478-7.0771,1.6767-9.406,1.5775v-16.367c1.9862-.2186,10.466-2.7132,12.416-3.5495Z" style="fill: url(#linear-gradient-plant-2); stroke-width: 0px;"/>
          <path d="m60.0256,114.3674v16.1698l-9.7823-1.7747c-.1272-.2671-.1792-.1868-.1881-.1972-1.3384-5.3817-1.9892-12.1796-3.3862-17.353,3.6158.9169,9.8504,3.4266,13.3566,3.1551Z" style="fill: #5f5566; stroke-width: 0px;"/>
          <g>
            <path d="m50.0552,128.5653c.0089.0104.0609-.0699.1881.1972.0645.1355-.0424.6825,0,.986-.1302-.0622-.2489-.1304-.3762-.1972-1.5416-.8087-2.7465-1.3086-3.5743-2.9579-.1524-.3036-.2703-.6616-.3762-.986.5985.4259,3.9709,2.7629,4.1387,2.9579Z" style="fill: #776d77; stroke-width: 0px;"/>
            <path d="m73.7585,130.1428c-.7045.1946-1.2475.5726-1.3168.5916-.4443.1213-.8722.2744-1.3168.3944-.4736.1278-1.0324.4671-1.505.5916-.5553.1463-1.1317.2696-1.6931.3944-2.9297.6512-4.0794.9297-7.1486.5916-.399-.044-.4267-.1777-.5644-.1972v-1.9719c2.329.0991,7.3672-.7297,9.406-1.5775,2.3507-.9775,4.213-3.1613,6.5842-4.141l1.505,2.6621-3.9505,2.6621Z" style="fill: #27232c; stroke-width: 0px;"/>
            <path d="m60.0256,130.5372h.1881v1.9719c-3.0338-.4292-7.2286-1.4495-9.9704-2.7607-.0424-.3035.0645-.8505,0-.986l9.7823,1.7747Z" style="fill: #3a2f39; stroke-width: 0px;"/>
          </g>
          <path d="m60.2138,130.5372h-.1881v-16.1698c-.02-.1693.046-.1816.1881-.1972v16.367Z" style="fill: #8a8796; stroke-width: 0px;"/>
        </g>
      </g>
      <g>
        <path d="m98.5904,49.2938c-.0768.0878-.9824,1.7343-.9406,2.1691-2.8385.6461-.5388,1.2996,1.505,2.3663,1.1831.6175,2.3857,1.1619,3.5743,1.7747-.4588.2376-.2207.6917-.1881,1.1832l-6.7724-3.1551c-.2349-.3641-1.7757-2.632-1.8812-2.7607,1.2859-.6419,3.5131-1.935,4.703-1.5775Z" style="fill: #6f8c20; stroke-width: 0px;"/>
        <path d="m49.679,62.3085c-2.2326.8488-1.8071-.682-1.9753-.7888-.3878-.246-3.7819.6349-4.5149.5916-1.3916-.0822-1.0178-.3678-1.2228-.3944-.0192-.0025.0671-.3567-.0941-.3944-.8255-.1929-3.3518.1409-4.609,0-.0555-.1757-1.5395-2.2441-2.3515-2.7607-.9655-.6142-2.7503-1.1048-3.8565-1.1832,1.0807-.7245,2.3375-.9706,3.5743-1.1832.9013-.1549,1.4733-.109,2.2575-.1972,3.5021-.3937,8.4498-.8081,11.7576.5916,4.0916,1.7313,2.6936,5.0879,1.0347,5.7186Z" style="fill: #26520c; stroke-width: 0px;"/>
        <path d="m59.2732,35.4903l-.7525,1.1832c-.1273-.2647-3.3866-3.8698-3.8565-4.3382-4.6547-4.6404-9.5999-7.0915-15.9903-7.8877-1.4692,2.8263-3.1208,3.3242-4.4208,4.5354-.4344.4048-1.0826.5987-1.505.986-.1266-.0152-.2967.0292-.3762,0-.5089-.1871-.8558.0579-1.3168.1972-.5705-.8275,1.5243-2.4268,2.1634-2.1691.2886-1.3242,3.8318-3.2956,5.3614-4.3382.0626-.0022.1256.0035.1881,0,.605-.0336,1.0421.178.9406-.3944,2.338.5844,5.1417.2012,9.8763,2.9579,3.8582,2.2463,6.7103,5.9683,9.6882,9.2681Z" style="fill: #57851d; stroke-width: 0px;"/>
        <path d="m61.3425,31.5465c.0444.1221.1998,2.1737.7525,1.6761.5517-1.7657,1.5063-3.3568,2.2575-5.0284h.3762c-.2747.5938-1.9913,4.7522-2.0693,5.0284-.2517.8908-.4075,3.5717-.5644,4.4368-.2321-.0376-.55.0584-.7525,0,.0123-2.5726,1.0686-4.2837-.9406-2.7607.3764-.9027-.4906-2.8603-.9406-4.0425-.6351-1.6683-2.9584-6.8241-3.9505-7.9863.7289.2872.8634.1827,1.505-.1972,1.3043,3.0099,3.2005,5.7758,4.3268,8.8737Z" style="fill: #647316; stroke-width: 0px;"/>
        <path d="m59.6494,35.6875c.4894.5387.931,1.7521,1.6931,1.9719.2024.0584.5204-.0376.7525,0-.739,4.0766-.8288,2.0414-1.1287,2.6621-.0217.0449.4029.4726.1881.986-.1356.3241-.8486.3433-1.1287.0986-.8662-.7567-1.2952-4.2965-1.505-4.7326l.7525-1.1832c.0201.0223.3556.1745.3762.1972Z" style="fill: #84881b; stroke-width: 0px;"/>
        <path d="m66.0455,23.6588c.1377-.0048.3847.2728.3762.2958-.082.2221-1.6261,3.2532-2.0693,4.2396-.7511,1.6716-1.7057,3.2627-2.2575,5.0284-.5527.4976-.7081-1.554-.7525-1.6761.4929-.1487.5293-.9417.5644-.986.0283-.0358.3387.1167.7525-.493.5268-.7761.5239-1.4115.5644-1.4789.9752-1.6266,2.1994-2.8688,2.2575-4.9298-.0614.9311.2197.5184.5644,0Z" style="fill: #a7a339; stroke-width: 0px;"/>
        <g>
          <path d="m65.8574,20.3065c-.8197-.1278-1.6804-4.6024-1.8812-3.2537-.05.3355,1.5574,4.7464,1.505,6.606-.0581,2.061-1.2822,3.3032-2.2575,4.9298-.4522-1.4502-1.9344-4.7202-2.0693-6.0144-.2166-2.0773.7915-3.9864-.1881-4.0425.6674-1.8356,1.6176-3.6154,2.5396-5.3242.3584-.0036.8188,3.2582,2.3515,7.0989Z" style="fill: #447017; stroke-width: 0px;"/>
          <path d="m63.2237,28.5886c-.0404.0674-.0376.7028-.5644,1.4789-.4138.6097-.7242.4572-.7525.493-2.6195-5.5861-3.0127-6.3298-.9406-12.0288.9796.0561-.0285,1.9651.1881,4.0425.1349,1.2941,1.6171,4.5641,2.0693,6.0144Z" style="fill: #26520c; stroke-width: 0px;"/>
          <path d="m65.8574,20.3065c.3176.7959.7215,1.4956.7525,1.5775.0425.1124-.0254.3939,0,.5916-.3926.6108-.5283,1.1289-.5644,1.1832-.3446.5184-.6257.9311-.5644,0,.0524-1.8595-1.5549-6.2704-1.505-6.606.2009-1.3487,1.0615,3.1259,1.8812,3.2537Z" style="fill: #57851d; stroke-width: 0px;"/>
        </g>
        <path d="m61.3425,37.6594c-.7621-.2198-1.2037-1.4332-1.6931-1.9719.1395-.3683.4642-.5702.7525-.7888,2.0092-1.523.9529.1881.9406,2.7607Z" style="fill: #a7a339; stroke-width: 0px;"/>
        <path d="m67.9267,23.6588c-.5416.5967-.6236,1.4974-.9406,2.1691-.9163,1.9419-2.5453,5.6276-3.0099,7.5919-.8022,3.3914-.1346,1.7689.4703,1.6761,1.3461-.2065-1.1038,2.6083-1.7871,6.9017-.3295.4705-1.1565.4523-2.4456,1.9719-.625-.3035-.5513-.6003-.5644-1.1832-.0265-1.1812.251-.8045.3762-1.3803.2801.2447.9932.2255,1.1287-.0986.2148-.5133-.2098-.9411-.1881-.986.2999-.6207.3898,1.4145,1.1287-2.6621.1568-.8651.3127-3.5461.5644-4.4368.078-.2762,1.7946-4.4346,2.0693-5.0284.8026-1.7346,3.0169-6.1323,3.1981-4.5354Z" style="fill: #6f6717; stroke-width: 0px;"/>
        <g>
          <path d="m99.1548,4.9255c-1.2789-.9078-2.3244-1.1216-2.4456-1.1832-9.2791-4.7135-16.0056-5.49-23.5151,2.7607-3.6681,4.0301-6.39,7.8011-6.0199,13.7049l.3762.1972c.4154-.8074,1.2144-2.4542,1.6931-3.0565,1.1436-1.4389,4.2655-4.1923,5.9258-5.127,2.1614-3.4849,4.1427-5.6424,1.0347-.8874,5.8223-1.8181,7.9844-4.3904,11.1932-6.4088.4176-.2627,1.6536-1.0808,1.7871-.5916-1.377.5655-4.1907,2.9298-5.3614,4.141,3.8504-.5614,7.6076-.1511,11.3813.5916v.3944c-9.4873-1.7325-17.8325-.2716-24.6438,7.2961-2.1768,2.4185-2.3067,3.1611-3.9505,5.7186-.0254-.1977.0425-.4792,0-.5916,1.0027-.4781.0145-1.399.1881-3.6481.5452-7.0614,8.2216-16.3777,14.8616-17.8459,5.0717-1.1215,9.9973.3117,14.5794,2.5635.8821.4335,2.9497,1.4382,2.9159,1.9719Z" style="fill: #d7e8b9; stroke-width: 0px;"/>
          <path d="m95.2043,9.4609c2.1105.3854,3.3298.9103,5.2674,1.5775.3343.7861,1.1397,1.813,1.6931,2.4649,2.0763,2.4461,3.2498,3.6732,6.3961,3.2537-1.2384.0982-2.598.7321-3.8565.7888-9.431.4249-19.5479-2.2753-28.4063,2.5635-1.2286.6711-4.9875,3.7489-5.8317,3.9439-1.8978.4384-2.0095-1.2427-3.4802,1.7747.317-.6718.399-1.5725.9406-2.1691.3639-.9309,4.4574-6.2294,4.3268-6.606-.1104-.3181-1.3528-.3286-1.6931-.2958,6.8113-7.5677,15.1565-9.0287,24.6438-7.2961Z" style="fill: url(#linear-gradient-plant-3); stroke-width: 0px;"/>
          <path d="m106.1153,13.2075c1.8626.9523,5.9041,3.3092,4.1387,3.5495-.5559-.004-1.1411-.0438-1.6931,0-3.1463.4196-4.3198-.8076-6.3961-3.2537-.5534-.6519-1.3588-1.6788-1.6931-2.4649,1.8852.6492,3.8576,1.256,5.6436,2.1691Z" style="fill: #37801b; stroke-width: 0px;"/>
          <path d="m96.7092,3.7423c-2.739-.0802-4.8499-.507-7.5248.5916-.1335-.4893-1.3695.3289-1.7871.5916-3.2088,2.0183-5.3709,4.5907-11.1932,6.4088,3.1081-4.755,1.1268-2.5976-1.0347.8874-1.6604.9348-4.7822,3.6882-5.9258,5.127.0517-1.4526.8396-2.6297,1.3168-3.8453.008-.0204-.276-.1751-.1881-.3944.7254-1.81,2.8509-4.9585,2.8218-6.606,7.5095-8.2507,14.236-7.4742,23.5151-2.7607Z" style="fill: url(#linear-gradient-plant-4); stroke-width: 0px;"/>
          <g>
            <path d="m96.7092,3.7423c.1212.0616,1.1666.2754,2.4456,1.1832,1.5524.8116,2.8695,1.9946,4.3268,2.9579l8.6536,8.9723c-.3306.5934-.7691-.0905-1.8812-.0986,1.7654-.2403-2.2761-2.5972-4.1387-3.5495-3.0488-2.1055-7.2752-3.4255-10.911-4.141-3.7737-.7427-7.5309-1.153-11.3813-.5916,1.1707-1.2112,3.9844-3.5755,5.3614-4.141,2.6749-1.0986,4.7859-.6718,7.5248-.5916Z" style="fill: #37801b; stroke-width: 0px;"/>
            <path d="m106.1153,13.2075c-1.7861-.9132-3.7585-1.52-5.6436-2.1691-1.9376-.6672-3.1568-1.1921-5.2674-1.5775v-.3944c3.6358.7155,7.8622,2.0355,10.911,4.141Z" style="fill: #aad261; stroke-width: 0px;"/>
            <path d="m98.4964,6.3058c1.6443.0215.8918,1.7378-.3762,1.5775-1.2255-.1548-1.6621-1.6041.3762-1.5775Z" style="fill: #37801b; stroke-width: 0px;"/>
          </g>
          <path d="m69.2436,17.3486c-.4787.6023-1.2777,2.2491-1.6931,3.0565l-.3762-.1972c-.3701-5.9038,2.3517-9.6748,6.0199-13.7049.0291,1.6475-2.0964,4.7959-2.8218,6.606-.0879.2193.1961.374.1881.3944-.4772,1.2156-1.2652,2.3926-1.3168,3.8453Z" style="fill: #88a634; stroke-width: 0px;"/>
          <path d="m67.9267,23.6588c-.1812-1.5969-2.3955,2.8009-3.1981,4.5354h-.3762c.4433-.9865,1.9873-4.0176,2.0693-4.2396.0085-.023-.2386-.3006-.3762-.2958.0361-.0543.1718-.5723.5644-1.1832,1.6438-2.5575,1.7737-3.3001,3.9505-5.7186.3403-.0328,1.5827-.0223,1.6931.2958.1306.3765-3.9629,5.675-4.3268,6.606Z" style="fill: #88a634; stroke-width: 0px;"/>
        </g>
        <path d="m50.6196,63.0973c4.96,3.0712,8.8665,7.6818,11.5694,13.0147.2326-.8005.587-1.5828.8465-2.3663,1.067,3.0285.5352,1.2973,3.0099,1.9719-.0811.2778-.1829.1844-.1881.1972-2.2236-.6696-1.8587,1.201-1.505,2.9579-.454,1.1012-.72,2.248-1.1287,3.3523-.8896-.164-.9465-.0785-1.6931.3944.0525-1.0789-.5583-3.8983-.9406-5.0284-1.9506-5.7657-6.9451-9.683-9.406-12.5217-1.4174-1.6349-1.8153-2.0725-.5644-1.9719Z" style="fill: #6f8c20; stroke-width: 0px;"/>
        <path d="m59.6494,42.7865c.0131.5829-.0606.8797.5644,1.1832-.3091.3644-1.1557,1.5936-1.3168,1.9719-3.4623-5.1623-7.6996-8.2008-13.3566-10.254-.291-.9099-1.056-1.2873-.5644-1.9719,8.4412,2.5269,13.6101,8.9116,14.3913,9.2681.0277.0126.1421-.2389.2822-.1972Z" style="fill: #57851d; stroke-width: 0px;"/>
        <path d="m43.0947,43.1808c.2952.0173.8319.0385,1.1287,0,4.7177,2.5992,9.8577,4.9025,13.3566,9.2681-.041.7608-.0309,1.6036,0,2.3663-3.0273-3.725-7.7918-7.2723-11.9457-9.4653-3.4266-1.809-3.4784-2.3171-5.5496-.3944.4161-1.2418,2.1014-1.2365,1.1287-1.7747.3472-.0404,1.5111-.0217,1.8812,0Z" style="fill: #57851d; stroke-width: 0px;"/>
        <path d="m66.6099,78.084c-.1235.1887-1.1223,2.6115-1.3168,3.1551-.5601-.1753-.6202,1.6505-.8465,1.7747-.4029.2211-.2002-1.0115-.5644-.986-.2871.0201-.3471,2.5134-.8465.986.0139-.038-.0087-.257.1881-.7888.4087-1.1043.6748-2.2511,1.1287-3.3523.2992-.7259.7982-1.2935,1.1287-1.9719l1.1287,1.1832Z" style="fill: #545d10; stroke-width: 0px;"/>
        <path d="m66.0455,75.7176c-2.4747-.6746-1.9429,1.0566-3.0099-1.9719.2283-.6895.2169-1.9094.9406-2.3663.2067.2777,1.1344,1.0527,1.505,1.2818-.4972.523.5673,1.9288.9406,2.7607.0762.424-.3694.2722-.3762.2958Z" style="fill: #647316; stroke-width: 0px;"/>
        <path d="m62.6593,69.8019c-.4909.2007.6594,1.4572-.0941,1.7747-3.2071,1.3515-2.1111-3.4398-2.3515-4.9298.928.3514,1.2885,1.6934,2.4456,3.1551Z" style="fill: #6f8c20; stroke-width: 0px;"/>
        <path d="m65.8574,75.9148c-.1325.3291-.2148.6546-.3762.986-.3305.6785-.8295,1.2461-1.1287,1.9719-.3537-1.7569-.7186-3.6275,1.505-2.9579Z" style="fill: #f5f8ed; stroke-width: 0px;"/>
        <path d="m97.6498,51.4629c.0471.4892,1.2315,1.7573,1.505,2.3663-2.0437-1.0668-4.3435-1.7202-1.505-2.3663Z" style="fill: #f5f8ed; stroke-width: 0px;"/>
        <g>
          <path d="m113.8282,35.6875c2.7205,1.8934,6.1258,4.2451,9.0298,5.7186.1166.117.3294.7516.5644.1972.7547.3326.6046.9373,1.6931.3944.5633,1.0853,1.9464,3.7014,2.2575,4.5354.0277.0742-.0126.7428.5644,1.4789-.2142.3782-6.6105-3.4616-7.4308-3.8453-8.201-3.8362-12.8657-3.5305-19.6586-11.8316.6914-.2,1.3631-.2274,1.1287-.986.8075,0,1.5559.0989,2.3515.1972l.5644.7888c3.0369.6265,6.1241,1.9494,8.9357,3.3523Z" style="fill: #1f7434; stroke-width: 0px;"/>
          <g>
            <path d="m86.5507,33.5184c.1361,2.1386-4.2525.4974-9.8763,2.1691-1.0674.3173-5.1309,2.0905-5.5496,3.1551-1.5093.9877-2.9527,2.1451-4.1387,3.5495-.7896-.5188-1.3635-.5648-2.2575-.5916,9.7157-9.4802,13.8242-7.3342,21.822-8.2821Z" style="fill: #57851d; stroke-width: 0px;"/>
            <path d="m101.9766,31.3493c.2344.7586-.4373.786-1.1287.986-.754.2181-10.6451,2.242-11.5694,2.3663-7.6442,1.0283-10.7469-.7061-18.1537,4.141.4187-1.0646,4.4821-2.8378,5.5496-3.1551,5.6239-1.6718,10.0125-.0305,9.8763-2.1691,3.9837-.4722,7.899-1.3005,11.8516-1.9719,1.4925.3017,2.9204-.1972,3.5743-.1972Z" style="fill: #6f8c20; stroke-width: 0px;"/>
          </g>
          <path d="m125.1155,41.9977c-1.0885.5429-.9384-.0618-1.6931-.3944-.3242-.1429-.5376-.1836-.5644-.1972-1.3441-1.3486-7.1126-4.762-9.0298-5.7186-2.8116-1.4029-5.8989-2.7258-8.9357-3.3523l-.5644-.7888c-.7956-.0983-1.544-.1972-2.3515-.1972-.6539,0-2.0818.4989-3.5743.1972-5.9952-1.2118-3.433-10.7364,7.9951-6.9017,7.692,2.5811,14.9252,10.0458,18.718,17.353Z" style="fill: #296213; stroke-width: 0px;"/>
          <path d="m122.858,41.4061c-2.904-1.4735-6.3093-3.8252-9.0298-5.7186,1.9173.9566,7.6857,4.37,9.0298,5.7186Z" style="fill: #36854f; stroke-width: 0px;"/>
          <path d="m123.4224,41.6033c-.235.5544-.4477-.0802-.5644-.1972.0268.0136.2402.0543.5644.1972Z" style="fill: #36854f; stroke-width: 0px;"/>
        </g>
        <g>
          <path d="m51.7483,83.6054c.3462.56-.3974,1.3006-.9406,1.3803-11.0155-5.3237-9.4522-14.2751-21.1636-11.24.7621,3.0032-.0059,4.3695-1.0347,6.9017-.3016-.5676.8168-2.2562.9406-3.2537.5346-4.3067-.589-3.6339-2.8218-3.6481.17-.086.3595-.1633.3762-.3944.9994-.2233,1.9945-.5964,3.0099-.7888,1.0094-.1912,3.6943.1443,4.1387-.7888,7.4001-.6551,7.6163,6.5606,17.4952,11.8316Z" style="fill: #6f8c20; stroke-width: 0px;"/>
          <path d="m57.3919,85.9717c.4779.3224,2.0663,1.8982,2.2575,2.5635-.868-.2048-.7958-1.0232-1.2228-1.1832-.3725-.1395-.2603.4035-.2822.3944-.054-.0226-.1333.0218-.1881,0-.8132-.3236-1.2493-.5016-2.0693-.7888-.6163-.2159-1.2629-.3053-1.505-.3944-1.2065-.444-2.4126-1.0161-3.5743-1.5775.5432-.0797,1.2868-.8204.9406-1.3803,1.2699.6775,4.1932,1.3876,5.6436,2.3663Z" style="fill: #647316; stroke-width: 0px;"/>
        </g>
        <path d="m49.679,62.3085c.1933.3522.628.5952.9406.7888-1.251-.1006-.853.337.5644,1.9719-.5083,5.1554-1.9335,2.858-.3762,5.5214-1.5525-1.6505-2.1889-.7371-1.8812.1972-.5559-.442-2.2326,1.1669-3.4802,1.3803-1.1816.2022-4.9522.1593-5.4555-1.1832-1.9061.2817-3.6402.176-5.5496,0-.0763-.007.1329-.4547-1.2228-.5916-1.3636-.1377-2.6944.0975-4.0446.1972-1.3858.1023-2.719.6117-4.1387.3944-2.4423-2.0476-5.1687-1.3544-5.4555-1.3803-.8782-.0795-2.0067-.1141-2.8218-.493-.0604-.4128,6.2353-4.0533,6.8664-4.2396,3.8093-1.1247,10.6411.7478,13.8269-2.9579,2.1663-.2512,4.548.7183,4.5149-.1972.2049.0265-.1688.3122,1.2228.3944.733.0433,4.1272-.8376,4.5149-.5916.1682.1067-.2573,1.6376,1.9753.7888Z" style="fill: #74a043; stroke-width: 0px;"/>
        <path d="m41.966,61.717c.0331.9154-2.3486-.054-4.5149.1972-.3271-.0004-.1245-.3901-.1881-.5916,1.2571.1409,3.7835-.1929,4.609,0,.1611.0376.0748.3919.0941.3944Z" style="fill: #abbb54; stroke-width: 0px;"/>
        <g>
          <path d="m25.4114,48.505c-1.052,1.4833,1.8191,2.3978.1881,4.5354v.1972c-5.7811.4226-13.6326,4.3421-17.9656,8.2821-.8855.8052-2.7817,2.7143-3.104,3.6481,4.5724-5.1561,14.8709-12.416,21.4458-10.747-.3363.0422-.6952-.0289-1.0347,0-.2834.1055-1.6991,2.2535-2.1634,2.7607-1.592,1.3518-2.0552,1.1115-2.1634,1.1832-1.2333.817-2.9101,2.5104-4.1387,3.3523-3.0705,2.1042-11.9679,6.9699-13.8269,9.3667-.0574.074.3391.8439-1.1287,1.2818,1.2029-3.1422,1.2088-6.7706,2.4456-9.9582,2.7977-7.2105,13.7697-16.8408,21.4458-13.9021Z" style="fill: #57851d; stroke-width: 0px;"/>
          <path d="m29.1738,50.6742c.128.1178.2115.2555.3762.3944,2.2761,1.9194,5.0654,3.0041,7.3367,4.9298-.7842.0882-1.3561.0423-2.2575.1972-1.4578-1.6546-6.5417-2.0399-8.6536-1.7747-6.5748-1.669-16.8734,5.591-21.4458,10.747.3223-.9338,2.2185-2.8428,3.104-3.6481,4.3329-3.94,12.1845-7.8595,17.9656-8.2821l2.9159-.5916c.2068-.2303-.5836-1.0078-.6584-1.1832-.1413-.3314-.6312-1.8133-.7525-1.9719l.3762-.1972c.063.091,1.4059,1.1162,1.6931,1.3803Z" style="fill: #88a634; stroke-width: 0px;"/>
          <path d="m22.7777,57.1815c-6.1876,6.7603-14.5197,10.4539-21.6339,15.9726-.0404-.4696.3606-.7478.3762-.7888,1.4678-.4378,1.0714-1.2078,1.1287-1.2818,1.859-2.3967,10.7564-7.2625,13.8269-9.3667,1.2285-.8419,2.9054-2.5352,4.1387-3.3523.1082-.0717.5714.1686,2.1634-1.1832Z" style="fill: #57851d; stroke-width: 0px;"/>
          <path d="m27.1045,49.491c.1213.1586.6112,1.6405.7525,1.9719l-2.2575,1.5775c1.631-2.1376-1.2401-3.0521-.1881-4.5354.091.0348.9143-.0326,1.6931.986Z" style="fill: #26520c; stroke-width: 0px;"/>
          <path d="m27.857,51.4629c.0748.1754.8652.9529.6584,1.1832l-2.9159.5916v-.1972l2.2575-1.5775Z" style="fill: #f5f8ed; stroke-width: 0px;"/>
        </g>
        <g>
          <path d="m42.3423,3.7423c1.7494,1.1783,3.1498,2.1482,4.5149,3.8453,1.6557,2.6267,3.5158,5.4582,4.703,8.1835-4.8571-4.1289-13.5952-8.381-19.8468-8.6765-2.41-.1139-4.6674.4364-7.0545.3944,6.1985-3.7101,10.3592-4.9979,17.6834-3.7467Z" style="fill: #6f8c20; stroke-width: 0px;"/>
          <path d="m44.0354,11.4328c-.5611,1.157-5.818.5751-5.8317,1.0846,1.2761.4886,2.6638.6645,3.9505,1.0846-.1036,1.9108-4.6434-.7454-5.3614.986-.749-.2169-1.9803-1.3123-2.3515-.7888-2.5007-.9853-6.1331-3.1418-8.7476-3.5495-3.9511-.6161-7.5541,1.4385-4.1387-.986.6759-.4798,1.4636-.7341,2.1634-1.1832,7.9885-1.3985,13.1934-.4072,20.3171,3.3523Z" style="fill: #88a634; stroke-width: 0px;"/>
          <path d="m49.4909,6.3058c-.958.7019,1.2424,1.8167,2.2575,3.2537,1.3721,1.9426,3.3775,7.3972,3.3862,9.9582-.8417-.9959-2.6751-2.9823-3.5743-3.7467-1.1872-2.7253-3.0473-5.5568-4.703-8.1835-1.3651-1.6971-2.7655-2.6669-4.5149-3.8453,2.4398.4168,4.9575,1.3711,7.1486,2.5635Z" style="fill: #37801b; stroke-width: 0px;"/>
          <path d="m57.9563,14.3907c-1.3912.6962.5744,3.7336,0,6.5074-.4711,2.275-1.3213.5026-1.8812,0-.0473-.6345-.5878-.963-.9406-1.3803-.0087-2.561-2.0141-8.0157-3.3862-9.9582-1.015-1.437-3.2154-2.5517-2.2575-3.2537,3.0889,1.681,6.5942,5.0168,8.4654,8.0849Z" style="fill: #296213; stroke-width: 0px;"/>
          <path d="m42.1541,13.6019c5.8353,1.9049,9.6986,4.6352,10.2526,4.7326.264.0464.2823-.1947.4703-.1972.2277.2865,1.8804,1.6925,1.8812,1.8733l-.2822.2958c-2.2354-2.5366-11.8919-4.1541-4.609-.986-3.2276-1.3985-6.8183-1.8928-10.0645-3.1551-1.8064-.7024-3.562-1.6573-5.3614-2.3663.3712-.5235,1.6025.5718,2.3515.7888.7181-1.7314,5.2579.9248,5.3614-.986Z" style="fill: #6f8c20; stroke-width: 0px;"/>
          <path d="m52.877,18.1374c-.1168-.1469-.2222-.3836-.1881-.5916,1.1973,1.0563,2.1944,2.2826,3.3862,3.3523.5599.5026,1.4101,2.275,1.8812,0h.5644c-.4356.6912-.7859,1.349-1.505,1.7747-.6416.3798-.7761.4844-1.505.1972-1.1076-1.2975-4.0556-2.8614-5.6436-3.5495-7.283-3.1681,2.3735-1.5506,4.609.986l.2822-.2958c-.0009-.1808-1.6535-1.5868-1.8812-1.8733Z" style="fill: #447017; stroke-width: 0px;"/>
          <path d="m51.5602,15.7711c.8992.7644,2.7326,2.7508,3.5743,3.7467.3528.4174.8933.7458.9406,1.3803-1.1918-1.0697-2.1889-2.296-3.3862-3.3523-2.6885-2.372-5.5037-4.4506-8.6536-6.113-7.1237-3.7595-12.3286-4.7508-20.3171-3.3523.3322-.2132.5973-.3861.9406-.5916,2.3871.042,4.6445-.5083,7.0545-.3944,6.2515.2955,14.9897,4.5476,19.8468,8.6765Z" style="fill: #d7e8b9; stroke-width: 0px;"/>
          <path d="m58.5207,20.8981h-.5644c.5744-2.7737-1.3912-5.8112,0-6.5074,1.6991,2.786,2.3571,3.6625.5644,6.5074Z" style="fill: #26520c; stroke-width: 0px;"/>
          <path d="m52.6889,17.5458c-.0341.208.0714.4447.1881.5916-.188.0025-.2063.2436-.4703.1972-.554-.0974-4.4173-2.8277-10.2526-4.7326-1.2867-.42-2.6744-.596-3.9505-1.0846.0137-.5094,5.2707.0725,5.8317-1.0846,3.1499,1.6623,5.965,3.741,8.6536,6.113Z" style="fill: #57851d; stroke-width: 0px;"/>
        </g>
        <g>
          <path d="m39.7086,23.2644c.1015.5724-.3356.3608-.9406.3944-.7115-.4512-3.2167-.5843-4.2327-.5916-9.2726-.0663-20.3378,3.3973-27.5597,9.6624-1.5874,1.1183-4.9346,3.3635-5.4555,5.127l-1.1287.1972c2.0837-5.1421,8.0583-11.9896,12.416-15.1838,3.6504-2.6758,9.7719-5.5996,14.2031-5.9158,3.923-.2799,11.8335.8004,11.7576,6.2116.1492.219.6963.0375.9406.0986Z" style="fill: url(#linear-gradient-plant-5); stroke-width: 0px;"/>
          <path d="m35.5699,23.4616c-3.6758,2.9756-6.9918,6.5847-11.2873,8.5779.2386.51,5.9901-1.637,6.7724-1.8733.461-.1393.8079-.3843,1.3168-.1972-4.9369,2.3171-10.363,2.9185-15.52,4.3382-2.8478.784-5.6192,1.9547-8.4654,2.7607-1.0245.2901-2.8685.4421-4.1387.7888-3.9069,1.0663-4.9094,2.7956-3.8565.1972l1.1287-.1972c-.0679.2298-.2301.3325-.3762.493,4.6735-1.097,9.5589-2.2717,14.2031-3.8453l.1881-.986c2.6939-.7432,5.454-4.3972,8.0892-6.3102,1.8881-1.3707,3.9862-2.2863,5.9258-3.5495,1.9969-.2143,4.0147-.2269,6.0199-.1972Z" style="fill: #88a634; stroke-width: 0px;"/>
          <path d="m29.55,23.6588c-1.9396,1.2631-4.0377,2.1788-5.9258,3.5495-2.6352,1.913-5.3953,5.567-8.0892,6.3102l-.1881.986c-4.6443,1.5736-9.5296,2.7482-14.2031,3.8453.1461-.1604.3084-.2632.3762-.493.5209-1.7635,3.8681-4.0087,5.4555-5.127,6.362-4.482,14.9307-8.2506,22.5745-9.0709Z" style="fill: #88a634; stroke-width: 0px;"/>
          <path d="m38.768,23.6588c-.0625.0035-.1255-.0022-.1881,0-1.3398.0469-2.1719-.1848-3.0099-.1972-2.0051-.0297-4.0229-.0171-6.0199.1972-7.6438.8203-16.2125,4.5889-22.5745,9.0709,7.2219-6.2651,18.2872-9.7287,27.5597-9.6624,1.016.0073,3.5212.1404,4.2327.5916Z" style="fill: #d7e8b9; stroke-width: 0px;"/>
          <path d="m38.5798,23.6588c-1.5297,1.0427-5.0729,3.0141-5.3614,4.3382-.6391-.2576-2.7339,1.3416-2.1634,2.1691-.7822.2363-6.5338,2.3833-6.7724,1.8733,4.2955-1.9932,7.6115-5.6023,11.2873-8.5779.838.0124,1.6702.2441,3.0099.1972Z" style="fill: #57851d; stroke-width: 0px;"/>
        </g>
        <g>
          <g>
            <path d="m31.8075,39.4342c.4381.4255.8902,1.5014,1.6931.986,3.3723.9876,8.0755-2.9386,4.609.1972-4.8465.6098-4.5917.6738.2822,2.5635.2558.0992.2152.1475.1881.3944-1.9954,1.3543-4.325,2.0628-6.6783,2.1691v.3944c4.4687.0939,5.5352-1.4927,5.8317-1.5775,1.705-.4878-1.3,2.9926-3.9505,4.5354-1.9459,1.1327-2.5559,1.1217-4.609,1.5775-.2872-.2641-1.6301-1.2893-1.6931-1.3803-.6504-.9401-1.071-3.1831-1.1287-4.3382,2.5719.2522,1.3463-1.0375,1.8812-5.0284.2152-1.6053,1.3994-4.0867.3762-4.0425.4529-.921.9388-1.7161,1.505-2.5635-.6813,2.8568-.3272,4.1512,1.6931,6.113Z" style="fill: #57851d; stroke-width: 0px;"/>
            <path d="m26.352,44.9556c-.1726-3.4552.7937-6.094,2.2575-9.0709,1.0231-.0442-.1611,2.4371-.3762,4.0425-.5349,3.9909.6907,5.2806-1.8812,5.0284Z" style="fill: #57851d; stroke-width: 0px;"/>
            <path d="m40.0848,44.9556c-.4908,1.4646,1.1793,5.8879-4.609,6.5074-2.1951.2349-3.932-.5221-5.9258-.3944-.1647-.1389-.2482-.2766-.3762-.3944,2.053-.4558,2.663-.4448,4.609-1.5775,2.6505-1.5429,5.6555-5.0232,3.9505-4.5354-.2966.0848-1.363,1.6714-5.8317,1.5775v-.3944c2.3533-.1063,4.6829-.8148,6.6783-2.1691,1.135.1257,2.3909-.3662,2.6337-.3944.9726.5383-.7126.533-1.1287,1.7747Z" style="fill: #74a043; stroke-width: 0px;"/>
          </g>
          <g>
            <path d="m34.2531,28.983c2.2645-.0296,2.9621-.119,5.0793.5916-.1894,2.4466-1.4009,4.9792-2.8218,6.9017-1.0039,1.3583-2.3532,2.3432-3.2921,3.7467-.1452.0606-1.0795-.9753-1.2228-1.1832-1.5756-2.286-1.4546-5.5131-.1881-7.8877.3131-.3403.6077-.8779.9406-1.1832.4224-.3873,1.0705-.5812,1.505-.986Z" style="fill: #447017; stroke-width: 0px;"/>
            <path d="m31.9956,39.0398l-.1881.3944c-2.0203-1.9618-2.3744-3.2561-1.6931-6.113.7214-1.0797.8132-1.2128,1.6931-2.1691-1.2665,2.3746-1.3875,5.6017.1881,7.8877Z" style="fill: #88a634; stroke-width: 0px;"/>
            <path d="m43.8472,33.124c.3188.2642.6989.563,1.1287.5916-.4916.6846.2733,1.0621.5644,1.9719.624,1.9508.8669,3.9733-.1881,5.8172-.5319.9297-2.0812,1.3116-1.1287,1.6761-.2968.0385-.8335.0173-1.1287,0-1.8303-.5306,3.7594-3.3714,2.5396-4.5354-4.2202.7207-4.5496,1.2033-7.2427,4.5354-4.8739-1.8898-5.1287-1.9537-.2822-2.5635,3.4665-3.1358-1.2367.7904-4.609-.1972,3.1002-2.8748,6.3497-5.8865,10.3467-7.2961Z" style="fill: #447017; stroke-width: 0px;"/>
            <path d="m43.0947,43.1808c-.3701-.0217-1.534-.0404-1.8812,0-.2428.0282-1.4987.5201-2.6337.3944.0271-.2469.0676-.2952-.1881-.3944,2.6931-3.3322,3.0224-3.8148,7.2427-4.5354,1.2198,1.164-4.3699,4.0048-2.5396,4.5354Z" style="fill: #447017; stroke-width: 0px;"/>
            <path d="m43.8472,33.124c-3.9969,1.4096-7.2464,4.4214-10.3467,7.2961-.8029.5154-1.2549-.5605-1.6931-.986l.1881-.3944c.1433.2079,1.0776,1.2438,1.2228,1.1832.939-1.4035,2.2882-2.3884,3.2921-3.7467,1.992-.5057,4.2988-3.0578,6.208-4.4368-.2372-.1962-.3894-.4368-.5644-.6902.93.1742,1.5992,1.6969,1.6931,1.7747Z" style="fill: #447017; stroke-width: 0px;"/>
            <path d="m42.1541,31.3493c.175.2533.3272.494.5644.6902-1.9091,1.379-4.216,3.9312-6.208,4.4368,1.4209-1.9225,2.6324-4.4551,2.8218-6.9017,1.1507.3862,2.0659.6802,2.8218,1.7747Z" style="fill: #447017; stroke-width: 0px;"/>
          </g>
        </g>
        <g>
          <path d="m64.7287,41.8005c.894.0267,1.4678.0728,2.2575.5916,1.3514.8879,2.0846,3.2146,2.8218,4.5354-.228.8105-3.5018-.4573-5.8317.6902.0644.4159,4.5493-1.6053,6.7724,1.2818.0276.0485-.0276.1487,0,.1972-1.9816.365-3.2229,1.4149-5.1733,2.3663-.5667.5146-3.8501,5.2672-4.0446,5.8172-.018.0508.1974.4028,0,1.0846-.2228.5463-.5779,1.0924-.7525,1.6761-.441,4.63.0718.6743.7525-1.6761.9367-2.2965,2.4438-4.2914,4.0446-6.113,1.3739.9499,3.8632.4652,4.2327,1.9719-.4718.5084-2.4749,3.2404-2.6337,3.6481-1.2591,3.2332,3.1791-4.6688,5.4555-5.4228.2623.4666.6623.9048.9406,1.3803-1.4992,2.3304-1.9248,5.1067-2.4456,7.7891.1196.168.2605.1727.3762,0,.214-.3192.8529-5.4088,2.2575-7.3947.4196.7099,3.1512,4.3523,3.1981,4.634l-1.1287,6.5074c.3404.8574,1.3305-5.2331,1.505-5.7186.1959-.1962.5085.7578.7525,1.0846-.9069,1.2491-.6518,6.0307-1.3168,7.1975-1.6748,2.9385-.4643-2.879-1.599-2.4649-.7927.2893-1.4445,5.0965-1.9753,6.113-2.4018,2.6936-.4261.8842,0,1.6761.7924,1.4726-2.793,3.4254-3.8565,3.8453-.5557.2194-1.0739.041-1.599.1972-.1316.0392-.1976-.126-.2822-.1972-.2974.3051-.6111.6263-.8465.986l-1.1287-1.1832c.1614-.3314.2438-.6568.3762-.986.0052-.0128.1071.0806.1881-.1972.0069-.0236.4524.1282.3762-.2958-.3733-.8319-1.4378-2.2377-.9406-2.7607-.3706-.229-1.2983-1.004-1.505-1.2818-.414-.5563-.8867-1.0341-1.3168-1.5775-1.157-1.4617-1.5176-2.8036-2.4456-3.1551-.357-2.2134-2.4377-7.0021-2.6337-11.8316-.0309-.7627-.041-1.6056,0-2.3663.0837-1.5545.7366-5.1452,1.3168-6.5074.1611-.3783,1.0078-1.6076,1.3168-1.9719,1.289-1.5196,2.1161-1.5014,2.4456-1.9719.7055-.0796,1.3485-.2188,2.0693-.1972Z" style="fill: #447017; stroke-width: 0px;"/>
          <path d="m76.3922,47.1247c2.0783.0674-.0628.9239.1881,2.9579-.1641.064-.4967-.1417-.7525.2958.3427.3073.5763-.0795.7525-.0986.7727,2.1531,3.3706,2.9516,3.9505,5.127-1.1714.1499-3.3737-.5478-4.703-.3944-1.053-1.7582-2.3519-3.4413-3.3862-5.2256.0296-.5077,4.495-3.0316-.2822-.493-.457-.9122-1.1155-1.7636-1.4109-2.7607-.7824-2.6412.7833-4.0532,3.1981-4.7326.6979,1.8192,1.1109,3.6543,1.1287,5.62.5429.1436,1.1841-.3001,1.3168-.2958Z" style="fill: #57851d; stroke-width: 0px;"/>
          <path d="m85.2338,43.7724c.827,2.2414-4.2247-.3796-7.9951,1.3803-1.2599.5881-.9075.8018-.8465,1.9719-.1327-.0043-.774.4394-1.3168.2958-.0179-1.9657-.4308-3.8008-1.1287-5.62,3.6647-1.0311,7.9347.3528,11.2873,1.9719Z" style="fill: #447017; stroke-width: 0px;"/>
          <path d="m75.8278,55.0124c.0383.0639.112.3686.3762.7888.4228.6723.8846,1.3101,1.3168,1.9719.4612.7061,1.9893,3.9023,2.5396,4.141,3.3412.3693,4.3997.3325.2822.6902,1.3757,1.642,2.7172,4.8041,3.9505,6.2116l-.5644.1972c-1.1531-2.1476-2.7528-3.9528-4.1387-5.9158-.0202-.0286-.075-.1689-.3762-.5916-.3962-.5559-.7038-1.2057-1.1287-1.7747-.244-.3268-.5566-1.2808-.7525-1.0846-.1745.4855-1.1646,6.576-1.505,5.7186l1.1287-6.5074c-.0469-.2817-2.7785-3.9241-3.1981-4.634-.0655-.1109-.1229-.283-.1881-.3944-.2783-.4755-.6783-.9137-.9406-1.3803-.0151-.0269.0533-.1602-.1881-.5916-.528-.9433-1.1601-1.8262-1.6931-2.7607-.0276-.0484.0276-.1487,0-.1972-.4048-.7123-.5427-1.3966-.7525-1.7747l.7525-.5916c.2954.9971.9539,1.8485,1.4109,2.7607,4.7772-2.5386.3117-.0147.2822.493,1.0343,1.7843,2.3332,3.4674,3.3862,5.2256Z" style="fill: #f5f8ed; stroke-width: 0px;"/>
          <path d="m69.996,47.1247c.2097.3781.3476,1.0624.7525,1.7747-2.2231-2.8871-6.708-.8658-6.7724-1.2818,2.3299-1.1475,5.6038.1204,5.8317-.6902.0067.012.0456-.0597.1881.1972Z" style="fill: #57851d; stroke-width: 0px;"/>
          <path d="m88.0557,78.2811c.1346.0225,1.4357,1.9582,1.8812,2.9579.6584,1.4774.7934,2.3238,1.3168,3.7467.0001,1.064-1.0379,1.7168-1.8812,1.9719.0212-2.1155-1.4856-3.7048-2.2575-5.62-.5364-1.331-1.0013-3.0195-1.505-4.4368,1.9008.0009,1.9711,2.4212,2.4456,1.3803Z" style="fill: #447017; stroke-width: 0px;"/>
          <path d="m80.3427,55.9984c-.1349,5.416-1.4959,1.3361-2.8218,1.7747-.4322-.6618-.8941-1.2996-1.3168-1.9719.9178-.2657,3.1087.0241,4.1387.1972Z" style="fill: #447017; stroke-width: 0px;"/>
          <path d="m77.709,50.0826c.4925,1.6793,2.2591,2.0249,3.0099,3.4509.627,1.1908.1632,1.5959.1881,1.6761-.1664-.0097-.1882.1731-.3762.1972-.58-2.1754-3.1779-2.974-3.9505-5.127.4162-.0451.7393-.1395,1.1287-.1972Z" style="fill: #447017; stroke-width: 0px;"/>
          <g>
            <path d="m93.8874,50.8714c.1055.1286,1.6463,2.3966,1.8812,2.7607,4.7399,7.3487,7.686,21.3327,3.1981,29.2831-2.27,4.0214-3.7553,4.135-7.713,2.0705-.5235-1.4229-.6585-2.2692-1.3168-3.7467l-5.0793-11.1414c.9605.0307,3.9354,3.5166,4.3268,2.7607-1.3374-1.3456-3.6806-2.6609-4.8911-4.0425-1.2333-1.4075-2.5748-4.5695-3.9505-6.2116,4.1176-.3576,3.059-.3208-.2822-.6902-.5504-.2388-2.0785-3.4349-2.5396-4.141,1.326-.4386,2.6869,3.6413,2.8218-1.7747,3.5218.5917,6.9181,1.882,10.3467,2.8593-3.0098-1.4356-6.2646-2.347-9.5001-3.0565-.1963-.1318-.2198-.3905-.2822-.5916-.0249-.0803.4389-.4853-.1881-1.6761-.7508-1.426-2.5174-1.7716-3.0099-3.4509,7.3442-1.0872,9.2015,1.2928,9.6882,1.1832,1.8487-.4164-.492-.5624-.5644-.5916-3.0063-1.2109-7.2041-1.7798-10.2526-.5916-.2509-2.034,1.8902-2.8904-.1881-2.9579-.0609-1.1702-.4134-1.3838.8465-1.9719,3.7705-1.7599,8.8222.8611,7.9951-1.3803,2.6937,1.3009,6.7469,4.7735,8.6536,7.0989Z" style="fill: #26520c; stroke-width: 0px;"/>
            <g>
              <path d="m89.9369,81.239c-.4455-.9997-1.7466-2.9354-1.8812-2.9579.2309-.4983-.0304-1.4924-.5644-.8874-.1267-.4411-.4608-1.616-.5644-1.8733-.6981-1.7344-1.2691-3.5564-2.5396-4.9298-1.6444,2.6626-1.2294,5.8043-1.599,8.7751-.7421-2.6342,1.3007-9.0922.9406-10.3526l.5644-.1972c1.2106,1.3816,3.5537,2.6969,4.8911,4.0425-.3914.7559-3.3662-2.73-4.3268-2.7607l5.0793,11.1414Z" style="fill: #6f8c20; stroke-width: 0px;"/>
              <path d="m80.5308,55.4068c.1881-.0241.2098-.2069.3762-.1972.0624.2011.0859.4598.2822.5916,3.2355.7095,6.4903,1.6209,9.5001,3.0565-3.4286-.9773-6.8249-2.2676-10.3467-2.8593-1.03-.173-3.2208-.4629-4.1387-.1972-.2642-.4202-.338-.7249-.3762-.7888,1.3293-.1534,3.5316.5442,4.703.3944Z" style="fill: #88a634; stroke-width: 0px;"/>
              <path d="m77.709,50.0826c-.3894.0576-.7125.1521-1.1287.1972-.1762.0191-.4098.4059-.7525.0986.2558-.4374.5883-.2318.7525-.2958,3.0485-1.1882,7.2463-.6193,10.2526.5916.0724.0292,2.4131.1751.5644.5916-.4867.1096-2.344-2.2704-9.6882-1.1832Z" style="fill: #74a043; stroke-width: 0px;"/>
              <path d="m91.3478,74.9289c2.8223,2.2666,3.5594,5.9424,5.5496,6.0144-1.9141.0909.2124,1.277-.2822,3.4509-.4407-3.8189-3.275-6.4851-5.2674-9.4653Z" style="fill: #57851d; stroke-width: 0px;"/>
              <path d="m94.1696,61.1254c1.7864.3398,4.1258,2.1662,4.609,4.0425-1.268-1.8724-2.7725-2.8898-4.609-4.0425Z" style="fill: #57851d; stroke-width: 0px;"/>
              <path d="m85.1398,63.4917c5.7387,1.3381,5.9014,2.346,0,.1972l-.0941-.0986.0941-.0986Z" style="fill: #6f8c20; stroke-width: 0px;"/>
              <path d="m94.1696,69.0131c.5464.302,1.4111,1.1801,1.7871,1.6761,1.9524,2.5753-.783.2735-1.7871-1.6761Z" style="fill: #6f8c20; stroke-width: 0px;"/>
              <path d="m97.932,73.3513c2.343,4.989,1.6329,5.3537-.0941.0986l.0941-.0986Z" style="fill: #708b49; stroke-width: 0px;"/>
              <path d="m94.3577,54.4208c.2843.0247.5842-.0852.8465.0986.1723.1207,1.0057,4.1185-.8465-.0986Z" style="fill: #26520c; stroke-width: 0px;"/>
              <path d="m91.5359,66.4496c2.8406,1.8255,2.498,2.999-.0941.0986l.0941-.0986Z" style="fill: #57851d; stroke-width: 0px;"/>
              <path d="m79.6843,46.3359c.3422-.2332,1.0522.3816,1.0347.493-.1216.7735-1.7234-.0235-1.0347-.493Z" style="fill: #447017; stroke-width: 0px;"/>
              <path d="m91.724,59.1535c.6732-.2942,1.4966,2.019,0,.3944-.1351-.1466-.1622-.3235,0-.3944Z" style="fill: #74a043; stroke-width: 0px;"/>
              <path d="m92.6646,53.4349c.2799-.1455.7699.2348.6584.493-.0728.1686-.9409-.3462-.6584-.493Z" style="fill: #74a043; stroke-width: 0px;"/>
            </g>
          </g>
          <path d="m70.7485,49.0966c.533.9345,1.1651,1.8174,1.6931,2.7607-.7146.9508-1.8353,1.5059-2.6337,2.3663-.3695-1.5067-2.8588-1.0221-4.2327-1.9719-1.6008,1.8215-3.1079,3.8165-4.0446,6.113.1974-.6818-.018-1.0337,0-1.0846.1945-.55,3.4779-5.3025,4.0446-5.8172,1.9505-.9514,3.1917-2.0013,5.1733-2.3663Z" style="fill: #57851d; stroke-width: 0px;"/>
          <path d="m79.214,62.5057c-.0971.8644.2944,1.9571-.3762,2.4649.7147.6927.3904,2.6776,0,3.6481-.4951-2.6789-.949-.6262-2.7278.7888-.0874.0695-.6931.1219-1.8812,1.1832-.639.5708.1905,1.3562-1.0347.986.5307-1.0164,1.1825-5.8237,1.9753-6.113,1.1347-.4141-.0758,5.4034,1.599,2.4649.6651-1.1669.41-5.9484,1.3168-7.1975.4249.5691.7326,1.2188,1.1287,1.7747Z" style="fill: #447017; stroke-width: 0px;"/>
          <path d="m72.6297,52.4489c-2.2764.754-6.7146,8.656-5.4555,5.4228.1588-.4077,2.1619-3.1397,2.6337-3.6481.7984-.8604,1.9191-1.4156,2.6337-2.3663.2414.4314.173.5647.1881.5916Z" style="fill: #aad261; stroke-width: 0px;"/>
          <path d="m73.7585,54.2236c-1.4045,1.9859-2.0434,7.0755-2.2575,7.3947-.1158.1727-.2567.168-.3762,0,.5208-2.6824.9464-5.4588,2.4456-7.7891.0652.1114.1226.2835.1881.3944Z" style="fill: #aad261; stroke-width: 0px;"/>
          <path d="m61.5306,58.3647c-.6806,2.3504-1.1935,6.3061-.7525,1.6761.1746-.5837.5296-1.1298.7525-1.6761Z" style="fill: #57851d; stroke-width: 0px;"/>
          <g>
            <g>
              <path d="m121.7293,72.9569c-1.7294-2.7456-3.6354-5.5103-6.208-7.4933-.0658-.0728-.1302-.1338-.1881-.1972-2.0294-2.2227-4.012-4.2925-6.3961-6.113-2.6809-2.0471-2.638-1.7674-5.2674-3.1551-.755-.3985-.8951-.371-.9406-.3944-1.1886-.6128-2.3912-1.1572-3.5743-1.7747-.2735-.609-1.4579-1.8771-1.505-2.3663-.0418-.4348.8638-2.0813.9406-2.1691,3.9895-4.5644,14.5041,3.8083,17.6834,8.1835,2.6866,3.6973,5.315,10.8791,5.4555,15.4796Z" style="fill: #26520c; stroke-width: 0px;"/>
              <path d="m108.9371,59.1535h-.5644c-.0714-.0552-.3025-.1418-.3762-.1972-.1377-.1034-.6285-.6945-2.0693-1.5775-.4803-.2943-1.012-.515-1.505-.7888-.2874-.1596-.6772-.2393-.7525-.5916,2.6294,1.3877,2.5865,1.108,5.2674,3.1551Z" style="fill: #6f8c20; stroke-width: 0px;"/>
            </g>
            <g>
              <path d="m108.9371,59.1535c2.3841,1.8205,4.3667,3.8902,6.3961,6.113l-.5644-.2958c.1558.3236.2687.8454.3762,1.0846-1.9768-2.7761-4.1231-4.8539-6.7724-6.9017h.5644Z" style="fill: #36854f; stroke-width: 0px;"/>
              <path d="m107.9965,58.9563c-.8711-.1683.5384.8901,2.0693,3.5495-1.4408.3012.2681,1.5597.3762,2.0705.1533.7238.166,3.8422.5644,5.7186-2.8506-.9783-4.8982-8.3163-6.208-11.733l1.1287-1.1832c1.4409.883,1.9316,1.4741,2.0693,1.5775Z" style="fill: #296213; stroke-width: 0px;"/>
              <path d="m107.9965,58.9563c.0738.0554.3048.142.3762.1972,2.6492,2.0479,4.7956,4.1256,6.7724,6.9017.0145.0322.1014.0638.3762.5916-.0108.2479.0986.8099.1881.986-.3726-.3532-.1003,2.0919,0,2.4649.2794,1.0385,2.0141,3.211.9406,4.0425-.3078-.6365-.7483-1.1915-1.1287-1.7747-.3214-.6115-.6044-1.164-.9406-1.7747-1.4763-2.682-2.9905-5.4369-4.5149-8.0849-1.5309-2.6593-2.9405-3.7177-2.0693-3.5495Z" style="fill: #26520c; stroke-width: 0px;"/>
              <path d="m105.9271,57.3787l-1.1287,1.1832c-.3425-.8935-1.4428-1.6473-.3762-1.9719.4929.2738,1.0247.4944,1.505.7888Z" style="fill: #26520c; stroke-width: 0px;"/>
              <g>
                <path d="m103.6697,55.9984c.0753.3523.4651.432.7525.5916-1.0666.3246.0337,1.0784.3762,1.9719,1.3098,3.4167,3.3574,10.7547,6.208,11.733-.3983-1.8764-.4111-4.9948-.5644-5.7186-.1082-.5108-1.817-1.7694-.3762-2.0705,1.5244,2.648,3.0386,5.4029,4.5149,8.0849.1788,1.0727.8791,1.6804.9406,1.7747.7192,1.3682,3.0317,5.7099,1.1287,1.7747,1.0735-.8314-.6612-3.004-.9406-4.0425-.1003-.373-.3726-2.8181,0-2.4649.8369,1.6453,1.8456,3.2502,2.6337,4.9298.2217.5979.2774.7783.5644,1.3803l.2822.986c.327-.4638-.2602-.9399-.2822-.986.123-.5875-.3867-1.0017-.5644-1.3803-1.1519-3.106-1.496-3.3702-2.8218-5.9158-.2749-.5278-.3618-.5594-.3762-.5916-.1075-.2392-.2204-.761-.3762-1.0846l.5644.2958c.0579.0634.1224.1244.1881.1972,2.2761,2.5187,4.511,5.0909,6.208,8.0849-.0169,1.7339-.7059,5.9833-1.6931,7.2961-6.4233-8.3021-16.7254-12.4431-17.4952-24.0575-.0326-.4914-.2707-.9456.1881-1.1832.0455.0234.1856-.0041.9406.3944Z" style="fill: #26520c; stroke-width: 0px;"/>
                <g>
                  <path d="m121.7293,72.9569c.006.1965.0019.3948,0,.5916-1.697-2.994-3.9319-5.5662-6.208-8.0849,2.5726,1.983,4.4786,4.7478,6.208,7.4933Z" style="fill: #36854f; stroke-width: 0px;"/>
                  <path d="m118.3431,72.5626c-.7881-1.6796-1.7968-3.2845-2.6337-4.9298-.0895-.1761-.1989-.738-.1881-.986,1.3258,2.5456,1.6699,2.8097,2.8218,5.9158Z" style="fill: #1f7434; stroke-width: 0px;"/>
                  <path d="m116.65,74.1401c1.903,3.9352-.4095-.4066-1.1287-1.7747.3804.5832.8209,1.1383,1.1287,1.7747Z" style="fill: #1f7434; stroke-width: 0px;"/>
                  <path d="m115.5213,72.3654c-.0615-.0943-.7618-.702-.9406-1.7747.3362.6107.6192,1.1633.9406,1.7747Z" style="fill: #1f7434; stroke-width: 0px;"/>
                  <path d="m118.9075,73.9429c-.2869-.6021-.3426-.7825-.5644-1.3803.1776.3786.6874.7929.5644,1.3803Z" style="fill: #1f7434; stroke-width: 0px;"/>
                  <path d="m119.5659,75.7176c.0374-.0106.2712.4959.2822.6902.071,1.2568-.5803-.606-.2822-.6902Z" style="fill: #26520c; stroke-width: 0px;"/>
                  <path d="m118.9075,73.9429c.0219.046.6092.5222.2822.986l-.2822-.986Z" style="fill: #1f7434; stroke-width: 0px;"/>
                </g>
              </g>
            </g>
          </g>
          <g>
            <path d="m83.7289,69.0131c.3601,1.2604-1.6827,7.7184-.9406,10.3526.3696-2.9708-.0454-6.1125,1.599-8.7751,1.2706,1.3735,1.8415,3.1954,2.5396,4.9298-3.3766-2.8052-1.9876-.5072-1.3168,1.3803.5037,1.4174.9686,3.1058,1.505,4.4368.7718,1.9152,2.2786,3.5045,2.2575,5.62-.0128.0039.0713.1469-.1881.1972-5.612,1.089-17.1856-5.684-21.4458-9.8596.5251-.1562,1.0433.0222,1.599-.1972,1.0635-.4198,4.6488-2.3726,3.8565-3.8453-.4261-.792-2.4018,1.0174,0-1.6761,1.2252.3703.3956-.4152,1.0347-.986,1.1882-1.0613,1.7938-1.1137,1.8812-1.1832,1.7787-1.415,2.2326-3.4677,2.7278-.7888.2328,1.2597.0601,2.4288.3762,3.6481l.3762-9.1695c1.3858,1.9629,2.9856,3.7682,4.1387,5.9158Z" style="fill: #447017; stroke-width: 0px;"/>
            <path d="m79.5902,63.0973l-.3762,9.1695c-.3162-1.2193-.1434-2.3884-.3762-3.6481.3904-.9704.7147-2.9554,0-3.6481.6706-.5078.2791-1.6005.3762-2.4649.3012.4226.3561.563.3762.5916Z" style="fill: #6f8c20; stroke-width: 0px;"/>
            <path d="m86.9269,75.5204c.1036.2573.4377,1.4322.5644,1.8733.534-.6051.7952.389.5644.8874-.4745,1.0408-.5448-1.3795-2.4456-1.3803-.6707-1.8875-2.0597-4.1855,1.3168-1.3803Z" style="fill: #447017; stroke-width: 0px;"/>
            <path d="m77.4268,78.4783l2.2575,4.5354c-.7919-.0715-3.0221-4.5015-2.2575-4.5354Z" style="fill: #447017; stroke-width: 0px;"/>
            <path d="m82.8823,79.8587l2.0693,4.9298c-1.3438-1.2584-1.7553-3.1595-2.0693-4.9298Z" style="fill: #57851d; stroke-width: 0px;"/>
          </g>
        </g>
        <path d="m65.293,81.239c-.4112,1.1492-.6797,2.3536-.9406,3.5495-.1959.898-.2442,1.6802-.3762,2.5635-.4733,3.1666-.1336,4.0635-.1881,4.4368-.3686,2.5254-1.6759,1.0151-1.8812.8874-.8136-.5061-1.2619-.4866-1.505-1.5775-.0439-.1969-.2282-.2331-.1881-.6902.0348-.3966,2.4363-6.3391,2.8218-7.3947.4994,1.5275.5595-.9658.8465-.986.3642-.0255.1614,1.2071.5644.986.2263-.1242.2864-1.95.8465-1.7747Z" style="fill: #647316; stroke-width: 0px;"/>
        <path d="m63.2237,82.225c-.1968.5318-.1743.7508-.1881.7888-.3855,1.0557-2.787,6.9982-2.8218,7.3947-.0401.4571.1443.4933.1881.6902-2.0414,1.0658-.9289-.3218-1.8812-2.5635-.1136-.2675-.264-.5207-.3762-.7888.0218.0092-.0903-.5339.2822-.3944.427.16.3548.9784,1.2228,1.1832.219.0517.334.375.5644.0986.0368-.3277.2473-1.0211.3762-1.2818.7171-1.45,1.2869-1.1588.1881-3.1551.6839-.3569.7198-.9072.7525-1.5775.7466-.4729.8035-.5584,1.6931-.3944Z" style="fill: #869722; stroke-width: 0px;"/>
        <path d="m34.4412,70.985c-.2777.3814-.1536.7162-.1881.7888-.4444.9331-3.1293.5975-4.1387.7888-.6367-1.0703-1.7319-1.7851-.9406-1.9719,1.3502-.0997,2.681-.3349,4.0446-.1972,1.3557.1369,1.1465.5845,1.2228.5916Z" style="fill: #26520c; stroke-width: 0px;"/>
        <g>
          <path d="m31.055,57.3787c1.1062.0784,2.891.569,3.8565,1.1832.8121.5166,2.296,2.585,2.3515,2.7607.0636.2014-.139.5912.1881.5916-3.1858,3.7057-10.0176,1.8332-13.8269,2.9579-.6312.1863-6.9268,3.8268-6.8664,4.2396.8152.3789,1.9436.4134,2.8218.493.5614,1.6016,1.3138,5.1308,3.1981,5.127-5.4637,3.3192-12.8049,11.0424-13.9209,17.5502-.629,1.4854-.9459,3.135-1.505,4.634-.2929.7854-.73.9274-.7525.986-.1721.4473-.3577,3.0237-1.1287,2.6621-4.014-12.3171-.9206-22.4695,8.7476-30.3677,1.4132-3.1563,10.6169-11.5574,13.1685-12.4231.5753-.1952,3.0142-.4407,3.6684-.3944Z" style="fill: #37801b; stroke-width: 0px;"/>
          <path d="m28.6094,80.6475c-2.6111,6.4268-12.5909,17.5328-19.0002,19.5221-1.2693.394-3.8186,1.1771-4.1387.3944.771.3616.9566-2.2148,1.1287-2.6621.0225-.0586.4596-.2006.7525-.986.5591-1.499.876-3.1486,1.505-4.634,1.0787-2.5473,1.8406-4.2,3.3862-6.5074,1.565-.1946-.5436,1.9085-.7525,2.6621-.9383,3.3858,2.6906-4.1086,3.0099-4.5354.4471-.5977.9571-1.2168,1.505-1.0846-.1201.2918-1.0483,2.8275-.4703,2.7607.3051-.9927.5698-2.2401,1.0347-3.1551,1.1359-2.2357,3.3363-3.5966,3.1981-4.7326,3.9357-3.1177,3.5377-2.2127,6.9605-3.9439,2.2328.0142,3.3565-.6586,2.8218,3.6481-.1238.9975-1.2422,2.686-.9406,3.2537Z" style="fill: #57851d; stroke-width: 0px;"/>
          <path d="m25.0351,70.985c.1102.0924,1.4242,1.9096,1.6931,2.3663-1.5322.3551-3.3592,1.3791-3.9505,1.3803-1.8842.0038-2.6367-3.5254-3.1981-5.127.2868.026,3.0132-.6673,5.4555,1.3803Z" style="fill: #26520c; stroke-width: 0px;"/>
          <path d="m26.7282,73.3513c.1129-.0262.2627.0254.3762,0-.0168.2311-.2062.3084-.3762.3944-3.4228,1.7312-3.0247.8262-6.9605,3.9439-2.8554,2.2619-5.4705,5.018-7.5248,8.0849-1.5456,2.3074-2.3075,3.9601-3.3862,6.5074,1.116-6.5078,8.4572-14.231,13.9209-17.5502.5914-.0012,2.4183-1.0253,3.9505-1.3803Z" style="fill: #ecf6b3; stroke-width: 0px;"/>
          <path d="m19.7678,77.6896c.1382,1.136-2.0622,2.4969-3.1981,4.7326-.036-.4508-.5466.3513-.5644.3944-.5478-.1323-1.0579.4869-1.505,1.0846-.3193.4268-3.9482,7.9212-3.0099,4.5354.2088-.7536,2.3175-2.8567.7525-2.6621,2.0544-3.0669,4.6695-5.823,7.5248-8.0849Z" style="fill: #88a634; stroke-width: 0px;"/>
          <path d="m16.5697,82.4222c-.4649.915-.7296,2.1624-1.0347,3.1551-.578.0668.3502-2.4689.4703-2.7607.0177-.0431.5284-.8451.5644-.3944Z" style="fill: #aad261; stroke-width: 0px;"/>
          <path d="m29.1738,70.5906c-.7913.1869.3039.9016.9406,1.9719-1.0155.1924-2.0105.5655-3.0099.7888-.1136.0254-.2634-.0262-.3762,0-.2689-.4567-1.5829-2.2739-1.6931-2.3663,1.4197.2173,2.7529-.2921,4.1387-.3944Z" style="fill: #57851d; stroke-width: 0px;"/>
        </g>
        <path d="m60.59,87.352c-.1289.2607-.3395.9541-.3762,1.2818-.2304.2764-.3453-.0469-.5644-.0986-.1912-.6653-1.7796-2.2411-2.2575-2.5635l1.505-.986c.5672.7728,1.4286,1.3627,1.6931,2.3663Z" style="fill: #604c64; stroke-width: 0px;"/>
        <path d="m50.8077,70.5906c1.9807,3.3874,9.5479,12.8387,9.9704,13.6063,1.0988,1.9963.529,1.705-.1881,3.1551-.2645-1.0036-1.1258-1.5935-1.6931-2.3663-1.2504-1.7034-9.696-13.3646-9.9704-14.1979-.3076-.9343.3287-1.8477,1.8812-.1972Z" style="fill: #57851d; stroke-width: 0px;"/>
      </g>
      <g>
        <path d="m54.382,86.5632c.2421.0891.8886.1785,1.505.3944-2.9098.3199-6.6134-.186-8.4654,2.7607-.5615-.4492-.3599-.9679-.1881-1.5775,1.8196-1.2007,4.9977-1.7584,7.1486-1.5775Z" style="fill: #726064; stroke-width: 0px;"/>
        <path d="m55.887,86.9576c.82.2872,1.2561.4652,2.0693.7888-.4511,2.6779-.8951.5653-2.1634.1972-3.4585-1.0036,2.0248,3.6787-3.3862.3944-.7982.073,2.8015,4.2726,3.6684,4.0425.2896.9256-.693.6162-1.7871.0986-.2103.0137-.307.5272-1.4109.5916-.3748.0219-.6365-.1502-1.1287-.1972.7435-.3481-.3539-.8239,0-1.2818.2226-.2879,2.1905.3243-.7525-1.4789-2.5884-1.5859-2.1433.0707-3.7624,0,.0587-.1204.1194-.2851.1881-.3944,1.852-2.9467,5.5557-2.4408,8.4654-2.7607Z" style="fill: #522823; stroke-width: 0px;"/>
        <path d="m50.9958,90.1127c-1.0619-.3343-1.0138,1.4021-.9406,2.2677.0197.2331.5553.2467.5644.493.006.1638-.0085.3854,0,.5916.0348.8458-.4137,1.5997-.6584,2.3663l-.1881-2.7607c-.6714,2.9648-.7412-.3932-1.9753.493,2.2032,3.4029.0509.5738-1.505.8874-.0045-.1309.0097-.2643,0-.3944-.0753-1.0063.4809-3.0011.9406-3.9439,1.6191.0707,1.1741-1.5859,3.7624,0Z" style="fill: #522823; stroke-width: 0px;"/>
        <path d="m50.9958,90.1127c2.943,1.8032.9751,1.1911.7525,1.4789-.3539.4578.7435.9337,0,1.2818-.3707-.0354-.7559.0242-1.1287,0-.0091-.2463-.5446-.2599-.5644-.493-.0732-.8656-.1213-2.602.9406-2.2677Z" style="fill: #36120b; stroke-width: 0px;"/>
        <path d="m74.3228,96.6201c-.6457.4425-1.0331.6325-1.6931.986-1.2562-1.037-.8897.737-3.104,1.1832-3.4306.6913-2.2978-.5418-2.5396-3.2537,4.8387-4.1717,4.7923-2.2251,5.1733-2.2677.2798-.0313,1.9183-2.9967,2.1634,3.3523Z" style="fill: #36120b; stroke-width: 0px;"/>
        <g>
          <path d="m74.3228,96.6201c-.2451-6.349-1.8836-3.3836-2.1634-3.3523-.381.0427-.3347-1.904-5.1733,2.2677.2419,2.7119-.891,3.9449,2.5396,3.2537,2.2143-.4462,1.8478-2.2202,3.104-1.1832-.5184.2776-1.9908,1.2902-2.2575,1.3803-1.6369.5535-5.4995.6714-7.9951,1.9719-.5722.1288-.9242-.3239-1.2228-.3944.1335-.4216,1.4113.4729,1.505-.2958.031-.2545-2.8188-4.5465-2.0693-.0986-1.4232-.3291-2.9245-.4001-4.2327-1.1832-1.4555.6172-2.6772-.2334-2.8218-.1972-.8147.204.757,1.625-2.9159-.5916-.9136-.5514-4.1198-2.7925-4.3268-3.7467,1.5559-.3136,3.7082,2.5156,1.505-.8874,1.234-.8862,1.3038,2.4718,1.9753-.493l.1881,2.7607c.2447-.7666.6933-1.5205.6584-2.3663.1765,1.7573,1.471,1.7412.5644,2.4649,2.8344,1.4215,4.4074,2.2526,1.3168-.986.2705-.6644,4.4902.8239.3762-1.8733,1.1039-.0644,1.2006-.5778,1.4109-.5916,1.0941.5176,2.0767.827,1.7871-.0986-.8668.2301-4.4665-3.9694-3.6684-4.0425,5.411,3.2843-.0723-1.398,3.3862-.3944,1.2683.3681,1.7123,2.4807,2.1634-.1972.0549.0218.1341-.0226.1881,0,.1123.2681.2626.5213.3762.7888,1.2541,7.2678-3.3697-1.0971-2.6337,2.4649.3137,1.5182,5.89.3991,3.9505,1.8733-.0709.0539-.4-.4222-.7525-.0986.4133.6312.7162.087.7525.0986,1.2658.4031,1.2269,1.1644,1.4109,1.1832.4166.0424-.0564-1.5652.6584-1.3803.2053.1277,1.5126,1.638,1.8812-.8874.0545-.3734-.2851-1.2702.1881-4.4368,5.4255-1.1117,5.6505.3715,8.9357,2.7607.572.416,2.6044.7357,3.104,2.2677,1.0926,3.3505-.6125,3.4991-1.6931,4.2396Z" style="fill: #36120b; stroke-width: 0px;"/>
          <g>
            <path d="m61.1544,100.5639c-.2494-.0589-.3151-.3368-.5644-.3944-.7494-4.4479,2.1004-.1559,2.0693.0986-.0937.7687-1.3715-.1258-1.505.2958Z" style="fill: #36120b; stroke-width: 0px;"/>
            <path d="m51.7483,92.8734c.4923.047.7539.2191,1.1287.1972,4.114,2.6972-.1058,1.2089-.3762,1.8733,3.0905,3.2386,1.5176,2.4075-1.3168.986.9066-.7237-.3879-.7076-.5644-2.4649-.0085-.2062.006-.4278,0-.5916.3728.0242.758-.0354,1.1287,0Z" style="fill: #522823; stroke-width: 0px;"/>
            <path d="m60.4019,91.0987c.243,1.0909.6914,1.0715,1.505,1.5775-.7148-.1848-.2418,1.4228-.6584,1.3803-.184-.0187-.1451-.78-1.4109-1.1832,1.9395-1.4742-3.6369-.3551-3.9505-1.8733-.736-3.562,3.8878,4.8029,2.6337-2.4649.9524,2.2417-.1602,3.6293,1.8812,2.5635Z" style="fill: #522823; stroke-width: 0px;"/>
            <path d="m59.7435,93.8594c.0729.0064,1.0204.8904,1.0347,1.0846.1538,2.0964-1.9837-1.1681-1.0347-1.0846Z" style="fill: #522823; stroke-width: 0px;"/>
            <path d="m58.991,95.6341c.4431-.1512,1.0439.3345,1.2228.6902,1.007,2.0021-1.8341-.4816-1.2228-.6902Z" style="fill: #522823; stroke-width: 0px;"/>
            <path d="m57.1098,94.451c.0482.1866.7208,1.3029.5644,1.3803-.2196.1088-1.121-.5047-.5644-1.3803Z" style="fill: #522823; stroke-width: 0px;"/>
            <path d="m58.0504,92.8734c.0464-.0176.5489.7397.5644.7888.4562,1.4529-1.1233-.5764-.5644-.7888Z" style="fill: #522823; stroke-width: 0px;"/>
            <path d="m59.8375,92.8734c-.0363-.0116-.3392.5326-.7525-.0986.3524-.3236.6815.1525.7525.0986Z" style="fill: #522823; stroke-width: 0px;"/>
            <path d="m55.981,95.0425c.1165.0106.4494.4705.1881.5916-.4017.1862-.5468-.6241-.1881-.5916Z" style="fill: #522823; stroke-width: 0px;"/>
          </g>
        </g>
      </g>
    </g>
  </g>
</svg>