<?xml version="1.0" encoding="UTF-8"?>
<svg id="Layer_2" data-name="Layer 2" xmlns="http://www.w3.org/2000/svg" xmlns:xlink="http://www.w3.org/1999/xlink" viewBox="0 0 91.4835 222.519">
  <defs>
    <linearGradient id="linear-gradient-lamp" x1="-153.4316" y1="-97.9613" x2="22.6062" y2="-84.1886" gradientTransform="translate(77.1879 67.4095) scale(.2785)" gradientUnits="userSpaceOnUse">
      <stop offset="0" stop-color="#2d736d"/>
      <stop offset=".8466" stop-color="#0f121b"/>
    </linearGradient>
    <linearGradient id="linear-gradient-lamp-2" x1="-183.7691" y1="-107.6741" x2="-278.6013" y2="-82.2141" gradientTransform="translate(77.1879 67.4095) scale(.2785)" gradientUnits="userSpaceOnUse">
      <stop offset="0" stop-color="#5eb1a5"/>
      <stop offset="1" stop-color="#339591"/>
    </linearGradient>
    <linearGradient id="linear-gradient-lamp-3" x1="-74.8438" y1="-259.2646" x2="-173.309" y2="-130.9755" gradientTransform="translate(77.1879 67.4095) scale(.2785)" gradientUnits="userSpaceOnUse">
      <stop offset="0" stop-color="#36908d"/>
      <stop offset=".5629" stop-color="#152d30"/>
      <stop offset="1" stop-color="#0c0f16"/>
    </linearGradient>
  </defs>
  <g id="main-lamp">
    <g>
      <g>
        <path d="m72.8208,66.8803l-.6964-.239c-7.6157,2.8507-16.2279,4.3397-24.2337,4.3015-2.3708.8617-4.1429.7104-6.2673.7169-3.461.0106-9.0334-.4894-12.5347-.9559q4.8746-21.9853,9.7492-43.9706c2.3464.0271,4.6286-.1107,6.9637-.239-.4669.4205,2.6819.3472,4.3175.239,6.9542-.4601,15.1524-2.4269,21.3089-5.2574,4.4036-2.0245,8.6206-4.4531,10.0277-8.8419-.117,7.257,5.17,41.5133,4.7353,44.0901-.7968,4.7238-8.8288,8.4192-13.3703,10.1563Z" style="fill: url(#linear-gradient-lamp); stroke-width: 0px;"/>
        <path d="m27.139,25.7773q-4.4568,20.8502-8.9135,41.7004l-.6964.3585C9.9033,65.4735-.3411,61.3857.1198,53.2589c.2226-4.5702,3.5735-32.6214,4.4568-38.2353,4.1984,7.0172,14.1268,9.5428,22.5624,10.7537Z" style="fill: url(#linear-gradient-lamp-2); stroke-width: 0px;"/>
        <path d="m38.838,26.7332q-4.8746,21.9853-9.7492,43.9706c-8.3196-1.1085-20.9419-4.1214-26.4621-9.9173C-.4519,57.5541-.0592,56.9331.1198,53.2589c-.4609,8.1267,9.7835,12.2145,17.4092,14.5772l.6964-.3585q4.4568-20.8502,8.9135-41.7004c3.8983.5596,7.7442.9102,11.699.9559Z" style="fill: #338d84; stroke-width: 0px;"/>
        <g>
          <path d="m81.4558,12.6339c-1.4071,4.3888-5.6241,6.8174-10.0277,8.8419-8.9471,2.4893-16.1346,4.4968-25.6264,5.0184-2.3351.1283-4.6173.2661-6.9637.239-3.9548-.0457-7.8007-.3963-11.699-.9559-8.4356-1.2109-18.3639-3.7365-22.5624-10.7537.1643-1.0443-.1078-2.1761.2785-3.2261,4.9291-15.3083,72.8968-16.4298,76.6007.8364Z" style="fill: url(#linear-gradient-lamp-3); stroke-width: 0px;"/>
          <path d="m71.4281,21.4758c-6.1565,2.8304-14.3547,4.7972-21.3089,5.2574-1.6356.1082-4.7844.1815-4.3175-.239,9.4918-.5216,16.6793-2.5291,25.6264-5.0184Z" style="fill: #34676e; stroke-width: 0px;"/>
        </g>
      </g>
      <g>
        <path d="m68.6426,191.3841c1.1911.4522,3.4629,1.3255,4.4568,1.9118.7747.457,2.9695,2.2052,3.6211,2.8676,1.2606,1.2817,1.6824,2.3209,1.9498,2.6287.1923.2213.3639.4793.5571.7169.0466.0574.3433.972.5571,1.3143,4.4437,3.0143,5.1571,6.0914,1.6713,10.0368-2.0993,2.376-1.607.3722-3.064.3585,2.2982-2.5442,3.2093-6.5586,1.532-9.5588-.1945-.0243-.3246,1.4043-1.532,3.1066-1.0363-.1542-1.6092.2743-1.8106.239-.1428-.0251-.1411-.8253-.9749-.7169.4559-1.1858.6506-4.579,0-5.6158-.6075-.9682-.1645.6398-2.2284,3.2261l-2.5069-.7169c.1818-.3272.1921-.8672.2785-1.1949.0131-.0498.3867-.0111.4178-.9559l-6.5459-.9559c.0917-.3828.046-2.5154-.4178-2.6287-.8586.8598-1.6295,1.6477-2.6462,2.3897,1.4412-1.7703-2.2795-.2693-3.6211-.7169.508-.3856,2.4441-2.4502.9749-2.3897-.6629.0273-3.1395,3.5256-12.2561,3.5846v.4779c2.8572-.0897,5.9833.2582,8.7743-.4779.7172,1.3965.3913,1.8128-.8356,2.8676-3.5454.7771-6.1916.518-9.1921.7169l-.1393-3.1066c-3.1776-.0731-6.3057.0398-9.4706.239-.4052.8093-4.4044,2.5098-3.7604,3.2261.4209.4681,8.2237-.0821,9.4706-.1195,4.8998.3699,9.8505.7741,14.763.239-.2062.7716.6547.8128.5571,1.5533-.2675,2.029-8.8027,1.7285-10.8634,1.7923-1.1142-1.1815.1386-1.7579-.4178-3.1066-3.7799.2362-7.6536-.2557-11.4205,0-4.0194.2729-5.5977,1.2292-6.8244.9559,1.6511-3.1207,5.5922-5.3957,7.9386-8.125,3.0355-.6397,16.2303.2087,17.8271-.7169,2.7089-1.5703-9.0076-.6079-10.167-.7169v-1.9118c1.2092-.335,2.375-.6285,3.6211-.8364.3906-1.2209.2945-2.46.2785-3.704,7.3129.3881,14.6733,1.2513,21.4482,3.8235Z" style="fill: #3d281c; stroke-width: 0px;"/>
        <path d="m72.8208,66.8803c-15.3207,5.8601-27.0009,4.0242-27.5762,5.1379l.2785,110.8825c.1605.3974,1.6066-.3744,1.6713,4.6599.016,1.2441.1121,2.4832-.2785,3.704-1.2461.2079-2.4119.5014-3.6211.8364-.282.0781-.8005-.0698-1.1142,0-.3838-1.9882,1.4942-1.4161,2.2284-1.6728,1.117-.3905,1.6955-1.4399,1.1142-2.5092-.5773-1.0618-2.1769,1.5041-1.6713-3.3456-.4088-.9495-1.7903,1.0465-1.9498-1.5533-.4175-6.8057.2977-32.2216.2785-42.5368.5138-1.8791.5794-3.9378.5571-5.8548-.2424-20.7931-.3984-41.5776-.2785-62.3714-.0582-.2124-.517-.0811-.5571-.1195-.0357-.0342-.2357-.3505-.2785-.4779,2.1244-.0065,3.8965.1448,6.2673-.7169,8.0058.0382,16.618-1.4508,24.2337-4.3015l.6964.239Z" style="fill: #281707; stroke-width: 0px;"/>
        <path d="m28.8102,193.7738c-4.1748.6314.0717,4.2591,3.064,4.182-3.3525,4.2007-7.5085,1.4799-7.3815-2.7482-.4218,1.0776-1.8375-.2974-2.0891,1.4338-2.4062-.5243-2.0386.5806-2.5069,1.1949-.0998.1309-1.5581.58-.8356,2.7482.4905,1.4719,2.9617,2.8005,4.4568,3.4651-.0637,1.9665-1.7878,1.1933-1.6713,2.6287-3.8242-1.5085-5.2459-2.4913-6.5459-6.2132-2.221,5.4919,7.7714,7.4302,7.9386,8.0055.0704.2421-3.2275,2.3405-1.1142,2.9871.3705.1134,2.5464.1065,3.3426.239,13.6115,2.2639,11.7785,1.4508-1.8106.7169-1.272,4.3562,2.4823,3.0536,1.532,4.182-.3774.4482-7.2173-.8583-2.2284,3.4651-7.2377-1.7854-17.929-4.9727-17.5485-12.9044.973,1.242,1.4163-1.3658,2.3677-.9559.7953.9319.7471,2.0907,1.532,2.9871.8522.9733,6.641,5.0958,7.103,5.1379.8896.081,2.2181-2.2515,2.9248-2.6287,5.0548.3784-4.9662-1.794-7.6601-6.6912-.3665,1.8748-.3686,2.3122.9749,3.5846-5.0364-1.8514-1.4762-3.0951-2.2284-6.3327,2.5436.9503.2428-1.6857,4.8746-5.1379,3.0813-2.2965,13.2179-5.5989,14.0667-3.943.0508.5037-.5726.5616-.5571.5974Z" style="fill: #3d281c; stroke-width: 0px;"/>
        <path d="m36.331,209.7848c1.2726.0358,9.467.017,9.7492.3585,2.8733,3.4767-10.0276,2.5844-10.0277,3.1066l10.0277.7169c-1.0971,6.1521,3.5402,7.6969-1.6713,8.4835-1.5704-.0082-3.1694.0658-4.7353,0l.4178-3.1066c-6.5902.1259-8.7523-2.2733-7.3815,2.6287-2.3206-.2381-4.8314-.5064-7.103-.9559-2.3423-.4634-2.5082-.9219-2.6462-.9559-4.989-4.3234,1.8509-3.0169,2.2284-3.4651.9502-1.1284-2.804.1742-1.532-4.182,13.5891.7339,15.4221,1.547,1.8106-.7169.0484-.389.9841-2.086,1.2535-2.1507.4629-.1112,8.1967.1992,9.6099.239Z" style="fill: #69452a; stroke-width: 0px;"/>
        <path d="m38.5594,187.5605c.4274.2931.5721.7563.5571,1.1949-.0032.0937-.271.2235-.2785,1.1949-.0059.756-.286.8284-.2785.9559-2.8906.1994-5.4802,2.1437-6.8244,1.9118.0776.9162-1.2402,1.7976-.1393,1.9118-.7269.71-1.362,2.3283-2.7855-.9559-.0155-.0359.6079-.0938.5571-.5974-.8487-1.6559-10.9854,1.6465-14.0667,3.943-4.6318,3.4522-2.331,6.0882-4.8746,5.1379.7522,3.2377-2.808,4.4813,2.2284,6.3327.5677.5376,6.0333,3.0578,6.6852,3.1066-.7067.3772-2.0351,2.7097-2.9248,2.6287-.4619-.0421-6.2508-4.1646-7.103-5.1379-.7849-.8965-.7367-2.0552-1.532-2.9871-.9514-.4099-1.3946,2.1978-2.3677.9559.0679-1.4151,1.0631-4.2288,1.6713-5.6158,5.2541-11.983,19.1187-12.0986,31.4759-13.9798Z" style="fill: #3d281c; stroke-width: 0px;"/>
        <path d="m82.57,201.4208l3.064,2.9871c-.0917,1.9343,1.1966,2.0821,1.3927,2.3897.0473.0741.2277,1.6004.2785,1.6728.12.1708.8841.4107,1.6713,1.4338.0551.0717-.5591,1.3966.6964-.3585l-.2785,1.1949c1.4309-.1577,1.5184-1.7803,2.0891-.9559-.0551.0555-.2335.438-.2785.4779-3.4091,3.0262-5.5431,2.6908-5.571,2.9871-.0593.6306,2.8285-.1135-2.0891,2.5092-1.4949-.9146-4.2758.4372-5.7102,1.4338-.8359.1152-2.4381.9905-4.1782,1.4338-8.2128,2.0922-12.0583,3.3175-21.1696,3.8235-.0459-1.1137,3.0261-.3458,3.3426-1.0754-.9507-1.7189,1.9747-2.0716,1.6713-4.6599,6.3468.1138,16.7314-.8913,20.8911-5.4963,1.457.0138.9647,2.0176,3.064-.3585,3.4858-3.9454,2.7724-7.0225-1.6713-10.0368-.2138-.3424-.5105-1.257-.5571-1.3143,2.0828,1.1681,1.7435-.2365,3.3426,1.9118Z" style="fill: #1d1109; stroke-width: 0px;"/>
        <path d="m50.2584,206.4392c-1.7194,4.0698.5783,2.2183,5.8495,1.4338-.889.8535-.6152,1.563-.8356,2.3897-.0875.3282.0534.8795,0,1.3143-.0847.6896-3.3455,1.9053,4.7353.5974v2.6287c-5.4797,1.2304-8.6025.644-9.0528.7169-2.1697.3515,2.0513,1.1142,6.5459,1.1949.3034,2.5883-2.622,2.941-1.6713,4.6599-.3165.7296-3.3884-.0383-3.3426,1.0754-2.6545.1474-5.4133.0139-8.0779,0,5.2115-.7865.5742-2.3314,1.6713-8.4835l-10.0277-.7169c.0001-.5222,12.901.3701,10.0277-3.1066-.2822-.3415-8.4766-.3226-9.7492-.3585v-.239c7.4792-1.13,13.7996,1.6967,12.8132-3.1066.3712.0055.743-.005,1.1142,0Z" style="fill: #3d281c; stroke-width: 0px;"/>
        <path d="m42.1805,140.4833c-.0423-22.7826.0948-45.5639-.2785-68.3457.0401.0384.4989-.0929.5571.1195-.1198,20.7938.0361,41.5783.2785,62.3714.0223,1.917-.0433,3.9756-.5571,5.8548Z" style="fill: #4a2600; stroke-width: 0px;"/>
        <path d="m39.6736,222.4503c-2.3998-.1008-4.5759-.233-6.9637-.4779-1.3707-4.902.7914-2.5028,7.3815-2.6287l-.4178,3.1066Z" style="fill: #8e6723; stroke-width: 0px;"/>
        <path d="m44.4089,190.4282l-.1393-.7169c-1.7093,1.3241,1.4622-1.9279-2.0891-1.6728-.3581.0257-2.1183.5503-3.064.7169.015-.4386-.1297-.9018-.5571-1.1949.6534-.0995,1.4394.2663,1.9498-.3585-.076-1.5318-.4904-3.4005,1.3927-4.182.1595,2.5998,1.5411.6039,1.9498,1.5533-.5056,4.8496,1.094,2.2838,1.6713,3.3456.5813,1.0693.0028,2.1187-1.1142,2.5092Z" style="fill: #69452a; stroke-width: 0px;"/>
        <path d="m46.3588,205.7223c-15.9521.4941-5.4799.5956,2.7855.7169.9864,4.8033-5.334,1.9767-12.8132,3.1066-3.1272-.1862-6.8744.5458-6.6852-.7169,6.5397-.1385-3.8143-.8449-5.4317-.9559-.9699-1.2979-1.7253-.9415-2.3677-1.1949-.1166-1.4354,1.6076-.6622,1.6713-2.6287,1.111.4939,2.7195.0697,2.6462,1.4338.6162-.195.7774-.7083.8356-.7169,4.5294-.6717,10.8801.2045.2785-.7169-.3243-.261.4034-.4507.4178-.4779,1.2267.2733,2.805-.683,6.8244-.9559,3.7669-.2557,7.6406.2362,11.4205,0,.5564,1.3488-.6964,1.9251.4178,3.1066Z" style="fill: #69452a; stroke-width: 0px;"/>
        <path d="m78.3918,211.2186c-4.1597,4.605-14.5443,5.6102-20.8911,5.4963-4.4946-.0806-8.7156-.8433-6.5459-1.1949.4503-.073,3.5731.5135,9.0528-.7169,6.054-1.3594,15.0864-5.3873,18.3842-10.0368,1.2074-1.7023,1.3375-3.1309,1.532-3.1066,1.6773,3.0002.7662,7.0146-1.532,9.5588Z" style="fill: #0d0906; stroke-width: 0px;"/>
        <path d="m38.5594,190.9061c.008.1372.3934.0945.5571,2.5092.1428.1675,1.0119-.5287,1.1142-.5974.3192.7177.8203-.3459,1.3927-.4779-.1245,1.7501-.0084,1.5149,1.6713,1.6728,1.1594.109,12.8759-.8534,10.167.7169-1.5967.9256-14.7916.0772-17.8271.7169-2.3464,2.7293-6.2875,5.0043-7.9386,8.125-.0144.0272-.7421.2169-.4178.4779,10.6016.9214,4.2508.0453-.2785.7169-.0582.0086-.2195.5219-.8356.7169.0733-1.3641-1.5352-.94-2.6462-1.4338-1.4951-.6646-3.9663-1.9932-4.4568-3.4651-.7225-2.1681.7358-2.6172.8356-2.7482-.2151,1.8804,1.107,3.4749,2.7855,4.5404,2.4458,1.5527,1.8486.4593,2.3677.4779.0749.0027.9098.6629,1.3927.4779,1.9931-.7633.1711-1.6766.1393-1.7923-.0158-.0573,1.1254-.1751.2785-.8364-.2511-.1961-4.8007-1.696-4.4568-4.0625.2516-1.7312,1.6673-.3563,2.0891-1.4338-.1269,4.2281,4.029,6.9489,7.3815,2.7482-2.9923.0772-7.2388-3.5505-3.064-4.182,1.4235,3.2842,2.0586,1.6659,2.7855.9559.0543-.053,1.9741-.7587.1393-.4779-.2365.0362-.1108.4809-.1393.4779-1.101-.1141.2168-.9956.1393-1.9118,1.3442.2319,3.9338-1.7124,6.8244-1.9118Z" style="fill: #1d1109; stroke-width: 0px;"/>
        <path d="m75.6063,204.2885c-1.8565,4.8293-10.4015,7.0449-15.5987,7.886-8.0808,1.3079-4.82.0922-4.7353-.5974.0534-.4349-.0875-.9862,0-1.3143,3.3247-.8719,6.7186-1.2802,9.8885-2.6287,2.5383-1.0798,6.6141-3.7264,8.2172-5.7353,2.0639-2.5863,1.6208-4.1943,2.2284-3.2261.6506,1.0368.4559,4.43,0,5.6158Z" style="fill: #0d0906; stroke-width: 0px;"/>
        <path d="m71.1495,199.987c-.9508,1.9979-2.5812-.1984-3.7604,0-.2713.0456-2.7728,2.3873-4.1782,3.1066-4.2422,2.1713-7.6558,1.5552-6.5459,3.3456-2.1309.0225-4.276.0285-6.4066,0-.3712-.005-.743.0055-1.1142,0-8.2654-.1214-18.7376-.2228-2.7855-.7169,2.0607-.0638,10.5958.2367,10.8634-1.7923.0976-.7405-.7633-.7817-.5571-1.5533,2.809-.306,7.6541-1.3713,8.3564-4.3015l6.5459.9559c-.0311.9448-.4047.9061-.4178.9559Z" style="fill: #1d1109; stroke-width: 0px;"/>
        <path d="m71.1495,199.987c-.0865.3276-.0968.8677-.2785,1.1949-2.0848,3.7523-7.5769,5.4369-11.9776,5.4963-.1123.0015.1426-.264-2.2284-.239-1.1099-1.7904,2.3037-1.1743,6.5459-3.3456,1.4054-.7193,3.9069-3.061,4.1782-3.1066,1.1792-.1984,2.8096,1.9979,3.7604,0Z" style="fill: #0d0906; stroke-width: 0px;"/>
        <path d="m45.8017,201.8988c-1.3263.0879-2.5569.1987-3.8997.239-1.2469.0374-9.0497.5876-9.4706.1195-.644-.7163,3.3552-2.4168,3.7604-3.2261,3.1649-.1992,6.2931-.312,9.4706-.239l.1393,3.1066Z" style="fill: #69452a; stroke-width: 0px;"/>
        <path d="m73.3779,201.8988c-1.6031,2.0089-5.6788,4.6555-8.2172,5.7353-3.1699,1.3485-6.5638,1.7568-9.8885,2.6287.2205-.8267-.0534-1.5362.8356-2.3897.3046-.2924,2.2238-.494,2.7855-1.1949,4.4006-.0595,9.8928-1.744,11.9776-5.4963l2.5069.7169Z" style="fill: #1d1109; stroke-width: 0px;"/>
        <path d="m78.3918,204.7664c-3.2977,4.6495-12.3301,8.6774-18.3842,10.0368v-2.6287c5.1972-.8412,13.7421-3.0567,15.5987-7.886.8338-.1084.8321.6918.9749.7169.2013.0354.7742-.3932,1.8106-.239Z" style="fill: #1d1109; stroke-width: 0px;"/>
        <path d="m65.0215,198.0752c-.7024,2.9302-5.5475,3.9955-8.3564,4.3015-4.9126.5352-9.8633.1309-14.763-.239,1.3428-.0402,2.5734-.1511,3.8997-.239,3.0005-.1989,5.6467.0602,9.1921-.7169,3.0231-.6626,4.6567-1.6619,6.9637-3.3456,1.0167-.742,1.7876-1.5299,2.6462-2.3897.4638.1133.5096,2.2459.4178,2.6287Z" style="fill: #0d0906; stroke-width: 0px;"/>
        <path d="m61.9574,197.8363c-2.307,1.6837-3.9406,2.683-6.9637,3.3456,1.2269-1.0549,1.5529-1.4712.8356-2.8676.5192-.137,2.0763-.8679,2.5069-1.1949,1.3416.4476,5.0624-1.0534,3.6211.7169Z" style="fill: #1d1109; stroke-width: 0px;"/>
        <path d="m58.3363,197.1194c-.4306.3269-1.9877,1.0579-2.5069,1.1949-2.7909.7362-5.917.3882-8.7743.4779v-.4779c9.1166-.059,11.5932-3.5573,12.2561-3.5846,1.4692-.0605-.467,2.0041-.9749,2.3897Z" style="fill: #0d0906; stroke-width: 0px;"/>
        <path d="m42.1805,192.101c.3137-.0698.8322.0781,1.1142,0v1.9118c-1.6797-.1579-1.7958.0773-1.6713-1.6728.0301-.0069-.2075-.0688.5571-.239Z" style="fill: #95926a; stroke-width: 0px;"/>
        <path d="m44.4089,190.4282c-.7342.2567-2.6122-.3154-2.2284,1.6728-.7646.1701-.527.232-.5571.239-.5724.132-1.0735,1.1957-1.3927.4779l-.1393-.4779c-.3258.1418.2877.3783.1393.4779-.1023.0687-.9714.7649-1.1142.5974-.1637-2.4146-.5491-2.372-.5571-2.5092-.0074-.1274.2727-.1999.2785-.9559,1.6856.3754,4.0278-.2949,3.3426-1.9118,3.5513-.2551.3798,2.9969,2.0891,1.6728l.1393.7169Z" style="fill: #8e6723; stroke-width: 0px;"/>
        <path d="m21.8465,206.6782c.6423.2534,1.3978-.103,2.3677,1.1949,1.6174.111,11.9714.8174,5.4317.9559-1.9159.0406-3.8111.0164-5.7102-.239l-1.8106,2.8676c-2.1133-.6467,1.1846-2.745,1.1142-2.9871-.1672-.5753-10.1596-2.5136-7.9386-8.0055,1.3,3.722,2.7217,4.7047,6.5459,6.2132Z" style="fill: #281707; stroke-width: 0px;"/>
        <path d="m22.4036,196.6414c-.3439,2.3665,4.2056,3.8664,4.4568,4.0625-1.938,2.3123-4.1769.3823-4.1782,1.6728-1.6785-1.0656-3.0006-2.6601-2.7855-4.5404.4683-.6143.1007-1.7191,2.5069-1.1949Z" style="fill: #3d281c; stroke-width: 0px;"/>
        <path d="m29.6459,208.8289c-.1893,1.2627,3.5579.5307,6.6852.7169v.239c-1.4132-.0398-9.147-.3502-9.6099-.239-.2694.0647-1.2051,1.7617-1.2535,2.1507-.7961-.1324-2.9721-.1256-3.3426-.239l1.8106-2.8676c1.8991.2554,3.7943.2795,5.7102.239Z" style="fill: #69452a; stroke-width: 0px;"/>
        <path d="m19.3396,211.6966c-.6519-.0488-6.1175-2.569-6.6852-3.1066-1.3435-1.2724-1.3414-1.7098-.9749-3.5846,2.6939,4.8972,12.7149,7.0696,7.6601,6.6912Z" style="fill: #281707; stroke-width: 0px;"/>
        <path d="m38.838,189.9502c.0075-.9714.2753-1.1012.2785-1.1949.9457-.1666,2.7059-.6912,3.064-.7169.6853,1.6169-1.657,2.2872-3.3426,1.9118Z" style="fill: #dac79a; stroke-width: 0px;"/>
        <path d="m56.665,206.4392c2.371-.025,2.1161.2405,2.2284.239-.5617.7009-2.4809.9025-2.7855,1.1949-5.2712.7845-7.5689,2.6359-5.8495-1.4338,2.1306.0285,4.2757.0225,6.4066,0Z" style="fill: #3d281c; stroke-width: 0px;"/>
        <path d="m22.6822,202.3767c.0013-1.2905,2.2402.6395,4.1782-1.6728.8468.6613-.2943.7791-.2785.8364.0318.1156,1.8538,1.029-.1393,1.7923-.4829.1849-1.3178-.4753-1.3927-.4779-.519-.0186.0781,1.0747-2.3677-.4779Z" style="fill: #281707; stroke-width: 0px;"/>
        <path d="m31.5957,194.7297c.0285.003-.0972-.4418.1393-.4779,1.8348-.2807-.085.4249-.1393.4779Z" style="fill: #69452a; stroke-width: 0px;"/>
        <path d="m40.2307,192.8179c.1484-.0996-.4651-.3361-.1393-.4779l.1393.4779Z" style="fill: #1d1109; stroke-width: 0px;"/>
      </g>
    </g>
  </g>
</svg>