<?xml version="1.0" encoding="UTF-8"?>
<svg id="Layer_2" data-name="Layer 2" xmlns="http://www.w3.org/2000/svg" xmlns:xlink="http://www.w3.org/1999/xlink" viewBox="0 0 250.9057 221.0572">
  <defs>
    <linearGradient id="linear-gradient-desk" x1="223.0101" y1="5.9604" x2="207.8931" y2="13.6121" gradientTransform="translate(-24.0299 49.678) rotate(2.7289) scale(1.21 .8176) skewX(-.614)" gradientUnits="userSpaceOnUse">
      <stop offset="0" stop-color="#f1a145"/>
      <stop offset="1" stop-color="#e68a2b"/>
    </linearGradient>
    <linearGradient id="linear-gradient-desk-2" x1="239.5143" y1="100.1823" x2="247.8256" y2="100.1823" gradientTransform="matrix(1,0,0,1,0,0)" xlink:href="#linear-gradient-desk"/>
    <linearGradient id="linear-gradient-desk-3" x1="225.9026" y1="87.5938" x2="240.9354" y2="87.5938" gradientTransform="matrix(1,0,0,1,0,0)" xlink:href="#linear-gradient-desk"/>
    <linearGradient id="linear-gradient-desk-4" x1="197.5568" y1="-21.6896" x2="175.2289" y2="23.5796" gradientTransform="translate(-24.0299 49.678) rotate(2.7289) scale(1.21 .8176) skewX(-.614)" gradientUnits="userSpaceOnUse">
      <stop offset="0" stop-color="#ed8d2a"/>
      <stop offset="1" stop-color="#e17d29"/>
    </linearGradient>
    <linearGradient id="linear-gradient-desk-5" x1="202.8574" y1="100.6349" x2="240.7015" y2="100.6349" gradientUnits="userSpaceOnUse">
      <stop offset="0" stop-color="#dfe5e8"/>
      <stop offset=".224" stop-color="#babfc1"/>
      <stop offset=".5489" stop-color="#999"/>
      <stop offset=".8721" stop-color="#e7f2f7"/>
    </linearGradient>
    <linearGradient id="linear-gradient-desk-6" x1="195.5131" y1="97.4086" x2="226.8842" y2="97.4086" xlink:href="#linear-gradient-desk-5"/>
    <linearGradient id="linear-gradient-desk-7" x1="2.7331" y1="97.8339" x2="216.6236" y2="97.8339" gradientUnits="userSpaceOnUse">
      <stop offset="0" stop-color="#dd7525"/>
      <stop offset=".0315" stop-color="#dd7726"/>
      <stop offset=".5676" stop-color="#ec9b45"/>
      <stop offset=".8538" stop-color="#f2a951"/>
    </linearGradient>
  </defs>
  <g id="main-desk">
    <g>
      <g>
        <g>
          <g>
            <g>
              <path d="m118.3718,135.2221c.2314-.2365,1.1008-.0074,1.9323-.3921-14.3207-5.0513-51.7617-21.8665-69.4328-29.1352-15.873-6.5292-48.1381-19.0812-48.1381-19.0812L0,164.4437l1.8056,1.4444,3.5747-76.1065s76.2491,30.8585,99.0179,40.3288c1.4089.586,2.781,1.2314,4.1761,1.8132,3.1575,1.3167,4.5809,1.8937,5.1544,2.1154.4747.2357,1.8126.8632,5.0469,2.3323.3342-.401-.6801-.8667-.4038-1.1492Z" style="fill: #e09132; stroke-width: 0px;"/>
              <path d="m243.9995,161.7092c.01,1.1907.0798,2.8284-.7209,3.8395-.6527.1748-1.2952.3696-1.9424.5531-.1296.0367-.346-.0597-.4754-.0227-.6691-.6797-.3329-4.7938-.1582-5.0113.476-.5928,1.4802.913,3.297.6414Z" style="fill: #e09132; stroke-width: 0px;"/>
              <path d="m128.7963,137.6381s-5.5855-1.7829-8.4923-2.8082c-.8315.3846-1.7009.1556-1.9323.3921-.2762.2825.738.7482.4038,1.1492.9627.4373,4.428,1.5575,4.6412,1.9967-.7189,17.7635-5.389,80.1684-5.389,80.1684l5.1111,2.4815,5.6574-83.3796Z" style="fill: #e09132; stroke-width: 0px;"/>
              <path d="m123.1621,221.0572l5.6182-83.3782,104.729-30.9946s-2.8386,61.9981-3.1111,79.8519" style="fill: #7c2e2e; stroke-width: 0px;"/>
              <polyline points="36.9676 153.2261 2.0116 165.4321 6.7685 90.3511 10.0743 91.3224" style="fill: #752528; stroke-width: 0px;"/>
              <path d="m9.0426,90.9536s72.9571,29.8717,95.7259,39.342c-1.609.6683-67.7778,23.1296-67.7778,23.1296" style="fill: #481114; stroke-width: 0px;"/>
            </g>
            <g>
              <path d="m250.9057,53.0862C209.0365,35.3939,167.1761,17.6952,125.3081,0c-.8027.3714-1.6615.7849-2.3781,1.2403-.0478.0304.0933.0486.1491.072,2.6528,1.1117,5.1961,2.1623,7.9124,3.294,3.0342,1.2642,6.515,2.8524,9.5237,4.0975,11.9085,4.928,23.6694,9.5884,35.5287,14.506,1.5095.6259,3.1165,1.2043,4.6429,1.8338.6135.2531,1.2498.4785,1.8595.7355,2.1877.9221,4.3062,1.9682,6.4954,2.8879,2.934,1.2326,5.886,2.4248,8.8259,3.6516,4.9599,2.0697,9.897,4.1275,14.8701,6.1968,1.8232.7586,3.7368,1.4396,5.5762,2.205,1.4001.5826,2.7687,1.2213,4.1804,1.8104,2.4387,1.0176,5.001,1.9095,7.4307,2.9399,3.6083,1.5302,7.0911,3.1263,10.6791,4.705,2.6875,1.1825,5.1044,2.3828,7.9857,3.627.118.051,1.8818.4664,2.1907.7245.041-.4721.1088-.9578.1251-1.4409Z" style="fill: #eca33e; stroke-width: 0px;"/>
              <path d="m130.9673,4.5955c-2.1713,22.8168-4.2492,45.6425-6.421,68.4593-2.6428-.9769-5.276-1.9803-7.9178-2.96,2.0363-22.9358,4.2094-45.8636,6.4415-68.7811,2.6334,1.0919,5.2645,2.1886,7.8973,3.2818Z" style="fill: #e09132; stroke-width: 0px;"/>
              <path d="m229.9321,45.4686c-.6891,7.469-.3705,14.8704-2.3625,22.1621-.1584-.0076-.3169-.0151-.4753-.0226.2712-6.3742-1.5076-3.1406-6.4507-3.5357.6153-7.1803,1.2307-14.3607,1.8462-21.541,2.4684,1.0113,4.9775,1.9173,7.4424,2.9373Z" style="fill: #dd7525; stroke-width: 0px;"/>
              <path d="m248.4768,53.7774c-1.0136,9.5748,3.7686,19.9605-8.785,14.4311.3028-6.0116.6055-12.0232.9081-18.0347,2.6371,1.1763,5.2464,2.4128,7.8769,3.6037Z" style="fill: #e09132; stroke-width: 0px;"/>
              <g>
                <path d="m240.5999,50.1737c-.3027,6.0115-.6054,12.0232-.9081,18.0347,12.5535,5.5295,7.7714-4.8562,8.7849-14.4311.814.2072,1.5674.3951,2.3391.7579.0286,12.7414-1.4692,25.6102-2.5234,38.2713-1.2047-.8125-6.3751-2.5195-7.0332-2.8062-5.6602-2.4651-9.3669-4.8027-14.7119-6.6057-.1166-1.6331-.4943-3.2011-.1442-4.8419,5.7056-1.8324,8.463-2.0969,4.272-8.2165-.6097-.8902-2.3646-1.7478-3.0903-2.6985,1.9583-7.3078,1.6675-14.6958,2.3469-22.1695,3.5726,1.5341,7.1139,3.1322,10.6683,4.7054Z" style="fill: url(#linear-gradient-desk); stroke-width: 0px;"/>
                <path d="m241.2643,90.0334c.7468.1171,5.7462,2.0581,7.0342,2.7659.003,2.975-.345,5.8057-.4701,8.7262-2.78-1.4331-5.5352-2.834-8.3199-4.2825.1721-1.6669.1245-3.8476.3647-5.4036.2402-1.5559-1.415-2.2459,1.3911-1.806Z" style="fill: #e09132; stroke-width: 0px;"/>
                <path d="m247.8256,101.524c-.0782.6866-.2831,1.0212-.5777,1.5866-2.4808-.9791-4.9616-1.9583-7.4424-2.9373.0051-.9839-.2788-1.9346-.2912-2.9193,2.7705,1.4233,5.5409,2.8466,8.3113,4.27Z" style="fill: url(#linear-gradient-desk-2); stroke-width: 0px;"/>
                <path d="m240.9354,89.8967c-1.8705-.1498-1.129.4171-1.0692,1.8896-.2196-.0603-.2393.0501-.5029-.0432-3.1358-1.1098-6.7754-2.5438-9.6617-3.968-1.559-.7693-2.3107-1.1158-3.7985-1.6671-.0127-1.1194.1922-1.7443.6644-2.7066,5.0161,1.6973,9.5645,4.3051,14.3679,6.4953Z" style="fill: url(#linear-gradient-desk-3); stroke-width: 0px;"/>
              </g>
              <path d="m212.7312,38.5171c-3.7007,11.5397-4.5765,23.2367-5.0973,35.2462-.1824,4.2062-.1641,8.1391.1674,12.299-4.0123,1.3312-8.0928,2.406-12.1555,3.6101-.1262.0374-.3299-.0446-.468-.0283.7772-12.1757,1.2521-24.8093,1.3672-36.793.0192-1.9991.0956-2.5-.0007-4.104-.0963-1.604-1.1281-.9268-1.9297-2.1936-.1095-.173,2.233-2.6888,1.5883-3.295.5888-3.7267,1.1044-7.2812,1.665-10.9412,4.9521,2.0724,9.9107,4.1272,14.8633,6.2Z" style="fill: url(#linear-gradient-desk-4); stroke-width: 0px;"/>
              <path d="m176.0386,23.209c-15.0577,16.9627-30.1392,33.9002-45.2147,50.8457-2.3448-.5656-4.6593-1.2247-6.9448-2.0002,2.2724-22.4931,4.8123-44.9682,7.0958-67.4549,3.0858,1.2847,6.5239,2.8555,9.5356,4.1021,11.9199,4.9338,23.6766,9.5892,35.5282,14.5073Z" style="fill: #f2a951; stroke-width: 0px;"/>
              <path d="m218.3084,40.7901c.0006,6.2599-1.768,15.9432-1.353,21.3467.3623,4.7167,1.8214,1.4539,3.5386,4.2688.0155-.0759-.0292.1922.0009.2317-3.4162.8156-5.1878,1.7302-8.1068,4.2471-.5485.4729-2.5094,1.9115-1.89,3.6526-.4838-.1864-.2465-.8578-.7603-.9664s-1.4446.3272-2.101.2104c.5187-12.0709,1.3916-23.6941,5.0947-35.2684,1.8493.8033,3.7365,1.3593,5.5768,2.2774Z" style="fill: #dd7525; stroke-width: 0px;"/>
              <path d="m180.6848,25.0391c-2.3467,22.5299-4.6599,45.0632-7.0077,67.593-14.2834-6.2491-28.5383-12.5642-42.8032-18.8557,15.0624-16.8604,30.1451-33.7032,45.1625-50.6039,1.5441.6356,3.1039,1.2318,4.6484,1.8667Z" style="fill: #e09132; stroke-width: 0px;"/>
              <path d="m197.8667,32.3303c-2.061,22.9497-1.9842,46.2256-2.6545,69.2939-3.3166-1.3105-6.6981-1.4181-9.973-3.5002.6805-16.4814,1.9513-49.1199,2.8464-61.5786.8951-12.4586.796-.3105.9764-8.2928,2.8898,2.151,5.8792,2.5888,8.8046,4.0777Z" style="fill: #dd7525; stroke-width: 0px;"/>
              <path d="m222.4897,42.5313c-.6155,7.1803-1.231,14.3607-1.8462,21.541-1.2955-.38-2.4004-1.1606-3.7213-1.4687-.2789-7.3167,1.3163-14.5662,1.3913-21.8855,1.3972.5927,2.7799,1.2183,4.1761,1.8131Z" style="fill: #e09132; stroke-width: 0px;"/>
              <path d="m182.548,25.7777c-.8264,3.8522,2.9325,6.3101,5.6685,8.3407-1.1465,21.687-1.3706,43.4501-1.9665,65.1586-4.1829-2.3411-8.3708-4.7297-12.7592-6.6667,2.3823-22.5241,4.815-45.0428,7.1967-67.567.6173.2522,1.2432.4822,1.8606.7343Z" style="fill: #e09132; stroke-width: 0px;"/>
              <path d="m189.0396,28.6697c.1477,1.8945-.5002,3.6057-.8232,5.4487-2.736-2.0309-6.4948-4.4884-5.6685-8.3407,2.1782.9323,4.3138,1.9588,6.4916,2.892Z" style="fill: #ed9b41; stroke-width: 0px;"/>
              <path d="m210.5764,74.7466c.8492.9177,2.4949,2.8712,4.4054,3.2876-.6907.9392.3502,4.4748.0999,4.9139-1.5014,2.6338-4.9825,2.1614-7.2756,3.1264-.3534-4.1412-.335-8.1624-.175-12.3037.7379.255,1.49-.4832,2.1262-.1669.6362.3163-.03.225.8193,1.1427Z" style="fill: #dd7525; stroke-width: 0px;"/>
            </g>
            <path d="m223.9807,79.0812c-2.9005,1.1013-5.5457,2.8991-8.3679,4.1206l-.4754-.0227c.0972-.2482-.7666-4.1977-.148-5.1722,3.9481,1.0201,8.3242.0539,8.9913,1.0742Z" style="fill: #ef9d42; stroke-width: 0px;"/>
          </g>
          <g>
            <path d="m204.7091,97.2091c-1.979-1.1604-3.3693,6.0357,1.2342,6.8381,4.8871.8519,3.5198-2.3709,3.8723-4.6578,1.1232.425,7.335,2.1571,9.8193,3.0506.2282,3.8093-1.8196,8.8288.8737,8.7578-1.2294.4326-2.6999.7054-3.8849,1.1061-6.1517-2.848-26.0611-8.4884-24.0651-11.4773,1.5827-.2604,2.4267-.2174,2.9546-1.4733l5.84,1.8925.5651-5.1382c1.2758.4888,1.1628-.1109,1.6638.0793,1.6176.6142,1.0449.9913,1.1271,1.0222Z" style="fill: #e7f2f7; stroke-width: 0px;"/>
            <path d="m192.7276,90.6658c.651-.5477,1.5584-.7319,2.4485-1.0132.1249-.0395.3498.0615.4754.0227l23.2167,9.8228.9201.5281c.0181.8012-.2013,1.6148-.1535,2.4138-2.4843-.8935-8.6962-2.6256-9.8193-3.0506-1.7117-.6477-3.3543-1.5217-5.1064-2.1803-.0822-.0309.4906-.408-1.1271-1.0222-.501-.1902-.3881.4095-1.6638-.0793-1.9807-.7589-3.819-1.7635-5.7991-2.5362-.7388.3439-.2035,4.8245-.606,5.7819-.5279,1.2558-1.3719,1.2129-2.9546,1.4733-.0574.0095.2638-.8809-.6722-.6777" style="fill: #e7f2f7; stroke-width: 0px;"/>
            <path d="m217.4529,84.258c-3.0402,1.6961,2.9287,4.5186,5.4181,4.7778,2.8605.2977,3.9023-.6133,6.7576-1.292,2.2179,1.1585,7.0887,3.0722,9.758,4.0161q-10.2592,3.8691-20.5185,7.7382l-23.2167-9.8228c4.0436-1.2496,8.1559-2.2178,12.1505-3.6175,1.7643-.6182,6.7522-1.3902,7.3353-2.8786l.4754.0227c.3381.2755,1.5018.9207,1.8401,1.0562Z" style="fill: #e7f2f7; stroke-width: 0px;"/>
            <g>
              <path d="m239.5142,97.254c-.0455.9338.356,2.1225.2912,2.9193-.1089,1.3395-.1535,2.6831-.2558,4.0231-.3756.6932-16.5891,6.1388-19.0412,7.0015-2.6933.071-.6455-4.9486-.8737-8.7578-.0479-.7991.1715-1.6126.1535-2.4138l-.9201-.5281q10.2592-3.8691,20.5185-7.7382l.4754.0227c-.1352,1.8214-.259,3.6479-.3478,5.4714Z" style="fill: #d6e3ea; stroke-width: 0px;"/>
              <path d="m227.7037,99.2736c3.4519-.7811.8262,7.7494-.9893,4.3109-.1656-.3137-.0291-4.0805.9893-4.3109Z" style="fill: #d6e3ea; stroke-width: 0px;"/>
            </g>
            <g>
              <path d="m204.7091,97.2091c1.7521.6586,3.3947,1.5326,5.1064,2.1803-.3525,2.2869,1.0148,5.5096-3.8723,4.6578-4.6034-.8024-3.2131-7.9985-1.2342-6.8381Z" style="fill: url(#linear-gradient-desk-5); stroke-width: 0px;"/>
              <path d="m201.9181,96.1076l-.5651,5.1382-5.84-1.8925c.4025-.9574-.1328-5.438.606-5.7819,1.98.7727,3.8184,1.7773,5.7991,2.5362Z" style="fill: url(#linear-gradient-desk-6); stroke-width: 0px;"/>
            </g>
            <path d="m219.334,84.6705c1.2088.4598,2.3399,1.208,3.7212,1.4687-.0285.9662-.146,1.9306-.1841,2.8966-2.4895-.2591-8.4583-3.0817-5.4181-4.7778.3104.1243,1.5495.2864,1.8811.4125Z" style="fill: #7d7074; stroke-width: 0px;"/>
            <g>
              <path d="m226.3986,78.5508c-.4514,1.6273.0559,3.2319.1685,4.8504.0096.138-.8605.7754-.6493,2.713,1.3399.4659,2.513,1.0038,3.711,1.6296-2.8554.6787-3.8972,1.5897-6.7576,1.292.0382-.966.1556-1.9305.1841-2.8966.0174-.5874.3935-2.6284-.0535-2.9079-.2149-.1344-3.1426,1.0977-3.6677,1.4393-.3316-.1261-1.5706-.2882-1.8811-.4125-.3384-.1355-1.5021-.7807-1.8401-1.0562,2.8223-1.2215,5.4675-3.0194,8.3679-4.1206,2.0279-.77,2.3063-.4897,2.4178-.5304Z" style="fill: #6b5d62; stroke-width: 0px;"/>
              <g>
                <path d="m230.7336,70.3641c5.4293,7.1676.8443,6.2949-4.335,8.1867-.1115.0407-.3899-.2396-2.4178.5304-.6672-1.0203-5.0432-.0541-8.9913-1.0742-3.4398-.8888-3.9909-2.9635-4.5492-3.4451-.0986-3.5006,1.7653-3.3864,2.1471-3.7715-4.3844,8.8285,24.4327,6.8308,17.1547.172l.9917-.5984Z" style="fill: #877b80; stroke-width: 0px;"/>
                <path d="m227.0942,67.608l.4754.0227c.7822,1.0431,2.3742,1.6907,3.164,2.7334l-.9917.5984c-2.0426-1.8688-6.7164,6.2771-10.8417-1.9695,2.6481-.6266.5275-.6981,1.5796-2.3459l.0205-.3218c2.6147.1329,4.6361-.098,6.594,1.2828Z" style="fill: #d0d9d8; stroke-width: 0px;"/>
                <path d="m220.6435,64.0723c5.8263,1.277,6.9729-4.4783,6.4507,3.5357-1.9578-1.3808-3.9793-1.1499-6.594-1.2828-2.1667-2.4473-3.0902.0191-3.578-3.7216,1.3795.2129,2.3965,1.1783,3.7212,1.4687Z" style="fill: #877b80; stroke-width: 0px;"/>
                <path d="m220.4798,66.6471c-1.0521,1.6478,1.0685,1.7193-1.5796,2.3459,4.1253,8.2466,8.7991.1006,10.8417,1.9695,7.278,6.6587-21.539,8.6565-17.1547-.172,2.0319-2.0497,4.1002-3.4686,7.8926-4.1433Z" style="fill: #aba2a5; stroke-width: 0px;"/>
              </g>
              <path d="m223.0552,86.1392c-1.3813-.2606-2.5125-1.0089-3.7212-1.4687.5251-.3416,3.4527-1.5737,3.6677-1.4393.4471.2796.0709,2.3205.0535,2.9079Z" style="fill: #ddcdc5; stroke-width: 0px;"/>
            </g>
          </g>
        </g>
        <polygon points="104.3981 130.1104 3.2869 163.3782 7.1511 90.3184 5.3665 89.7971 1.6019 165.7215 108.5743 131.9235 104.3981 130.1104" style="fill: #b8552f; stroke-width: 0px;"/>
      </g>
      <path d="m191.8864,100.149c.9359-.2032.6147.6871.6721.6777-1.9959,2.989,17.9135,8.6293,24.0651,11.4774-.1119.0378.2081.5574-1.7457,1.2081-26.4991,8.8255-58.3874,16.1661-85.7054,24.3232-2.8098-1.1793-5.9617-1.98-8.8686-3.0052-14.3207-5.0513-51.7617-21.8665-69.4327-29.1353-15.873-6.5291-32.1003-12.7408-48.1381-19.0812q.0307-.4827.0614-.9655c.9097-.5445,11.9391-3.6784,22.0464-6.6304h-.0001s14.7615-4.501,14.7615-4.501c.6787-.2338,54.227-16.5226,54.6106-16.6841" style="fill: url(#linear-gradient-desk-7); stroke-width: 0px;"/>
    </g>
  </g>
</svg>