<?xml version="1.0" encoding="UTF-8"?>
<svg id="Layer_2" data-name="Layer 2" xmlns="http://www.w3.org/2000/svg" xmlns:xlink="http://www.w3.org/1999/xlink" viewBox="0 0 639.69 630.21">
  <defs>
    <linearGradient id="linear-gradient" x1="456.65" y1="421.33" x2="456.06" y2="527.37" gradientUnits="userSpaceOnUse">
      <stop offset="0" stop-color="#08302f"/>
      <stop offset="1" stop-color="#0e514f"/>
    </linearGradient>
    <linearGradient id="linear-gradient-2" x1="219.28" y1="474.35" x2="193.38" y2="548.41" gradientUnits="userSpaceOnUse">
      <stop offset="0" stop-color="#6f796e"/>
      <stop offset="1" stop-color="#33514b"/>
    </linearGradient>
    <linearGradient id="linear-gradient-3" x1="140.78" y1="287.18" x2="55.49" y2="350.2" gradientUnits="userSpaceOnUse">
      <stop offset="0" stop-color="#091113"/>
      <stop offset="1" stop-color="#0e3030"/>
    </linearGradient>
    <linearGradient id="linear-gradient-4" x1="494.02" y1="318.45" x2="453.05" y2="359.16" gradientUnits="userSpaceOnUse">
      <stop offset="0" stop-color="#083436"/>
      <stop offset="1" stop-color="#10837f"/>
    </linearGradient>
    <linearGradient id="linear-gradient-5" x1="522.34" y1="185.45" x2="536.73" y2="331.3" gradientUnits="userSpaceOnUse">
      <stop offset="0" stop-color="#29bcb2"/>
      <stop offset="1" stop-color="#1a9f96"/>
    </linearGradient>
  </defs>
  <g id="Layer_1-2" data-name="Layer 1">
    <g>
      <path d="m449.16,49.14c.06,1.26-1.22.8-2.59.86-19.11.81-38.68,5.05-57.76,5.17-21.2.14-49.83-4.82-69.83-5.17-.33-6.95,1.2-12.81,0-19.83-.37-2.15-2.54-7.3-3.45-10.35l61.64,2.59c2.11,1.73,2.33,4.06,5.17,5.17,21.84,8.5,44.8,13.85,66.81,21.55Z" style="fill: #79eae4; stroke-width: 0px;"/>
      <path d="m168.11,59.49c14.66,1.18,61.76-.47,70.26,1.72.81.21.28,2.54.43,2.59q-4.74,30.61-9.48,61.21c-13.48-5.29-52.72-50.79-68.11-61.21.5-.79,1.05-1.56.86-2.59,2.02-.59,4.03-1.14,6.03-1.72Z" style="fill: #27b2a8; stroke-width: 0px;"/>
      <path d="m5.17,106.04c12.72,3.69,42.27,17.62,57.76,23.28-1.48,3.59-10.77,5.81-14.22,7.76-2.16,4.07,82.1,23.49,88.37,23.28l-37.5,7.76c2.69,2.31,6.87,5.05,9.91,6.9l.86,4.31c-2.47-2.64-16.49-14.07-19.4-13.79-13.93,9.97-27.36,17.89-34.05,34.48-3.5-1.58-3.18,5.1-4.74,5.17-1.24.06-.72-4.52-4.74-2.59,3.46-10.8,10.86-31.19,12.93-39.66.31-1.29,2.03-1.72,1.72-3.02-10.49-7.96-21.19-15.71-31.04-24.57-10.63-9.57-20.01-20.57-31.04-29.74l.43-1.29c1.3,1.15,3.16,1.27,4.74,1.72Z" style="fill: #0f0f0e; stroke-width: 0px;"/>
      <path d="m452.61,50c6.35,8.55,15.92,14.15,23.28,21.55,1.81,1.82,6.15,6.81,8.62,9.48.24.26,1.16,3.66,3.45,6.03-27.42,10.16-53.17,23.3-78.45,37.93l43.97-71.99-6.9-3.02c1.37-.06,2.64.4,2.59-.86.23.08,1.35.12,3.45.86Z" style="fill: #27b2a8; stroke-width: 0px;"/>
      <path d="m281.05,30.17c1.48,8.73,4.03,23.46,8.62,19.83-.1.09,1.86-.02.43,2.59-8.74,2.04-46.47,12.79-51.3,11.21-.15-.05.38-2.38-.43-2.59-8.51-2.19-55.6-.54-70.26-1.72,37.33-10.86,75.01-20.77,112.94-29.31Z" style="fill: #79eae4; stroke-width: 0px;"/>
      <path d="m88.8,85.35q-6.9,16.38-13.79,32.76c-3.3.09-6.61-.06-9.91,0-1.91,1.17-1.01,2.72-1.29,3.45-1.56,4.1.34,4.85-.86,7.76-15.49-5.66-45.04-19.58-57.76-23.28,27.55-7.87,56.13-12.74,83.63-20.69Z" style="fill: #f3f0ef; stroke-width: 0px;"/>
      <path d="m106.9,79.31l31.04,5.17c-14.1,14.49-35.8,22.01-50.86,34.48-4.01-.15-7.88-.98-12.07-.86q6.9-16.38,13.79-32.76c2.15-.62,8.86-3.32,18.1-6.03Z" style="fill: #79eae4; stroke-width: 0px;"/>
      <path d="m583.65,108.63c4.21.71,5.35.63,9.05,3.45q23.49-6.68,46.99-13.36-20.69,13.15-41.38,26.29c-18.32-5.28-37.13-11.12-55.18-17.24-.1-.03.33-1.46-.43-1.72-7.41-2.53-14.7-6.32-21.98-8.62,21.07,3.15,41.93,7.69,62.93,11.21Z" style="fill: #0f0f0e; stroke-width: 0px;"/>
      <path d="m156.04,68.97c-3.66,4.22-11.26,14.83-18.1,15.52l-31.04-5.17c15.96-4.69,31.68-10.97,47.42-16.38l1.72,6.03Z" style="fill: #f3f0ef; stroke-width: 0px;"/>
      <g>
        <path d="m583.65,108.63c-21-3.52-41.86-8.05-62.93-11.21-9.71-3.07-19.68-4.72-29.74-6.03-1.07-.51-1.47-2.71-3.02-4.31-2.29-2.37-3.21-5.78-3.45-6.03,6.84-2.25,16.4-6.16,23.28-6.9.44-.05,1.85-1.39,5.6-.86,13.39,8.39,65.72,30,69.83,32.76,1.58,1.06,1.2,1.24.43,2.59Z" style="fill: #f3f0ef; stroke-width: 0px;"/>
        <path d="m492.27,68.97c-3.98-.16-11.57,2.44-16.38,2.59-7.35-7.4-16.93-13-23.28-21.55,13.61,4.84,27.73,11.75,39.66,18.97Z" style="fill: #f3f0ef; stroke-width: 0px;"/>
        <path d="m492.27,68.97c2.89.12,12.61,3.2,15.52,5.17-6.88.74-16.44,4.64-23.28,6.9-2.47-2.68-6.81-7.67-8.62-9.48,4.81-.15,12.4-2.75,16.38-2.59Z" style="fill: #261a15; stroke-width: 0px;"/>
      </g>
      <g>
        <path d="m315.53,19.83c.9,3.04,3.08,8.19,3.45,10.35-4.16,4.26-18.15,9.37-20.69,11.21q-2.16-6.9-4.31-13.79c7.38-2.05,10.96-20.97,14.22-27.59,2.44,6.37,5.4,13.34,7.33,19.83Z" style="fill: #0f0f0e; stroke-width: 0px;"/>
        <path d="m286.22,27.59c1.94,6.83,3.29,13.68,4.31,20.69-.08.07-.77,1.64-.86,1.72-4.6,3.63-7.14-11.1-8.62-19.83-1.12-6.64-1.99-13.09-2.16-19.83,2.49-1,6.83,15.49,7.33,17.24Z" style="fill: #19302e; stroke-width: 0px;"/>
      </g>
      <path d="m293.98,27.59q2.16,6.9,4.31,13.79c-.15.11.74,1.75-1.29,3.45-.46.39-5.11,2.25-6.47,3.45-1.02-7.01-2.37-13.86-4.31-20.69,2.29-.32,6.11.46,7.76,0Z" style="fill: #79eae4; stroke-width: 0px;"/>
      <path d="m162.08,61.21c.19,1.03-.36,1.8-.86,2.59-1.47,2.28-3.55,3.3-5.17,5.17l-1.72-6.03c1.16-1.5,6.06-1.23,7.76-1.72Z" style="fill: #211f22; stroke-width: 0px;"/>
      <path d="m567.27,407.78c.69.65,7.85,10.09,12.07,14.66,11.54,12.5,22.27,25.6,35.35,36.64q-16.6-7.11-33.19-14.22c-2.41-.23-8.37,3.75-10.78,5.17-10.34-4.11-27.71-14.65-37.07-17.24-4.08-1.13-8.71-1.45-12.93-1.72.05-.04-.19-.96.86-.86q11.64-5.82,23.28-11.64c.36-.84-1.35-12.82-1.72-15.09,2.9.77,5.93-.68,8.62-.86,10.52-.71,9.98-.07,15.52,5.17Z" style="fill: #0f0f0e; stroke-width: 0px;"/>
      <path d="m570.72,450.03c-3.81,2.26-15.92,12.36-20.69,15.52-6.01,3.98-12.86,6.92-18.1,12.07-6.78,6.01-8.88-8-8.62-12.93.11-2.06,7.08-29.67,10.35-31.9,9.36,2.59,26.73,13.14,37.07,17.24Z" style="fill: #0f8881; stroke-width: 0px;"/>
      <path d="m600.03,328.47c-6.61,31.39-13.81,62.64-20.69,93.97-4.22-4.57-11.38-14-12.07-14.66,3.35-13.09,7.64-26.05,12.07-38.8.6-1.72,1.12-3.47,1.72-5.17l8.62,3.02c3.47-11.61,5.49-23.47,7.76-35.35.12-.63,1.16-3.69,2.59-3.02Z" style="fill: #2aa194; stroke-width: 0px;"/>
      <path d="m606.07,301.74c-.87,9.14-4.16,17.82-6.03,26.73-1.43-.67-2.47,2.39-2.59,3.02-2.27,11.87-4.29,23.74-7.76,35.35l-8.62-3.02c7.6-21.6,16.91-42.61,23.28-64.66.08.12,1.39-.47,2.59,1.29l-.86,1.29Z" style="fill: #27b2a8; stroke-width: 0px;"/>
      <path d="m249.15,427.61c8.13,28.49,15.97,31.47,31.04,53.45,4.67,6.81,9.22,13.81,13.79,20.69-1.26,29.58-9.43,41.66,3.45,71.12l68.11,3.02c-1.88,3.24-5.77,3.6-8.62,5.17-20.33,1.02-40.39,4.54-60.78,3.45-6.4,12.86-11.42,26.36-16.81,39.66-.81,2-2.38,3.8-2.59,6.03-3.49-.32-2.45-.85-2.59-.86-1.76-4.77-3-9.76-4.31-14.66-.97-3.63-1.47-7.68-2.59-11.21-.81-2.54-4.55-15.85-6.47-16.38-7.61,2.04-15.22,4.08-22.85,6.03-8.95-4.33-4.27-10.26-5.17-12.93,2.56.43,3.36-.54,4.31-.86,19.39-6.49,22.17-8.76,25-22.85-4.5-13.67-17.15-87.9-18.97-92.25-.5-1.19-1.64.07-2.59.43.07-2.77.82-4.05.86-6.03.21-9.19,1.68-18.36.86-27.59,3.51-.08-1.11-4.62,6.9-3.45Z" style="fill: #0f0f0e; stroke-width: 0px;"/>
      <path d="m523.31,464.68c-.26,4.94,1.84,18.95,8.62,12.93,5.29-2.34,4.24,2.33,5.17,3.45-22.87,13.24-52.62,28.22-73.28,43.97-9.23,7.03-17.39,14.97-25.43,23.28h-2.16c-3.7-2.03-8.08-3.9-12.07-5.17,12.32-8.01,24-17.84,36.21-25.86,19.24-12.65,39.5-23.87,59.92-34.48,3.42-5.31-2.43-17.97-1.29-28.02l4.31,9.91Z" style="fill: #0f0f0e; stroke-width: 0px;"/>
      <path d="m578.48,278.46c3.03,1.04,23.46,17.32,25.86,20.69-6.37,22.05-15.68,43.06-23.28,64.66-.6,1.7-1.13,3.45-1.72,5.17-.01-30.29-5.07-60.36-4.31-90.52,1.68,1.46,2.06-.47,3.45,0Z" style="fill: #0b5a57; stroke-width: 0px;"/>
      <path d="m110.35,179.32c2.83,3.02,4.71,6.01,6.9,9.48,6.86,10.88,12.93,28.51,19.83,40.09-.95,1.33-2.47,2.04-2.59,2.16-5.32,5.29-69.29,43.6-82.76,53.45.64-7.02-.85-8.19-.86-8.62-.05-2.36,2.59-4.15-.86-9.48,3.36-21.12-.98-46.86,6.9-66.38,6.7-16.59,20.12-24.51,34.05-34.48,2.91-.28,16.93,11.15,19.4,13.79Z" style="fill: #97ae9c; stroke-width: 0px;"/>
      <path d="m86.21,416.4q7.76,8.19,15.52,16.38c-6.49-.06-12.5-.31-18.97.86-6.76,1.22-44.49,14.6-55.61,18.97q5.82-6.03,11.64-12.07c8.74-6.45,17.38-13.84,25-21.55,5.24,1.54,16.35-1.17,22.42-2.59Z" style="fill: #0f0f0e; stroke-width: 0px;"/>
      <path d="m56.9,200.01c-7.88,19.52-3.54,45.27-6.9,66.38-.17-.26-1.22.46-5.17-3.45-4.26-4.21-9.36-7.61-13.79-11.64.51-2.18,1.16-4.29,1.72-6.47.57-2.16,10.9-30.52,14.66-42.24,4.02-1.94,3.5,2.64,4.74,2.59,1.56-.07,1.25-6.75,4.74-5.17Z" style="fill: #19302e; stroke-width: 0px;"/>
      <g>
        <path d="m60.35,162.94c-5.09-2.53-24.72-19.1-29.74-15.52-1.62,10.61.38,21.36.43,31.9-.84.08-1.76-.14-2.59,0-.08-5.99-1.6-37.41-.86-39.23.93-2.28,5.68-.32,3.45-4.74,9.84,8.86,20.55,16.61,31.04,24.57.3,1.3-1.41,1.73-1.72,3.02Z" style="fill: #f3f0ef; stroke-width: 0px;"/>
        <path d="m60.35,162.94c-2.07,8.46-9.47,28.86-12.93,39.66-3.76,11.72-14.09,40.08-14.66,42.24.49-4.39-.49-8.62-.86-12.93-1.52-17.55-.78-35.02-.86-52.59-.05-10.54-2.05-21.29-.43-31.9,5.03-3.58,24.65,12.98,29.74,15.52Z" style="fill: #989b88; stroke-width: 0px;"/>
      </g>
      <path d="m483.65,196.56l56.47,174.15c4.39-27.48,27.59-123.42,26.29-141.82-.04-.61-2.98-10.47-3.45-11.64l3.45-1.72c1.39,4.82,6.93,14.82,8.62,20.69-.74,2.32-4.36,1.57-5.17,3.88-.83,2.37-3.37,42.34-4.31,50-4.57,37.4-9.87,74.82-15.52,112.08l1.72.43c-2.69.18-5.72,1.64-8.62.86-2.11-12.85-7.8-26.06-10.78-38.8-2.83,19.59-5.15,39.37-9.91,58.62-3.59-3.15-6.33-8.72-8.62-12.93-6.97-12.8-35.59-72.1-39.66-83.19-9.2-25.08-11.25-53.2-25-76.3,3.59-6.93,21.43-47.15,23.28-49.14,2.94-2.11,8.71-3.67,11.21-5.17Z" style="fill: #19302e; stroke-width: 0px;"/>
      <path d="m578.48,240.53c-1.81,12.54-3.13,25.27-3.45,37.93-.76,30.17,4.3,60.23,4.31,90.52-4.43,12.75-8.72,25.71-12.07,38.8-5.53-5.24-5-5.89-15.52-5.17l-1.72-.43c5.65-37.26,10.94-74.67,15.52-112.08.94-7.66,3.48-47.64,4.31-50,.81-2.31,4.43-1.56,5.17-3.88,1.32,1.18,2.26,3.03,3.45,4.31Z" style="fill: #0f8881; stroke-width: 0px;"/>
      <path d="m318.98,50c-4.85-.09-17.71.23-21.98.86-17.71,2.63,11.03,2.01,12.07,2.59,2.06,1.14,19.26,24.15,30.61,35.78,13.97,14.32,29.22,27.46,43.97,40.95-.7.04-1.33,1.31-3.45.86-9.46-5.08-27.98-24.49-31.9-26.73q-17.89-21.98-35.78-43.97c-1.53,11.77-9.44,31.73-3.02,38.8-5.61,4.72-10.58,10.12-15.52,15.52-.26.29-2.38-1.42-2.59,4.31-5.49,1.81-15.51,8.13-20.69,9.48-9.51,2.48-32.53.03-41.38-3.45q4.74-30.61,9.48-61.21c4.82,1.58,42.55-9.17,51.3-11.21,1.43-2.61-.53-2.5-.43-2.59.09-.08.79-1.66.86-1.72,1.35-1.2,6-3.06,6.47-3.45,2.04-1.7,1.14-3.34,1.29-3.45,2.54-1.84,16.54-6.95,20.69-11.21,1.2,7.02-.33,12.88,0,19.83Z" style="fill: #27b2a8; stroke-width: 0px;"/>
      <path d="m318.98,50c20,.36,48.63,5.31,69.83,5.17l5.17,73.28c-2.96.53-7.6,1.55-10.35,1.72-14.75-13.49-30-26.63-43.97-40.95-11.34-11.63-28.55-34.63-30.61-35.78-1.04-.57-29.78.04-12.07-2.59,4.28-.64,17.13-.95,21.98-.86Z" style="fill: #107a76; stroke-width: 0px;"/>
      <path d="m446.58,50l6.9,3.02-43.97,71.99-4.74,2.59c-3.31.86-7.65.3-10.78.86l-5.17-73.28c19.08-.13,38.65-4.36,57.76-5.17Z" style="fill: #27b2a8; stroke-width: 0px;"/>
      <path d="m520.72,97.42c7.29,2.31,14.58,6.09,21.98,8.62.76.26.34,1.69.43,1.72-8.6,3.12-17.49,6.2-26.29,8.62-6.95,1.91-19.25,3.55-21.12,6.03-30.07,4.46-81.17,6.59-107.76,13.79-.77.21-4.43.11-9.48,2.59-3.62-3.71-4.06-3.02-1.72-7.76h3.45c2.12.45,2.75-.82,3.45-.86,2.74-.17,7.39-1.2,10.35-1.72,3.13-.56,7.47,0,10.78-.86l4.74-2.59c25.28-14.63,51.03-27.78,78.45-37.93,1.55,1.61,1.95,3.81,3.02,4.31,10.06,1.31,20.03,2.96,29.74,6.03Z" style="fill: #3ed2ca; stroke-width: 0px;"/>
      <path d="m229.32,125.01c8.86,3.47,31.87,5.93,41.38,3.45,7.45,1.02,14.94,1.7,22.42,2.59,7.4,7.61,21.26,12.48,31.04,17.24-4.78,3.23-4.74,7.96-5.17,13.79-1.16-.59-3.13-2.2-5.17-3.45-.84-.51-1.7-1.19-2.59-1.72-13.08-7.91-25.8-17.74-40.95-21.55-9.86-2.48-9.42-.78-9.91-.86-23.95-4-145.83-14.5-173.29-15.52,15.06-12.48,36.77-20,50.86-34.48,6.84-.69,14.44-11.3,18.1-15.52,1.62-1.87,3.71-2.89,5.17-5.17,15.38,10.42,54.63,55.92,68.11,61.21Z" style="fill: #3ed2ca; stroke-width: 0px;"/>
      <path d="m130.18,186.22c2.56,1.46,5.21,2.8,7.76,4.31,6.69,3.97,13.54,8.11,20.69,11.21l5.17,4.74c.67,1.67,1.57,4.24,2.59,5.6,4.06,5.42,7.12,11.95,11.21,17.24l-1.72.43c10.28,16.45,20.83,32.76,31.9,48.71-3.52.34-6.32-.16-9.48,0-17.23-19.86-30.9-42.35-42.24-65.95-4.42-5.14-32.65-23.16-35.78-24.57-2.43-1.1-1.39-.61-3.02.86-2.19-3.47-4.07-6.46-6.9-9.48l-.86-4.31c6.66,4.04,13.93,7.35,20.69,11.21Z" style="fill: #0f0f0e; stroke-width: 0px;"/>
      <path d="m152.59,159.49c6.36,2.93,12.56,6.71,18.97,9.48q-20.69,8.62-41.38,17.24c-6.77-3.86-14.04-7.17-20.69-11.21-3.05-1.85-7.22-4.59-9.91-6.9l37.5-7.76c.29.02.58-.02.86,0,.75.06,6.24-2.98,14.66-.86Z" style="fill: #a3ddd1; stroke-width: 0px;"/>
      <path d="m68.97,124.14c13.8,7.63,31.27,17.62,45.26,24.14,9.87,4.59,28.82,9.02,23.71,12.07-.29-.02-.58.02-.86,0-6.27.21-90.53-19.21-88.37-23.28,3.45-1.95,12.74-4.17,14.22-7.76,1.2-2.91-.7-3.66.86-7.76,1.53,1.04,3.64,1.74,5.17,2.59Z" style="fill: #3c3538; stroke-width: 0px;"/>
      <path d="m75,118.11c4.19-.11,8.06.71,12.07.86,27.46,1.02,149.33,11.52,173.29,15.52.91-.34,2.23,1.61,5.17,4.31-1.08,2.95-4.36,2.12-6.03,2.59-7.25,2.01-26,7.04-30.17,8.62l-5.17-.86c1.23-.38,18.96-5.06,14.22-7.76-11.09-.61-21.88,3.69-32.76,4.31-33.53,1.93-89.6-5.49-121.56-16.38-4.46-1.52-12.34-7.61-15.09-5.17-1.53-.85-3.64-1.54-5.17-2.59.28-.73-.62-2.28,1.29-3.45,3.3-.06,6.61.09,9.91,0Z" style="fill: #19302e; stroke-width: 0px;"/>
      <path d="m522.44,423.3c-.8,3.24-2.14,5.29-.86,6.9-1.05-.09-.81.83-.86.86-8.67,6.61-50.02,71.49-60.35,86.21-12.21,8.03-23.89,17.86-36.21,25.86-1.63-.52-2.87-1.25-4.31-1.72-4.4-23.78-17.2-44.24-29.31-64.66,20.61-10.95,41.21-22.32,61.64-33.62,25.2-13.94,26.86-19.03,59.06-31.04.42-.16,1.97.41,2.59-1.72,2.3,4.22,5.03,9.78,8.62,12.93Z" style="fill: url(#linear-gradient); stroke-width: 0px;"/>
      <path d="m533.65,432.78c-3.27,2.22-10.24,29.84-10.35,31.9l-4.31-9.91c-1.14,10.05,4.71,22.71,1.29,28.02-20.42,10.61-40.68,21.84-59.92,34.48,10.32-14.72,51.68-79.6,60.35-86.21,4.22.27,8.86.6,12.93,1.72Z" style="fill: #107a76; stroke-width: 0px;"/>
      <path d="m543.13,403.47c.37,2.27,2.08,14.25,1.72,15.09q-11.64,5.82-23.28,11.64c-1.28-1.61.06-3.66.86-6.9,4.76-19.26,7.08-39.03,9.91-58.62,2.98,12.73,8.66,25.94,10.78,38.8Z" style="fill: #0b5a57; stroke-width: 0px;"/>
      <path d="m330.19,408.64c7.22,14.63,33.26,69.28,37.07,75,.15.22-.67,3.53,3.02,4.31,6.86-3.53,13.45-7.59,20.26-11.21,12.11,20.42,24.91,40.88,29.31,64.66-1.78-.59-11.65-4.01-12.5-3.45.54,3.21,1.86,6.2,2.16,9.48-3.91-5.33-19.37-45.61-21.55-46.99-.78-.49-1.28-.54-2.16-.43.16,9.87-13.2,65.94-12.5,69.4.29,1.42,2.64-1.25,2.59.43-1.1.71-4.72,3.88-6.03,5.17l-4.31.86-68.11-3.02c-12.88-29.47-4.71-41.54-3.45-71.12,11.06-16.44,32.04-88.14,34.48-92.68.38-.7,1.12-.43,1.72-.43Z" style="fill: #107a76; stroke-width: 0px;"/>
      <path d="m198.29,278.46c-7.62.39-15.18,1.49-22.85.86,1.41,7.86,26.59,59.1,28.88,61.64,4.55,5.05,12.88,2.89,18.1-.43,6.76,30.15,15.83,59.83,19.83,90.52.82,9.23-.65,18.4-.86,27.59-1.95-.97-8.82,3.82-14.66,6.9-13.04-15.31-31.78-24.2-47.42-36.21-11.43-8.78-21.72-19.19-32.76-28.45,20.62-4.73,42.36-10.07,62.93-12.07-1.15,6.45-33.77,8.8-33.62,11.64,5.01,1.99,49.45,25.71,50.86,23.28-5.53-11.59-11.08-23.21-16.38-34.92-21.04-46.49-39.5-94.15-62.5-139.66-2.55,1.04-1.74,37.07-5.6,54.74-.49,2.26-13.72,41.85-14.66,43.97-2.16,4.86-8.25,12.66-8.62,13.36,6.46-18.19,2.65-113.42,6.9-120.27.38-.61,8.31-2.35,8.62-9.91.12-.12,1.64-.82,2.59-2.16-6.9-11.58-12.97-29.21-19.83-40.09,1.62-1.48.59-1.96,3.02-.86,3.13,1.41,31.35,19.43,35.78,24.57,11.35,23.6,25.01,46.09,42.24,65.95Z" style="fill: #19302e; stroke-width: 0px;"/>
      <path d="m232.77,580.2c.91,2.67-3.78,8.6,5.17,12.93-4.32,1.11-8.72,1.97-12.93,3.45-12.71-10.99-25.7-21.79-38.8-32.33q9.05-5.39,18.1-10.78h.86c4.42,4.36,26.4,23.21,27.59,26.73Z" style="fill: #261a15; stroke-width: 0px;"/>
      <path d="m227.6,336.23c9.49,29.81,12.99,61.4,21.55,91.38-8-1.17-3.39,3.37-6.9,3.45-3.99-30.69-13.07-60.37-19.83-90.52,1.72-1.09,3.66-2.94,5.17-4.31Z" style="fill: #0c1616; stroke-width: 0px;"/>
      <g>
        <path d="m394.85,559.51v.86l-25,14.66c1.31-1.3,4.94-4.47,6.03-5.17,5.93-3.81,12.95-6.64,18.97-10.35Z" style="fill: #a5aca7; stroke-width: 0px;"/>
        <path d="m409.51,547.44c.46,5.07-2.68,4.69-14.66,12.07-6.02,3.71-13.04,6.54-18.97,10.35.06-1.68-2.3.99-2.59-.43-.7-3.46,12.66-59.53,12.5-69.4.87-.11,1.37-.06,2.16.43,2.19,1.38,17.64,41.65,21.55,46.99Z" style="fill: #0f8881; stroke-width: 0px;"/>
      </g>
      <g>
        <path d="m237.08,579.34c.46-37.95,2.5-75.86,3.45-113.8,0-.29,0-.57,0-.86.94-.36,2.09-1.62,2.59-.43,1.82,4.34,14.46,78.58,18.97,92.25-2.83,14.09-5.62,16.35-25,22.85Z" style="fill: #103b3a; stroke-width: 0px;"/>
        <g>
          <path d="m240.53,465.54c-.95,37.94-2.99,75.85-3.45,113.8-.95.32-1.75,1.29-4.31.86-1.19-3.51-23.16-22.36-27.59-26.73-11.25-11.1-23.4-21.6-34.48-32.76-3.67-3.7-13.34-14.49-15.52-18.97,1.43-.15,10.8-5.52,13.79-6.9,11.98,1.39,65.59-30.74,69.4-31.04,1.93-.15.75,1.59,2.16,1.72Z" style="fill: url(#linear-gradient-2); stroke-width: 0px;"/>
          <path d="m241.39,458.65c-.05,1.99-.79,3.27-.86,6.03,0,.29,0,.57,0,.86-1.4-.13-.23-1.87-2.16-1.72-3.81.29-57.42,32.43-69.4,31.04,13.75-6.34,27.06-13.76,40.52-20.69,5.7-2.94,11.57-5.63,17.24-8.62,5.84-3.08,12.7-7.86,14.66-6.9Z" style="fill: #97948e; stroke-width: 0px;"/>
        </g>
        <path d="m205.18,553.48h-.86c-11.8-9.84-24.13-19.74-33.62-31.9v-.86c11.08,11.16,23.23,21.66,34.48,32.76Z" style="fill: #cdb0af; stroke-width: 0px;"/>
      </g>
      <path d="m118.97,361.23c-3.08,5.83-6.13,11.56-9.48,17.24-9.65,2.25-20.51,16.7-30.17,22.42-28.67-46.27-26.54-52.46-27.59-108.2l-16.38,7.33c-2.9-1.05,10.63-11.31,16.38-15.52,13.48-9.85,77.44-48.16,82.76-53.45-.32,7.56-8.24,9.3-8.62,9.91-4.24,6.85-.43,102.07-6.9,120.27Z" style="fill: url(#linear-gradient-3); stroke-width: 0px;"/>
      <path d="m79.31,400.88c.17.28-.17,1.45,0,1.72-5.46,4.3-9.84,9.71-14.66,14.66-11.23-38.68-21.52-77.71-29.31-117.25l16.38-7.33c1.05,55.73-1.08,61.93,27.59,108.2Z" style="fill: #80907f; stroke-width: 0px;"/>
      <path d="m87.94,412.95c-.49.82-1.07,1.53-.86,2.59-1.21.29-.8.85-.86.86-6.06,1.41-17.17,4.12-22.42,2.59.12-.13.73-1.59.86-1.72,4.82-4.94,9.2-10.35,14.66-14.66,2.26,3.54,5.48,7.47,8.62,10.35Z" style="fill: #19302e; stroke-width: 0px;"/>
      <path d="m146.56,400.88c11.04,9.26,21.33,19.67,32.76,28.45-1.38.29,1,4.53,1.72,5.6,8.6,12.72,20.51,25.5,28.45,39.23-13.46,6.93-26.77,14.35-40.52,20.69-2.99,1.38-12.36,6.75-13.79,6.9-3.03.32-4.11-1.61-4.31-1.72-3.64-10.92-12.18-20.02-18.97-29.31-9.3-12.75-18.63-25.58-28.45-37.93h-1.72q-7.76-8.19-15.52-16.38c.06-.01-.34-.58.86-.86,19.87-4.7,39.58-10.09,59.49-14.66Z" style="fill: #19302e; stroke-width: 0px;"/>
      <g>
        <path d="m101.73,432.78h1.72c3.94,11.49,11.94,20.5,19.83,29.31.06.75.07,1.83-.43,1.72-.72-.15,1.05-1.97-4.31-1.72-.96.04-7.37,2.67-18.54-.86-5.85-9.15-12.04-18.03-17.24-27.59,6.47-1.17,12.48-.92,18.97-.86Z" style="fill: #3b4b44; stroke-width: 0px;"/>
        <path d="m123.28,462.09c3.18,3.56,6.77,8.54,8.62,8.62,6.78,9.29,15.33,18.39,18.97,29.31-6.32-3.65-20.24-23.46-28.88-23.28,1.05-4.12-2.46-4.7-5.6-4.31-2.39-2.04-4.98-3.01-7.76-4.31-.93-.43-3.88.79-6.03-.86-.33-1.54-1.82-4.83-2.59-6.03,11.17,3.53,17.58.91,18.54.86,5.36-.25,3.59,1.58,4.31,1.72.5.1.49-.97.43-1.72Z" style="fill: #19302e; stroke-width: 0px;"/>
        <path d="m131.9,470.72c-1.85-.09-5.44-5.06-8.62-8.62-7.88-8.82-15.89-17.82-19.83-29.31,9.82,12.35,19.15,25.19,28.45,37.93Z" style="fill: #989b88; stroke-width: 0px;"/>
      </g>
      <path d="m416.4,181.91c6.86.59,45.64,15.7,56.04,19.83-1.85,1.99-19.69,42.21-23.28,49.14-13.34,25.75-28.38,51.02-40.52,77.16,31.19,31.59,69.9,54.3,102.59,84.06-32.2,12.01-33.86,17.1-59.06,31.04-20.43,11.3-41.03,22.67-61.64,33.62-6.81,3.62-13.4,7.68-20.26,11.21-3.68-.78-2.87-4.09-3.02-4.31q10.35-32.33,20.69-64.66c11.45-44.43,14.95-111.7,23.28-152.59,2.79-13.72,11.17-31.52,7.76-35.35q21.98-13.58,43.97-27.16c-16.34-4.68-32.53-11.47-49.14-15.09.24-1.32-5.72-3.85-6.9-4.31,4.8-1.34,4.55-3.01,9.48-2.59Z" style="fill: #0f8881; stroke-width: 0px;"/>
      <path d="m513.82,410.37c-.61,2.13-2.17,1.57-2.59,1.72-32.69-29.76-71.4-52.47-102.59-84.06,12.14-26.14,27.18-51.41,40.52-77.16,13.75,23.1,15.8,51.22,25,76.3,4.07,11.09,32.69,70.4,39.66,83.19Z" style="fill: url(#linear-gradient-4); stroke-width: 0px;"/>
      <path d="m455.2,163.8h.86q25,9.91,50,19.83c-7.51,4.21-15.04,8.47-22.42,12.93-2.49,1.51-8.27,3.06-11.21,5.17-10.4-4.13-49.18-19.24-56.04-19.83,2.76-1.71,5.74-3.74,8.62-5.17,3.65-1.82,28.53-12.94,30.17-12.93Z" style="fill: #eef6f8; stroke-width: 0px;"/>
      <g>
        <path d="m562.96,217.25c.47,1.17,3.41,11.03,3.45,11.64,1.29,18.39-21.9,114.34-26.29,141.82l-56.47-174.15c7.37-4.46,14.9-8.72,22.42-12.93,6.16-3.46,13.2-5.73,18.1-11.21,8.2,5.79,35.23,35.95,38.8,44.83Z" style="fill: url(#linear-gradient-5); stroke-width: 0px;"/>
        <path d="m524.17,172.42c-4.9,5.48-11.94,7.75-18.1,11.21q-25-9.91-50-19.83c2.93-1.89,16.09-9.12,17.24-9.48,1.8-.57,5.84-1.88,7.33-1.72,12.27,6.41,33.02,12.41,43.54,19.83Z" style="fill: #79eae4; stroke-width: 0px;"/>
      </g>
      <path d="m473.3,154.32c-1.16.37-14.31,7.6-17.24,9.48h-.86c-9.79-4.54-25.16-13.96-26.73-6.9-11.64-5.86-24.55-10.22-37.07-13.79l4.74-1.72q38.58,6.47,77.16,12.93Z" style="fill: #0b5a57; stroke-width: 0px;"/>
      <path d="m387.95,142.25c2.55-.15,2.75.77,3.45.86,12.52,3.57,25.43,7.94,37.07,13.79,9.88,4.97,17.59,9.18,8.19,8.62-3.22-.19-50.43-19.27-61.64-18.97,4.27-1.21,11.77-4.24,12.93-4.31Z" style="fill: #17a7aa; stroke-width: 0px;"/>
      <g>
        <g>
          <path d="m613.83,130.18c2.11,4.79-1.19,40.04-1.72,48.28-.94,14.65-2.42,29.26-2.59,43.97-1.06,6.84-.15,13.18-.86,19.83-.54,5.01-1.34,10.05-1.72,15.09-.66,1.08-2.48,2.03-2.59,2.16-5.34-6.5-21.1-13.84-25.86-18.97-1.19-1.28-2.13-3.14-3.45-4.31-1.69-5.87-7.23-15.87-8.62-20.69-5.21-18.06-6.82-54.59-7.76-57.33l-1.72-1.29q28.45-13.36,56.9-26.73Z" style="fill: #27b2a8; stroke-width: 0px;"/>
          <path d="m598.31,125.01c4.51,1.3,10.36,2.15,15.09,2.59.9.52.17,1.98.43,2.59q-28.45,13.36-56.9,26.73-30.61-17.24-61.21-34.48c1.87-2.48,14.17-4.13,21.12-6.03,8.81-2.42,17.7-5.5,26.29-8.62,18.04,6.12,36.86,11.96,55.18,17.24Z" style="fill: #79eae4; stroke-width: 0px;"/>
        </g>
        <path d="m604.34,259.5c-2.94,3.58-20.7,13.76-25.86,18.97-1.39-.47-1.77,1.46-3.45,0,.32-12.66,1.64-25.4,3.45-37.93,4.76,5.13,20.53,12.46,25.86,18.97Z" style="fill: #19302e; stroke-width: 0px;"/>
        <g>
          <path d="m495.72,122.42q30.61,17.24,61.21,34.48l1.72,1.29c.94,2.74,2.55,39.27,7.76,57.33l-3.45,1.72c-3.56-8.88-30.59-39.04-38.8-44.83-10.51-7.42-31.26-13.42-43.54-19.83-1.49-.15-5.53,1.15-7.33,1.72q-38.58-6.47-77.16-12.93l-4.74,1.72c-.69-.09-.9-1.01-3.45-.86v-6.03c26.6-7.2,77.69-9.33,107.76-13.79Z" style="fill: #0f0f0e; stroke-width: 0px;"/>
          <path d="m387.95,136.21v6.03c-1.16.07-8.66,3.1-12.93,4.31-1.78.5-6.79,2.43-7.76.86,4.29-3.68,5.75-5.95,11.21-8.62,5.06-2.48,8.71-2.38,9.48-2.59Z" style="fill: #19302e; stroke-width: 0px;"/>
        </g>
      </g>
      <path d="m341.4,118.11c5.42,2.45,20.66,9.53,23.28,10.35-6.89,2.45-43.38-.4-45.26.86-2.64,1.78,1.52,4.31,3.88,5.17-10.11-1.06-20.09-2.25-30.17-3.45-7.47-.89-14.96-1.57-22.42-2.59,5.18-1.35,15.2-7.68,20.69-9.48.93-.31,3,3.58,17.67-5.17,12.72,15.45,9.53,8.87,32.33,4.31Z" style="fill: #3ed2ca; stroke-width: 0px;"/>
      <path d="m348.3,104.32c3.92,2.24,22.43,21.64,31.9,26.73h-5.17c-3.39-.76-7.04-1.56-10.35-2.59-2.62-.81-17.86-7.9-23.28-10.35-1.27-.57-15.9-10.05-24.57-12.93-6.37-.63-23.28,14.02-22.85,9.48,4.94-5.4,9.9-10.8,15.52-15.52,6.18-2.35,33.23,2,38.8,5.17Z" style="fill: #107a76; stroke-width: 0px;"/>
      <path d="m348.3,104.32c-5.56-3.18-32.62-7.52-38.8-5.17-6.43-7.06,1.49-27.03,3.02-38.8q17.89,21.98,35.78,43.97Z" style="fill: #0f8881; stroke-width: 0px;"/>
      <path d="m341.4,118.11c-22.8,4.56-19.61,11.13-32.33-4.31-14.68,8.75-16.74,4.87-17.67,5.17.21-5.73,2.33-4.03,2.59-4.31-.43,4.54,16.47-10.12,22.85-9.48,8.67,2.88,23.31,12.36,24.57,12.93Z" style="fill: #27b2a8; stroke-width: 0px;"/>
      <path d="m376.75,131.04c-2.34,4.74-1.9,4.04,1.72,7.76-5.46,2.67-6.92,4.94-11.21,8.62-6.8,5.84-11.22,12.67-17.24,18.97-.51.53-7.91,4.63-10.35,10.35-6.86.32-21.22,4.22-25,4.31-.24,0-1.15-1.98-4.74,0-1.31-.69-2.66-1.89-3.88-2.59,5.86-2.94,11.67-6.03,17.24-9.48,14.18-8.77,26.39-19.41,39.66-29.31,6.3-4.7,11.47-6.51,12.07-8.62h1.72Z" style="fill: #27b2a8; stroke-width: 0px;"/>
      <path d="m375.02,131.04c-.6,2.11-5.77,3.92-12.07,8.62l-38.36,25c-2.33.32-3.84-1.68-5.6-2.59.44-5.83.39-10.56,5.17-13.79,3.43-2.32,20.95-7.79,26.73-10.78-9.2-.96-18.39-2.05-27.59-3.02-2.36-.86-6.52-3.39-3.88-5.17,1.88-1.26,38.37,1.59,45.26-.86,3.31,1.03,6.95,1.83,10.35,2.59Z" style="fill: #52ceb8; stroke-width: 0px;"/>
      <path d="m311.22,156.91h-.86c-11.59,4.07-17.83-1.57-4.31,17.24-.56.92-1.33,1.6-1.72,2.59-.22-.18-1.56-.71-1.72-.86-1.82-1.67-12.05-15.27-16.81-19.83-.67.73-1.2,1.31-2.16,1.72-5.2-7.13-11.65-13.04-18.1-18.97-2.94-2.7-4.26-4.65-5.17-4.31.49.08.05-1.62,9.91.86,15.15,3.81,27.87,13.65,40.95,21.55Z" style="fill: #27b2a8; stroke-width: 0px;"/>
      <path d="m323.29,134.49c9.19.97,18.39,2.06,27.59,3.02-5.77,2.99-23.29,8.46-26.73,10.78-9.77-4.77-23.64-9.63-31.04-17.24,10.09,1.2,20.07,2.39,30.17,3.45Z" style="fill: #d1f4f6; stroke-width: 0px;"/>
      <path d="m362.95,139.66c-13.27,9.9-25.48,20.54-39.66,29.31.57-4.44-8.27,3.15-12.07-1.29-.85-.99-.64-9.68,2.59-9.05,2.04,1.25,4.02,2.86,5.17,3.45,1.77.91,3.27,2.91,5.6,2.59l38.36-25Z" style="fill: #27b2a8; stroke-width: 0px;"/>
      <path d="m313.81,158.63c-3.23-.63-3.43,8.06-2.59,9.05,3.8,4.44,12.64-3.14,12.07,1.29-5.58,3.45-11.38,6.54-17.24,9.48-1.51-.86-1.63-1.65-1.72-1.72.4-.99,1.16-1.66,1.72-2.59,2.04-3.36,3.95-12.81,4.31-17.24h.86c.89.54,1.75,1.21,2.59,1.72Z" style="fill: #0f8881; stroke-width: 0px;"/>
      <path d="m304.33,240.53l2.59,4.31q40.52,87.07,81.04,174.15-10.35,32.33-20.69,64.66c-3.81-5.72-29.85-60.38-37.07-75-6.31-12.79-13.69-25.12-19.83-37.93-11.24-23.47-19.79-48.26-31.47-71.56-1.78-.77-29.63,17.23-33.19,19.83-3.53,2.57-7.41,4.98-10.78,7.76-8.51,7.03-6.86,9.06-7.33,9.48-1.51,1.37-3.46,3.22-5.17,4.31-5.22,3.32-13.56,5.48-18.1.43-2.29-2.55-27.47-53.78-28.88-61.64,7.67.63,15.23-.47,22.85-.86,3.17-.16,5.96.34,9.48,0,7.07-.68,14.19-.73,21.12-2.59l46.12-25.86c.42.13,1.79.08,4.31.86-2.8,3.33-19.29,14.78-19.83,15.95-2.63,5.68.92,31.95,4.31,30.17,6.43-11.02,12.73-22.06,18.97-33.19,1.22-2.18,1.52-4.79,1.72-5.17,1.14-2.07,2.7-3.87,2.59-6.47l4.74-4.74c4.09-2.01,7.48-5.21,11.21-7.76.06-.04.84,1.17,1.29.86Z" style="fill: #0f0f0e; stroke-width: 0px;"/>
      <path d="m179.32,173.29l-41.38,17.24c-2.54-1.51-5.2-2.85-7.76-4.31q20.69-8.62,41.38-17.24c2.69,1.16,5.03,3.15,7.76,4.31Z" style="fill: #0f8881; stroke-width: 0px;"/>
      <path d="m224.15,149.15c-23.2,7.09-47.59,7.92-71.56,10.35-8.42-2.12-13.91.92-14.66.86,5.11-3.05-13.84-7.47-23.71-12.07-14-6.51-31.46-16.51-45.26-24.14,2.75-2.44,10.63,3.65,15.09,5.17,31.96,10.89,88.03,18.31,121.56,16.38,10.88-.63,21.67-4.92,32.76-4.31,4.73,2.7-12.99,7.38-14.22,7.76Z" style="fill: #19302e; stroke-width: 0px;"/>
      <path d="m229.32,150.01c-16.44,6.21-31.55,17.41-48.28,23.28-.38-.16-1.34.16-1.72,0-2.73-1.16-5.07-3.15-7.76-4.31-6.41-2.77-12.6-6.56-18.97-9.48,23.96-2.43,48.36-3.25,71.56-10.35l5.17.86Z" style="fill: #0b5a57; stroke-width: 0px;"/>
      <path d="m283.64,157.77c-13.02,5.57-8.8,16.03-34.05,7.76-5.62,2.4-13.32,12.62-10.78,14.66-11.36.9-22.03,4.66-39.23,0-2.06-.56-6.5-6.08-6.47-1.72-2.29-.91-4.62-1.63-6.9-2.59,16.18-5.67,31.19-14.13,46.99-20.69,13.6-5.64,33.4-8.71,26.29-13.79,1.67-.46,4.96.36,6.03-2.59,6.46,5.93,12.91,11.83,18.1,18.97Z" style="fill: #0f8881; stroke-width: 0px;"/>
      <path d="m186.22,175.87c-1.75-.74-3.54-1.9-5.17-2.59,16.73-5.86,31.84-17.06,48.28-23.28,4.17-1.58,22.92-6.61,30.17-8.62,7.11,5.08-12.7,8.15-26.29,13.79-15.79,6.56-30.81,15.02-46.99,20.69Z" style="fill: #2aa194; stroke-width: 0px;"/>
      <path d="m210.36,388.81h-.86c-20.57,2-42.31,7.34-62.93,12.07-19.91,4.57-39.61,9.96-59.49,14.66-.2-1.05.37-1.77.86-2.59,6.94-11.63,14.65-22.81,21.55-34.48,3.36-5.68,6.41-11.41,9.48-17.24.37-.7,6.47-8.5,8.62-13.36.94-2.12,14.16-41.7,14.66-43.97,3.86-17.68,3.05-53.71,5.6-54.74,23,45.52,41.46,93.17,62.5,139.66Z" style="fill: #527268; stroke-width: 0px;"/>
      <path d="m209.49,388.81h.86c5.3,11.7,10.85,23.32,16.38,34.92-1.42,2.44-45.85-21.29-50.86-23.28-.14-2.83,32.47-5.19,33.62-11.64Z" style="fill: #3b4b44; stroke-width: 0px;"/>
      <path d="m226.74,465.54c-5.68,2.99-11.54,5.69-17.24,8.62-7.94-13.72-19.85-26.51-28.45-39.23-.72-1.07-3.11-5.32-1.72-5.6,15.63,12.01,34.38,20.9,47.42,36.21Z" style="fill: #19302e; stroke-width: 0px;"/>
      <g>
        <path d="m330.19,408.64c-.6,0-1.34-.27-1.72.43-2.45,4.53-23.42,76.24-34.48,92.68-4.57-6.88-9.13-13.88-13.79-20.69-.94-27.88-.67-56.19-6.03-83.63l36.21-26.73c6.14,12.81,13.52,25.15,19.83,37.93Z" style="fill: #0b5a57; stroke-width: 0px;"/>
        <path d="m274.15,397.44c5.36,27.44,5.09,55.75,6.03,83.63-15.06-21.98-22.9-24.97-31.04-53.45-8.56-29.98-12.06-61.58-21.55-91.38.46-.42-1.18-2.46,7.33-9.48,3.36-2.78,7.25-5.19,10.78-7.76l28.45,78.45Z" style="fill: #103b3a; stroke-width: 0px;"/>
        <path d="m310.36,370.71l-36.21,26.73-28.45-78.45c3.57-2.59,31.42-20.59,33.19-19.83,11.68,23.29,20.23,48.09,31.47,71.56Z" style="fill: #27b2a8; stroke-width: 0px;"/>
      </g>
      <path d="m109.49,378.47c-6.9,11.67-14.61,22.85-21.55,34.48-3.14-2.87-6.36-6.8-8.62-10.35-.17-.27.17-1.44,0-1.72,9.66-5.72,20.52-20.16,30.17-22.42Z" style="fill: #0c1616; stroke-width: 0px;"/>
      <path d="m411.23,266.39c-8.33,40.9-11.82,108.16-23.28,152.59q-40.52-87.07-81.04-174.15,26.51-13.36,53.02-26.73l51.3,48.28Z" style="fill: #0f8881; stroke-width: 0px;"/>
      <path d="m413.82,188.8c16.61,3.62,32.8,10.41,49.14,15.09q-21.98,13.58-43.97,27.16-35.78-10.35-71.56-20.69c.13-.09-.13-.77,0-.86,3.08-2.15,6.16-4.3,9.48-6.03,7.32-3.82,23.46-8.8,31.9-11.21,5.91-1.69,12.13-3.33,17.67-6.03,1.3-.06,5.53,2.2,7.33,2.59Z" style="fill: #79eae4; stroke-width: 0px;"/>
      <path d="m418.99,231.05c3.41,3.83-4.97,21.63-7.76,35.35l-51.3-48.28q-26.51,13.36-53.02,26.73l-2.59-4.31c13.83-9.38,28.01-18.21,41.81-27.59.46-.31.9-2.32,1.29-2.59q35.78,10.35,71.56,20.69Z" style="fill: #0b5a57; stroke-width: 0px;"/>
      <path d="m402.61,182.77c1.27.41,2.97,1.2,4.31,1.72,1.18.46,7.14,2.99,6.9,4.31-1.79-.39-6.03-2.65-7.33-2.59-5.55,2.71-11.76,4.34-17.67,6.03-9.84-2.34-20.14-2.55-30.17-3.45-7.5-.67-14.9-1.22-22.42-1.72-8.05-.54-16.12-.91-24.14-1.72.36-2.51-2.47-4.44,2.59-4.31,3.78-.09,18.14-3.99,25-4.31,18.77-.88,44.99.31,62.93,6.03Z" style="fill: #0f8881; stroke-width: 0px;"/>
      <path d="m425.02,176.73c-2.88,1.43-5.87,3.47-8.62,5.17-4.93-.42-4.68,1.25-9.48,2.59-1.34-.52-3.04-1.32-4.31-1.72,2-1.28-4.12-4.15-6.9-6.03l31.47-2.59-2.16,2.59Z" style="fill: #27b2a8; stroke-width: 0px;"/>
      <path d="m375.02,146.56c11.21-.31,58.42,18.77,61.64,18.97,9.4.56,1.69-3.65-8.19-8.62,1.57-7.07,16.94,2.36,26.73,6.9-1.64,0-26.52,11.11-30.17,12.93l2.16-2.59-31.47,2.59c-5.89-4-11.52-8.17-16.81-12.93-1.45-.23-22.83,6.02-28.88,2.59,6.03-6.3,10.44-13.13,17.24-18.97.96,1.57,5.98-.36,7.76-.86Z" style="fill: #0f8881; stroke-width: 0px;"/>
      <path d="m395.71,176.73c2.78,1.89,8.89,4.75,6.9,6.03-17.95-5.73-44.16-6.92-62.93-6.03,2.43-5.72,9.84-9.82,10.35-10.35,6.05,3.43,27.44-2.81,28.88-2.59,5.29,4.77,10.92,8.94,16.81,12.93Z" style="fill: #3ed2ca; stroke-width: 0px;"/>
      <path d="m302.6,175.87c.17.15,1.51.68,1.72.86.09.08.22.87,1.72,1.72,1.22.69,2.57,1.89,3.88,2.59,3.59-1.98,4.5,0,4.74,0-5.06-.13-2.22,1.8-2.59,4.31-.91,6.32-1.63,12.65-2.59,18.97-.53-.1-1.2.1-1.72,0-2.07-7.33-3.74-15.48-6.9-22.42-.29-.64-.69-2.55-.86-3.45l2.59-2.59Z" style="fill: #3ed2ca; stroke-width: 0px;"/>
      <path d="m302.6,175.87l-2.59,2.59-1.29-1.72c-20.09-1.05-39.96,1.86-59.92,3.45-2.54-2.04,5.15-12.26,10.78-14.66,25.25,8.28,21.03-2.18,34.05-7.76.96-.41,1.49-.99,2.16-1.72,4.76,4.56,14.99,18.16,16.81,19.83Z" style="fill: #3ed2ca; stroke-width: 0px;"/>
      <path d="m306.05,174.15c-13.52-18.81-7.28-13.18,4.31-17.24-.36,4.43-2.27,13.88-4.31,17.24Z" style="fill: #27b2a8; stroke-width: 0px;"/>
      <g>
        <path d="m281.05,251.74c-1.42,2.72-.09,9.34,1.72,12.07-6.24,11.13-12.54,22.17-18.97,33.19-3.39,1.77-6.94-24.5-4.31-30.17.54-1.17,17.03-12.62,19.83-15.95.75.23.98.67,1.72.86Z" style="fill: #261a15; stroke-width: 0px;"/>
        <path d="m282.77,251.74c.32,2.12.68,6.2,1.72,6.9-.21.38-.5,3-1.72,5.17-1.81-2.73-3.15-9.35-1.72-12.07.47.12,1.17-.06,1.72,0Z" style="fill: #615151; stroke-width: 0px;"/>
      </g>
      <path d="m238.81,180.18c19.95-1.59,39.83-4.49,59.92-3.45l1.29,1.72c.17.9.57,2.81.86,3.45-9.59,1.8-20.48,1.05-28.45,7.76q-25.43-.43-50.86-.86l-7.76-1.72c-7.18-2.2-13.76-5.86-20.69-8.62-.03-4.36,4.4,1.16,6.47,1.72,17.19,4.66,27.87.9,39.23,0Z" style="fill: #0b5a57; stroke-width: 0px;"/>
      <g>
        <path d="m221.56,188.8c-15.88,9.36,1.83,3.99,4.74,4.31.89.1,4.88,2.56,5.17,2.59,4.24.39,24.55-.7,26.29,3.02l-43.97,34.05c-.57-.03-1.16.06-1.72,0-7.14-.77-35.55-18.58-45.69-20.69-1.02-1.36-1.92-3.93-2.59-5.6l-5.17-4.74c17.96-5.35,36.63-8.33,54.74-12.93.64-.16.44-1.14.43-1.72l7.76,1.72Z" style="fill: #52ceb8; stroke-width: 0px;"/>
        <path d="m177.6,229.32c7.57,9.8,16.53,19,24.57,28.45l9.91-25c.56.06,1.15-.03,1.72,0h.86c19.99,6.32,40.3,11.04,60.35,17.24l-46.12,25.86c-6.93,1.85-14.05,1.91-21.12,2.59-11.06-15.95-21.62-32.26-31.9-48.71l1.72-.43Z" style="fill: #19302e; stroke-width: 0px;"/>
        <path d="m179.32,173.29c.38.16,1.34-.16,1.72,0,1.64.69,3.42,1.85,5.17,2.59,2.27.96,4.6,1.67,6.9,2.59,6.93,2.76,13.51,6.42,20.69,8.62,0,.58.21,1.56-.43,1.72-18.11,4.6-36.78,7.58-54.74,12.93-7.15-3.1-14-7.24-20.69-11.21l41.38-17.24Z" style="fill: #a3ddd1; stroke-width: 0px;"/>
        <path d="m212.08,232.77l-9.91,25c-8.04-9.45-17-18.65-24.57-28.45-4.09-5.29-7.15-11.82-11.21-17.24,10.14,2.11,38.55,19.92,45.69,20.69Z" style="fill: #527268; stroke-width: 0px;"/>
        <path d="m307.78,204.32c.53.1,1.19-.1,1.72,0,12.28,2.29,24.69,2.95,37.07,4.31.09.15-.19.95.86.86-.13.09.13.77,0,.86-.39.27-.83,2.27-1.29,2.59-13.8,9.38-27.98,18.2-41.81,27.59-.45.31-1.23-.91-1.29-.86-3.72,2.55-7.12,5.75-11.21,7.76l-4.74,4.74c.11,2.59-1.45,4.4-2.59,6.47-1.04-.7-1.4-4.77-1.72-6.9-2.03-13.4-5.83-50.03-8.62-57.76,11.11,3.47,22.15,8.11,33.62,10.35Z" style="fill: #3c3538; stroke-width: 0px;"/>
        <path d="m273.29,190.53c.16,1.04.52,2.49.86,3.45,2.79,7.74,6.59,44.36,8.62,57.76-.55-.06-1.26.12-1.72,0-.75-.2-.97-.63-1.72-.86-2.52-.78-3.89-.73-4.31-.86-20.05-6.2-40.36-10.92-60.35-17.24q29.31-21.12,58.62-42.24Z" style="fill: #a3ddd1; stroke-width: 0px;"/>
        <path d="m272.43,189.67l.86.86q-29.31,21.12-58.62,42.24h-.86l43.97-34.05c-1.74-3.72-22.05-2.63-26.29-3.02-.29-.03-4.28-2.49-5.17-2.59-2.92-.32-20.62,5.05-4.74-4.31q25.43.43,50.86.86Z" style="fill: #27b2a8; stroke-width: 0px;"/>
      </g>
      <path d="m358.64,188.8l-1.72,14.66c-3.33,1.74-6.4,3.88-9.48,6.03-1.05.09-.77-.71-.86-.86-3.93-6.68-8.18-14.08-10.35-21.55,7.51.51,14.91,1.06,22.42,1.72Z" style="fill: #0b5a57; stroke-width: 0px;"/>
      <path d="m388.81,192.25c-8.43,2.41-24.57,7.39-31.9,11.21l1.72-14.66c10.03.89,20.34,1.11,30.17,3.45Z" style="fill: #103b3a; stroke-width: 0px;"/>
      <path d="m336.23,187.08c2.17,7.48,6.41,14.88,10.35,21.55-12.39-1.37-24.79-2.02-37.07-4.31.96-6.31,1.67-12.64,2.59-18.97,8.02.82,16.09,1.18,24.14,1.72Z" style="fill: #19302e; stroke-width: 0px;"/>
      <path d="m307.78,204.32c-11.47-2.24-22.51-6.88-33.62-10.35-.35-.96-.7-2.41-.86-3.45l-.86-.86c7.97-6.71,18.86-5.96,28.45-7.76,3.16,6.94,4.82,15.08,6.9,22.42Z" style="fill: #19302e; stroke-width: 0px;"/>
    </g>
  </g>
</svg>