<?xml version="1.0" encoding="UTF-8"?>
<svg id="Layer_2" data-name="Layer 2" xmlns="http://www.w3.org/2000/svg" xmlns:xlink="http://www.w3.org/1999/xlink" viewBox="0 0 56.576 37.28">
  <defs>
    <linearGradient id="linear-gradient-headset" x1="32.2928" y1=".8839" x2="25.8339" y2="9.9376" gradientUnits="userSpaceOnUse">
      <stop offset="0" stop-color="#56545b"/>
      <stop offset="1" stop-color="#3c363f"/>
    </linearGradient>
    <linearGradient id="linear-gradient-headset-2" x1="13.0318" y1="5.2128" x2="13.0258" y2="10.29" gradientUnits="userSpaceOnUse">
      <stop offset="0" stop-color="#97949b"/>
      <stop offset="1" stop-color="#7c7980"/>
    </linearGradient>
    <linearGradient id="linear-gradient-headset-3" x1="10.6532" y1="3.3297" x2="29.3921" y2="32.2884" gradientUnits="userSpaceOnUse">
      <stop offset=".4019" stop-color="#f7f8fb"/>
      <stop offset="1" stop-color="#ccd9e2"/>
    </linearGradient>
    <linearGradient id="linear-gradient-headset-4" x1="8.5222" y1="7.9774" x2="25.2724" y2="38.4985" gradientUnits="userSpaceOnUse">
      <stop offset="0" stop-color="#634a5f"/>
      <stop offset="1" stop-color="#423641"/>
    </linearGradient>
    <linearGradient id="linear-gradient-headset-5" x1="33.7203" y1="13.0908" x2="33.9284" y2="18.3251" gradientUnits="userSpaceOnUse">
      <stop offset="0" stop-color="#86848c"/>
      <stop offset="1" stop-color="#a6a5ac"/>
    </linearGradient>
  </defs>
  <g id="main-vr-headset">
    <g>
      <g>
        <path d="m26.0035,5.2621c-.6091.6452-3.273,3.5587-3.546,3.7878-.0939.0787-.2083.1373-.2821.2418-.1229-.1034-.294-.1239-.4432-.1612-1.198-.2995-5.736-2.7466-6.5279-3.6669-.9535-1.1082-.7021-2.3163.7253-2.6192,2.0739-.44,7.8279,1.6757,10.0739,2.4177Z" style="fill: #0e0d0f; stroke-width: 0px;"/>
        <path d="m14.3984,3.0055c-2.3589,2.034,5.3866,5.6718,7.1726,6.2861-.0278.066.1704.0788-.0403.2418-.103.0796-.5208.1921-.6044.2418-2.0204-.9322-6.0045-2.7345-7.4547-4.2713-.5929-.6283-.4197-.6135-.4432-.6447.1988-.839.5453-1.486,1.37-1.8536Z" style="fill: #0e0d0f; stroke-width: 0px;"/>
        <path d="m15.9296,2.8444c-1.4274.3029-1.6788,1.511-.7253,2.6192.7919.9203,5.3299,3.3674,6.5279,3.6669-.0177.1314-.1568.1507-.1612.1612-1.786-.6143-9.5315-4.2521-7.1726-6.2861.5139-.2291.9278-.3861,1.5312-.1612Z" style="fill: #8a8893; stroke-width: 0px;"/>
      </g>
      <g>
        <path d="m35.5938,1.8773c-1.7267,1.614-2.8675,3.7237-4.2713,5.6011-.3637.4864-2.905,3.3169-2.9013,3.546.0034.2132.1788.0818.2418.1209.008.0049-.0046.1133,0,.1612-.365-.1072-.5214.0147-.5641,0-1.8928-.6506-3.6626-1.7966-5.6414-2.2565.273-.2291,2.9369-3.1426,3.546-3.7878.8869-.9395,4.3633-4.9986,5.1981-5.2384.8162-.2345,3.5449,1.3365,4.3922,1.8536Z" style="fill: url(#linear-gradient-headset); stroke-width: 0px;"/>
        <path d="m28.0988,11.3064c-1.5223.9104-5.3401,3.8264-6.8905,3.949-1.6045.1268-4.5796-1.4589-6.0846-2.0954.0545-.1771,2.2577-1.5928,2.5789-1.773,1.0432-.5852,2.1704-.9861,3.2236-1.6118.0837-.0497.5015-.1621.6044-.2418.2107-.1629.0125-.1758.0403-.2418.0044-.0105.1435-.0298.1612-.1612.1492.0373.3203.0578.4432.1612.0738-.1045.1882-.163.2821-.2418,1.9788.4599,3.7486,1.6059,5.6414,2.2565Z" style="fill: #5f5c65; stroke-width: 0px;"/>
      </g>
      <path d="m24.8752,14.2077c.3295.0989,1.4352.6596,2.0148.8865.2192.0858.3069.0745.3224.0806,2.5098.984,7.4743,2.7059,9.1874,4.5131,1.1326,1.1948.4819.8325-.9671,1.5312l-3.3042-1.2089c-2.1512-.9076-9.4422-3.5144-10.6783-4.1907-.0657-.036-.04-.1044-.0403-.1612.5118-.0846,2.3546-1.256,2.9416-1.6118.1309-.0176.338.1054.5238.1612Z" style="fill: #fdfdfd; stroke-width: 0px;"/>
      <g>
        <path d="m56.1445,18.9625c-.0405.0943-.1492.3849-.1612.403-.0095.0142-.1874.1856-.2418.2418-.2856.2952-.7766.6647-1.2089.6447-.8867-.3117-.8296-.0243-1.37.1612-1.8728.6428-4.159,1.9222-4.1907,4.1504-.1241.2486-3.7286,2.9776-4.3116,3.5057-.9984.9043-1.9123,2.066-2.458,2.5789-.252.2368-.4789.4911-.7253.7253-.2333.2217-.4874.4233-.7253.6447-.9295.8649-2.5158,2.4928-3.4654,2.6595,1.2983-1.9179,1.2546-8.5041.4835-10.638,1.9932-1.4218,1.8359-2.5946,5.1981-3.143l2.2968-1.5715c-.4124-.6944-.7301-1.1413-1.37-1.6521-.3658-.292-.7151-.4425-1.1283-.6447-2.2824-1.1172-5.859-1.6289-8.4217-2.3371-2.3617-.6526-4.6941-1.4614-7.0114-2.2565l-2.458,1.773c-.1858-.0558-.3929-.1788-.5238-.1612-.587.3558-2.4298,1.5272-2.9416,1.6118-1.6341.2702-6.0856-1.6932-6.2861-2.0551-.0149-.027.0047-.1636,0-.2821-.0021-.0525-.0106-.1267,0-.1612,1.505.6365,4.4801,2.2222,6.0846,2.0954,1.5504-.1226,5.3682-3.0386,6.8905-3.949.0427.0147.1992-.1072.5641,0,.2049.0602.4352.214.6447.2821l-1.088.2821c-.3426.236,7.4113,2.3082,7.8979,2.4177,2.3062.5189,4.7212.7113,7.0114,1.2895.6228.1572,2.3948.9663.9671.1612-3.0006-1.0605-12.318-2.0895-14.3855-3.9087-.1377-.1212.1962-.5572-1.0477-.685-.063-.0391-.2383.0923-.2418-.1209-.0037-.2291,2.5376-3.0596,2.9013-3.546,1.4038-1.8773,2.5446-3.9871,4.2713-5.6011.0508.031.4128-.1305.9671.6044.5072.8106,1.5859,8.3277,1.37,9.2679-.0681.2965-.3141.577-.4432.8462,4.1706.3135,13.4365-1.739,16.1988-1.5312.6576.0494,2.158.4108,2.5386,1.0074.5747.9008.3683,5.8471-.0806,6.8905Z" style="fill: #0e0d0f; stroke-width: 0px;"/>
        <g>
          <path d="m50.4225,17.0284c-.1601-.0177.266-.3474-.1209-.2418-.2759.0753-2.1515,2.9219-3.949,4.1101-.0064.0042-.0774-.1087-.1209-.0806.5093-2.7998-1.0096-4.0456-.8462-4.1907,2.8204-.4124,5.7347-1.3234,8.5829-.7656-1.4367,1.3787-1.6004-.6428-3.546,1.1686Z" style="fill: #d1d1d3; stroke-width: 0px;"/>
          <path d="m42.9678,21.3803c1.207-.135-.623.2709-1.8536.9671-1.2943.7323-2.2625,1.9974-1.5715.8462.4707-.7842,2.5409-1.7144,3.4251-1.8133Z" style="fill: #5f5c65; stroke-width: 0px;"/>
          <g>
            <path d="m28.663,11.3064c-.0046-.0479.008-.1562,0-.1612,1.2439.1278.91.5639,1.0477.685,2.0674,1.8191,11.3849,2.8482,14.3855,3.9087,1.4277.8051-.3443-.004-.9671-.1612-2.2902-.5782-4.7052-.7705-7.0114-1.2895-.4866-.1095-8.2405-2.1817-7.8979-2.4177l1.088-.2821c-.2095-.068-.4398-.2219-.6447-.2821Z" style="fill: #8a8893; stroke-width: 0px;"/>
            <g>
              <path d="m50.4225,17.0284c-.5365.4994-1.5183,2.1715-3.0222,3.4654-1.7452,1.5016-3.9321,2.424-5.7622,3.7878-.3962.198-.4692-.2755-.8059-.1612.8076-1.0128,4.0648-2.4396,5.3996-3.3042.0435-.0281.1145.0848.1209.0806,1.7975-1.1882,3.6731-4.0348,3.949-4.1101.3869-.1056-.0392.224.1209.2418Z" style="fill: #5f5c65; stroke-width: 0px;"/>
              <path d="m39.9054,26.3769c.055-.0196.2395-.0148.2821.0403.073.0943-.4549.8476-.3224,2.3371.6451,2.1861-.0569,2.6335-.403.7253-.2166-1.1945.2131-3.0205.4432-3.1027Z" style="fill: #0e0d0f; stroke-width: 0px;"/>
              <path d="m41.6381,24.2815c-.5282.3936-1.0049.9238-1.4909,1.37.0548-.5577.3354-1.0928.685-1.5312.3367-.1143.4097.3592.8059.1612Z" style="fill: #3b3d43; stroke-width: 0px;"/>
            </g>
          </g>
        </g>
      </g>
      <g>
        <path d="m13.0283,4.8591c.0235.0312-.1496.0164.4432.6447,1.4502,1.5368,5.4342,3.3391,7.4547,4.2713-1.0533.6257-2.1804,1.0266-3.2236,1.6118-.628-.2671-1.2332-.6072-1.8536-.8865,1.0376-.9141-.287-1.132-.403-.1612-1.4757-.6654-8.2262-4.0737-8.9859-4.1101-.42-.0202-.9211.1391-1.3297.2418,2.4242-.9465,5.092-1.5193,7.5755-2.2162.0373.2579.1743.408.3224.6044Z" style="fill: url(#linear-gradient-headset-2); stroke-width: 0px;"/>
        <path d="m10.0868,6.7933c.0885-.0354,1.7134.4311,1.1686,1.0074-.3604.3812-1.8695-.7271-1.1686-1.0074Z" style="fill: #0e0d0f; stroke-width: 0px;"/>
        <path d="m15.849,10.5005c-.1268-.0571-.2709-.1017-.403-.1612.116-.9708,1.4406-.753.403.1612Z" style="fill: #2c2a2c; stroke-width: 0px;"/>
        <path d="m14.1163,8.4051c.462-.1059.7253.5947.3224.7253-.5435.1762-.7753-.6215-.3224-.7253Z" style="fill: #2c2a2c; stroke-width: 0px;"/>
        <path d="m12.2627,7.5186c.0405-.0048.6845.4025.685.4432.0005.0333-.4694.311-.6044.2821-.2907-.0624-.3821-.6894-.0806-.7253Z" style="fill: #0e0d0f; stroke-width: 0px;"/>
      </g>
      <path d="m19.6368,32.3406v.0806c-.0164-.0078-.0454.1502-.3627,0-.3358-.159-.6628-.4804-1.0074-.6447l1.37.5641Z" style="fill: #3b3d43; stroke-width: 0px;"/>
      <g>
        <path d="m15.1237,13.3212c.0047.1185-.0149.2551,0,.2821.2004.3619,4.652,2.3252,6.2861,2.0551.0003.0568-.0254.1252.0403.1612,1.2361.6764,8.5271,3.2832,10.6783,4.1907,1.4802.6245,3.8848,1.4838,4.916,2.7401.1529.1863.6398,1.0528.7253,1.2895.7711,2.1339.8148,8.7201-.4835,10.638-.6875,1.0156-2.2806,2.0246-3.4654,2.3371.0624-.3143-.8865-.0942-1.6924-.1612.6797-.2508,1.5364.1814,1.0477-.403,1.4011-.1233,1.844-1.1735,2.0954-2.4177.6589.0932.4705-.3213.7253-.7253.0045,1.015.6984.3416.7253.2821.0515-.1141.1474-2.1552.1612-2.4983.179-4.4652-.2667-2.5771-.8059-2.5386-.211.0151-.5209-.439-.7253-.0806-.2188-1.5797-.6995-2.9354-1.773-4.1504-1.9977-2.2611-9.1-4.6935-12.1692-6.004-3.2653-1.3943-6.5786-2.6953-9.8321-4.1101-1.5954-.6937-9.1976-4.3618-9.7112-4.5131-.32-.0942-.6055-.1209-.9268,0,.0527-.1217-.1217-.1967-.0806-.2821.19-.395,1.3692-1.8956,1.8133-1.8939,4.1171,2.0015,8.1886,4.1239,12.4513,5.8025Z" style="fill: url(#linear-gradient-headset-3); stroke-width: 0px;"/>
        <path d="m15.4461,10.3393c.132.0595.2761.1041.403.1612.6204.2793,1.2256.6194,1.8536.8865-.3212.1802-2.5244,1.5959-2.5789,1.773-4.1731-1.7648-8.1937-3.791-12.2901-5.722.4652-.2842,1.8447-.8535,2.2968-.9671.4087-.1027.9098-.2619,1.3297-.2418.7596.0365,7.5101,3.4448,8.9859,4.1101Z" style="fill: #fdfdfd; stroke-width: 0px;"/>
        <path d="m32.1284,36.8537c.8059.067,1.7548-.1532,1.6924.1612-.804.2121-1.3608.3147-2.2162.2418-1.6929-.1444-9.3556-3.4983-11.323-4.4325-.2195-.1042-.415-.294-.6447-.403v-.3224c2.3792,1.2723,10.0659,4.5533,12.4916,4.7549Z" style="fill: #8fb6c4; stroke-width: 0px;"/>
        <path d="m36.0773,28.5529v.8059c-.0028,1.0208.0037,2.0417,0,3.0625-.0022.5977-.0808.842-.0806.8865-.2548.4041-.0665.8185-.7253.7253.3182-1.5753.3028-3.9563.0806-5.5608.2044-.3584.5143.0956.7253.0806Z" style="fill: #d6e4f1; stroke-width: 0px;"/>
        <path d="m35.9967,33.3077c-.0002-.0445.0784-.2888.0806-.8865.0877.0704.0589,1.9061.403,1.088.0898-.2136-.1247-3.287-.1612-3.7878-.0086-.1177.4234-.4525-.2418-.3627v-.8059c.5392-.0385.9849-1.9266.8059,2.5386-.0138.3432-.1097,2.3842-.1612,2.4983-.0269.0595-.7208.733-.7253-.2821Z" style="fill: #0e0d0f; stroke-width: 0px;"/>
        <g>
          <path d="m11.5777,14.2077c3.2535,1.4148,6.5668,2.7159,9.8321,4.1101,1.27,1.0476,2.8969,1.6564,4.3519,2.4983.1514.0876.413.4513.6044.5641,2.7764,1.6358,4.785,1.9551,6.4876,5.1578.8754,2.2604,1.672,8.9406-1.4506,9.7515-3.2811-.5679-9.7624-3.8751-13.2169-5.1578-.0109-.0209.0105-.0585,0-.0806-.4097-.8634-.7868-3.3898-2.3774-4.5131-1.8477-1.3048-2.634.1649-3.4251,1.6924-2.1812-1.0822-5.3856-2.4982-7.3338-3.7878-.9325-.6172-2.0275-1.4353-2.7401-2.2968C.1467,19.5304-.3488,15.1867.2144,11.9511c.2302-.2719.5809-.6981.9268-.8059,1.8306-.5707,9.7044,3.2728,10.3156,3.3042.2565.0132.2421-.0483.1209-.2418Z" style="fill: url(#linear-gradient-headset-4); stroke-width: 0px;"/>
          <path d="m11.5777,14.2077c.1213.1934.1356.2549-.1209.2418-.6112-.0314-8.4851-3.875-10.3156-3.3042-.3459.1078-.6966.534-.9268.8059.2147-1.2335.2725-1.2104.7253-2.2565.3213-.1209.6068-.0942.9268,0,.5136.1513,8.1158,3.8194,9.7112,4.5131Z" style="fill: #0e0d0f; stroke-width: 0px;"/>
          <path d="m12.3836,28.2305c.1302.0646.2632.1728.403.2418.3231.1595.6437.3247.9671.4835.0544.0267.1068.0539.1612.0806-.0396.1057-.1635.2483-.2821.2418-.2765-.0152-3.9516-2.0911-4.5937-2.4177-.0198-.01-.3098.0683-.4432,0-.6878-.352-1.619-.8139-2.2565-1.2089-.2032-.1259-.4527-.2703-.6447-.403-.0868-.06-.2951-.2352-.403-.3224-.126-.1018-.2227-.1937-.3224-.3224.0082-.0036.0714-.1276.0806-.1612,1.9482,1.2895,5.1525,2.7056,7.3338,3.7878Z" style="fill: #b4d5e3; stroke-width: 0px;"/>
          <path d="m35.352,28.4723c.2222,1.6045.2376,3.9854-.0806,5.5608-.2513,1.2443-.6942,2.2945-2.0954,2.4177-.6065.0534-1.181-.0587-1.773-.1612,3.1226-.8109,2.326-7.4911,1.4506-9.7515-1.2612-3.2565-4.2452-4.1345-7.092-5.722-1.455-.8419-3.0819-1.4508-4.3519-2.4983,3.0692,1.3105,10.1715,3.7429,12.1692,6.004,1.0735,1.215,1.5542,2.5707,1.773,4.1504Z" style="fill: #0e0d0f; stroke-width: 0px;"/>
          <path d="m31.4031,36.2896c.592.1025,1.1665.2145,1.773.1612.4887.5843-.368.1522-1.0477.403-2.4257-.2016-10.1124-3.4826-12.4916-4.7549-.3992-.2135-.5692-.0818-.685-.5641-.3506-.1057-.6182-.1213-.7656-.403,3.4545,1.2827,9.9358,4.5899,13.2169,5.1578Z" style="fill: #d6e4f1; stroke-width: 0px;"/>
          <path d="m13.9148,29.0364c.8514.4177,1.727.7935,2.5789,1.2089.3281.16.6297.3298.9671.4835.2388.1088.4628.2717.7253.3224.0105.0221-.0109.0597,0,.0806.1474.2817.415.2972.7656.403.1158.4823.2858.3506.685.5641v.2418l-1.37-.5641c-1.2907-.6157-2.581-1.3002-3.8684-1.9342-1.9515-.961-4.0032-1.7232-5.8025-2.9819.1334.0683.4235-.01.4432,0,.6421.3266,4.3172,2.4025,4.5937,2.4177.1186.0065.2424-.1361.2821-.2418Z" style="fill: #b4d5e3; stroke-width: 0px;"/>
          <path d="m32.8537,26.5381c-1.7026-3.2027-3.7112-3.522-6.4876-5.1578-.1914-.1128-.4531-.4766-.6044-.5641,2.8468,1.5875,5.8308,2.4654,7.092,5.722Z" style="fill: #7a5f73; stroke-width: 0px;"/>
          <g>
            <path d="m18.1862,31.0512c-.2625-.0507-.4865-.2135-.7253-.3224.056-1.4776-1.7116-4.6876-3.5057-3.949-.4969.2046-.78,1.3769-1.1686,1.6924-.1398-.069-.2727-.1772-.403-.2418.7911-1.5275,1.5775-2.9972,3.4251-1.6924,1.5907,1.1233,1.9678,3.6497,2.3774,4.5131Z" style="fill: #0e0d0f; stroke-width: 0px;"/>
            <path d="m17.4608,30.7288c-.3374-.1538-.639-.3236-.9671-.4835.5479-.8215.142-.8037-.6044-1.2089-1.2503-.6786-2.3534-1.156-2.1357-.0806-.3234-.1588-.644-.3241-.9671-.4835.3886-.3155.6717-1.4879,1.1686-1.6924,1.7941-.7386,3.5617,2.4714,3.5057,3.949Z" style="fill: #3e3440; stroke-width: 0px;"/>
            <path d="m16.4938,30.2453c-.8519-.4153-1.7275-.7912-2.5789-1.2089-.0544-.0267-.1068-.0539-.1612-.0806-.2178-1.0755.8853-.598,2.1357.0806.7465.4051,1.1523.3874.6044,1.2089Z" style="fill: #0e0d0f; stroke-width: 0px;"/>
          </g>
        </g>
        <path d="m36.0773,32.4212c.0037-1.0208-.0028-2.0417,0-3.0625.6651-.0899.2332.2449.2418.3627.0365.5008.251,3.5742.1612,3.7878-.3441.8181-.3153-1.0176-.403-1.088Z" style="fill: #0e0d0f; stroke-width: 0px;"/>
      </g>
      <g>
        <path d="m37.7697,24.0398c-.0855-.2367-.5724-1.1032-.7253-1.2895,2.2027-.9249.5359-1.2308.7656-1.6118,2.0107-.9205,4.5001-1.9684,6.0846-3.4654.64.5108.9576.9577,1.37,1.6521l-2.2968,1.5715c-3.3622.5484-3.2049,1.7212-5.1981,3.143Z" style="fill: #0e0d0f; stroke-width: 0px;"/>
        <path d="m43.8946,17.6731c-1.5846,1.497-4.0739,2.5449-6.0846,3.4654-.2297.381,1.4371.6869-.7656,1.6118-1.0313-1.2562-3.4359-2.1156-4.916-2.7401l3.3042,1.2089c.2706.4575.2357.2461.685.1612-.3055.457,1.2041.0077,1.2895-.0806.5294-.5477-.5316.0444-.5238-.2015.7961-.3007.3188-1.2317,2.0551-.9268.2533-.4888,2.7901-1.2828,2.3371-1.5312-.3771.1209-.7779.0649-1.1686.0806.2662-.25.4589-.1246.8865-.3224.4054.1109,1.2411.2317,1.0477-.403.2545-.119.1754-.666.7253-.9671.4132.2023.7625.3527,1.1283.6447Z" style="fill: #2c2a2c; stroke-width: 0px;"/>
        <g>
          <path d="m42.7664,17.0284c-.5499.301-.4708.8481-.7253.9671-.204.0953-.6542-.015-.685,0-.0244.0119-.0545.2604-.3627.403-.4276.1977-.6203.0723-.8865.3224-.782.0314-1.3315-.1308-1.0477.2418-.3733-.0113-1.6264-.1034-1.4506.2418-.8788-.1176-.6935.1856-1.2089.4835-1.7131-1.8072-6.6775-3.5291-9.1874-4.5131.1749.0372,1.2956-.777,1.088-.8865l-1.4103.8059c-.5796-.2269-1.6852-.7876-2.0148-.8865l2.458-1.773c2.3173.7951,4.6498,1.6039,7.0114,2.2565,2.5628.7082,6.1393,1.2199,8.4217,2.3371Z" style="fill: url(#linear-gradient-headset-5); stroke-width: 0px;"/>
          <path d="m34.667,16.9478c.3036-.0908,1.5529.7085.6447.8865-.4075.0799-1.343-.6778-.6447-.8865Z" style="fill: #0e0d0f; stroke-width: 0px;"/>
          <path d="m33.2164,16.1419c.5562-.2127.8776.5689.4835.7253-.5709.2266-.9723-.5385-.4835-.7253Z" style="fill: #2c2a2c; stroke-width: 0px;"/>
          <path d="m31.9269,15.5777c.5856-.2351.8195.5902.403.7253-.5184.1682-.793-.5687-.403-.7253Z" style="fill: #2c2a2c; stroke-width: 0px;"/>
          <path d="m27.2123,15.1748c-.0155-.0061-.1032.0052-.3224-.0806l1.4103-.8059c.2077.1095-.9131.9237-1.088.8865Z" style="fill: #2c2a2c; stroke-width: 0px;"/>
        </g>
        <path d="m42.0411,17.9954c.1934.6346-.6423.5138-1.0477.403.3082-.1425.3383-.3911.3627-.403.0308-.015.4811.0953.685,0Z" style="fill: #3b3d43; stroke-width: 0px;"/>
        <g>
          <path d="m35.4326,21.2191c1.449-.6988,2.0997-.3364.9671-1.5312.5153-.298.33-.6012,1.2089-.4835.073.0098.2059-.0338.2418.0403.0482.0994-1.2513.6184.7656.3627.0891-.7438,1.6978-.2477,1.2089-.6447-.0941-.0764-.6246.0043-.7656,0-.2838-.3726.2656-.2104,1.0477-.2418.3907-.0157.7915.0403,1.1686-.0806.4529.2485-2.0838,1.0425-2.3371,1.5312-1.7363-.3049-1.259.6261-2.0551.9268-.0078.2459,1.0532-.3462.5238.2015-.0854.0883-1.5949.5376-1.2895.0806-.4493.0849-.4145.2963-.685-.1612Z" style="fill: #5f5c65; stroke-width: 0px;"/>
          <path d="m39.0592,18.9625c.141.0043.6715-.0764.7656,0,.4889.397-1.1198-.099-1.2089.6447-2.0169.2558-.7174-.2633-.7656-.3627-.0359-.0741-.1688-.0305-.2418-.0403-.1758-.3451,1.0773-.2531,1.4506-.2418Z" style="fill: #75757a; stroke-width: 0px;"/>
          <path d="m40.1472,18.9625c.0589-.0431.2596.0063.2015.1209-.0633.1248-.3742.0054-.2015-.1209Z" style="fill: #5f5c65; stroke-width: 0px;"/>
        </g>
      </g>
    </g>
  </g>
</svg>