<?xml version="1.0" encoding="UTF-8"?>
<svg id="Layer_2" data-name="Layer 2" xmlns="http://www.w3.org/2000/svg" xmlns:xlink="http://www.w3.org/1999/xlink" viewBox="0 0 285.4242 128.6034">
  <defs>
    <linearGradient id="linear-gradient-rug" x1="142.9009" y1="22.109" x2="142.742" y2="111.562" gradientUnits="userSpaceOnUse">
      <stop offset="0" stop-color="#dfdedd"/>
      <stop offset="1" stop-color="#d5d6d9"/>
    </linearGradient>
  </defs>
  <g id="main-rug">
    <g>
      <path d="m11.7792,90.8973c3.4159,3.4,7.336,6.2916,11.3281,8.9844,42.6486,28.7669,119.952,30.2545,169.3359,23.4375,22.3096-3.0796,62.3126-14.1791,79.4922-28.9062.399,2.2086-11.6997,9.5803-15.0391,11.3281-50.0987,26.2218-142.3315,28.9895-195.7031,12.8906-13.4726-4.0638-35.2752-13.3181-45.7031-22.6562-2.2312-1.998-5.8128-5.4466-3.7109-5.0781Z" style="fill: #ebeef3; stroke-width: 0px;"/>
      <g>
        <path d="m271.9354,94.4129c-17.1796,14.7272-57.1826,25.8266-79.4922,28.9062-49.3839,6.817-126.6873,5.3294-169.3359-23.4375-.0145-2.812,1.7978-3.1015-.7812-3.3203l1.9531-.9766c11.1927,7.992,31.9416,15.8996,45.3125,19.5312,34.3439,9.3282,102.9595,9.4381,137.6953,1.9531,15.89-3.424,43.1201-13.0764,56.4453-22.2656,9.8149-6.7685,19.8148-17.3188,21.4844-29.6875.3042,12.543-3.8595,21.2202-13.2812,29.2969Z" style="fill: #503233; stroke-width: 0px;"/>
        <path d="m285.2167,65.116c-1.6696,12.3687-11.6695,22.919-21.4844,29.6875-1.0619-1.7505-2.3229,1.1768-3.125,0,11.409-7.3022,22.5934-19.8169,21.875-34.1797-.8822-17.6381-12.0348-26.9923-26.3672-34.9609-16.7918-9.336-49.9008-18.2204-69.1406-21.0938C146.3769-1.4939,98.3839.6751,59.2401,13.5535c-.5232.1722-.6469,1.3874-1.1719,1.5625-6.8478,2.2844-14.6951,2.9317-20.7031,7.4219h-3.125C16.1955,32.4312-2.9815,47.6289,5.5292,70.7801c3.8353,10.4331,18.9166,23.9818,28.7109,29.1016,5.1637,2.6992,29.5147,12.0631,35.3516,13.6719v1.5625c-13.3709-3.6317-34.1198-11.5392-45.3125-19.5312-9.6388-6.8825-21.4741-17.9783-23.4375-30.0781-.3702-2.2816-.2372-4.6383-.7812-5.0781.9818-13.5614,8.3669-23.83,19.3359-31.25,10.116-6.8429,32.1742-15.1901,44.1406-18.75,44.8951-13.356,105.5066-13.7476,150.7812-1.9531,6.9169,1.8019,31.7815,10.2843,37.8906,13.2812,7.8461,3.8491,23.8648,14.3149,28.3203,21.6797,3.5082,5.7988,5.5814,15.0575,4.6875,21.6797Z" style="fill: #dfe0e2; stroke-width: 0px;"/>
        <path d="m.8417,65.5066c1.9634,12.0998,13.7987,23.1957,23.4375,30.0781l-1.9531.9766c2.579.2188.7667.5083.7812,3.3203-3.9922-2.6928-7.9122-5.5844-11.3281-8.9844C3.6769,82.8328.3053,77.2232.0604,65.5066h.7812Z" style="fill: #815658; stroke-width: 0px;"/>
        <path d="m.8417,65.5066H.0604c-.0342-1.6346-.1169-3.4635,0-5.0781.544.4399.411,2.7965.7812,5.0781Z" style="fill: #b1b4ad; stroke-width: 0px;"/>
        <path d="m263.7323,94.8035c-13.3252,9.1892-40.5553,18.8416-56.4453,22.2656-34.7358,7.485-103.3514,7.375-137.6953-1.9531v-1.5625c21.0066,5.7899,58.1131,7.4755,80.2734,7.0312,13.815-.277,40.0954-1.8411,53.125-4.2969,14.8876-2.806,44.9096-13.351,57.6172-21.4844.8021,1.1768,2.0631-1.7505,3.125,0Z" style="fill: #d5d6d9; stroke-width: 0px;"/>
        <g>
          <path d="m260.6073,94.8035c-12.7076,8.1334-42.7296,18.6784-57.6172,21.4844-13.0296,2.4558-39.31,4.0199-53.125,4.2969-22.1603.4443-59.2668-1.2413-80.2734-7.0312-5.8369-1.6088-30.1878-10.9727-35.3516-13.6719-9.7943-5.1197-24.8756-18.6684-28.7109-29.1016-8.5106-23.1511,10.6664-38.3489,28.7109-48.2422h3.125c6.008-4.4902,13.8553-5.1374,20.7031-7.4219.525-.1751.6486-1.3903,1.1719-1.5625C98.3839.6751,146.3769-1.4939,186.9745,4.5691c19.2398,2.8733,52.3489,11.7577,69.1406,21.0938,14.3323,7.9686,25.4849,17.3228,26.3672,34.9609.7184,14.3627-10.466,26.8775-21.875,34.1797Z" style="fill: #32354d; stroke-width: 0px;"/>
          <path d="m257.0917,92.4598l-.3906.7812c-3.1676.3992-6.391-.6945-9.5703-.3906v.7812c13.1767,4.8772-5.8874,2.0675-6.4453,3.7109-.0496.1462,1.7173,2.1402.9766,2.9297-2.2329,2.38-14.0019-1.6794-12.1094,5.0781-12.2557-.8787-2.344,2.1161-6.6406,3.125-1.7656.4146-7.8657-.4146-8.9844,0-.8272.3066,2.3637,5.6229-15.625,1.5625l-.3906,3.5156c-3.6901-.4429-7.9455,1.3842-9.375-1.9531-6.0891,1.5823-3.528,3.3726-4.2969,3.9062-.5455.3786-12.7377.3815-13.2812,0-.4846-.3401.094-1.6128-.3906-1.9531-.368-.2584-8.5767-.5803-8.9844-.3906-1.0778.5013-.2506,2.3645-.7812,2.7344-1.1704.8157-9.2876-1.2874-9.7656-1.1719-.6535.1579.184,2.8245-12.5,2.3438-1.1483-3.2655-11.366-.6615-13.2812-1.5625-1.205-.5669,1.0169-1.9767-3.9062-2.3438-2.1072-.3574.1215,2.1748-.7812,2.7344-.7032.4358-15.5888-.9131-16.4062-1.5625-.6499-.5162,2.2371-2.538-5.4688-1.5625-.4385.0555,1.1336,1.9709-8.2031.7812,5.5616-5.4277-1.5597-2.3549-5.8594-3.125.9334,2.3305-7.8282,1.4366-8.2031,1.1719-.5295-.3739.1389-2.3607-.3906-2.7344-.4949-.3493-10.3883.102-12.1094-.3906l1.1719-3.9062c-12.3689,1.0947-7.2851-2.5988-8.9844-3.5156-2.5053-1.3518-10.4497,3.0666-7.4219-3.5156l-8.9844-.3906c3.8455-7.9787-12.4863.5387-5.8594-6.25-11.3168-.9107,2.6843-3.1563-9.9609-4.1016l2.1484-2.1484c-3.2256-1.5821-9.6297-.2867-3.3203-3.7109l-6.4453-1.3672v-.7812c8.6169-3.0489-9.0495-.5619-.5859-5.6641l-5.8594-2.3438,4.2969-3.125c-9.6387-.9779-1.8685-2.3517-2.3438-3.9062-.1754-.5738-3.5121-1.2942-3.5156-1.9531-.0089-1.6518,7.0998-.7021-.3906-5.0781,8.1037-3.1971,2.2436-4.1984,2.7344-5.4688.44-1.139,6.0551.4717.3906-3.5156,11.9419-1.6782-5.0885-5.5605,8.9844-6.25l-1.3672-4.1016c10.497-.6014,3.6833-2.9772,4.6875-3.9062,15.8163-1.4869-1.4682-6.0847,11.3281-5.4688,6.0866-3.9689,7.7208,1.5499,5.4688-5.0781l9.7656.3906c.9958-.5111-7.3271-4.7583,12.1094-4.6875.1716-4.0559,6.2327-1.9438,8.2031-5.8594l6.6406.3906c.5806-3.9907,12.1585-2.3506,13.2812-3.125.4864-.3355-.2268-1.9043.7812-2.3438,2.2753-.9918,15.6039.1709,16.4062,0,.1761-.0375,2.1946-2.207,2.7344-2.3438,3.8717-.981,21.021,1.8708,28.125-1.5625,6.7254-.5587,7.4084,1.1543,7.8125,1.1719,4.1101.1788,29.8357.1158,31.25.7812.9312.4381.3609,1.6988.7812,1.9531,2.6039,1.5755,19.2551-1.5462,21.0938,2.7344,11.3611-1.1004,10.7285,3.3506,14.0625,4.2969,1.8978.5386,10.3323.4175,11.1328,1.7578.1955.3274-.2892,1.8046.1953,2.1484,1.7206,1.2211,16.0194-1.5952,11.7188,4.2969h8.9844c1.1723.2196-.7923,3.2933-.3906,3.5156l7.8125.3906c.485.3492-2.1412,3.1942-.7812,3.5156,12.6133-1.0494,2.3918,3.2966,10.1562,2.7344,2.4139.8561-6.9719,4.9698,3.9062,3.9062,7.286,5.5094-4.4082,6.0193,7.2266,6.0547-6.0879,6.979,7.7485,1.821-1.1719,7.4219,9.6564,2.5731-2.946,4.0293,5.4688,6.25-7.1674,5.196.5185,3.8081.3906,5.4688-.102,1.3246-6.528.6691-.3906,5.0781l-5.8594.3906,4.2969,3.5156-6.6406,1.5625c6.3872,3.29,3.9219,2.3564-2.7344,4.6875l3.7109,1.3672v.7812c-1.4009,1.5913-11.6162.1965-2.1484,2.9297-.9717.9683-5.6584,1.5593-5.8594,1.9531-.4277.8381,3.501,1.9575,1.7578,2.5391-4.2492,1.4175-13.4046-.9936-1.7578,2.5391-8.7129,1.948-8.2743-.3624-5.0781,2.9297Z" style="fill: url(#linear-gradient-rug); stroke-width: 0px;"/>
          <path d="m256.701,93.241l.3906-.7812c.034.035.3665.0214.7812.5859-.2371.3612-.7218.1386-1.1719.1953Z" style="fill: #a59899; stroke-width: 0px;"/>
          <g>
            <path d="m131.5057,9.2566c.7742-.3285,15.2015-.5445,16.4062,1.5625,7.5589-3.4255,15.8734-.209,23.8281-.3906,3.4374,4.7319,11.3771-1.0304,13.2812,4.2969,1.976.7475,5.6024-2.0516,11.3281-1.1719-4.6105,7.4505,8.2512.2632,8.9844,5.4688,17.417-1.0485,8.7505,2.5169,10.5469,3.5156,12.1981-.7886,7.0908,1.6276,8.9844,3.125.4741.3749,6.039.3599,6.4453.9766.121.1837-.8081,2.2232-.7812,2.3438.7241,3.2557,11.8111-2.5243,8.3984,4.4922,13.818-.0668,5.5969,2.5411,6.8359,4.1016,9.0275.7048,2.624,3.4494,4.4922,4.4922l5.6641.9766-3.5156,3.5156,7.4219,1.9531c-9.004,4.7428,2.6371,2.9467,3.125,4.6875l-4.2969,3.5156c8.7385,2.0115-2.3346,1.6818,3.9062,5.4688-9.1047,2.2407,3.4467,3.6405-5.0781,6.25,4.2056,6.3546-3.9215,3.1786-4.6875,5.4688-.0529.1583,1.4914,2.7243,1.1719,3.125-.4069.5103-1.9198-.1202-2.3438.3906-.3822.4605.7545,2.1933.3906,2.7344-.1858.2763-5.6402,1.1432-5.8594,1.5625-.3112.5953,1.6253,2.9374,1.5625,3.125-.7877,2.3542-13.6914-2.189-6.8359,4.8828h-8.2031l-.5859.5859c8.3843,6.0375-5.9553,2.1444-7.0312,4.2969-.4149.8299,1.3346,3.2906.5859,3.7109-16.642-.9186-10.1034,1.9838-11.7188,3.125-.4269.3016-7.6237-.3118-8.2031,0-.2967.1596-.4846,2.1841-.7812,2.3438-.5878.3163-8.1566-.3061-8.5938,0-.5979.4186.3814,2.9806-.7812,3.5156-.7309.3363-14.7677-2.1275-16.0156-1.5625-1.1171.5057-.0757,2.7634-1.1719,3.125-.2226.0734-4.4613.0613-4.6875,0-.8426-.2285-1.0322-1.8907-1.1719-1.9531-.321-.1434-6.744-.2027-7.0312,0-.5295.3736.1389,2.3608-.3906,2.7344-.7341.518-16.7251-.5166-17.9688,0-1.2405.5153.6968,3.9114-5.8594,2.3438-.3157-3.7306-15.2768-1.2711-16.7969-2.3438-.3522-.2486,1.4938-4.3041-6.25-2.7344-.0957.0194-.6523,1.4645-1.1719,1.5625-7.9499,1.4994-6.288-2.0954-6.6406-2.3438-1.6605-1.1693-15.3574,1.6364-16.0156,1.1719-.5982-.4221.3815-2.9803-.7812-3.5156-.5301-.244-6.2616.928-7.0312.3906-1.6323-1.1397,5.3138-4.0563-14.0625-3.125l-.7812-3.5156c-14.2408.7439-7.9723-1.7604-8.3984-2.9297-.383-1.0507-7.3573-.4081-8.7891-.5859,3.4255-7.0521-7.3001-2.2333-7.6172-4.4922-.0906-.6455,3.8373-2.3228,2.1484-2.9297l-9.375-.3906c6.6247-8.2592-8.994-1.0041-2.9297-8.0078-11.6563-1.1541,3.3999-4.0556-9.7656-6.25,5.8403-7.081-6.4721-.5377,0-8.5938-5.4192-1.3055-6.4268-1.3415-.7812-2.3438-8.553-5.7626.5247-2.161,1.5625-3.5156-6.5314-6.0099-1.4075-3.0703-.7812-3.9062-6.7957-7.1687,8.6245.5407,0-7.0312l7.4219-1.9531c-12.9912-4.7777,7.0561-1.4161-1.5625-6.6406,6.7461-1.6872,10.6485,1.2773,5.8594-3.9062l8.3984-.5859c-5.894-7.598,15.9765.361,7.6172-6.4453l9.1797-.9766-1.5625-3.125c4.3604-.8129,12.0606,2.463,7.0312-3.5156,16.6594,1.0032,13.7007-2.0243,14.4531-2.3438,3.6289-1.5405,15.177,3.5417,8.2031-4.2969,7.6136-.7031,9.6382,1.093,10.1562,1.1719,8.0251,1.2214,4.0282-1.5918,4.6875-1.9531,1.6668-.9134,10.2567,1.723,10.5469-1.5625,8.5549-1.6607,12.2563.9544,12.8906.7812.5597-.1528.9218-1.847,1.1719-1.9531Z" style="fill: #32354d; stroke-width: 0px;"/>
            <path d="m232.8729,35.8191c1.9379.1346,6.1609,1.3633,8.7891,1.1719,1.728.7526-2.6168,3.0837-2.5391,3.3203,7.3251,2.7269,10.0175.9814,6.25,5.8594,12.1866,2.8689-5.6425,3.6601,6.6406,5.4688-8.7898,6.0177,11.9302,4.9171-.7812,9.375,9.5403,7.5841-7.5053-.0792,1.9531,7.0312l-5.4688.3906,3.5156,3.9062c-1.3463,1.6582-12.639-2.0665-3.125,3.5156l-9.7656,3.125,3.3203,3.7109c-15.6509-.8507-6.0129,2.2075-6.4453,3.3203-.1747.4497-7.9762,1.2141-9.1797,1.3672-.17.233-.5661.4649-.5859.5859-.3041,1.855,9.6939,2.8552-8.3984,3.7109l-.3906,3.125-6.25-.3906c4.2872,5.0106-11.7078,2.403-13.2812,3.5156-1.6031,1.1336,5.3963,4.5206-14.4531,2.7344.2159,3.1908-5.2265,2.1632-8.9844,2.7344-.2164.0329-.9691,1.1507-1.1719,1.1719-5.0641.53-12.2856-.6137-12.8906-.3906-.5893.2173-1.1939,2.595-1.9531,2.7344-.561.103-7.5089-3.3695-10.5469.3906-3.1777-.4216-6.0828-.3795-8.9844-1.9531-7.3491,5.7376-7.3177-.9573-7.8125-1.1719-.7696-.3337-10.7436.2355-13.2812,0-.1474-.0137-.3561-1.1225-.7812-1.1719-1.3781-.1601-7.8678.2361-8.2031,0-.5092-.3586.1186-1.9842-.3906-2.3438-1.1774-.8312-11.27,1.7767-12.5,1.1719-.7175-.3528.6181-2.3188-3.7109-2.1484,2.6593-5.5624-6.3489,1.2234-6.8359-3.7109-8.331,1.8578-3.8447-2.6236-12.8906-1.5625-1.444-.7383.9599-2.6071,0-3.125-.5561-.3-9.5866.2228-11.7188,0-1.2606-.4844,1.1126-2.6803.3906-3.9062l-9.375-.7812c4.7472-5.3047-3.525-2.452-4.1016-4.1016-.1352-.3868,2.7337-3.1874,1.3672-3.7109-7.6183.8537-3.3842-2.2625-9.5703-3.3203,8.4115-5.4419-10.8324.0147,0-7.4219h-4.6875c4.7181-5.8699-.2199-2.7665-1.1719-3.9062-.9217-1.1034,3.9257-1.4874-2.3438-5.4688,10.4824-4.1326,3.9492-4.0567,4.2969-5.8594.368-1.9083,6.4701.0624,1.9531-5.4688,8.2432-1.203-1.0618-3.3794,5.4688-4.6875-5.0742-5.8756,9.2158,1.1067,3.7109-5.6641l7.2266-.7812c1.3494,2.211,1.1707,3.4003,3.9062,3.5156l2.7344,2.5391c-17.8857,2.6729,2.5611,2.2532-8.9844,6.25l3.125,3.125-7.0312,1.1719c4.4523,3.0688,7.2318,3.3716.3906,4.2969,6.304,5.4869-.9524,3.0862-1.1719,4.2969-.0545.3008,4.9968,1.8397,5.4688,2.7344-7.5457,3.404-1.3436,2.2902-.7812,3.5156.7666,1.6703-5.7922,2.8832,5.0781,3.125l-3.9062,3.125c8.3392.1685,3.5192,2.5847,4.4922,3.3203.3305.2499,6.9897.8231,8.2031,1.1719,1.1324.5289-.5589,2.0906-1.7578,3.3203,14.9986.7594,8.1455,6.1015,8.7891,6.4453,18.6699-1.0423,10.6724,2.4106,12.1094,3.125.9627.4786,12.7902.4595,13.6719.7812,1.2458.4547-.9077,2.2445,0,2.7344.619.334,13.042-.0351,14.0625.3906.7808.3257.838,2.5558,1.1719,2.7344,1.1027.59,23.8526.2837,25,.7812,1.1267.4886.0452,2.6365,1.1719,3.125.4301.1865,8.9459.1887,9.375,0,1.1182-.4918.2177-2.7319.7812-3.125.7048-.4917,14.321.2174,17.1875,0,.114-.0086,1.8227-1.1585,1.9531-1.1719,1.6555-.1704,8.9677.2456,9.375,0,.2787-.168.2119-2.0529.7812-2.3438.6609-.3376,12.3924.253,14.8438,0l-1.5625-3.5156c22.8392,1.1564,13.1827-2.6913,15.2344-3.9062.7186-.4255,8.3887.3144,10.1562.3906,1.0178-.5834-1.975-3.2166-.3906-4.6875,3.5627-3.3076,11.1144,2.1722,5.4688-4.6875l8.2031-1.5625c-3.1802-4.6127.861-2.5812,4.1016-3.3203-6.57-7.3182,11.2785-2.4571.7812-8.5938,8.1097-4.3909,1.3759-2.5808.7812-3.9062-.6876-1.5326,6.8655-3.0531-1.5625-4.2969,9.5256-5.5019-7.9085-3.8646,2.3438-8.5938-11.2285-1.9952-1.4227-3.1744-2.5391-4.4922l-6.8359-1.3672c.5611-1.2948,2.0106-2.0714,2.3438-2.9297.01-.0257.6-.0988.3906-.3906-.55-.7667-1.2441-.1256-1.5625-.5859-.1727-.2497.3675-3.2027,4.2969-2.9297Z" style="fill: #d5d6d9; stroke-width: 0px;"/>
            <path d="m232.8729,35.8191c-3.9294-.273-4.4696,2.68-4.2969,2.9297.3184.4604,1.0125-.1808,1.5625.5859h-1.1719l-6.0547-.3906c3.3005-4.3156,1.005-2.3171-7.4219-2.7344l.3906-3.9062c-8.493-.6441-11.0827.6314-4.8828-3.7109l-8.0078-.5859-.3906-3.125c-2.0205-.2788-14.8407.6088-15.0391-.5859-.253-1.5235,9.0546-2.4771-9.9609-1.7578-3.734-3.6407-10.7464.5836-14.0625-3.9062-4.7043.5451-37.7403-.1988-39.4531.7812-.4504.2577.0598,1.3049-.3906,1.5625-.5028.2875-7.2784-.2298-8.9844,0-4.5055.6069-4.7914,1.9187-5.0781,1.9531-3.5587.4268-10.8401-2.9363-8.5938,1.5625-9.1647-1.1347-4.7431,1.3487-5.8594,1.9531-.9888.5354-6.6043-.7515-8.5938-.3906-.375.068-.0182,1.1219-.3906,1.1719-8.9181,1.1963-12.8932.22-8.3984,4.4922-14.1278,1.1878-4.2071,3.8015-6.4453,4.8828l-8.5938-.3906c-.7925.4097,4.9817,3.9646-5.6641,3.5156-2.7355-.1154-2.5569-1.3046-3.9062-3.5156-.1983-.3249-1.2618-2.6991-1.7578-3.5156,14.6066.6471,6.6731-1.3566,7.2266-2.9297.7184-2.0418,17.1714,2.8333,8.2031-3.125,1.4167-3.088,5.9364-1.3109,9.9609-1.7578-5.1004-6.5382,12.0377.8892,13.6719-5.0781,9.8568,2.1912,5.8736-1.8484,7.8125-2.7344.5687-.2599,10.9088,1.0545,12.5.3906.7808-.3258.8381-2.5558,1.1719-2.7344.93-.4974,17.9732.2181,21.0938,0,.3026-.0212.0877-.7588.3906-.7812,2.3401-.1737,3.7944.8081,6.25-1.1719,9.8795,2.0514,20.1867.9475,30.8594,1.1719l1.9531,1.5625c10.7371-.7817,7.2155,1.7028,8.5938,2.3438,1.5599.7254,9.7688-.7195,10.1562-.3906.556.472-.1623,2.3441.3906,2.7344.489.3451,10.789.0388,11.7188.3906.6479.2452.9409,2.1456,1.5625,2.3438.3169.101,5.6268-.8947,6.6406-.3906.5227.2599-.766,1.8772,0,2.3438,2.5301,1.5409,11.8487-3.5804,5.0781,4.2969,15.7707-.6899,8.3394,1.6468,8.7891,2.9297.7259,2.0711,14.9064-1.9854,7.4219,3.7109Z" style="fill: #dfe0e2; stroke-width: 0px;"/>
            <g>
              <path d="m228.9667,39.3348l.7812.3906c-.3332.8583-1.7827,1.6349-2.3438,2.9297l6.8359,1.3672c1.1164,1.3178-8.6895,2.497,2.5391,4.4922-10.2523,4.7291,7.1818,3.0918-2.3438,8.5938,8.428,1.2438.8749,2.7642,1.5625,4.2969.5946,1.3254,7.3285-.4847-.7812,3.9062,10.4972,6.1367-7.3512,1.2756-.7812,8.5938-3.2406.7392-7.2817-1.2924-4.1016,3.3203l-8.2031,1.5625c5.6456,6.8597-1.906,1.3799-5.4688,4.6875-1.5843,1.4709,1.4084,4.1041.3906,4.6875-1.7675-.0763-9.4376-.8162-10.1562-.3906-2.0517,1.2149,7.6048,5.0627-15.2344,3.9062l1.5625,3.5156c-2.4514.253-14.1828-.3376-14.8438,0-.5693.2908-.5025,2.1757-.7812,2.3438-.4073.2456-7.7195-.1704-9.375,0-.1305.0134-1.8391,1.1632-1.9531,1.1719-2.8665.2174-16.4827-.4917-17.1875,0-.5635.3931.3369,2.6332-.7812,3.125-.4291.1887-8.9449.1865-9.375,0-1.1266-.4885-.0452-2.6364-1.1719-3.125-1.1474-.4976-23.8973-.1913-25-.7812-.3338-.1786-.3911-2.4086-1.1719-2.7344-1.0205-.4258-13.4435-.0566-14.0625-.3906-.9077-.4899,1.2458-2.2797,0-2.7344-.8816-.3218-12.7091-.3026-13.6719-.7812-1.437-.7144,6.5606-4.1673-12.1094-3.125-.6436-.3438,6.2095-5.6859-8.7891-6.4453,1.1989-1.2297,2.8902-2.7915,1.7578-3.3203-1.2135-.3488-7.8726-.922-8.2031-1.1719-.973-.7356,3.847-3.1518-4.4922-3.3203l3.9062-3.125c-10.8703-.2418-4.3116-1.4547-5.0781-3.125-.5624-1.2254-6.7644-.1117.7812-3.5156-.4719-.8946-5.5233-2.4336-5.4688-2.7344.2195-1.2106,7.4758,1.19,1.1719-4.2969,6.8412-.9252,4.0617-1.2281-.3906-4.2969l7.0312-1.1719-3.125-3.125c11.5455-3.9968-8.9013-3.5771,8.9844-6.25l-2.7344-2.5391c10.6458.4489,4.8716-3.106,5.6641-3.5156l8.5938.3906c2.2382-1.0813-7.6825-3.695,6.4453-4.8828-4.4947-4.2722-.5196-3.2959,8.3984-4.4922.3724-.05.0157-1.1039.3906-1.1719,1.9894-.3609,7.605.926,8.5938.3906,1.1163-.6044-3.3053-3.0878,5.8594-1.9531-2.2463-4.4988,5.035-1.1357,8.5938-1.5625.2867-.0344.5726-1.3462,5.0781-1.9531,1.706-.2298,8.4816.2875,8.9844,0,.4504-.2576-.0598-1.3048.3906-1.5625,1.7129-.98,34.7488-.2361,39.4531-.7812,3.3161,4.4898,10.3285.2655,14.0625,3.9062,19.0155-.7193,9.7079.2343,9.9609,1.7578.1984,1.1947,13.0185.3071,15.0391.5859l.3906,3.125,8.0078.5859c-6.1999,4.3423-3.6102,3.0668,4.8828,3.7109l-.3906,3.9062c8.4269.4173,10.7224-1.5812,7.4219,2.7344l6.0547.3906Z" style="fill: #32354d; stroke-width: 0px;"/>
              <path d="m209.826,35.8191c.0399.0178.3462.6189.3906.7812-.7516.9463-3.5765,1.7387-4.1016,3.125h10.9375c1.9086,1.1491-7.5119,5.0568,5.8594,3.5156-4.1942,5.7524,2.8283,1.8169,4.1016,3.7109-7.5605,7.2461,4.0742.333-1.5625,8.2031,11.8587,3.7486-6.4426,2.2589,4.6875,7.0312l-5.0781,1.1719c-.9573,1.194,7.928,4.3155-1.9531,3.9062l3.125,3.5156c-11.6427,1.5648,2.7066,4.3167-10.3516,4.4922-1.4277.5037,2.0408,3.4642,1.5625,3.9062l-10.1562,1.1719c6.4174,6.8466-3.5101,1.7561-5.8594,3.9062,2.5485,4.2743-2.6227.9205-4.2969,1.5625-1.1869.4551,1.5132,3.1722-7.8125,2.3438,7.0318,5.4291-5.5301,1.0935-14.2578,3.3203,6.1957,5.5395-3.1071.8749-6.8359,4.1016-5.7665.0448-16.3543-1.1924-18.3594-1.1719-.5001.0051,2.4268,1.29-9.375,1.1719-.2849-.0028-3.6143-.7777-3.9062-.7812-3.3966-.0408-23.1457,1.2156-24.0234-.9766-.3775-.9427,2.9738-1.7428.5859-2.9297-5.4208-2.6944-5.5349.6125-5.8594.7812-.4471.2326-7.3007.6782-6.25-1.9531-9.4644.9929-6.2593-2.4764-7.8125-3.125-1.2428-.519-3.7197.4518-3.9062.3906-1.9638-.6443,3.8131-3.5769-9.7656-3.5156,3.8525-5.4911,3.4322-2.7044-7.4219-3.9062,3.0788-6.9718-4.9588-2.8213-6.0547-4.8828-1.1374-2.1396,4.1682-2.3417-6.6406-4.2969l4.6875-2.7344c-5.5392-1.1266-9.1985.5468-2.7344-3.9062-.7325-1.4125-9.3086,1.2047-1.5625-3.5156l-5.0781-1.5625c10.5462-5.985,3.7323-5.2258,4.2969-7.0312.5033-1.6092,6.5317.1017,1.9531-4.2969,7.9989-2.1551-3.6424-4.5756,9.1797-3.7109l-1.1719-3.5156,8.5938-.3906c-2.5527-4.9728-1.0144-3.5814,7.0312-4.6875-6.6944-7.4314,3.7539-1.9251,7.0312-3.5156,1.0706-.5196.0982-2.1927,1.1719-2.7344,1.0718-.5408,12.6048-.3149,13.2812-.7812.9925-.6842-2.418-3.3979,6.6406-1.5625,1.4348-5.8854,13.8934,1.0736,16.7969-3.9062,10.5942-.6839,9.6232,1.0906,10.1562,1.1719,8.1006,1.2353,5.5124-1.4663,6.6406-1.9531.861-.3715,12.7184.2767,15.625,0,.2025,6.0118,10.5753-.0675,14.8438,4.6875,8.2821-1.4744,4.5568,1.0701,5.4688,1.5625.9377.5063,6.2549-.4981,7.8125-.3906.0736,2.9678,5.3363.9054,7.4219,1.5625,1.3138.414.7814,1.5534,1.5625,1.9531,1.8375.9403,3.9613-2.2764,1.9531,3.5156,1.9119.0702,7.7175.6937,8.7891,1.1719Z" style="fill: #cbc7c6; stroke-width: 0px;"/>
              <g>
                <path d="m230.1385,39.3348c.2094.2919-.3806.3649-.3906.3906l-.7812-.3906h1.1719Z" style="fill: #9d9d6c; stroke-width: 0px;"/>
                <path d="m210.2167,36.6004c-.0445-.1624-.3507-.7635-.3906-.7812,1.0644-.0181.9033.1356.3906.7812Z" style="fill: #aeafaf; stroke-width: 0px;"/>
                <path d="m191.076,38.9441c.3642-.1705,1.1836.3627,1.1719.5859-.0582,1.1091-6.7881,4.9757,8.9844,6.6406-6.0766,5.3965,3.7263,2.7093,3.125,5.4688-.4816,2.21-6.7134-.2816-.3906,4.2969.0403.0292-.8321.5654-.1953.9766.1612.1041,3.7174.4529,3.7109.9766-.0039.3149-4.8781,2.4713-5.4688,3.125l5.8594,3.125-8.3984,2.5391c7.0873,7.0976-10.6548.478-4.1016,6.4453-.2538,1.5283-9.153-.4733-7.8125,1.3672-3.0098.887-2.6362-2.159-2.9297-2.3438-.2867-.1805-1.6814.178-2.1484,0-.7148-.2724-5.647-1.7399-5.4688-2.5391l10.5469-1.9531c-4.8455-5.2703-2.5508-3.2008,3.9062-5.8594l-4.6875-1.9531c10.7614-5.6326-5.5501-2.9666,2.3438-7.8125-15.1914-3.4682-1.5894-3.314-6.0547-5.6641-2.1568-1.1351-10.3526-2.3033-13.2812-2.3438v-.7812c7.6877-2.6619,5.0519-2.7092-2.3438-3.9062-1.5325,3.4166-5.2368,1.511-8.2031,1.5625-1.6188-.7518,2.352-3.3502.7812-3.9062l-28.9062-.3906-.3906,2.7344c-9.1049-.6329-8.5118,1.1427-8.9844,1.1719-3.5364.2184-9.3238-.8812-13.6719-.3906l5.2734,4.1016c-9.5678,1.9064-15.5609.1587-7.8125,5.4688l-7.6172,1.7578c3.1134,4.9574.8083,2.9576-3.3203,4.6875-.1794.0752-.6348-.161-.7812.1953-.1302.8595.632.49.7812.5859.9252.5945,3.3545,1.2095,4.6875,2.1484-11.2608,3.7708,2.0281,3.4482,2.7344,5.0781l-4.4922,2.9297v.7812c11.5856.65,14.8063-.7936,6.0547,3.9062-.8685.4664-2.2976,1.025-3.3203,1.1719-1.1734.8522-.1537.8864-.1953,1.5625-1.4323-.1636-7.3023.2228-7.6172,0-1.4262-1.0091,3.7724-4.8951-7.8125-4.2969,1.7738-4.9202-.2121-2.6206-6.8359-6.0547,8.4207-4.6302-1.4672-4.6532-.7812-6.25,10.5807-2.237,4.5323-5.5939,5.0781-6.6406.1333-.2556,4.1272-1.1099,4.2969-1.5625.6755-1.8019-8.2155-3.9913,6.8359-4.8828.0827-1.8694.9408-3.995.5859-5.8594-.0246-.1291.0362-.2799,0-.3906,14.4693,1.5979,17.6724-3.2763,13.2812-4.6875.1665-.4713.5477-.7186.7812-1.1719,4.4991,2.8678,11.5131.6796,17.7734,2.3438.9082-.4359.5683-3.101,1.5625-3.5156,1.5887-.6626,32.9113-.1246,34.375.7812.4912.304.4564,2.0457,1.1719,2.3438.9874.4113,13.3908-.3943,14.0625,0,.8206.4817-.9689,2.5667.3906,3.125.6437.2643,12.0142,1.1019,13.8672,1.1719Z" style="fill: #d5d6d9; stroke-width: 0px;"/>
                <path d="m193.8104,38.5535c7.452.0392,4.2537-.9457,9.1797,4.6875,12.7527-.6741-.8816,3.4678,10.7422,4.4922l-3.9062,2.7344,7.8125,2.7344-4.6875,2.3438c10.1827,3.4534-2.2853,1.961,3.5156,6.6406-6.8002.9853-2.1146,1.9257-2.3438,3.125-.3007,1.5733-6.3073.2913,0,5.0781-1.2381,1.8406-12.2957-1.4755-6.4453,5.6641-15.896.3942-7.7004,1.594-8.0078,3.3203-.022.1237-.4164.353-.5859.5859l-11.3281.3906c4.1311,7.56-7.2267,1.7781-10.1562,3.5156-.4314.2559-.0571,1.1622-.1953,1.5625-.7868.2869-1.0134-1.2639-1.1719-1.9531-.0889-.3866-.4331-2.9781-.1953-3.125l8.0078.1953c-8.1148-6.1966,2.031-2.0037,4.4922-3.3203.5975-.3196-.9029-2.2838-.9766-2.7344-1.3405-1.8405,7.5587.1611,7.8125-1.3672-6.5532-5.9673,11.1889.6523,4.1016-6.4453l8.3984-2.5391-5.8594-3.125c.5907-.6537,5.4648-2.8101,5.4688-3.125.0065-.5237-3.5498-.8725-3.7109-.9766-.6367-.4112.2357-.9474.1953-.9766-6.3228-4.5785-.0909-2.0869.3906-4.2969.6013-2.7594-9.2016-.0723-3.125-5.4688-15.7725-1.665-9.0425-5.5316-8.9844-6.6406.0117-.2232-.8077-.7565-1.1719-.5859.2734.0103,2.5963-.3914,2.7344-.3906Z" style="fill: #32354d; stroke-width: 0px;"/>
                <path d="m93.8104,38.9441c.3549,1.8643-.5032,3.99-.5859,5.8594-15.0514.8915-6.1605,3.0809-6.8359,4.8828-.1697.4526-4.1636,1.3069-4.2969,1.5625-.5458,1.0468,5.5025,4.4036-5.0781,6.6406-.6859,1.5968,9.202,1.6198.7812,6.25,6.6238,3.4341,8.6097,1.1345,6.8359,6.0547,11.5849-.5982,6.3863,3.2878,7.8125,4.2969.3149.2228,6.1849-.1636,7.6172,0-.0358.5806.0263,3.7865.1953,3.9062,1.6213.181,6.5663-.2502,7.0312,0,.6939.3734-.9782,3.6185,5.2734,1.9531.7788,5.3798-2.4765,1.7572-3.125,3.9062-1.9906.0408-3.9998.6126-4.4922.3906-1.1263-.5076,1.2312-3.2765-7.8125-1.5625l-.3906-3.5156c-9.1898-.3288-11.9722,1.6722-7.2266-4.1016-.333-.8841-11.2226-.4981-13.0859-1.3672l2.5391-3.7109c-11.8542-1.8903-.5321-4.2008-8.2031-4.6875,4.9269-4.028-.5995-2.2375-.7812-3.5156-.1408-.9903,5.3405-2.4346-2.3438-4.2969l5.4688-2.3438c.4556-1.9204-10.0978-1.7339,3.5156-5.0781-10.7469-4.9942-3.4122-1.9053.5859-3.3203,1.3927-.7093-1.5937-2.6467-1.1719-3.125.4179-.4738,8.5831-1.1267,8.9844-1.5625.7783-.8452-2.1493-3.0437-.7812-3.5156h9.5703Z" style="fill: #32354d; stroke-width: 0px;"/>
                <path d="m193.8104,38.5535c-.1381-.0007-2.461.4009-2.7344.3906-1.853-.0699-13.2235-.9075-13.8672-1.1719-1.3595-.5583.43-2.6433-.3906-3.125-.6717-.3943-13.0751.4113-14.0625,0-.7155-.298-.6807-2.0397-1.1719-2.3438-1.4637-.9059-32.7863-1.4438-34.375-.7812-.9942.4146-.6543,3.0797-1.5625,3.5156-6.2604-1.6642-13.2743.524-17.7734-2.3438.2191-.4252-1.3663-.4137,1.3672-1.1719,7.4195.4129,6.1848-2.1201,6.6406-2.3438,1.3473-.6612,12.1354.9109,12.8906.3906.6332-.4362-2.5666-3.416,9.7656-2.3438.1956.017.9714,1.1508,1.1719,1.1719,11.0629,1.1608,4.27-2.097,10.9375-1.9531,4.1858.0903,3.9621,3.3002,10.9375,1.1719,2.2259,5.0873,13.0726-1.893,10.9375,3.9062,8.6982-.7674,4.6358,1.9301,5.4688,2.3438,2.1046,1.0451,9.7603-1.8354,10.5469,1.5625,8.1702-.7139,3.1311,1.9653,5.2734,3.125Z" style="fill: #32354d; stroke-width: 0px;"/>
                <path d="m176.2323,83.4754c.1585.6892.3851,2.24,1.1719,1.9531-.1643.4758.2651,1.6274-.1953,1.9531-.6059.4287-13.9622-.4276-14.8438,0-1.8735.9088,4.2403,3.6335-14.4531,2.7344-.9374,2.1019-7.8287,3.1087-8.2031,0-2.3365-.2351-12.6808.3155-13.2812,0-.415-.218.779-1.3692.5859-1.7578-.5089-1.0244-10.9014-.5529-12.6953-.9766-4.3101-1.0179,1.4654-3.2551-4.8828-3.125.6485-2.1491,3.9038,1.4736,3.125-3.9062,1.6176.2238-.3567,2.4572.5859,3.125.2873.2035,6.7214.5579,7.0312.3906.7251-.3916-.7252-1.9525,0-2.3438,3.6564-1.9726,5.9113,1.8098,6.25,1.9531.7114.301,2.4447-.5767,3.3203.5859.0766.1017-.3894,2.0529.1953,2.5391.4244.3529,7.8931-1.918,9.375-1.5625.6422.1541,2.4057,5.0409,11.7188,0,12.3021,2.6662,7.7953-.3346,8.9844-1.1719.3405-.2398,2.9101.2471,3.5156,0,.3225-.1316,2.4629-3.8957,5.8594-1.9531.6089.3482-1.9447,2.1652,6.8359,1.5625Z" style="fill: #32354d; stroke-width: 0px;"/>
                <path d="m107.0917,33.866c4.3912,1.4112,1.188,6.2854-13.2812,4.6875-.09-.2753-2.9551-2.5427-2.1484-3.125l7.0312-.3906c-1.0981-2.2316,7.9522-1.3153,8.3984-1.1719Z" style="fill: #32354d; stroke-width: 0px;"/>
                <path d="m103.576,71.7566l12.3047.7812c-5.829,6.5909,1.1466,3.0667,13.2812,3.9062l-1.5625,3.5156c5.7437.5543,14.56-1.4056,16.4062,1.5625,3.1168-4.1261,15.0994-.4821,15.8203-2.5391.0915-.2611-2.323-2.4151-.9766-2.9297l16.0156.3906-2.3438-3.9062,9.9609-.3906c.4671.178,1.8618-.1805,2.1484,0,.2935.1848-.0801,3.2307,2.9297,2.3438.0736.4506,1.5741,2.4147.9766,2.7344-2.4612,1.3166-12.607-2.8763-4.4922,3.3203l-8.0078-.1953c-.2378.1469.1064,2.7384.1953,3.125-8.7806.6027-6.2271-1.2143-6.8359-1.5625-3.3965-1.9426-5.5369,1.8216-5.8594,1.9531-.6055.2471-3.1751-.2398-3.5156,0-1.1891.8373,3.3177,3.8381-8.9844,1.1719-9.313,5.0409-11.0765.1541-11.7188,0-1.4819-.3555-8.9506,1.9154-9.375,1.5625-.5847-.4861-.1187-2.4374-.1953-2.5391-.8756-1.1626-2.609-.2849-3.3203-.5859-.3387-.1433-2.5936-3.9258-6.25-1.9531-.7252.3912.7251,1.9522,0,2.3438-.3098.1673-6.7439-.1871-7.0312-.3906-.9427-.6678,1.0316-2.9012-.5859-3.125-6.2517,1.6654-4.5796-1.5797-5.2734-1.9531-.465-.2502-5.4099.181-7.0312,0-.169-.1198-.2311-3.3257-.1953-3.9062.0417-.6761-.9781-.7103.1953-1.5625,1.0227-.1469,2.4518-.7055,3.3203-1.1719Z" style="fill: #d5d6d9; stroke-width: 0px;"/>
                <path d="m94.5917,56.1316v.7812c-.1493-.0959-.9115.2736-.7812-.5859.1464-.3563.6019-.1202.7812-.1953Z" style="fill: #d5d4d6; stroke-width: 0px;"/>
                <g>
                  <path d="m182.4823,72.1473l-9.9609.3906,2.3438,3.9062-16.0156-.3906c-1.3465.5146,1.0681,2.6686.9766,2.9297-.7209,2.0569-12.7035-1.587-15.8203,2.5391-1.8463-2.9681-10.6625-1.0082-16.4062-1.5625l1.5625-3.5156c-12.1346-.8396-19.1102,2.6847-13.2812-3.9062l-12.3047-.7812c8.7516-4.6998,5.5309-3.2563-6.0547-3.9062v-.7812l4.4922-2.9297c-.7063-1.63-13.9951-1.3073-2.7344-5.0781-1.333-.939-3.7623-1.554-4.6875-2.1484v-.7812c4.1286-1.7299,6.4337.2699,3.3203-4.6875l7.6172-1.7578c-7.7484-5.3101-1.7553-3.5624,7.8125-5.4688l-5.2734-4.1016c4.3481-.4906,10.1354.609,13.6719.3906.4726-.0292-.1206-1.8047,8.9844-1.1719l.3906-2.7344,28.9062.3906c1.5707.5561-2.4,3.1544-.7812,3.9062,2.9664-.0515,6.6706,1.8541,8.2031-1.5625,7.3956,1.1971,10.0314,1.2444,2.3438,3.9062v.7812c2.9286.0405,11.1245,1.2086,13.2812,2.3438,4.4653,2.3501-9.1367,2.1959,6.0547,5.6641-7.8938,4.8459,8.4177,2.1799-2.3438,7.8125l4.6875,1.9531c-6.457,2.6585-8.7518.5891-3.9062,5.8594l-10.5469,1.9531c-.1783.7992,4.754,2.2667,5.4688,2.5391Z" style="fill: #32354d; stroke-width: 0px;"/>
                  <g>
                    <path d="m152.7948,45.9754c-4.9512-.2014-9.1114-.7956-14.4531-.7812-6.4622.0173-10.236-.887-10.9375,1.5625-.1894.6614.3026,2.7721-.1953,3.125-8.0956-.8397-6.0623,2.0298-7.2266,3.5156-1.7066,2.1779-5.0963,1.6449-3.3203,2.7344,1.5893.9749,6.8373-1.7178,1.3672,5.6641.3823,1.213,9.165,1.3678,10.5469,1.7578,3.3462.9443,3.0956,4.4749,8.0078,4.2969.1545-.0056.6307-.7791.7812-.7812,3.359-.0485,18.2239-.4949,19.5312-.7812,1.6791-.3677,3.4798-3.0514,3.7109-3.125,1.4635-.4662,7.1704.4951,9.375-.1953.3024-.4758-8.6156-3.0557,1.1719-7.4219-1.2166-.9415-3.9397-2.2711-4.6875-2.9297-.8009-.7053-1.9991-1.8685-.7812-2.3438l10.7422.7812-1.7578,4.1016c12.737,1.1052-.9006,3.2111,8.5938,5.4688-14.4773,1.4478-15.0452-1.4476-5.0781,5.0781l-11.9141.9766,3.125,3.5156h-11.7188c2.7234,3.0398,2.7915,3.8581-3.9062,3.5156-.2413-.0123-4.2686-1.5037-4.6875-1.1719-1.1137.8822,3.0756,3.5322-8.2031,2.7344-2.0021-4.489-15.2546,2.3374-6.6406-5.4688-1.8828.2147-7.5429-.2948-8.2031,0-.6494.29,1.6406,3.5124-8.3984-.1953,14.7409-5.5318-9.427-2.0942-9.375-3.9062l6.4453-3.7109-.3906-.7812c-9.4356-.4016-15.4289-.23-7.2266-2.1484-5.4389-4.2445-1.6452-2.3905,6.6406-3.125-12.3598-6.0903.8007-3.7426,5.8594-6.25-12.7642-5.9985,2.9756-2.9928,4.4922-3.7109,1.7758-.841-3.2008-4.5923,12.5-3.5156-2.4303-4.3759,10.3384-3.4225,10.9375-3.125.4657.2313-.7699,2.1867,0,2.7344.4313.3068,9.4275-.0045,9.5703.9766l-4.2969,2.9297Z" style="fill: #d5d6d9; stroke-width: 0px;"/>
                    <path d="m165.2948,49.8816c-4.2704-1.8806-10.5866-2.5679-8.5938-4.2969,9.8366.4952,17.2482.2707,8.5938,4.2969Z" style="fill: #d5d6d9; stroke-width: 0px;"/>
                    <g>
                      <path d="m152.7948,45.9754c.735.0299,1.7133-.501,3.9062-.3906-1.9929,1.7289,4.3234,2.4163,8.5938,4.2969l.3906.3906c-1.2179.4753-.0196,1.6384.7812,2.3438-2.4229,1.0262-5.9108,1.8186-5.8594,2.3438-6.6683-4.5119-24.4822-4.4387-31.6406-.7812-.6161-1.5016-5.3145-.5015-8.9844-.7812,1.1643-1.4858-.869-4.3553,7.2266-3.5156.4979-.3529.0059-2.4636.1953-3.125,3.513.2186,9.8899.267,10.9375-1.5625,5.3417-.0143,9.5019.5799,14.4531.7812Z" style="fill: #d7d6d2; stroke-width: 0px;"/>
                      <path d="m159.4354,60.4285c-.1455,1.1646.6317,1.8688,1.1719,2.7344-.2311.0736-2.0319,2.7573-3.7109,3.125-1.3073.2863-16.1722.7327-19.5312.7812-.1505.0022-.6267.7756-.7812.7812-4.9122.178-4.6616-3.3526-8.0078-4.2969,2.0636-2.3349.7233-2.5603.3906-3.5156,4.2026-3.4654,6.8688,4.182,20.5078,2.3438,3.471-.4678,6.3452-3.3782,9.9609-1.9531Z" style="fill: #d1d4d4; stroke-width: 0px;"/>
                      <path d="m128.9667,54.1785c-4.4676,2.2826-1.4283,1.7579,0,5.8594.3327.9554,1.673,1.1807-.3906,3.5156-1.3819-.39-10.1646-.5449-10.5469-1.7578,5.4701-7.3818.2222-4.6891-1.3672-5.6641-1.776-1.0895,1.6137-.5565,3.3203-2.7344,3.6699.2797,8.3682-.7203,8.9844.7812Z" style="fill: #d5d6d9; stroke-width: 0px;"/>
                      <path d="m166.4667,52.616c.7478.6586,3.4709,1.9882,4.6875,2.9297-9.7875,4.3662-.8695,6.9461-1.1719,7.4219-2.2046.6904-7.9115-.2709-9.375.1953-.5402-.8655-1.3174-1.5698-1.1719-2.7344.3174-2.5407,5.1502-2.7769,1.1719-5.4688-.0514-.5252,3.4365-1.3175,5.8594-2.3438Z" style="fill: #d5d6d9; stroke-width: 0px;"/>
                      <path d="m138.3417,45.1941c-1.0476,1.8295-7.4245,1.7811-10.9375,1.5625.7015-2.4495,4.4753-1.5452,10.9375-1.5625Z" style="fill: #d1d4d4; stroke-width: 0px;"/>
                      <g>
                        <path d="m160.6073,54.9598c3.9784,2.6918-.8544,2.9281-1.1719,5.4688-3.6157-1.4251-6.4899,1.4853-9.9609,1.9531-13.639,1.8382-16.3052-5.8092-20.5078-2.3438-1.4283-4.1014-4.4676-3.5768,0-5.8594,7.1585-3.6574,24.9723-3.7306,31.6406.7812Z" style="fill: #dfe0e2; stroke-width: 0px;"/>
                        <g>
                          <path d="m142.0526,53.0066c3.1886-.4357,14.0254.0621,12.6953,5.2734-.8676,3.3994-12.0297,3.8759-16.2109,2.5391-9.3154-2.9785-1.7191-7.0973,3.5156-7.8125Z" style="fill: #594a89; stroke-width: 0px;"/>
                          <path d="m143.6151,54.5691c14.6645-.899,7.4903,7.4509-2.7344,4.6875-6.8904-1.8623-.8696-4.4666,2.7344-4.6875Z" style="fill: #d5d6d9; stroke-width: 0px;"/>
                        </g>
                      </g>
                    </g>
                  </g>
                </g>
              </g>
            </g>
          </g>
        </g>
      </g>
    </g>
  </g>
</svg>