<?xml version="1.0" encoding="UTF-8"?>
<svg id="Layer_2" data-name="Layer 2" xmlns="http://www.w3.org/2000/svg" xmlns:xlink="http://www.w3.org/1999/xlink" viewBox="0 0 99.7631 116.1987">
  <defs>
    <linearGradient id="linear-gradient-chair" x1="74.8693" y1="10.1838" x2="68.5479" y2="35.4295" gradientTransform="translate(-24.1562 22.0544) rotate(-1.2246) scale(1.1988 1.0077) skewX(-4.4544)" gradientUnits="userSpaceOnUse">
      <stop offset="0" stop-color="#240c0e"/>
      <stop offset="1" stop-color="#09a27c"/>
    </linearGradient>
  </defs>
  <g id="main-chair">
    <g>
      <path d="m55.6033,60.7393c-.3073,3.1829-.3434,6.3728-.6799,9.5548-.2247,2.1242-.6728,4.2389-.9247,6.3799-1.547,13.1507-2.9798,26.3055-4.6903,39.4537-.6748-.1121-2.4664.3056-2.8144-.1386-.1567-2.909.7766-4.3586.7972-4.5884,1.1563-12.8728,3.5885-25.7686,4.6337-38.6575.3223-3.9745.99-8.0647-.0929-11.9233,1.241-.1276,2.5351.0661,3.7714-.0806Z" style="fill: #622633; stroke-width: 0px;"/>
      <path d="m24.1134,53.4622c-1.0093.2684-1.6149,1.1138-2.0132,1.8318-3.2587,5.8749-11.0958,24.3652-16.6214,35.1374-.4896.9545-1.1679,2.8552-2.5837,3.2353-.0982-.0816-1.9481.3688-2.2579-1.343,2.5274-3.9705,4.4437-8.1483,6.5211-12.2634,2.4423-4.8379,5.419-9.55,7.6197-14.4732.532-1.1901.5375-2.1571.6414-2.3988.8286-1.9284,5.0148-10.0072,5.036-11.2379l.9712-.4183c.1095.1168,2.2841,1.6543,2.6869,1.9301Z" style="fill: #39131a; stroke-width: 0px;"/>
      <path d="m18.1753,37.6888c.9481,1.1582-1.1181,2.2838-1.1128,2.4088l-.4714.0101c-1.0973-1.8332-3.2154-2.37-7.4475-7.791,3.1499,1.6269,6.1696,3.4169,9.0318,5.3721Z" style="fill: #481114; stroke-width: 0px;"/>
      <g>
        <path d="m56.8237,23.7448q21.4697,9.1807,42.9394,18.3613c-6.0227,2.8517-13.4884,8.6957-18.693,11.3311-.9865.4995-3.449,1.6863-4.3844,2.0813-6.6775,2.8196-13.8932,4.3675-21.0824,5.2208-1.2362.1467-2.5304-.047-3.7714.0806-.7765.0799-1.5839-.0425-2.3571.0504-1.4742-.8577-4.5575-.4501-6.0718-.6652-4.6999-.6678-15.7118-4.2929-19.2897-6.7428-.4028-.2758-2.5774-1.8133-2.6869-1.9301-.5027-.5367-1.4022-2.7765-2.0738-3.9308.9672-1.3306,1.4465-.1004,1.914-.4384.5987-.4329,1.2202-5.3977,1.3961-6.39,9.089,3.6377,22.4766,11.4278,31.7591,3.4949-.827-1.5796-.3197-1.3939-.3156-2.1796.6427-4.3682-.4501-11.9744-2.1667-15.8541.0378-.1982.8529-.7384.9995-.8164,1.1952-.6356,2.7015-1.0602,3.8847-1.6731Z" style="fill: url(#linear-gradient-chair); stroke-width: 0px;"/>
        <path d="m81.0701,53.4372c-2.7598,2.495,3.2393,10.2982,3.4637,10.8575,4.457,11.1114,7.4628,22.773,13.6344,33.2981-.0251.5272-2.6205.6011-3.7997.4787-2.3365-5.6668-4.9645-11.2622-7.2674-16.9376-3.4195-8.4272-5.2036-18.0465-10.4155-25.6155.9355-.395,3.3979-1.5817,4.3844-2.0813Z" style="fill: #39131a; stroke-width: 0px;"/>
        <path d="m20.4089,45.9887c.2741.423.6736.7195.8578,1.1742-.4675.3381-.9468-.8922-1.914.4384-.4332-.7444-.8245-1.5922-1.2443-2.3585-1.7511-3.1967-1.3779-4.9022-1.5174-5.1352l.4714-.0101c.0206.4826,2.7431,4.9599,3.3464,5.8911Z" style="fill: #0c4f3b; stroke-width: 0px;"/>
        <path d="m49.4748,60.8703c-.8493.1021-1.7376-.0202-2.5928.0554-3.4685,6.9247-2.258,20.2676-7.4599,18.8424-1.0947-.2999,3.5764-17.0442,3.981-19.5631,1.5143.2152,4.5976-.1925,6.0718.6652Z" style="fill: #39131a; stroke-width: 0px;"/>
      </g>
      <g>
        <path d="m54.1063,42.0883c-.0041.7856-.5114.5999.3156,2.1796-9.2825,7.9328-22.6701.1427-31.7591-3.4949,2.0711-11.687-1.3048-13.6873-3.1016-2.7163-.552-.4315-1.3304-.3299-1.3859-.3679-2.8622-1.9552-5.8818-3.7451-9.0318-5.3721C3.4402,25.0112-4.1108,13.2201,2.6977,3.8338c.0997-.1375,2.5244-1.813,2.9702-2.051C13.0711-.7752,38.3054,13.9533,43.3418,18.0703c5.2132,4.2616,7.3886,10.2484,9.9593,15.4887-.1121,2.8215.8198,5.7507.8052,8.5292Z" style="fill: #0c4f3b; stroke-width: 0px;"/>
        <path d="m51.9395,26.2342c1.7166,3.8797,2.8095,11.4858,2.1667,15.8541.0146-2.7785-.9173-5.7077-.8052-8.5292-2.5707-5.2403-4.7462-11.2272-9.9593-15.4887C38.3054,13.9533,13.0711-.7752,5.6678,1.7828,7.8557.6144,9.9715-.2028,12.6167.0442c5.5031.5138,33.973,14.0992,39.3228,26.1901Z" style="fill: #0099b8; stroke-width: 0px;"/>
        <path d="m22.6628,40.7729c-.1759.9923-.7974,5.9571-1.3961,6.39-.1842-.4547-.5838-.7512-.8578-1.1742,1.1408.2585,1.5531-6.2617,1.4103-6.5891-.0483-.1106-.8139-.2141-2.2579-1.343,1.7969-10.9711,5.1728-8.9708,3.1016,2.7163Z" style="fill: #00222a; stroke-width: 0px;"/>
      </g>
      <path d="m19.5612,38.0567c1.4441,1.1289,2.2097,1.2324,2.2579,1.343.1428.3274-.2694,6.8476-1.4103,6.5891-.6033-.9312-3.3259-5.4085-3.3464-5.8911-.0053-.125,2.0609-1.2506,1.1128-2.4088.0555.0379.834-.0636,1.3859.3679Z" style="fill: #39131a; stroke-width: 0px;"/>
    </g>
  </g>
</svg>