<?xml version="1.0" encoding="UTF-8"?>
<svg id="Layer_2" data-name="Layer 2" xmlns="http://www.w3.org/2000/svg" viewBox="0 0 103.997 155.287">
  <g id="main-art">
    <g>
      <g>
        <path d="m69.0659,26.5816c-.8918.0388-1.7844.0574-2.6761.1008.463-2.0434-2.6064-2.9825-1.5801-4.9745-.5034-.4643-1.9001-2.9182-2.5963-2.4662.4207.176,1.2897,1.2093.7523,1.6342-1.6981-2.5035-3.3114-5.0557-5.084-7.5091.1691-.2461.325-.5107.4628-.7756,3.5416,4.689,7.1953,9.2903,10.7214,13.9904Z" style="fill: #caa294; stroke-width: 0px;"/>
        <path d="m57.8815,13.3672c1.7729,2.4525,3.3859,5.0053,5.0841,7.5087.5376-.4248-.3316-1.4581-.7523-1.6342.6965-.4512,2.092,2.0004,2.5971,2.4676-1.0408,1.9691,2.067,2.9684,1.5631,4.9477-.0402.1577-.3146-.0581-.3889.0479-1.6661-2.2739-3.3472-4.3823-5.2333-6.4899-.7368-.6014-.6743-2.0809-.8604-2.5761-.6379-1.698-1.8714-2.4814-2.729-3.8896.2249-.1203.4922-.2432.7195-.3821Z" style="fill: #ddc0b4; stroke-width: 0px;"/>
        <path d="m57.1067,13.8112c.9968,1.2523,2.1036,2.1776,2.7839,3.8282.1984.4813.1144,1.9844.8617,2.5749,1.8817,2.1049,3.5723,4.2246,5.228,6.4836-.4727.0194-.9459.0307-1.4201.0469-2.8119-4.1953-5.801-8.2459-8.6697-12.411.2165.0304,1.116-.6487,1.2162-.5226Z" style="fill: #caa294; stroke-width: 0px;"/>
      </g>
      <g>
        <g>
          <path d="m42.7784,8.5493c2.9454,1.0336,1.9219,3.2902.9611,5.1732-2.5042.1182-2.9406-.2754-3.2994-2.2226-.078-.4236-.3737-.3115-.3893-.3344-.6817-.9983-1.4973-1.1541-2.4073-1.7201-.035-.0217-.3156-.6307.2789-.7387.5945-.108,4.5519-.2641,4.8561-.1574Z" style="fill: #ee9555; stroke-width: 0px;"/>
          <path d="m37.4558,9.5856c1.3901.1748,1.772.7643,2.5758,1.5304-.3683,1.0958-1.2087,1.7713-1.1135,2.9834-.1508-.0871-.0077.107-.2299-.0386s-.9422-.7577-1.173-.968c-.2308-.2103-.6356-1.1345-.6597-1.1614-.8246-.9215.413-2.3693.6003-2.3458Z" style="fill: #67280f; stroke-width: 0px;"/>
          <path d="m43.7101,13.7325c-.0952.2422-1.0333.9233-1.1098.9463-1.5808.4748-2.3665.0897-3.6919-.5846-.0593-1.1621.7209-1.9624,1.1441-2.92.0098-.0221.3132-.0901.3877.3308.3426,1.9352.8297,2.3312,3.2699,2.2275Z" style="fill: #c76f41; stroke-width: 0px;"/>
        </g>
        <g>
          <path d="m36.7562,16.133c.0604.0708.401,1.1623.6746,1.3114-1.0623,3.1823-2.2073,6.2559-3.3952,9.368-.0219-.0173-.1747.0138-.1732-.0182.0015-.032-.0836-.4399-.1152-.3579-.1985.5145-.4206.5313-.7769.5073-.3563-.0241-.3058-.2081-.6218-.19.9698-2.6756,1.9102-5.3303,2.8102-8.0249,1.4372-.1448.2895-.2121.3041-.9665s.4322.1504.4714.2165c.405.6837.5012-2.6534-.7087-1.1649s-2.5894,7.4823-3.7986,9.8234c-.1007.195-.3163.2224-.3711.2255-.2759.0153-.511-.1574-.7745-.1907,1.6402-3.751,3.3336-7.4554,4.902-11.2393.6375.1555,1.0392.0751,1.5729.7005Z" style="fill: #caa294; stroke-width: 0px;"/>
          <path d="m37.4525,13.0297c-.1342,1.1205-.5023,1.9929-.7206,3.0305-.4689-.4328-.9344-.5414-1.5475-.6237.4949-1.2111.8768-2.4695,1.6223-3.5482.0344.2245.6574,1.0451.6459,1.1414Z" style="fill: #a08683; stroke-width: 0px;"/>
          <path d="m31.0493,26.8907c-.5557.9754-1.0887,2.2919-1.0967,3.4198-.4966-.0192-.9978-.0525-1.4898-.0898.5309-1.0624,1.1863-2.3069,1.6197-3.3325.0972-.23.1625-.2049.1728-.2038.3188.0364.5176.1449.7941.2062Z" style="fill: #bb6038; stroke-width: 0px;"/>
          <path d="m33.8543,26.7971c-.6069,1.1603-1.2136,2.259-1.8476,3.4095-.0258-.115-.3731.1312-.341-.0688.1228-.7649.7538-2.5697,1.2656-3.0663s.5436.1302.8167-.6381c.0436-.1226.1124.3521.1063.3638Z" style="fill: #db8349; stroke-width: 0px;"/>
          <path d="m32.3541,26.7523c-.2895-.0724-.6669-.0089-.915-.1001,1.1816-2.3778,2.5821-8.3416,3.7872-9.8372,1.2052-1.4957,1.1157,1.8513.7078,1.1635-.0394-.0665-.4565-.9705-.4713-.2163-.0148.7542,1.1332.8218-.3043.9665-.8964,2.6939-1.847,5.3508-2.8044,8.0237Z" style="fill: #dfcec8; stroke-width: 0px;"/>
          <path d="m32.3302,26.7777c.1833.101.6074-.2053.5048.3239-.0618.3186-1.2677,2.3394-1.172,3.0652-.4984-.0923-.8755.1041-.9822.3006-.1068.1965-.5165-.2564-.7131-.166-.1339-.8603.7037-2.8209,1.0278-3.2947.3241-.4738.1889-.144.4243-.265s.7271-.065.9105.0361Z" style="fill: #ee9555; stroke-width: 0px;"/>
          <path d="m38.6538,14.0518c-.3344,1.1833-.8758,2.2614-1.2228,3.3939-.233-.1421-.6737-1.2532-.6644-1.3135.1807-1.1663.4875-2.0138.7488-3.0453.1013.2087,1.1609.8853,1.1384.965Z" style="fill: #8f6b66; stroke-width: 0px;"/>
        </g>
      </g>
      <g>
        <path d="m30.1076,26.8511c-.5151,1.1414-1.0778,2.2583-1.6474,3.3729-5.1957-.3129-10.3794-.8391-15.5762-1.0857.624,11.7224.1419,23.8402-.1091,35.3484-.0165.7571.1473.662.1468.6949-.0927,5.7536-.303,11.2758-.4766,16.9167-.092,2.9905-.2944,5.9371-.3253,8.9181-.0554,5.3522-.0667,10.698-.1712,16.0478.1028.1376.1859.2742.3005.4133,8.3867-.1924,17.1879.282,25.3603.4081.8101.0125.239-.4207.6063-.3206.3672.1-.1692.4241.1022.563-2.2009,1.6503-.7285,3.131-1.4698,5.1732-9.3522-.4875-18.5699-.46-27.9276-.2274-.5818-2.2596-.2137-3.2215-2.2305-4.6798.1492-1.2827,1.5226-.1126,1.7116-1.4439.6146-4.3296-.3592-9.7189-.1469-14.3551.0035-.0749.4002-.3803.4052-.4869,1.0323-22.2913,2.0204-44.5239,1.0339-66.8235,3.9468.0098,9.5421.5111,13.1149.8172,4.1606.3564,1.9323-1.2658,2.0623-4.6061.738-.5106.7697-1.344.6949-2.2178,2.499,1.3153,1.79,4.5453,1.8966,6.9596.8829.1998,1.767.3943,2.6453.6137Z" style="fill: #ee9555; stroke-width: 0px;"/>
        <path d="m96.3189,95.8289c.249,2.057.6111,11.768,1.7471,13.9818,1.1359,2.2137,1.3267-.3707,1.8688,2.6194.3886,2.1433.2637,4.8066.4062,7.1033-2.1263-.0825-4.2515-.1811-6.39-.1992.0652-.1168-.0946-.059.0237-.2162.1183-.1572.5136-.3999.7827-.496,1.7322.1529,3.4457.3186,5.1682.4997-.1059-2.3351-.3033-4.6054-.5955-6.9254-5.7943-1.8609-12.7208-1.2136-18.7493-1.3958.4081-.1215.816-.243,1.2242-.3645-1.8405-.0735-3.6807-.1523-5.5215-.2173.8164-.0717,4.6704.4908,4.621-.5864-4.6999-.107-9.3984-.1277-14.099-.1888-.3612-1.0044-.7256-2.041-1.085-3.025.9533.3221.766,1.5474.929,2.1379.163.5905.3289.3191.5486.7062,9.0922-.0302,18.1673.146,27.2469.5356-.1065-2.4718-.6031-6.0994-.8632-8.3062-.4182-3.5488-.7018-6.0064-1.0601-9.3265-.197.0147-.393.0093-.5982-.0202.324-3.6827-.3564-7.5148-.6182-11.1468-1.233-17.1078-1.6287-34.1182-2.1103-51.233-5.3453.12-10.6927.2927-16.0379.467-1.1457-1.1731-2.2722-2.3357-3.4619-3.4804.7615-.149.9648-.2753,2.0067-.2564.0946.0017,2.2883.2704,2.7034-.0539-.2402-3.31.4683-4.9174-3.1938-5.5126.1488-1.1212-.0191-1.8882,1.7744-1.9954,4.294-.2567,3.9242,3.7709,4.2206,7.3056,5.2332-.0973,10.4101-.1095,15.6174-.1646.5724,23.5628.5793,45.6693,3.4949,69.7542Z" style="fill: #ee9555; stroke-width: 0px;"/>
        <path d="m96.5584,117.2811c-10.7233.0133-26.8987-.4988-38.1975-.3395-3.1524.0445-1.6445.1422-3.6146,1.3101-.2816.1669-.7585.1293-.7567.2255.0826,4.5014-.0267,8.9037-.1133,13.375-.0627.3921-.3353.4092-.7269.4786-1.919-1.1227-3.8408-2.2429-5.7648-3.3551.0185-2.0708-.0176-4.0735.0168-6.1703.004-.2431-.0131-.3562.0033-.76.0164-.4038-.0807-.878-.0489-1.5248.0319-.6468.2113-1.8319.0593-2.602,1.5589.1207,6.991,1.6686,5.8175-1.4003-14.707-.8029-30.3405-2.6633-44.6249-1.6276-2.0716.1502-.4576,1.5149-.8962,1.782.0186-.0513-.5912.1736-.6012-.0855-.0906-2.3642-.4311-4.8271-.3876-7.2.0073-.3979-.0943-.6587-.0508-1.0322,2.0568,1.5451,1.6558,2.4353,2.2491,4.7202,9.3567-.2355,18.5744-.2606,27.9274.2259.731-2.04-.7125-3.5273,1.4539-5.1696,1.2314,1.8918,1.9421,2.3206,2.3368,5.0089,19.5554,1.7184,38.7868,1.3637,58.5737,2.8078-1.2631.7161,1.0134,1.3285-2.6545,1.3331Z" style="fill: #823121; stroke-width: 0px;"/>
        <path d="m46.8903,117.8729c-5.5844-.4254-15.6006-1.3611-22.255-1.5161-.0823-.0019-.3355.329-.5771.3245-3.9791-.0756-8.1243-.1977-12.1143-.1406-.2076.003-.4739.0215-.5941.0194-.7175-.0126-3.0794.2892-3.3919.0893-.3126-.1999-1.3376-1.617.7134-1.7642,14.1422-1.0152,29.8209.815,44.653,1.6401-.2295,2.9693-2.468,1.6497-6.434,1.3476Z" style="fill: #bb6038; stroke-width: 0px;"/>
        <path d="m9.6627,25.2972c1.0552,27.3909.0138,54.7443-1.0057,82.1213-.0049.1309-.3564.6044-.4198.5388-.0634-.0656-.4125-.3484-.6552-.1657,1.0157-27.4962,2.5008-54.9214,1.5289-82.4327.1393-.1957.3652-.0556.5518-.0616Z" style="fill: #c76f41; stroke-width: 0px;"/>
        <path d="m71.5472,26.4727c-.1692-1.8469-.3736-3.6757-.3099-5.5332,3.6291.5755,2.8932,2.1911,3.2092,5.508-1.0071.2375-1.8905.1618-2.8992.0252Z" style="fill: #823121; stroke-width: 0px;"/>
        <g>
          <path d="m24.8406,21.4997c.3154,3.2795,1.5197,5.0414-1.8345,4.5751-.0742-1.759-.3922-3.4926-.4489-5.2525.762.223,1.5226.4504,2.2834.6774Z" style="fill: #823121; stroke-width: 0px;"/>
          <path d="m25.5667,19.2776c.0549.8767.0793,1.7022-.7261,2.2221-.7609-.227-1.5215-.4545-2.2834-.6774.2134-1.7899,1.4688-1.8286,3.0096-1.5447Z" style="fill: #f9a866; stroke-width: 0px;"/>
        </g>
        <path d="m97.1737,117.3056c-.6287.4518-1.7292,1.0693-2.3564,1.2793-.6273.2099-.4216.3632-.8942.5195-.4725.1563-.1066.1845-.9794.1566-2.8622-.0915-9.2023-.5622-11.7153-.6036-8.3695-.1379-14.9956-.2056-22.8815-.0843-.3527.0054-.6105.0023-.9742-.0123.838-.3976.7642-.7591.658-1.6166,13.0579-.1417,26.1063.3074,39.1431.3614Z" style="fill: #bb6038; stroke-width: 0px;"/>
        <path d="m93.5668,101.3588c-.0182-.1561-.0512-.4452-.0674-.5793-.3492-2.8849-.6678-5.7247-.9758-8.5973.3292,3.0613.6815,6.1245,1.0433,9.1766Z" style="fill: #beb78d; stroke-width: 0px;"/>
        <g>
          <path d="m42.9176,2.4746c2.5053,7.4846,4.5312,16.1826,5.5216,23.9171.1273.9937-.0162.6792-.5066.7714-1.1841.2225-2.5209-.043-3.7343.0423-.1522.0107-.1282-.3627-.1298-.3763-.4655-4.0783-.9767-8.0797-1.5281-12.1068.4334-.3283.8628-.5158,1.1852-1.0153,1.1782-1.8257,1.6445-4.1549-.7251-5.1531-.2817-2.3353-.6659-4.596-.747-6.977.4001.4091.4182.1631.6641.8977Z" style="fill: #823121; stroke-width: 0px;"/>
          <path d="m47.9544,27.2426c.4102-.3874.6244.1895.4926-.8223-1.0264-7.8753-2.9901-16.3221-5.5458-24.0156,1.7299-.0542,3.4711-.0344,5.1975-.0449,1.1735,2.9465,1.4078,6.0672,2.1266,9.133,1.2185,5.1975,2.7245,10.2856,3.3447,15.6048-1.7432.4609-3.831.108-5.6155.145Z" style="fill: #ee9555; stroke-width: 0px;"/>
        </g>
        <g>
          <path d="m58.3142,12.6296c-.0053.0501-.2766.5943-.4568.7399-.1802.1456-.395.2059-.7729.4253-.0724.0421-.8834.4231-1.2463.5659-.363.1428-1.254.1866-1.6445.4807.6042,4.0708,1.0939,8.1322,1.5709,12.2176,2.5096.6045,6.3621-.1566,8.6533-.3024.989-.0629,1.0352-.0279,1.4774-.054.4421-.0262.3149-.0106.4659-.0182.9818-.0494,1.7742-.0612,2.7075-.1028.9647,1.213,2.0231,2.3509,2.9568,3.5927-.3292.2428-.8352.122-1.2194.1494-.3843.0274-.6185.0158-1.0371.0387-3.6216.1979-7.3566-.0327-10.9857.3406-.1494.0154-.2465.2793-.2666.3924-.2466-.1894-.4951-.3914-.7432-.5849-4.3848-.0686-8.7747.2654-13.1525.244-.9121-.0045-1.8038-.0113-2.6996-.0293-3.3167-.0669-6.5989-.383-9.9083-.5263.6248-1.1232,1.2285-2.2663,1.8481-3.3858.0204-.0368.1182.0004.1816.0012,3.3358.0421,6.6714-.0769,10.0278.0204.0198.0006-.0658.3679.1228.3709,1.5031.0242,2.1004.0063,3.9111.0145,1.0536.0047,4.1321.3317,5.435-.1221-.556-5.3197-2.1088-10.4073-3.3152-15.6049-.7117-3.0659-.9571-6.1867-2.1254-9.1329-1.7277.0065-3.4669-.0018-5.1986.0385-.158-.3186-.2856-.6562-.6579-.8043.2223-.6982-.4958-1.2841.8259-1.5645.3824-.0811,4.5452.0078,4.9279.2225,3.736,2.0965,2.4756,7.0703,3.435,10.4608,2.4196-2.8869,7.3806-2.7816,6.883,1.9165Z" style="fill: #f9a866; stroke-width: 0px;"/>
          <path d="m54.8299,10.2534c-.7896.9143.0995,1.8975.6097,2.7534-.2621.1414-1.229,1.1241-1.3987,1.0976-2.9924-.4662-1.5076-3.6554.7891-3.851Z" style="fill: #823121; stroke-width: 0px;"/>
          <path d="m55.4561,12.9841c-.5286-.7245-1.4383-1.9633-.6078-2.6724.2586-.2208.8677-.0009,1.066.1566,1.4788,1.1735,1.1324,1.9168-.4583,2.5159Z" style="fill: #7e8a82; stroke-width: 0px;"/>
          <path d="m65.1135,27.031c.7554-.1317,3.0812,3.3504,1.0326,1.721-.1075-.0854-1.3543-1.6649-1.0326-1.721Z" style="fill: #c76f41; stroke-width: 0px;"/>
        </g>
        <g>
          <path d="m93.9176,119.1623c.0963-.0004.0056.099.0364.1777.2917.7456.4573,1.5611.8824,2.2574,1.3413,6.4883,3.3533,12.3895,5.6171,18.6949.7853,2.1873,1.8945,4.9309,2.6323,7.2249.1939.603.339.7832.5153,1.4616.1762.6784.4669,1.9198.3802,2.7112-1.8524.5259-3.7105,2.5636-5.6746,2.3699-3.5027-9.6115-6.7328-19.2703-9.7324-29.051,2.8944-.3905,5.0563-2.5033,4.5468-5.5223-.0208-.1228-.0707-.1427.0164-.1878.087-.0452.684-.1362.7803-.1366Z" style="fill: #ee9555; stroke-width: 0px;"/>
          <path d="m87.4354,121.4418c.2643,1.2281.7679,2.3701,1.1368,3.5694,3.006,9.7747,6.2283,19.4398,9.7355,29.0482,1.9468.2022,3.8531-1.8591,5.6475-2.3567-1.5253,1.4224-4.5667,3.1033-6.251,3.519-1.0327.2549-1.1575-.314-1.3597-.3915-.98-.3757-.8972-.8788-1.8426-1.0735-.1708-.0352-1.1132.5853-.256-.3735-.4945-.1946-1.114-.9026-1.321-1.2854-3.0518-5.6425-4.4924-11.7201-6.756-17.6084-.1845-.4799-.2825-.8557-.4402-1.3162-.9384-2.7398-2.2519-6.1761-2.8377-8.7602-.2919-1.2875-.7246-1.6616-.2242-2.5805,1.643.1692,3.1686-.0877,4.7687-.3907Z" style="fill: #823121; stroke-width: 0px;"/>
          <path d="m92.9845,119.2894c.6683.0352-.273.1352.1556.1816-1.9312.7968-3.7003,1.5219-5.7133,1.9648-1.5625.3438-3.142.5195-4.7525.4248-.5954.5242.0471,1.7816.1852,2.4207-.6166-1.8807-1.2695-3.7559-1.8942-5.63,3.9176.1038,8.303.4421,12.0192.638Z" style="fill: #823121; stroke-width: 0px;"/>
          <path d="m88.5748,125.0097c-.3849-1.1924-.8651-2.343-1.1403-3.5685,1.9674-.4633,3.8245-1.1641,5.6749-1.9697.5384,3.0559-1.6502,5.1351-4.5346,5.5382Z" style="fill: #bb6038; stroke-width: 0px;"/>
        </g>
        <g>
          <path d="m21.7927,122.5279c-.0615.3123-.134.9259.2181,1.0706.042.1019-.181.3476-.196.3439-2.1613-.541-4.2486-1.0915-6.3789-1.6054-.6507.6447-.5619,2.0961-.877,2.864-3.1818,7.7536-6.9109,15.0154-7.6501,23.4578-1.1921.9217-3.3103-.667-4.4145-1.2394-.2432-.126.0738-.5635-.3832-.5618-.4569.0017-1.4686-.5161-1.823-1.169-.0524-.4357-.1926-.6959-.1727-1.1991.0198-.5032.1104-1.3646.1778-1.8868.1981-1.5342.7375-2.7169,1.2753-4.1637.252-.6782.1765-1.0355.6288-1.8901.4524-.8546,1.2049-1.8421,1.864-2.9601,2.6043-4.4179,5.0306-9.1324,6.9385-13.9922,3.8288.2538,7.2507,1.5519,10.7928,2.9315Z" style="fill: #a24d32; stroke-width: 0px;"/>
          <path d="m24.0802,116.6827c-.553,2.3532-1.2855,4.6276-2.0571,6.9206-.4545-.2169-.1792-.6662-.2424-1.103-.0632-.4367,1.247-.9165.706-1.4739s-1.2701-1.054-2.8796-1.4214-6.3217-.9819-8.3904-.3577c.1517-.9074.5446-1.7849.7092-2.706,4.0541-.0585,8.104.0639,12.1543.1412Z" style="fill: #823121; stroke-width: 0px;"/>
          <path d="m21.8253,122.5301c-3.6205-1.3868-6.9644-2.6732-10.8365-2.9381.2369-.1252-.125-.2208.2725-.3456,1.9634-.6162,6.7505-.0175,8.3527.3602,1.6022.3776,2.306.8393,2.8824,1.4254.5764.5862-.8903.9543-.671,1.498Z" style="fill: #823121; stroke-width: 0px;"/>
          <path d="m14.7431,143.0251c-.3816,1.4518-.5515,3.0253-1.1031,4.4421-.1517-.0179-.4766-.204-.6161-.1838-.2363.0342-.9115.6313-.9792.6549-1.7607.6141-3.265,1.1665-4.8735,1.8953-.7358-.2266-.3245-.6736-.2787-1.1646.7878-8.45,4.4556-15.739,7.678-23.4476,2.198.4564,3.9314,1.4445,5.1687,3.3453-1.7062,4.8367-3.6865,9.4768-4.9959,14.4584Z" style="fill: #c76f41; stroke-width: 0px;"/>
          <path d="m6.9083,148.6576c-.1326.556-.424.9119.2615,1.1774,1.5701-.707,3.1961-1.3315,4.8127-1.859.3192.0326.4116.5367.3703.5526-2.0189.7759-3.5905,1.9218-5.7181,2.064-.0748-.2115-.2965-.3492-.5881-.4447-1.097-.3592-5.2974-2.8907-5.5695-3.1853-.9419-1.0199-.1952-.7565-.2121-1.2969.4016.6994,1.3824,1.1868,1.8448,1.1905.4625.0037.1406.4364.3841.5627,1.1058.5735,3.2226,2.162,4.4145,1.2387Z" style="fill: #823121; stroke-width: 0px;"/>
          <path d="m21.7924,123.955c-.7574,2.2098-1.8342,5.0123-2.28,7.1123-.1852.872-.1673.4039-.0397,1.0342-2.6321,2.9689-2.8325,7.47-4.7433,10.9134,1.3527-4.9503,3.2849-9.6245,5.0109-14.4473-1.2405-1.9024-2.9704-2.89-5.1707-3.3457.2533-.8913.2521-2.1656.8643-2.891,2.1215.5346,4.2461,1.0518,6.3585,1.6241Z" style="fill: #bb6038; stroke-width: 0px;"/>
        </g>
        <g>
          <path d="m58.5172,31.0982c8.361,12.3722,16.1313,25.043,23.8736,37.8056-4.4937-.213-9.0645-.1875-13.5253-.3419-.4801-.0166-.438-.116-.8252-.2336-7.6828-12.5959-15.4369-25.1551-23.423-37.5706,4.3886.011,8.7666-.3114,13.1562-.2477.2479.1961.4956.3922.7436.5882Z" style="fill: #f2b422; stroke-width: 0px;"/>
          <g>
            <path d="m86.8815,69.2479c.6865,1.3203,1.556,2.3089,2.8722,3.0213.2418,2.2782.6146,4.5041.4401,6.8005-2.0479-3.2708-4.2263-6.3805-5.8436-9.8997.8447.0417,1.6884-.0041,2.5313.0779Z" style="fill: #e86f1d; stroke-width: 0px;"/>
            <path d="m89.7537,72.2692c-1.3161-.7125-2.1857-1.7009-2.8722-3.0213,3.009.3301,2.7295.0753,2.8722,3.0213Z" style="fill: #f2921b; stroke-width: 0px;"/>
          </g>
          <path d="m31.6581,30.1852c.0378-.0001.239.0087.3651.0143,3.2807.1461,6.5956.4515,9.8951.5288,7.945,12.489,15.694,25.0915,23.3809,37.7402-3.8918-.0865-7.7825-.1524-11.6731-.2912-.3276-.4946-.7261-.9348-1.0507-1.432-.034-.0521.0198-.1465-.0109-.1964-7.3722-11.955-14.5009-24.0469-21.8466-36.0164-.0445-.459.5201-.346.9402-.3474Z" style="fill: #f2b422; stroke-width: 0px;"/>
          <path d="m44.6175,30.7575c7.9839,12.4186,15.744,24.9691,23.4196,37.5755-.1379.0894-.6255.3737-.726.3734-.7775-.0024-1.3157-.0923-2.014-.2373-7.6818-12.6499-15.4357-25.2514-23.3782-37.7408.8995.0094,1.7986.0159,2.6987.0291Z" style="fill: #e86f1d; stroke-width: 0px;"/>
          <g>
            <path d="m65.3903,68.4937c.1049.0037,1.5389.2801,1.864.223,2.7899,4.6244,5.2599,10.67,8.9739,14.3271.3364.3312,1.3453-.1762,1.1673-.6223-1.8927-4.7409-6.1806-9.0927-8.5439-13.8623,4.499.1674,9.0321.1202,13.5391.3489.6644.0337,1.299.2112,1.96.2596,1.6132,3.5416,3.801,6.5985,5.84,9.9203.3028.4934.4045,1.7015,1.1006,1.8914.3401,3.722.9158,7.4337.628,11.1687-4.0956-.513-8.6899-.4868-12.6736-.6248-1.1216-.0388-1.6296-.0533-2.4615-.0832-2.9807-.1071-5.7117-.1679-8.6347-.2752-.0681-.0025-.1279-.0033-.1986-.0058-4.447-7.8736-9.4788-15.3515-14.3283-22.9829,3.9575.1576,7.6639.1723,11.7677.3175Z" style="fill: #f2921b; stroke-width: 0px;"/>
            <path d="m68.8506,68.5553c2.3659,4.7783,6.6511,9.1231,8.5451,13.8663.1782.4463-.8325.9531-1.1676.6221-3.6998-3.6552-6.2139-9.7064-8.9488-14.3239.3035-.0103.4852-.3439.7724-.3636.2871-.0198.44.2802.7989.1992Z" style="fill: #e86f1d; stroke-width: 0px;"/>
          </g>
        </g>
        <g>
          <g>
            <path d="m69.6931,26.7166c1.1953,1.2253,2.3165,2.3195,3.4641,3.5171,5.3459-.1765,10.691-.3489,16.0391-.4672.462,17.0967.9059,34.1517,2.0941,51.2181-.6865-.2645-.8073-1.3027-1.1-1.9261.2252-2.1341-.263-4.7262-.4168-6.7311-.2426-3.1612.2003-2.6498-2.9209-3.0823-.6761-.0937-1.773-.0187-2.4861-.0772-.7131-.0584-1.2907-.21-1.9764-.2632-7.7413-12.7661-15.5115-25.4302-23.8737-37.8094.0212-.1132.1162-.3769.2662-.3923,3.6425-.3747,7.3414-.1404,11.0002-.3422,2.3205,3.9195,4.8688,7.697,7.2639,11.5699.1031.1667-.0746.3061-.1791.4161,1.0989,1.5368,2.178,3.0815,3.2358,4.6471-1.2601-5.9822-6.4494-11.3409-9.299-16.672.3829-.0198.8945.0911,1.2206-.1479-.9329-1.2354-1.9926-2.3925-2.9561-3.5818.1767-.153.6091.109.6241.1243Z" style="fill: #ec4f34; stroke-width: 0px;"/>
            <path d="m70.8044,30.3219c2.8497,5.3313,8.0385,10.6896,9.299,16.672-1.0579-1.5656-2.1368-3.1103-3.2357-4.6471.1045-.1098.2821-.2494.179-.4161-2.395-3.8726-4.9434-7.6509-7.2637-11.5694.34-.0189.6815-.0091,1.0214-.0393Z" style="fill: #d34025; stroke-width: 0px;"/>
          </g>
          <g>
            <path d="m28.4606,30.2242c7.0045,11.9886,13.9092,24.0483,20.9183,36.0255-7.2028-.2678-14.9816-.3897-21.9603-.7182-1.4345-.0675-.7077-.1732-1.8149-.524-3.5438-5.8224-7.2023-15.8559-10.871-20.3865-1.1805-1.4579-1.0768-1.0582-.7245.3828,1.3773,5.6336,6.3235,14.2032,9.6239,19.9283-.0683.1496-.3528.4082-.4556.4042-3.4977-.137-6.9229-.3334-10.3811-.7133.1953-11.8539.7329-23.6449.0872-35.4921,5.2.2628,10.3806.7757,15.5779,1.0933Z" style="fill: #ae443a; stroke-width: 0px;"/>
            <path d="m29.93,30.3113c.4021.0207.4659.1515.7928.2213,7.3351,11.9683,14.4714,24.064,21.8424,36.0143-1.0812.0954-2.1053-.2023-3.1761-.2976-7.0295-11.9765-13.9221-24.0366-20.9251-36.0253.4434.0317,1.0639.0666,1.466.0872Z" style="fill: #962228; stroke-width: 0px;"/>
            <path d="m25.637,65.0078c-.6141.0704-1.3002.0233-1.9999-.0783-3.3099-5.7191-8.2508-14.2934-9.6281-19.9256-.3523-1.4406-.4608-1.8407.7246-.3828,3.6838,4.5309,7.2883,14.5638,10.9034,20.3867Z" style="fill: #962228; stroke-width: 0px;"/>
          </g>
        </g>
        <g>
          <g>
            <path d="m57.3652,118.5683c.3234.0304.7386-.067.9553.0421.1255.0633.0623.3472.0414.5435-.3705,3.4919.071,7.0366-.1647,10.5505-1.3234,1.019-2.7397,1.6317-4.3198,2.1476.0676-4.4665.2283-8.8819.0881-13.3686-.003-.0959.6597-.1077.7748-.2192.8687.1669,1.7769.2244,2.6249.3041Z" style="fill: #ee9555; stroke-width: 0px;"/>
            <path d="m58.0332,116.9518c.0641.7438.2349,1.3666-.6775,1.5589-.7977.1682-1.7827-.2077-2.6047-.2413,1.1873-1.1969,1.6572-1.2964,3.2822-1.3177Z" style="fill: #c76f41; stroke-width: 0px;"/>
          </g>
          <g>
            <path d="m48.029,105.6892c2.3096.113,7.7496.3699,11.1568.5405,1.296.0649,4.9085-.044,6.4894.1749.4603,1.0147.7411,2.0259,1.1318,3.0393,4.697.06,9.3985.0816,14.0974.1884.0495,1.0773-3.8046.5146-4.621.5864,1.8408.065,3.6811.1438,5.5215.2173-.4081.1215-.8162.243-1.2242.3645,6.0286.1823,12.9549-.4651,18.7493,1.3958.2918,2.3203.4901,4.5898.5951,6.9259-1.7142-.1902-3.4512-.3301-5.1551-.5143.7335-.2142,1.8167-.969,2.3667-1.2488.6707-.3414,2.5391-.5159,1.9467-1.4241-19.4992-1.4149-38.9674-1.0839-58.4409-2.7946-.3871-2.6838-1.1345-3.1255-2.3234-5.0044-.1169-.1848-.0213-.4444-.0266-.5756-.0054-.1311-.0665-.1368-.0409-.2138,1.2347-3.7061,5.8304-1.8505,9.7773-1.6574Z" style="fill: #ee9555; stroke-width: 0px;"/>
            <path d="m49.0454,109.4546c1.5325-.3806,1.9425,1.7802.6805,1.9225-1.262.1423-1.6019-1.6937-.6805-1.9225Z" style="fill: #241c15; stroke-width: 0px;"/>
          </g>
        </g>
        <g>
          <path d="m34.7696,82.8532c-4.0236-.1544-7.9523-.1602-11.9747-.2779-.0266-.0008-.5878-.3989-.6149-.4481-.9384-1.7007-4.0288-7.8672-4.8585-8.3772-1.8535-1.1394-.5344.6443-.2941,1.5046.2404.8603,2.3022,6.7802,3.7885,6.9012.066.0054-.06.1936-.977.1921-1.3758-.0023-5.1102.365-6.9686-.0718-.0317-.0074-.2236-.3141-.4139-.1645.1664-5.6414.3266-11.2397.5153-16.8682,3.9547.231,7.8157.3247,11.8288.6433,1.4918,1.3084,4.1197,6.0451,4.806,7.2075,2.299,3.8936,3.1869,6.2707,5.1631,9.7589Z" style="fill: #389659; stroke-width: 0px;"/>
          <path d="m11.949,107.0639c.1013-5.347.1199-10.6989.1683-16.0469,2.9451,5.16,5.7485,10.3969,8.7357,15.533-.0381.1646-.0767.3291-.1151.4937-2.93.0064-5.859.0414-8.7889.0202Z" style="fill: #19799f; stroke-width: 0px;"/>
          <path d="m25.7354,65.1026c.2057.0299,1.0798.4964,1.5378.4226-.0231.0925.0846.1306-.0106.2122-.0953.0816-.432.1849-.5731.2708,4.7094,7.9511,9.4993,15.8453,14.4052,23.6866-.4703.6689-.9803.5168-1.9479.2667-.0175-.0045-.2846.1451-.6191-.4527-1.3482-2.4092-2.1819-3.8814-3.8878-6.8879-1.4103-2.4857-3.0083-6.1158-5.0345-9.5288-.6049-1.019-3.3768-6.0097-4.7998-7.1964-4.0242-.3384-7.8763-.4163-11.8339-.6523-.2324-.0583-.1722-.4197-.1758-.6208,3.4537.3886,6.8907.5615,10.3757.7245.1024.0048.4246-.357.463-.3553.8018.0359,1.2168-.0177,2.101.1108Z" style="fill: #2b6037; stroke-width: 0px;"/>
          <path d="m55.0829,90.7456c3.2798.0301,6.7236.2464,10.0541.3179,3.459,6.0034,6.6871,12.0925,10.6494,17.7789-3.0263-.0659-6.119-.1242-9.1026-.2061-.606-.9342.6074-1.7088-1.2273-2.2354-.7145-.2051-5.2068-.1093-6.2836-.171-3.0624-.1756-5.4207-.3537-8.2763-.5743-3.0721-4.9225-6.1561-9.8399-9.1428-14.8326,3.4335.1278,6.6776-.0503,10.2322.2611,2.0687,3.0461,6.9639,12.3627,8.4465,14.0575,1.4827,1.6949,2.118,1.968,2.0627.5125-.1281-3.3722-6.1886-10.8506-7.723-14.4731-.4121-.973.0682-.4377.3107-.4354Z" style="fill: #19799f; stroke-width: 0px;"/>
          <path d="m67.9511,91.1591c.0668.0024.1339.0035.2008.0059,2.7687,6.0517,6.3843,11.622,9.4679,17.5096,3.242.1746,6.4825.3492,9.7222.5636-3.6401-5.8737-7.1732-11.7918-10.5887-17.799.8044.0295,1.6078.0513,2.4131.0818,1.9427,3.0881,3.7791,6.246,5.6183,9.3961,1.6555,2.8355,3.1987,5.7314,5.0508,8.4459,1.4623.0719,2.9232.1491,4.3857.2497-.1182-2.8265-.6117-5.6574-.8911-8.4483-.0217-.217-.0079-.4548.1317-.3629.1396.0919.0704.3742.0953.5695.3568,2.7941.7333,5.6255.8917,8.4521-9.0881-.4527-18.1547-.5598-27.2518-.5743-.2016-.1956-.4085-.3593-.5398-.6129,3.0432.0828,6.0867.1405,9.1302.2064-3.963-5.6842-7.193-11.7797-10.6483-17.7754.9373.0361,1.8748.0579,2.8121.0922Z" style="fill: #29596a; stroke-width: 0px;"/>
          <path d="m91.8462,92.1397c.658.0811.2045-.0074.6981.0451.2612,2.8595.6201,5.7258.9534,8.5842-.2541-.0022-.1787.1907-.157.3812-2.8491-.1233-5.7014-.1859-8.5529-.2345-1.8492-3.1432-3.6784-6.3105-5.6162-9.3936,4.1505.1347,8.6834.1256,12.6747.6177Z" style="fill: #07a8c2; stroke-width: 0px;"/>
          <path d="m76.7532,91.4393c3.4156,6.007,6.9485,11.9253,10.5887,17.799-3.2397-.2144-6.4802-.3891-9.7222-.5636-3.0836-5.8877-6.6993-11.4579-9.4679-17.5096,2.8668.1059,5.7346.1702,8.6014.2743Z" style="fill: #19799f; stroke-width: 0px;"/>
          <path d="m46.6331,66.5641c-1.9919.1007-3.9848.182-5.9774.2692,4.7584,7.7398,9.5418,15.4579,14.3704,23.1561,3.385.2261,6.8099.4897,10.1721.6516-4.2666-7.2127-9.2393-15.8301-13.598-22.3723-1.3497-2.0258-.517-.5228-1.8371-1.6665,1.0099.1778,1.8596.136,2.8126.1469.3161.4886.7353.9364,1.0478,1.4281,4.849,7.6298,9.8788,15.1088,14.3287,22.9823-.9495-.0374-1.8615-.0527-2.8146-.0926-3.3981-.1423-6.6415-.17-10.1507-.3981-.0766-.005-1.1174-.4503-1.3572-.4312-4.9238-7.92-9.7444-15.8241-14.5848-23.7657,2.5305.0612,5.0587.028,7.5882.0924Z" style="fill: #2b6037; stroke-width: 0px;"/>
          <path d="m49.3966,66.26c1.0173.0401,2.1366.4044,3.15.2957.0587-.0063.0659.1816.0052.1844-.9146.0432-1.7772-.0373-2.7701-.0785s-2.1028-.0634-3.1546-.097c-2.5045-.08-5.0651-.0088-7.5807-.0992-3.9273-.1411-7.8435-.414-11.7592-.7294-.0008-.0692-.0007-.1329-.0022-.2018,7.3729.329,14.7248.4344,22.1116.7258Z" style="fill: #4d3026; stroke-width: 0px;"/>
          <path d="m39.1823,90.0051c3.2581,5.205,6.5109,10.2648,9.7219,15.4418-.312.0244-.9557.2209-1.2095.2146-2.6331-.0656-8.8838-2.1471-9.3762,1.7628-1.3444-1.0347-.5182,1.6881-2.2858-.5054-3.16-3.9214-6.5279-12.2379-9.3279-17.3287,3.8115-.1382,7.7154.5663,11.5779.3685.1208-.0062.2872-.2566.3193-.3737.0129.2609.5599.3875.5804.4202Z" style="fill: #19799f; stroke-width: 0px;"/>
          <path d="m53.57,90.2466c.588.032,1.1492.2528,1.3855.4611.2363.2083-.6806-.5444-.2277.45,1.6862,3.7025,7.5802,11.0928,7.7648,14.495.0797,1.4685-.5889,1.1776-2.0616-.5119-1.4727-1.6895-6.3824-11.014-8.4445-14.0565-3.5558-.3119-6.7985-.1334-10.233-.2614,2.9926,4.9927,6.0603,9.91,9.1519,14.8328,2.714.2179,5.4273.4026,8.1448.5718-3.7935-.1899-7.5872-.3871-11.3819-.55.4136-.078.8281-.1582,1.2414-.2335-3.1895-5.1862-6.5361-10.2033-9.6703-15.4659.6462.5869,1.6047-.1543,1.8226-.1729,4.1986-.3575,8.4431.2202,12.5081.4412Z" style="fill: #29596a; stroke-width: 0px;"/>
          <path d="m20.0919,82.3208c4.401,8.4182,8.7764,16.8111,13.649,24.9813-3.6766-.2349-7.2126-.1949-10.9828-.4278-2.1808-5.1978-8.3815-13.6753-10.0069-17.8754s.538-3.5319.0407-6.7668c2.5193.4635,4.8641.1924,7.2999.0887Z" style="fill: #19799f; stroke-width: 0px;"/>
          <path d="m34.7551,82.8288c1.2947,2.2369,2.5374,4.5201,3.8168,6.7571.0617.1079-.1763.3694-.2971.3745-3.8603.1648-7.7296-.4464-11.5991-.4207-1.3854-2.2662-2.5549-4.6429-3.8666-6.9499,3.9825.0714,7.9626.1467,11.946.239Z" style="fill: #07a8c2; stroke-width: 0px;"/>
          <g>
            <path d="m22.2109,82.2001c.0475.0044.5347.3042.559.3476,1.7493,3.1154,1.946,3.5804,4.0974,7.3738s6.2959,13.6257,9.1706,17.0222c1.608,1.8999,1.1333-.3095,2.1992.4266.1382.0954.188.1033-.0531.1501-.2411.0468.219.3605-.5875.3517-8.1356-.088-16.9752-.6021-25.3464-.3938-.1166-.1414-.1982-.2758-.3013-.4145,2.9307.0214,5.8589-.0137,8.7892-.0201.0385-.1645.0766-.3292.1151-.4937-2.9871-5.1362-5.7906-10.3729-8.7356-15.5331.0587-2.972.2031-5.9469.3333-8.9133.2535-.0529.3461.0728.3546.1314.4694,3.2286-1.6744,2.5648-.0533,6.764,1.6211,4.1992,7.8279,12.678,10.006,17.8752,3.7707.2332,7.3062.1925,10.983.4283-4.8724-8.1774-9.2486-16.5499-13.6486-24.9927.1422.0996.7798-.1343.829-.1421.462-.0731.8089-.0123,1.2896.0324Z" style="fill: #29596a; stroke-width: 0px;"/>
            <path d="m22.1439,82.0804c-.4493.1856-.6176.0263-1.2744.0231-1.5764-.0077-3.593-6.0077-3.8414-6.8532-.2484-.8455-1.5502-2.6393.2903-1.5045.8239.5079,3.9609,6.7252,4.8255,8.3346Z" style="fill: #2b6037; stroke-width: 0px;"/>
          </g>
          <path d="m27.2872,65.735c3.9155.3287,7.8327.5706,11.7584.7369,4.8278,7.9371,9.6838,15.8541,14.565,23.7585-4.1621-.2522-8.347-.6447-12.519-.5376-4.9009-7.8367-9.6896-15.7352-14.4059-23.6842.2005-.0912.4012-.1824.6016-.2737Z" style="fill: #389659; stroke-width: 0px;"/>
          <path d="m93.3405,101.1502c.2507,2.8291.7731,5.6225.8799,8.4636-1.4614-.1024-2.9224-.1786-4.3856-.2503-1.8439-2.7186-3.4058-5.605-5.0469-8.4478,2.8511.0486,5.7037.1111,8.5526.2345Z" style="fill: #19799f; stroke-width: 0px;"/>
          <path d="m49.8307,66.7869c1.0781.5239.4659-.431,1.7905,1.5334,4.2775,6.3439,9.3508,15.2065,13.574,22.3136-3.3555-.146-6.7863-.4232-10.1688-.644-4.8342-7.7041-9.602-15.4066-14.3791-23.1648,2.1194.0342,3.8126-.328,6.0585-.2034.8038.0446,2.0467-.3586,3.1248.1652Z" style="fill: #389659; stroke-width: 0px;"/>
        </g>
      </g>
    </g>
  </g>
</svg>