<?xml version="1.0" encoding="UTF-8"?>
<svg id="Layer_2" data-name="Layer 2" xmlns="http://www.w3.org/2000/svg" xmlns:xlink="http://www.w3.org/1999/xlink" viewBox="0 0 16.4103 9.2009">
  <defs>
    <linearGradient id="linear-gradient-mouse" x1="-573.9756" y1="-815.5711" x2="-795.9178" y2="-570.0051" gradientTransform="translate(21.1916 19.0144) rotate(7.183) scale(.0276) skewX(-5.5)" gradientUnits="userSpaceOnUse">
      <stop offset=".287" stop-color="#dededf"/>
      <stop offset="1" stop-color="#b4b4b5"/>
    </linearGradient>
    <linearGradient id="linear-gradient-mouse-2" x1="-571.1781" y1="-733.5015" x2="-631.1918" y2="-505.2596" gradientTransform="translate(21.1916 19.0144) rotate(7.183) scale(.0276) skewX(-5.5)" gradientUnits="userSpaceOnUse">
      <stop offset="0" stop-color="#dedee0"/>
      <stop offset="1" stop-color="#b9b8bb"/>
    </linearGradient>
  </defs>
  <g id="main-mouse">
    <g>
      <g>
        <path d="m15.7253,3.683c-.0269.0316-.0541.0672-.0814.0975-.4541.5039-1.0865.9055-1.7231,1.2692-2.5857,1.1502-5.0646,2.4357-7.6349,3.6045-.2952.1342-.5502.3033-.5243.1709.1004-.0391.1707-.0971.2617-.1393,1.6395-.7607,2.1533-1.7137,3.3596-2.7539.3299-.2845.9093-.7353,1.2734-1.0027,2.29-1.6817,2.4775-1.3473,5.5129-1.8794-.064.1322-.3325.5021-.444.6334Z" style="fill: #062530; stroke-width: 0px;"/>
        <path d="m6.2284.6551c-1.2701.524-2.8381,1.402-3.6945,2.2916-1.0275,1.0673-.9149,2.1261.5915,2.7887-.6678.9703-1.1345,1.6245-1.3226,2.7521-.0192.1153-.0069.2541-.0054.3547-.2514-.1528-.5203-.2804-.7456-.4602C.2511,7.7432-.1287,6.8551.039,5.9711c.0157-.0829.0401-.1684.0637-.2505.0281-.0976.0636-.1932.1018-.2887.4518-1.1326,2.1932-2.7707,3.3695-3.5712C4.7542,1.0576,6.367.2779,7.9323.0728c.6472.0009-.2967.1004-.691.2145-.2961.1139-.6296.1758-.9231.2929-.1007.0402-.0839.0724-.0898.0749Z" style="fill: #062530; stroke-width: 0px;"/>
        <path d="m16.3578,2.6425c.1099.2417.0464.2186-.184.2784-.7.1818-2.6686.2728-3.7042.7179-.7983.3432-2.4344,1.5873-3.0769,2.1433-1.135.9822-1.9008,2.1532-3.4135,2.8548-.2429.1126-.5172.2083-.7808.2893-1.055.3246-2.2443.4057-3.2526-.0006-.0148-.0433-.125-.0691-.1485-.0833-.0015-.1006-.0138-.2394.0054-.3547.1881-1.1276.6548-1.7818,1.3226-2.7521.0193-.028.0318-.0161.0327-.0174.0081.0197.077.1134.0831.1182-.5908.8807-1.1772,1.8151-1.1962,2.8111.7423.3131,1.6998.2947,2.5086.09,2.2605-.5723,3.4097-2.5542,4.9477-3.7708-.066-.015-.1122.0242-.1667.0436l1.8676-1.3371c.9194-.5097,1.3966-.6191,1.4678-.6551.1312-.0662-.0872-.1313-.1958-.1755-.0046-.0019-.0858.0403-.1039.0192-.0979-.114.0782-.0703.1335-.0801.005-.0009.034-.0004.0875-.0105-.0131.1116.2778.2577.3244.1701.7832-.1866,2.5597-.3556,3.0901-.4722.065-.0143.011-.0845.0898-.0749.1354.1208.1646.2898.2621.2484Z" style="fill: #0f141d; stroke-width: 0px;"/>
        <path d="m16.1738,2.9209c.0821.0604.0271.0636-.0045.1287-3.0354.532-3.2229.1977-5.5129,1.8794-.3642.2674-.9435.7182-1.2734,1.0027-1.2063,1.0402-1.72,1.9932-3.3596,2.7539l-.0442-.0487c1.5127-.7016,2.2786-1.8726,3.4135-2.8548.6425-.556,2.2786-1.8001,3.0769-2.1433,1.0356-.4451,3.0042-.5362,3.7042-.7179Z" style="fill: #b3a5aa; stroke-width: 0px;"/>
        <path d="m6.0234,8.6856c-.0911.0423-.1613.1002-.2617.1393-.2169.0846-.4644.2138-.5632.1013.2635-.0811.5379-.1767.7808-.2893l.0442.0487Z" style="fill: #a19e9d; stroke-width: 0px;"/>
        <path d="m2.3508,3.3329c-.6097.9416-.1287,1.6804.9347,2.218-.0624.0464-.0901.1103-.1274.167-.0009.0014-.0134-.0106-.0327.0174-1.5064-.6626-1.619-1.7213-.5915-2.7887.0013.1389-.1255.2613-.1831.3862Z" style="fill: #b5b5b9; stroke-width: 0px;"/>
        <path d="m3.2412,5.8362c.3589.2828,1.658.3816,2.1849.3615l1.1896-.1732c1.7679-.3363,2.3111-.869,2.7189-1.0144.0544-.0194.1006-.0587.1667-.0436-1.538,1.2166-2.6872,3.1985-4.9477,3.7708-.8088.2048-1.7663.2232-2.5086-.09.019-.9961.6054-1.9304,1.1962-2.8111Z" style="fill: #113546; stroke-width: 0px;"/>
        <path d="m11.2023,3.673l-1.8676,1.3371c-.4079.1454-.951.6782-2.7189,1.0144-1.1149.1672-2.2628.1364-3.3007-.2006.0064-.4035.2795-.1386.7223-.0598,1.1749.2092,2.4273.1277,3.563-.2187,1.1985-.3656,1.623-.8164,2.5161-1.3846.1946-.034.0872.0726.1622.0851.0575.0096.4025-.284.9236-.5729Z" style="fill: #ddd; stroke-width: 0px;"/>
      </g>
      <g>
        <path d="m11.3944.2506l-.0159.0626C9.4346-.0877,8.0751-.0133,6.2284.6551c.0058-.0024-.0109-.0347.0898-.0749.2935-.1172.627-.179.9231-.2929.3943-.1141,1.3382-.2136.691-.2145,1.1784-.1544,2.3246-.0483,3.4621.1778Z" style="fill: #0f141d; stroke-width: 0px;"/>
        <path d="m16.006,2.469c-.5304.1166-2.3069.2856-3.0901.4722-.6196-.0989.1624-.2081.7998-.3085.7172-.113,1.4531-.1519,2.1661-.2871l.1242.1234Z" style="fill: #ddd; stroke-width: 0px;"/>
        <path d="m12.6701,3.0179c-.0712.036-.5485.1454-1.4678.6551-.5211.2889-.8662.5825-.9236.5729-.075-.0125.0324-.1191-.1622-.0851.5472-.3481,1.164-.8017,1.7849-1.0675.2333-.0999.6391-.3225.7687-.0754Z" style="fill: #ddd; stroke-width: 0px;"/>
        <g>
          <path d="m11.3784.3133c.1943.0401-.1321.0137-.5822.1205-.4232.1004-.8376.259-1.2454.3923l.8407.3644-1.5063.6395c-.2704.0421-.5706-.2055-1.0962-.1382-.591.0757-2.42,1.4915-2.8434,1.8927-.618.5855-1.0817,1.2499-1.6225,1.8742-1.0932-.4914-1.4007-1.1978-.9723-2.1258.0577-.1249.1845-.2473.1831-.3862.8564-.8896,2.4244-1.7676,3.6945-2.2916C8.0751-.0133,9.4346-.0877,11.3784.3133Z" style="fill: url(#linear-gradient-mouse); stroke-width: 0px;"/>
          <path d="m12.5915,2.771c-.0535.0101-.0826.0096-.0875.0105-.8204-.4619-1.694-.8662-2.5807-1.2515l.6658-.2823.8513.3227,2.3395-.5237c.7356.365,1.4427.7569,2.0631,1.2293-1.088.1729-2.1713.2919-3.2514.4949Z" style="fill: #ddd; stroke-width: 0px;"/>
          <g>
            <path d="m16.3578,2.6425c-.0974.0414-.1267-.1276-.2621-.2484-.0787-.0096-.0247.0605-.0898.0749l-.1242-.1234c-.7131.1352-1.449.1741-2.1661.2871-.6373.1004-1.4194.2096-.7998.3085-.0467.0875-.3375-.0585-.3244-.1701,1.0802-.2031,2.1634-.322,3.2514-.4949-.6204-.4725-1.3275-.8644-2.0631-1.2293l-2.3395.5237-.8513-.3227-.6658.2823c.8867.3853,1.7603.7896,2.5807,1.2515-.0554.0098-.2314-.0339-.1335.0801.0181.0211.0993-.0211.1039-.0192.1086.0442.327.1092.1958.1755-.1297-.247-.5354-.0244-.7687.0754-.6209.2658-1.2377.7194-1.7849,1.0675-.8932.5683-1.3176,1.019-2.5161,1.3846-1.1357.3465-2.3881.428-3.563.2187-.4428-.0789-.7159-.3437-.7223.0598,1.0379.3369,2.1858.3678,3.3007.2006l-1.1896.1732c-.5269.0201-1.826-.0787-2.1849-.3615-.0061-.0048-.075-.0985-.0831-.1182.0372-.0567.065-.1207.1274-.167-1.0634-.5376-1.5444-1.2765-.9347-2.218-.4284.928-.1209,1.6344.9723,2.1258.5408-.6243,1.0045-1.2887,1.6225-1.8742.4234-.4011,2.2524-1.817,2.8434-1.8927.5256-.0673.8259.1803,1.0962.1382l1.5063-.6395-.8407-.3644c.4078-.1333.8222-.292,1.2454-.3923.4501-.1068.7765-.0804.5822-.1205l.0159-.0626c1.3721.2728,3.0149.8983,4.073,1.6119.2124.1432.8078.5981.8905.78Z" style="fill: #0f141d; stroke-width: 0px;"/>
            <g>
              <path d="m9.7703,1.5754c.8697.4079,1.7701.7848,2.5781,1.2619-1.4985.4677-2.8749,1.8704-4.1043,2.4015-1.406.6075-3.273.7815-4.7451.3067l-.0278-.0574c.8476-1.1759,1.9137-2.2576,3.2828-3.119.8198-.5158,1.0529-.7496,2.0667-.3965l.9496-.3973Z" style="fill: url(#linear-gradient-mouse-2); stroke-width: 0px;"/>
              <g>
                <path d="m12.3128.7541c-.2373.1501-.5533.1748-.6353.3292-.2198-.0576-.355.1524-.6096.117.088-.1605.1814-.3144.3635-.4281.2281-.1424.4436-.1433.7215-.1676.0982.0547.1039.0754.16.1494Z" style="fill: #89898d; stroke-width: 0px;"/>
                <path d="m12.1528.6047c-.2778.0242-.4934.0252-.7215.1676-.397.0647-.3364.1432-.6905-.0655.3842-.2897.9823-.3414,1.4119-.1021Z" style="fill: #ddd; stroke-width: 0px;"/>
                <path d="m11.4313.7723c-.1821.1137-.2755.2676-.3635.4281-.0146.0267.0019.0655-.0433.0592-.0843-.0266-.5502-.2301-.5525-.2743.0834-.0998.1565-.1937.2689-.2785.354.2086.2935.1302.6905.0655Z" style="fill: #b5b5b9; stroke-width: 0px;"/>
                <path d="m11.0245,1.2595c.0453.0063.0287-.0325.0433-.0592.2546.0354.3899-.1746.6096-.117.082-.1544.3981-.1791.6353-.3292.0268.0354.085.0825.1078.1321-.0174.0505-1.0869.3295-1.256.4341-.1085-.0008-.1326-.0584-.1401-.0607Z" style="fill: #707075; stroke-width: 0px;"/>
              </g>
            </g>
          </g>
        </g>
      </g>
    </g>
  </g>
</svg>