<?xml version="1.0" encoding="UTF-8"?>
<svg id="Layer_2" data-name="Layer 2" xmlns="http://www.w3.org/2000/svg" viewBox="0 0 2166.99 2028.01">
  <g id="Layer_1-2" data-name="Layer 1">
    <g>
      <g>
        <path d="m1112.8,2018.88c-171.09-139.25-178.63-145.39-364.19-296.41,19.25-26.17,18.96-62.82-8.6-82.74-2.32-1.68-5.88-2.96-8.6-4.3-25.19-12.41-112.64-27.88-142.91-23.64-13.57-10.24-28.89-18.29-44.06-25.79-21.56-10.67-95.72-48.5-109.6-58.02,30.5,20.34,49.2,38.16,75.22,62.32,3.91,3.63,7.05,7.02,10.75,10.75,2.18,2.2,4.26,4.16,6.45,6.45,7.82,8.16,16.24,14.78,23.64,23.64,2.93,3.51,17.69,17.14,17.19,20.42-30.34,26.35-101.41,23.25-139.69,18.27-2.82-.37-21.22-1.72-21.49-3.22,12.09-3.19,23.02-9.02,34.38-13.97q-1.07-1.07-2.15-2.15c-13.98,1.84-94.93,1.29-112.83,0-69.11-5-135.64-26.07-201.67-48.29,6.58,8.81,13.31,17.51,20.15,26.11,5.39,2.34,9.48,4.08,11.74,4.99,162.52,65.37,331.45,82.72,502.88,111.75,141.18,142.76,144.47,146.08,279.28,282.39,11.5.37,23.04.58,34.64.58,47.28,0,93.82-3.12,139.46-9.12Z" style="fill: #080707; stroke-width: 0px;"/>
        <g>
          <path d="m426.25,1519.39c4.82-6.38,6.54-22.05,16.12-21.49,6.89.4,96.82,72.13,112.83,79.52,26.99,7.45,167,40.53,177.3,51.58,2.91,3.12-.69,3.96-1.07,6.45,2.71,1.34,6.28,2.62,8.6,4.3-1.77-7.14,12.21.67,8.6-9.67-11.69-33.47-145.93-58.04-180.52-61.25l-13.97-2.15c-39.35-25.94-72.95-59.78-110.68-88.11-10.66,1.97-28.88,25.11-25.79,35.46.83,2.77,7.29,3.88,8.6,5.37Z" style="fill: #f7e3cc; stroke-width: 0px;"/>
          <path d="m426.25,1519.39c2.91,3.32-.56,2.31,8.6,8.6,13.89,9.52,88.04,47.36,109.6,58.02l10.75-8.6c-16.01-7.39-105.94-79.11-112.83-79.52-9.58-.56-11.3,15.11-16.12,21.49Z" style="fill: #f1a564; stroke-width: 0px;"/>
          <path d="m555.19,1577.41l-10.75,8.6c15.17,7.5,30.49,15.55,44.06,25.79,30.27-4.24,117.72,11.23,142.91,23.64.39-2.48,3.99-3.32,1.07-6.45-10.29-11.04-150.31-44.13-177.3-51.58Z" style="fill: #ed8f5b; stroke-width: 0px;"/>
        </g>
        <g>
          <path d="m.74,1555.92c.88,3.38,3.73,6.17,6.45,8.6,105.43,29.22,209.01,78,319.14,85.96,17.9,1.29,98.84,1.84,112.83,0,.32-.04,3.44-5.79,6.45,0,28.31-12.3,58.48-21.74,81.66-42.98-2.19-2.29-4.26-4.25-6.45-6.45-59.6,13.76-121.49,17.86-182.67,19.34-26.58.64-51.72,3.87-78.44,0-55.07-7.98-170.81-68.49-233.17-73.07-2.39-.18-14.56-8.79-25.79,8.6Z" style="fill: #ed8f5b; stroke-width: 0px;"/>
          <path d="m48.01,1536.58l-21.49,10.75c62.36,4.58,178.1,65.09,233.17,73.07,26.72,3.87,51.86.64,78.44,0,.86-3.03-1.45-4.08-2.15-6.45-4.49-3.18-12.3-6.04-12.89-6.45-1.06,3.54,2.89,5.39,2.15,6.45-2.42,3.47-10.11,2.43-13.97,2.15-39.61-2.84-74.78-34.31-97.78-64.47q-3.22-2.15-6.45-4.3h-4.3q-16.12,0-32.24,0c29.47,18.77,61.62,33.92,89.19,55.88-55.05-10.75-107.04-33.72-160.11-51.58-2.29-.77-5.77-1.2-8.6-2.15-13.87-4.65-29.07-8.05-42.98-12.89Z" style="fill: #f5c698; stroke-width: 0px;"/>
          <path d="m93.14,1527.98l6.45,23.64c53.06,17.85,105.06,40.83,160.11,51.58-27.57-21.95-59.72-37.11-89.19-55.88-2.2-1.4-4.28-2.86-6.45-4.3l-4.3,6.45c18.53,22.93,8.43,12.66-42.98-10.75-9-4.1-12.92-8.84-23.64-10.75Z" style="fill: #f1a564; stroke-width: 0px;"/>
          <path d="m335.99,1609.65c.16,1.4-.31,3.24,0,4.3.7,2.37,3.01,3.41,2.15,6.45,61.18-1.48,123.07-5.58,182.67-19.34-3.7-3.72-6.84-7.12-10.75-10.75q-87.04,9.67-174.07,19.34Z" style="fill: #f7e3cc; stroke-width: 0px;"/>
          <path d="m213.49,1551.62c23,30.16,58.17,61.63,97.78,64.47,3.86.28,11.55,1.32,13.97-2.15-31.86-17.58-61.27-39.31-92.41-58.02-4.2-2.53-14.06-5.03-19.34-4.3Z" style="fill: #ed8f5b; stroke-width: 0px;"/>
          <path d="m265.07,1555.92c-8.27-1.44-22.55,1.04-32.24,0,31.14,18.72,60.55,40.44,92.41,58.02.74-1.06-3.21-2.9-2.15-6.45-16.29-11.08-38.1-34.27-51.58-49.43-1.83-.69-2.53-1.8-4.3-2.15-.69-.14-1.45.12-2.15,0Z" style="fill: #f5e0b5; stroke-width: 0px;"/>
          <path d="m28.67,1530.13c-15.48,2.07-32.43,8.53-27.94,25.79,11.23-17.38,23.4-8.77,25.79-8.6l21.49-10.75c-.96-.34-6.25-5.97-19.34-6.45Z" style="fill: #e9cdbf; stroke-width: 0px;"/>
          <path d="m116.78,1538.73c51.41,23.4,61.52,33.68,42.98,10.75-3.18-3.94-8.52-7.89-10.75-10.75h-32.24Z" style="fill: #f7e3cc; stroke-width: 0px;"/>
          <path d="m88.85,1547.32c1.08.29,2.38-.21,2.15,2.15,2.83.95,6.31,1.38,8.6,2.15l-6.45-23.64c-10.62-1.88-3.53-11.47-4.3,19.34Z" style="fill: #f7e3cc; stroke-width: 0px;"/>
          <g>
            <path d="m428.4,1669.82c38.28,4.98,109.35,8.09,139.69-18.27.5-3.27-14.26-16.91-17.19-20.42-43.48,1.96-80.2,28.57-122.5,38.68Z" style="fill: #b74b31; stroke-width: 0px;"/>
            <path d="m445.59,1650.48c-1.55.67-2.75,1.47-4.3,2.15-11.37,4.95-22.3,10.78-34.38,13.97.27,1.5,18.67,2.86,21.49,3.22,42.3-10.11,79.02-36.72,122.5-38.68-7.4-8.86-15.82-15.48-23.64-23.64-23.19,21.24-53.36,30.68-81.66,42.98Z" style="fill: #f5c698; stroke-width: 0px;"/>
            <path d="m439.14,1650.48l2.15,2.15c1.55-.68,2.74-1.47,4.3-2.15-3.01-5.79-6.13-.04-6.45,0Z" style="fill: #70390f; stroke-width: 0px;"/>
          </g>
        </g>
      </g>
      <g>
        <g>
          <path d="m1586.74,184.82c.37.39-.78.46,6.45,8.6,2.52.35,5.99-.57,7.52,0,14.76,5.45,176.64,108.5,211.68,130.02,2.03,3.89-10.3,1.86-16.12,1.07-26.83-3.61-103.55-23.81-123.57-40.83q-137,26.86-274.01,53.73-9.13,37.61-18.27,75.22c1.66,1.77,8.26,13.01,10.75,17.19.22.37-.47,2.37,2.15,2.15,5.54-21.51,13.38-43.35,20.42-64.47,25.58,11.49,52.23,20.23,78.44,30.09,2.07.78,3.88,1.14,6.45,2.15,36.81,14.44,86.02,33.48,116.05,60.17,21.18,18.82,25.25,37.87,40.83,60.17.08-4.26-.45-26.8,4.3-27.94q52.11,18.27,104.23,36.53c65.97-34.63,51.32-74.62,48.35-140.76,8.6-8.79,75.76-53.46,77.37-58.02,2.95-8.39-4.06-23.51,0-36.53,3.98-12.76,135.21-188.53,151.51-220.28q11.28,37.07,22.57,74.14l5.37,5.37q48.89,10.75,97.78,21.49c0-2.87,0-5.73,0-8.6q-34.38-31.7-68.77-63.4c-3.51-8.48-2.65-26.86-4.3-37.61-7.06-1.76-6.16,3.45-8.6,8.6-.84,1.78,1.38,8.31-2.15,5.37q-11.82-26.86-23.64-53.73l-5.37-3.22c-153.54,60.41-310.99,110.81-467.42,163.33Z" style="fill: #080707; stroke-width: 0px;"/>
          <path d="m1389.03,232.1l8.6,4.3c5.32-6.51,7.71-15.46,16.12-19.34,102.09-16.98,85.3-34.62,16.12,29.01,2.94,6.21,71.78-38.57,78.44-41.91,22.49-11.28,44.83-18.36,67.7-27.94,155.54-65.16,332.44-121.55,495.36-165.48l5.37,3.22q4.3,29.55,8.6,59.1c2.43-5.14,1.53-10.35,8.6-8.6-3.27-21.41-4.87-42.99-7.52-64.47-183.1,35.06-358.39,102.2-530.82,171.92q-74.14,17.19-148.29,34.38c-4.74,2.99-9.71,16.17-18.27,25.79Z" style="fill: #01201a; stroke-width: 0px;"/>
          <path d="m1283.73,328.81c9.22,18.39,20.31,16.21,21.49,17.19,36.84-31.63,62.21-72.65,92.41-109.6l-8.6-4.3c-31.98,35.93-66.93,67.54-105.3,96.71Z" style="fill: #01201a; stroke-width: 0px;"/>
          <path d="m1397.63,236.4c-30.2,36.95-55.57,77.98-92.41,109.6.5.42-.59,4.88,0,5.37,10.72,8.89,23.79,15.29,32.24,26.86h5.37c9.68,13.68,26.61,22.65,37.61,34.38q9.13-37.61,18.27-75.22,137-26.86,274.01-53.73c-4.58-3.9-67.68-76.94-79.52-90.26-7.22-8.13-6.08-8.2-6.45-8.6-.91-.98-6.49-1.6-10.75-8.6-22.86,9.58-45.2,16.66-67.7,27.94-6.66,3.34-75.5,48.11-78.44,41.91,69.18-63.63,85.97-45.99-16.12-29.01-8.41,3.88-10.8,12.83-16.12,19.34Z" style="fill: #70b088; stroke-width: 0px;"/>
          <path d="m1576,176.22c4.26,7,9.83,7.61,10.75,8.6,156.43-52.52,313.88-102.92,467.42-163.33l5.37,3.22q11.82,26.86,23.64,53.73c3.52,2.94,1.31-3.59,2.15-5.37q-4.3-29.55-8.6-59.1l-5.37-3.22c-162.91,43.92-339.82,100.32-495.36,165.48Z" style="fill: #5aa184; stroke-width: 0px;"/>
          <path d="m1593.19,193.42c11.83,13.32,74.93,86.36,79.52,90.26,20.02,17.02,96.74,37.22,123.57,40.83,5.82.78,18.15,2.82,16.12-1.07-35.04-21.52-196.92-124.57-211.68-130.02-1.53-.57-5,.35-7.52,0Z" style="fill: #1a413f; stroke-width: 0px;"/>
        </g>
        <g>
          <path d="m1124.69,352.45q7.52,3.22,15.04,6.45,98.86,9.67,197.71,19.34c-8.45-11.58-21.51-17.97-32.24-26.86-.59-.49.5-4.95,0-5.37-1.18-.99-12.27,1.19-21.49-17.19q-79.52,11.82-159.03,23.64Z" style="fill: #dd83ba; stroke-width: 0px;"/>
          <path d="m1139.74,358.89c13.91,14.99,31.29,26.18,47.28,38.68.28-4.33-4.5-7.1,1.07-6.45,10.34,1.2,167.98,106.78,178.37,107.45,11.67.75,14.68-59.11,24.71-68.77-2.49-4.18-9.09-15.42-10.75-17.19-11-11.73-27.93-20.71-37.61-34.38h-5.37q-98.86-9.67-197.71-19.34Z" style="fill: #ad2f7c; stroke-width: 0px;"/>
          <path d="m1187.02,397.58c27.63,21.6,53.9,44.84,79.52,68.77,35.44,25.21,69.46,46.24,103.15,73.07,6.06-29.4,16.67-80.39,23.64-107.45-2.62.22-1.93-1.78-2.15-2.15-10.04,9.66-13.04,69.52-24.71,68.77-10.39-.67-168.03-106.25-178.37-107.45-5.58-.65-.8,2.12-1.07,6.45Z" style="fill: #6b063e; stroke-width: 0px;"/>
        </g>
        <g>
          <path d="m937.73,608.18c9.87-28.28,7.37-62.85,12.89-93.48l-33.31-41.91c39.51,22.67,79.59,44.24,119.27,66.62,63.47,35.8,117.29,71.78,178.37,109.6,9.62,5.95,20.37,11.1,30.09,17.19,42.1,26.37,93.55,53.45,131.09,79.52,7.19,4.99,20.79,7.97,25.79,17.19,2.52.35,5.99-.57,7.52,0,26.31,9.7,268.96,152.5,316.99,183.74q16.12,54.8,32.24,109.6l6.45,7.52c117.33,59.38,250.15,44.38,377.16,55.88l3.22-3.22c-16.14-19.83-33.88-38.83-49.43-59.1-2.75,1.26-3.89,2.84-7.52,2.15-15.27-2.91-236.29-131.05-271.86-150.43-142.53-80.01-291.1-148.68-435.19-225.65-93.77-50.09-184.18-107.35-278.3-156.88-175.66-92.44-357.22-172.59-556.61-195.56-27.08-3.12-46.47-12.32-26.86,6.45,10.67,10.21,219.01,175.83,232.1,182.67,21.71,11.34,34.28,8.55,58.02,8.6,7.37,1.54,106.69,68.37,127.87,79.52Z" style="fill: #080707; stroke-width: 0px;"/>
          <path d="m546.6,330.96c199.39,22.98,380.95,103.13,556.61,195.56l150.43-66.62c-165.5-89.2-371.35-133.05-558.76-137.54-25.64-.61-132.79.86-147.21,4.3-1.6.38-1.09,2.85-1.07,4.3Z" style="fill: #6bbfb7; stroke-width: 0px;"/>
          <path d="m694.88,322.36c187.4,4.49,393.25,48.34,558.76,137.54l12.89,6.45c-25.61-23.93-51.89-47.17-79.52-68.77-15.99-12.5-33.37-23.7-47.28-38.68q-7.52-3.22-15.04-6.45c-142.07-21.85-285.8-39.52-429.81-30.09Z" style="fill: #080707; stroke-width: 0px;"/>
          <path d="m1393.33,601.74c145.22,95.81,298,185.88,423.37,307.32,35.56,19.38,256.59,147.52,271.86,150.43,3.63.69,4.77-.89,7.52-2.15-38.34-50-183.24-255.61-209.53-277.23q-69.31-42.98-138.61-85.96c-14.37-3.41-28.54-7.55-42.98-10.75-4.8-1.06-11.67-.03-21.49-2.15-25.77-5.56-51.85-7.94-77.37-15.04-73.81-6.2-141.47-35.3-208.46-64.47-1.23.29-2.92-.14-4.3,0Z" style="fill: #041514; stroke-width: 0px;"/>
          <path d="m1253.64,459.9l-150.43,66.62c94.12,49.53,184.54,106.79,278.3,156.88,144.09,76.97,292.65,145.65,435.19,225.65-125.36-121.43-278.14-211.51-423.37-307.32-5.18-3.42-26.37-8.54-30.09-17.19l-4.3-3.22c6.77-13.14,7.84-27.8,10.75-41.91-33.7-26.82-67.72-47.86-103.15-73.07l-12.89-6.45Z" style="fill: #1a413f; stroke-width: 0px;"/>
        </g>
        <g>
          <g>
            <path d="m1603.94,459.9c-72.31,20.96-134.67,65.03-202.01,96.71,76.24,29.22,154.95,49.86,234.25,68.77.02-3.4,12.01-46.54,17.19-53.73-.15-3.37,3.17-1.62,4.3-2.15,1.76-16.12-2.43-33.93-2.15-49.43-15.59-22.3-19.66-41.35-40.83-60.17.26,3.04-10.22.21-10.75,0Z" style="fill: #6b063e; stroke-width: 0px;"/>
            <path d="m1492.18,397.58c-38.05,52.55-71.26,108.88-109.6,161.18-3.06,6.36,16.11-.63,19.34-2.15,67.34-31.68,129.7-75.75,202.01-96.71-19.97-7.87-82.64-45.27-105.3-60.17-2.57-1.01-4.38-1.37-6.45-2.15Z" style="fill: #841052; stroke-width: 0px;"/>
            <path d="m1393.33,431.96c-6.97,27.06-17.57,78.06-23.64,107.45-2.91,14.11-3.97,28.76-10.75,41.91l4.3,3.22c3.94-9.12,13.27-17.5,19.34-25.79,38.34-52.3,71.55-108.63,109.6-161.18-26.21-9.85-52.86-18.6-78.44-30.09-7.04,21.12-14.88,42.96-20.42,64.47Z" style="fill: #eeb0c7; stroke-width: 0px;"/>
            <path d="m1498.63,399.73c22.66,14.9,85.33,52.3,105.3,60.17.52.21,11,3.04,10.75,0-30.03-26.69-79.24-45.74-116.05-60.17Z" style="fill: #eeb0c7; stroke-width: 0px;"/>
            <path d="m1382.58,558.76c-6.07,8.28-15.4,16.67-19.34,25.79,3.71,8.65,24.91,13.78,30.09,17.19,1.38-.14,3.07.29,4.3,0,5.21-1.24,87.06,21.86,99.93,25.79,34.13,10.42,95.3,35,108.53,38.68,25.51,7.1,51.6,9.49,77.37,15.04-2.86-20.3-47.45-31.96-47.28-55.88-79.3-18.91-158.01-39.55-234.25-68.77-3.23,1.52-22.4,8.51-19.34,2.15Z" style="fill: #4d072f; stroke-width: 0px;"/>
            <path d="m1397.63,601.74c66.99,29.17,134.65,58.27,208.46,64.47-13.23-3.68-74.4-28.26-108.53-38.68-12.87-3.93-94.73-27.03-99.93-25.79Z" style="fill: #ad2f7c; stroke-width: 0px;"/>
          </g>
          <g>
            <path d="m1657.66,569.5c-1.13.53-4.45-1.22-4.3,2.15,6.97,8.03-1.01,39.24,0,59.1q25.79,26.33,51.58,52.65c14.44,3.19,28.61,7.33,42.98,10.75q45.13-63.93,90.26-127.87c-.8-5.91-60.42-20.99-70.92-24.71-23.46,9.41-98.01,22.5-109.6,27.94Z" style="fill: #4d072f; stroke-width: 0px;"/>
            <path d="m1655.51,520.07c-.28,15.5,3.9,33.31,2.15,49.43,11.59-5.44,86.14-18.53,109.6-27.94-28-9.92-106.14-35.46-107.45-49.43-4.75,1.14-4.22,23.68-4.3,27.94Z" style="fill: #ad2f7c; stroke-width: 0px;"/>
            <path d="m1636.17,625.38c-.17,23.92,44.42,35.58,47.28,55.88,9.82,2.12,16.69,1.09,21.49,2.15q-25.79-26.33-51.58-52.65c-1.01-19.86,6.97-51.07,0-59.1-5.19,7.18-17.17,50.33-17.19,53.73Z" style="fill: #240919; stroke-width: 0px;"/>
          </g>
        </g>
        <g>
          <path d="m1474.99,1745.04c-24.35-8.67-55.65-44.96-70.92-66.62-7.29-10.33-14.43-20.67-21.49-31.16q-1.07-6.45-2.15-12.89c6.83-49.44,12.97-100.08,36.53-145.06,11.99-22.88,28.52-42.36,47.28-60.17-13.94-22.34-40.88-50.31-53.73-70.92h-2.15q1.07,1.61,2.15,3.22c-36.05,57.26-93.09,196.91-118.2,237.47-3.34,5.4-3.86,10.34-9.67,15.04q-74.14,33.31-148.29,66.62c1.9-10.6,16.66-24.54,24.71-32.24l53.73-73.07c10.04-50.55,21.9-100.43,34.38-150.43,2.67-10.7,5.69-16.43,6.45-19.34,3.18-12.12,8.94-24.12,10.75-36.53,4.99-34.27-5.63-46.22-8.6-64.47-10.58,18.46-43.05,69.85-47.28,82.74-2.12,6.48-4.05,30.34-6.45,41.91-4.34,20.91-7.23,42.08-8.6,63.4-37.17,45.78-175.84,159.31-193.42,181.6-43.63,55.34-29.5,156.43,16.12,182.67,18.46,10.62,76.4,18.66,84.89,26.86,27.43,67.62,30.72,75.73,52.35,129.08,109.51-18.77,213.26-54.35,308.52-104.01,6.47-25.34,13.27-48.12,17.36-61.6.57-1.87,4.23-.85,4.3-1.07,1.11-3.58-2.24-5.1-2.15-5.37,5.56-17.55,13.8-34.37,17.19-52.65-5.81-10.27-19.52-34.5-23.64-42.98Z" style="fill: #080707; stroke-width: 0px;"/>
          <path d="m1236.45,1201.33c4.85,22.08,10.77,44.47,15.04,66.62q23.1-34.38,46.2-68.77c2.99,36.78-1.45,78.15,9.67,113.9,11.47,36.89,68.46,95.34,101.01,45.13h2.15c-29.79-47.79-21.61-60.14-32.24-109.6-12.05-56.07-17.85-83.55-25.79-141.84q-58.02,47.28-116.05,94.56Z" style="fill: #d65a4d; stroke-width: 0px;"/>
          <g>
            <path d="m697.03,1414.08c65.44,50.97,134.36,96.76,200.94,146.14,7.91-5.67,59.56-24.87,59.1-31.16-169.71-157.69,71.06-216.52,132.17-271.86,10.55-9.56,33.51-38.4,18.27-47.28-39.2,6.05-58.85,2.72-93.48-17.19v-4.3c2.35,3.24,7.4,2.25,11.82,2.15,18.5-34.24,42.92-65,53.73-103.15-9.26,2.44-97.94,49.7-85.96-17.19.79-4.42-4.44-4.88,1.07-8.6q24.18-3.22,48.35-6.45c-14.46-1.08-42.55-2.53-54.8-6.45-12.96-4.14-12.75-9.9-20.42-15.04-6.25-4.19-13.95-7.39-19.34-12.89q-30.09,144.52-60.17,289.05c-67.63,27.5-133.37,58.97-191.27,104.23Z" style="fill: #f5c698; stroke-width: 0px;"/>
            <path d="m935.58,1012.21c-6.23,51.87-30.25,119.91-55.88,165.48,2.46.45,4.7,2.82,4.3,5.37-1.09,6.97-53.87,77.07-62.32,85.96-44.55,46.85-101.04,84.98-152.58,123.57,6.05,9.92,19.2,14.68,27.94,21.49,57.89-45.26,123.64-76.73,191.27-104.23q30.09-144.52,60.17-289.05c-1.9-1.95-10.39-10.07-10.75-10.75l-2.15,2.15Z" style="fill: #f7e3cc; stroke-width: 0px;"/>
          </g>
          <path d="m937.73,608.18c.13.07-.79.62,2.15,2.15,47.65,24.77,102.2,37.97,148.29,66.62,7.18.11,20.44,4.17,27.94,6.45-20.23-50.76-62.04-91.47-79.52-143.99-39.68-22.38-79.76-43.95-119.27-66.62l33.31,41.91c-5.52,30.64-3.03,65.2-12.89,93.48Z" style="fill: #ed8f5b; stroke-width: 0px;"/>
          <path d="m939.88,610.33c1.61,24.12-8.69,79.9,2.15,96.71,22.2,15.01,34.37,61.77,38.68,89.19l44.06,5.37c1.86-32.25,2.52-108.2,36.53-120.35,3.11-1.11,22.87-4.36,26.86-4.3-46.09-28.65-100.64-41.85-148.29-66.62Z" style="fill: #f5c698; stroke-width: 0px;"/>
          <path d="m1251.49,1267.95c.39,2.03-.37,4.4,0,6.45,1.78,9.92,2.7,20.23,4.3,30.09,2.97,18.25,13.59,30.2,8.6,64.47,16.2,37.27,19.18,73.04-10.75,36.53-.76,2.91-3.78,8.65-6.45,19.34,90.85,19.4,32.56-64.81,60.17-111.75-11.12-35.75-6.68-77.12-9.67-113.9q-23.1,34.38-46.2,68.77Z" style="fill: #f5c698; stroke-width: 0px;"/>
          <path d="m1227.85,1164.79c4.82,11.7,5.92,24.34,8.6,36.53q58.02-47.28,116.05-94.56c-.86-6.33-1.27-12.91-2.15-19.34-40.04,26.67-79.4,55.64-122.5,77.37Z" style="fill: #b74b31; stroke-width: 0px;"/>
          <path d="m905.49,947.74c-6.68,23.51,28.97,58.5,30.09,64.47l2.15-2.15c-5.41-10.27-8.6-28.24,2.15-34.38-1.94-1.5-2.87-3.1-4.3-4.3-4.72-3.96-9.23-7.41-15.04-9.67l8.6-3.22c-2.93-.81-13.88-6.78-10.75-10.75-3.35.38-9.64.44-12.89,0Z" style="fill: #f5c698; stroke-width: 0px;"/>
          <path d="m1401.92,762.92c100.37,125.37,188.58,260.23,290.12,384.68,46.39,56.86,99.53,108.97,143.99,167.63l-70.92-251.44-6.45-7.52q-16.12-54.8-32.24-109.6c-48.03-31.25-290.68-174.05-316.99-183.74-1.54-.57-5,.35-7.52,0Z" style="fill: #b24766; stroke-width: 0px;"/>
          <path d="m1752.22,1379.7q61.25-5.37,122.5-10.75-19.34-26.86-38.68-53.73c-44.46-58.66-97.59-110.76-143.99-167.63-48.22-18.33-152.05-53.26-189.12-83.81,11.87,22.86,34.71,44.06,51.58,65.55,27.38,34.89,51.84,72.8,79.52,107.45,17.24,21.58,111.56,136.44,118.2,142.91Z" style="fill: #f1a564; stroke-width: 0px;"/>
          <path d="m1863.97,1796.62c10.02-4.16,19.42-9.32,27.94-12.89-52.13-76.96-102.92-155.29-161.18-227.8q-38.68,46.74-77.37,93.48,105.3,73.61,210.61,147.21Z" style="fill: #b24766; stroke-width: 0px;"/>
          <g>
            <path d="m1294.47,808.05c4.64,17.71,8.17,36.08,12.89,53.73.07.26,3.78,1.26,4.3,3.22,5.35,20.34,8.1,42.75,12.89,63.4,2.58-.58,5.4,1.05,6.45,3.22,18.36,38.22,27.61,81.62,45.13,120.35,50.88,112.48,180.73,291.16,260.04,390.05,5.21,4.04,4.06,4.11,4.3,4.3,3.15,2.48.95-.52,4.3,4.3.15.22,6.99-1.03,3.22,4.3-3.16-2.32-3.01-4.14-3.22-4.3-2.39-1.78-2.52-2.15-4.3-4.3-1.13-1.37-2.84-2.48-4.3-4.3-11.54-8.96-24.08-18.05-36.53-25.79.25.41-.39,3.37,4.3,8.6,48.8,37.62,88.39,83.29,126.79,131.09,58.26,72.51,109.05,150.84,161.18,227.8,5.42-2.27,32.41-6.89,53.73-20.42-11.45-20.7-18.11-44.29-27.94-65.55-32.97-71.33-66.58-117.03-75.22-212.76-15.41-11.66-130.88-108.33-131.09-117.12-.07-2.92,7.55-7.67,10.75-7.52-92.4-73.5-177.55-208.04-238.55-309.46-12.76-21.21-29.21-41.11-40.83-63.4-29.89-57.33-53.05-143.75-81.66-190.19l-66.62,10.75Z" style="fill: #f1a564; stroke-width: 0px;"/>
            <path d="m1410.52,1358.21c12.84,20.61,39.78,48.58,53.73,70.92,11.75-2.91,90.01,15.86,103.15,23.64,1,.59,5.76-1.56,8.6,3.22,26.15,55.21,46.85,112.78,68.77,169.78q32.24,116.59,64.47,233.17c38.19-17.46,108.96-43.32,154.73-62.32q-105.3-73.61-210.61-147.21,38.68-46.74,77.37-93.48c-38.41-47.8-78-93.48-126.79-131.09-75.37-58.1-168.15-95.47-225.65-176.22,10.63,49.46,2.45,61.81,32.24,109.6Z" style="fill: #973450; stroke-width: 0px;"/>
            <path d="m1917.7,1697.76c49.69-20.82,97.91-44.83,146.14-68.77-71.89-50.44-151.26-90.92-221.35-143.99,8.64,95.73,42.24,141.43,75.22,212.76Z" style="fill: #ed8f5b; stroke-width: 0px;"/>
            <path d="m1842.48,1485c70.1,53.06,149.46,93.54,221.35,143.99,1.36-.67,16.91-3.32,27.94-11.82-10.4-10.09-20.42-20.35-30.09-31.16-97.95-72.74-200.98-138.17-306.24-199.86-1.38-1.23-1.77-5.03-3.22-6.45l-9.67-2.15c-6.69-5.83-13.47-11.67-20.42-17.19-3.2-.14-10.82,4.6-10.75,7.52.22,8.79,115.69,105.46,131.09,117.12Z" style="fill: #f5c698; stroke-width: 0px;"/>
            <path d="m1752.22,1379.7c1.45,1.42,1.85,5.21,3.22,6.45,105.26,61.7,208.29,127.12,306.24,199.86-63.73-71.24-123.42-145.7-186.97-217.06q-61.25,5.37-122.5,10.75Z" style="fill: #f5c698; stroke-width: 0px;"/>
          </g>
          <path d="m1567.4,1452.77c1.15,5.74,2.57,14.03,4.3,19.34,5.85,17.96,13.71,35.62,19.34,53.73,24.14,77.57,44.9,157,66.62,235.32,3.88,13.98,7.95,43.95,8.6,46.2,3.99,13.94,17.27,51.53,25.79,60.17,5.37-2.93,11.65-6.06,17.19-8.6q-32.24-116.59-64.47-233.17c-21.92-57-42.62-114.57-68.77-169.78-2.84-4.79-7.6-2.63-8.6-3.22Z" style="fill: #741e3c; stroke-width: 0px;"/>
          <path d="m1159.08,1648.33c-8.05,7.7-22.81,21.63-24.71,32.24q74.14-33.31,148.29-66.62c5.81-4.71,6.33-9.65,9.67-15.04-1.45.02-3.92.52-4.3-1.07-3.21-13.46-1.26-68.09-2.15-89.19-19.67,28.42-90.86,109.59-117.12,135.39-.38.37-4.25-.89-9.67,4.3Z" style="fill: #f5c698; stroke-width: 0px;"/>
          <path d="m1483.59,1846.04c18.15,9.61,39.23,7.25,57.25,16.97-.79-4.26-1.57-7.82-2.18-10.47-1.13-4.9-1.72-7.41-2.82-10.53-1.36-3.87-2.87-6.93-4-9-1.76-1.28-3.52-2.67-5.27-4.16-14.74-12.56-23.08-27.93-27.94-40.83-3.39,18.28-11.63,35.11-17.19,52.65-.09.28,3.26,1.79,2.15,5.37Z" style="fill: #4d072f; stroke-width: 0px;"/>
          <path d="m1253.64,1405.49c29.92,36.51,26.95.74,10.75-36.53-1.81,12.41-7.57,24.41-10.75,36.53Z" style="fill: #b74b31; stroke-width: 0px;"/>
          <g>
            <path d="m1597.49,1807.36c-21.12.79-105.65-11.35-70.92,21.49,8.04,7.6,10.74,22.09,14.26,34.32,27.46-17.47,54.06-36.18,79.72-56.04-7.7-.07-15.39-.06-23.06.23Z" style="fill: #fbb782; stroke-width: 0px;"/>
            <g>
              <path d="m1416.97,1489.3c-23.57,44.98-29.71,95.62-36.53,145.06l2.15,12.89c7.06,10.49,14.2,20.83,21.49,31.16q14.51-16.12,29.01-32.24c5.25,1.12,35.47,85.62,41.91,98.86,4.12,8.48,17.83,32.71,23.64,42.98,7.98,14.1,16.71,28.94,27.94,40.83,6.56-24.61,49.8-20.7,70.92-21.49-31.24-103.29-60.69-208.82-71.99-315.91q32.77,17.19,65.55,34.38c-5.64-18.11-13.5-35.77-19.34-53.73-62.57-2.08-109.07-36.28-154.73,17.19Z" style="fill: #fbb782; stroke-width: 0px;"/>
              <path d="m1464.25,1429.13c-18.76,17.81-35.29,37.29-47.28,60.17,45.66-53.47,92.17-19.27,154.73-17.19-1.73-5.31-3.15-13.61-4.3-19.34-13.15-7.78-91.41-26.55-103.15-23.64Z" style="fill: #f5e0b5; stroke-width: 0px;"/>
              <path d="m1404.07,1678.42c15.27,21.66,46.57,57.95,70.92,66.62-6.43-13.24-36.66-97.74-41.91-98.86q-14.51,16.12-29.01,32.24Z" style="fill: #b84450; stroke-width: 0px;"/>
              <path d="m1657.66,1761.16c-21.73-78.32-42.48-157.76-66.62-235.32q-32.77-17.19-65.55-34.39c11.31,107.1,40.75,212.63,71.99,315.91,7.67-.29,15.36-.3,23.06-.23,13.64-10.55,27.01-21.43,40.11-32.63-.97-5.02-1.99-9.72-2.99-13.35Z" style="fill: #d65a4d; stroke-width: 0px;"/>
            </g>
          </g>
          <path d="m1376.13,745.72c19.45,43.06,43.6,83.38,60.17,127.87,21.1,56.62,34.19,116.78,49.43,175.15,1.67,3.14,13.34,11.87,17.19,15.04,37.07,30.55,140.9,65.49,189.12,83.81-101.54-124.46-189.75-259.31-290.12-384.68-5-9.22-18.6-12.2-25.79-17.19Z" style="fill: #f5c698; stroke-width: 0px;"/>
          <path d="m1036.58,539.41c17.47,52.52,59.28,93.22,79.52,143.99,12.13,3.68,96.28,44.96,98.86,52.65,1.11,6.8-4.28,7.09-4.3,7.52-.04.97,4.27,7.11-2.15,19.34,24.78,4.67,56.62,8.89,81.66,8.6q-37.61-61.25-75.22-122.5c-61.09-37.82-114.91-73.8-178.37-109.6Z" style="fill: #ed8f5b; stroke-width: 0px;"/>
          <path d="m1315.96,771.51c6.94,4.01,10.08-14.99,13.97-15.04,2.57-.03,27.87,35.5,31.16,40.83,28.62,46.44,51.78,132.86,81.66,190.19,11.62,22.29,28.08,42.19,40.83,63.4l2.15-2.15c-15.24-58.37-28.33-118.53-49.43-175.15-16.57-44.49-40.72-84.81-60.17-127.87-37.54-26.07-89-53.15-131.09-79.52-2.05,2.97-1.6,4.45,0,7.52,6.69,12.86,56.75,84.27,70.92,97.78Z" style="fill: #f1a564; stroke-width: 0px;"/>
          <path d="m1214.96,649.02q37.61,61.25,75.22,122.5c8.59-.1,17.19.07,25.79,0-14.17-13.52-64.23-84.92-70.92-97.78-1.6-3.07-2.05-4.55,0-7.52-9.72-6.09-20.47-11.24-30.09-17.19Z" style="fill: #f5c698; stroke-width: 0px;"/>
          <path d="m1079.56,1087.43c-10.81,38.16-35.23,68.91-53.73,103.15,5.69-.13,11.54.42,17.19,0q22.57-51.58,45.13-103.15c-2.67.4-6.25-.62-8.6,0Z" style="fill: #f5c698; stroke-width: 0px;"/>
          <path d="m937.73,1010.06c.35.67,8.84,8.8,10.75,10.75,5.39,5.51,13.09,8.7,19.34,12.89-.25-1.94,2.36-2.34,2.15-4.3-.35-3.27-12.26-29.71-6.45-36.53-4.01-1.7-18.51-13.23-23.64-17.19-10.75,6.15-7.56,24.12-2.15,34.38Z" style="fill: #f1a564; stroke-width: 0px;"/>
          <path d="m1025.84,855.33c-9.25,1.58-32.57-3.52-38.68,3.22-3.59,3.96-31.19,89.04-40.83,98.86-4.16,4.24-12.56,2.36-17.19,1.07l-8.6,3.22c5.81,2.26,10.32,5.71,15.04,9.67,10.55,2.45,28.41,3.5,38.68,2.15,12.97-1.7,8.71-23.9,25.79,15.04,1.39.09,2.93.18,4.3,0,6.78-.91,40.2-23.12,53.73-22.57-10.89,8.77-27.57,32.53-40.83,35.46,27.51,11.15,57.07,12.84,85.96,17.19,32.96-6.07,22.36-8.09,12.89,12.89-8.66,19.2-18.93,36.92-27.94,55.88q-22.57,51.58-45.13,103.15c5.94-.44,13.36-1.37,19.34-2.15,26.39-15.11,54.02-25.56,78.44-47.28,117.91-104.87,59.31-217.14,80.59-308.39,2-8.58,12.21-20.72,12.89-22.57.5-1.35-.3-4.36,0-6.45-54,10.91-34.93,126.67-112.83,139.69-64.85,10.83-80.9-39.51-95.63-88.11Z" style="fill: #f5c698; stroke-width: 0px;"/>
          <path d="m954.92,911.2c-3.51,5.72-6.63,11.9-10.75,17.19-8.75,11.25-8.23,17.35-25.79,19.34-3.13,3.97,7.81,9.93,10.75,10.75,4.63,1.28,13.03,3.16,17.19-1.07,9.64-9.82,37.24-94.89,40.83-98.86,6.12-6.75,29.44-1.65,38.68-3.22-1.41-4.65-2.31-12.34-3.22-12.89q-19.34-2.15-38.68-4.3c-3.82,26.2-15.19,50.53-29.01,73.07Z" style="fill: #f7e3cc; stroke-width: 0px;"/>
          <path d="m1234.3,803.75c-.3,2.08.5,5.09,0,6.45,27.33,11.29,48.84,34.83,73.07,51.58-4.72-17.65-8.26-36.02-12.89-53.73-23.51,7.37-33.1-9.77-60.17-4.3Z" style="fill: #ed8f5b; stroke-width: 0px;"/>
          <path d="m1350.35,1087.43c.88,6.43,1.29,13.01,2.15,19.34,7.94,58.29,13.74,85.77,25.79,141.84,57.5,80.76,150.28,118.12,225.65,176.22-4.69-5.22-4.04-8.19-4.3-8.6-3.04-4.87-54.26-45.32-83.81-78.44-25.89-29.02-134.9-174.78-146.14-204.16-7.59-19.84-8.04-42.01-17.19-61.25,1.43,10.63-2.25,14.29-2.15,15.04Z" style="fill: #f5c698; stroke-width: 0px;"/>
          <g>
            <path d="m1169.82,1411.93c-1.43,3.27-1.4,4.4-2.15,6.45-.43,1.18,4.58,4.46,1.07,8.6-44.6,24.61-118.74,56.13-157.96,79.52q19.34,56.41,38.68,112.83c-14.66,11.89-26.15,25.82-38.68,39.76-4.95,5.5-4.58,9.81-12.89,6.45.19,1.83,3.25,3.36,2.15,8.6,17.57-22.29,156.24-135.82,193.42-181.6,1.37-21.31,4.26-42.48,8.6-63.4-3.9-8.25-11.25-18.66-1.07-25.79-18.25,5.07-13.74-9.61-31.16,8.6Z" style="fill: #f7e3cc; stroke-width: 0px;"/>
            <path d="m997.9,1665.52c8.32,3.36,7.95-.95,12.89-6.45-1.33.14-4.19-2.61-4.3-3.22-6.39-37.71-4.34-99.26-12.89-139.69.77-2.6,13.62-7.54,17.19-9.67,39.22-23.39,113.36-54.9,157.96-79.52,3.51-4.14-1.5-7.42-1.07-8.6-23.96,6.62-179.66,83.43-182.67,95.63,6.57,50.24,7.56,101.19,12.89,151.51Z" style="fill: #fbfbfb; stroke-width: 0px;"/>
            <path d="m1169.82,1411.93c17.42-18.21,12.91-3.53,31.16-8.6-10.18,7.13-2.82,17.54,1.07,25.79,2.4-11.56,4.32-35.43,6.45-41.91,4.23-12.89,36.7-64.28,47.28-82.74-1.6-9.86-2.52-20.17-4.3-30.09-27.65,43.92-60.97,90.17-81.66,137.54Z" style="fill: #f7e3cc; stroke-width: 0px;"/>
            <path d="m1010.79,1659.08c12.54-13.93,24.03-27.87,38.68-39.76q-19.34-56.41-38.68-112.83c-3.58,2.13-16.42,7.07-17.19,9.67,8.55,40.43,6.51,101.98,12.89,139.69.1.61,2.97,3.36,4.3,3.22Z" style="fill: #f5c698; stroke-width: 0px;"/>
          </g>
          <g>
            <path d="m1062.37,1188.43c-5.98.77-13.4,1.71-19.34,2.15-5.66.42-11.5-.13-17.19,0-4.42.1-9.47,1.09-11.82-2.15v4.3c34.64,19.92,54.28,23.24,93.48,17.19,34.93-5.39,88.03-28.84,120.35-45.13,43.1-21.73,82.46-50.69,122.5-77.37-.1-.75,3.58-4.41,2.15-15.04-3.36-25.05-6.3-50.34-10.75-75.22-26.13,73.32,23.92,50.89-29.01,90.26-65.58,48.79-169.83,90.57-250.37,101.01Z" style="fill: #080707; stroke-width: 0px;"/>
            <path d="m1234.3,810.2c-.68,1.85-10.89,13.99-12.89,22.57-21.28,91.25,37.32,203.52-80.59,308.39-24.42,21.72-52.05,32.17-78.44,47.28,80.53-10.44,184.78-52.22,250.37-101.01,52.93-39.37,2.88-16.95,29.01-90.26-3.1-17.36-12.38-48.04-17.19-68.77-4.8-20.65-7.54-43.06-12.89-63.4-.52-1.97-4.23-2.96-4.3-3.22-24.23-16.75-45.73-40.29-73.07-51.58Z" style="fill: #d65a4d; stroke-width: 0px;"/>
          </g>
          <path d="m1324.56,928.39c4.82,20.73,14.09,51.41,17.19,68.77,4.45,24.88,7.38,50.17,10.75,75.22,9.16,19.24,9.6,41.41,17.19,61.25,11.24,29.38,120.24,175.14,146.14,204.16,29.55,33.12,80.77,73.58,83.81,78.44,12.45,7.74,24.99,16.83,36.53,25.79-79.31-98.89-209.16-277.57-260.04-390.05-17.52-38.73-26.77-82.13-45.13-120.35-1.05-2.18-3.87-3.8-6.45-3.22Z" style="fill: #ed8f5b; stroke-width: 0px;"/>
          <path d="m935.58,971.38c1.43,1.2,2.36,2.8,4.3,4.3,5.13,3.97,19.63,15.49,23.64,17.19,12.31,5.22,38.73,10.27,51.58,8.6l-10.75-12.89c-1.36.18-2.91.09-4.3,0-7.43-.47-20.13-9.58-25.79-15.04-10.27,1.35-28.14.3-38.68-2.15Z" style="fill: #e07146; stroke-width: 0px;"/>
          <path d="m1483.59,1050.89c60.99,101.42,146.14,235.97,238.55,309.46,6.94,5.52,13.73,11.37,20.42,17.19l9.67,2.15c-6.64-6.48-100.96-121.33-118.2-142.91-27.68-34.65-52.13-72.56-79.52-107.45-16.86-21.49-39.71-42.69-51.58-65.55-3.86-3.18-15.52-11.9-17.19-15.04l-2.15,2.15Z" style="fill: #ed8f5b; stroke-width: 0px;"/>
          <path d="m1644.77,1450.62c.22.16.06,1.98,3.22,4.3,3.77-5.33-3.07-4.08-3.22-4.3Z" style="fill: #ed8f5b; stroke-width: 0px;"/>
          <path d="m1636.17,1442.02c1.46,1.82,3.17,2.93,4.3,4.3-.24-.19.91-.25-4.3-4.3Z" style="fill: #ed8f5b; stroke-width: 0px;"/>
          <path d="m1640.47,1446.32c1.78,2.15,1.91,2.52,4.3,4.3-3.35-4.81-1.15-1.81-4.3-4.3Z" style="fill: #ed8f5b; stroke-width: 0px;"/>
          <g>
            <path d="m1247.19,1424.83c-12.49,50.01-24.34,99.88-34.38,150.43,46.26-50.05,84.03-110.55,125.72-165.48,5.16,3.03-46.97,90.65-52.65,98.86.88,21.09-1.06,75.73,2.15,89.19.38,1.6,2.85,1.09,4.3,1.07,25.11-40.56,82.15-180.21,118.2-237.47l-2.15-3.22c-32.55,50.21-89.54-8.24-101.01-45.13-27.62,46.94,30.67,131.15-60.17,111.75Z" style="fill: #fbb782; stroke-width: 0px;"/>
            <path d="m1212.81,1575.26l-53.73,73.07c5.42-5.18,9.29-3.93,9.67-4.3,26.27-25.8,97.45-106.98,117.12-135.39,5.68-8.21,57.81-95.83,52.65-98.86-41.69,54.93-79.46,115.43-125.72,165.48Z" style="fill: #f7e3cc; stroke-width: 0px;"/>
            <path d="m1349.27,1396.89c-4.05-1.83-11.11,12.56-4.3,10.75.65-.17,5.51-10.2,4.3-10.75Z" style="fill: #f7e3cc; stroke-width: 0px;"/>
          </g>
          <g>
            <path d="m1105.35,1040.15c-29.39,33.26-78.32,91.72-111.75,30.09-11.98,66.89,76.71,19.63,85.96,17.19,2.35-.62,5.93.4,8.6,0,9.01-18.95,19.28-36.68,27.94-55.88-3.19,2.61-8.11,5.61-10.75,8.6Z" style="fill: #f7e3cc; stroke-width: 0px;"/>
            <g>
              <path d="m1088.16,1035.85c-18.52,2.51-36.3,8.32-54.8,10.75,4.45,8.43,19.95.67,9.67,8.6q-24.18,3.22-48.35,6.45c-5.51,3.72-.28,4.18-1.07,8.6,33.43,61.64,82.36,3.18,111.75-30.09,4.9-12.96-5.94-5.82-17.19-4.3Z" style="fill: #cf2323; stroke-width: 0px;"/>
              <path d="m969.96,1029.4c.21,1.96-2.4,2.36-2.15,4.3,7.66,5.14,7.45,10.9,20.42,15.04,12.25,3.91,40.34,5.37,54.8,6.45,10.28-7.93-5.22-.16-9.67-8.6,18.51-2.42,36.28-8.23,54.8-10.75,2.08-8.8-6.37-6.28-10.75-10.75-35.52,4.49-71.72,4.38-107.45,4.3Z" style="fill: #b71a1a; stroke-width: 0px;"/>
              <path d="m1103.2,1018.66c-8.23,1.52-17.19,5.36-25.79,6.45,4.37,4.46,12.83,1.94,10.75,10.75,11.25-1.53,22.1-8.66,17.19,4.3,2.64-2.99,7.55-5.99,10.75-8.6,9.46-20.98,20.06-18.96-12.89-12.89Z" style="fill: #881114; stroke-width: 0px;"/>
            </g>
            <path d="m963.51,992.87c-5.81,6.83,6.09,33.26,6.45,36.53,35.73.08,71.94.19,107.45-4.3,8.6-1.09,17.56-4.93,25.79-6.45-28.9-4.36-58.45-6.04-85.96-17.19-.67.15-1.45-.09-2.15,0-12.84,1.68-39.27-3.37-51.58-8.6Z" style="fill: #fbfbfb; stroke-width: 0px;"/>
          </g>
          <path d="m1004.35,988.57l10.75,12.89c.7-.09,1.48.15,2.15,0,13.26-2.93,29.94-26.69,40.83-35.46-13.52-.56-46.95,21.66-53.73,22.57Z" style="fill: #b74b31; stroke-width: 0px;"/>
          <path d="m974.26,973.53c5.65,5.46,18.36,14.57,25.79,15.04-17.07-38.94-12.82-16.74-25.79-15.04Z" style="fill: #551408; stroke-width: 0px;"/>
        </g>
        <g>
          <g>
            <path d="m862.51,823.09c-2.95,28.15-7.94,58.81,8.6,84.89,8.53,13.45,33.24,29.4,49.43,29.01-6.45-29.29,2.65-66.62,17.19-92.41-.95-28.18,34.28-38.73-20.42-42.98-7.8-.61-35.6,13.28-16.12-8.6-23.71,3.59-25.59,12.03-38.68,30.09Z" style="fill: #cbbdbc; stroke-width: 0px;"/>
            <path d="m937.73,844.58c-14.54,25.79-23.64,63.12-17.19,92.41,9.47-.23,16.76-4.85,23.64-10.75-.09-6.25,6.85-13.18,8.6-17.19,29.29-67.13,16.64-120.68-15.04-64.47Z" style="fill: #f5c698; stroke-width: 0px;"/>
            <path d="m862.51,823.09c13.09-18.06,14.98-26.49,38.68-30.09,43.63-6.61,51.94,11.19,54.8,10.75,17.46-2.73,3.76-47.82-53.73-38.68-45.94,7.3-39.14,52.1-39.76,58.02Z" style="fill: #c66a9b; stroke-width: 0px;"/>
            <path d="m944.17,926.25v2.15c4.11-5.29,7.24-11.47,10.75-17.19l-2.15-2.15c-1.75,4.01-8.68,10.95-8.6,17.19Z" style="fill: #77573a; stroke-width: 0px;"/>
          </g>
          <g>
            <path d="m1208.51,762.92c6.42-12.24,2.11-18.37,2.15-19.34-50.88-26.99-168.07-57.4-170.85,27.94,33.77-46.71,105.71-37.34,148.29-8.6,6.27.74,14.91-1.04,20.42,0Z" style="fill: #f4cd87; stroke-width: 0px;"/>
            <g>
              <path d="m1088.16,676.95c-3.99-.06-23.75,3.19-26.86,4.3-34.01,12.15-34.68,88.1-36.53,120.35l-44.06-5.37c-4.32-27.42-16.49-74.18-38.68-89.19-21.02,7.99-.93,19.72,6.45,34.38,22.39,44.51,13.8,25.02-6.45,17.19-45.38-17.54-103.25,17.32-105.3,22.57-1.28,3.27,10.4,17.25,10.75,19.34,1.39,8.56-18.33,136.81,58.02,147.21,3.26.44,9.54.38,12.89,0,17.56-2,17.04-8.1,25.79-19.34v-2.15c-6.88,5.89-14.17,10.52-23.64,10.75-16.19.39-40.9-15.56-49.43-29.01-16.54-26.08-11.54-56.73-8.6-84.89.62-5.93-6.19-50.73,39.76-58.02,57.49-9.13,71.19,35.95,53.73,38.68-2.86.45-11.17-17.36-54.8-10.75-19.49,21.88,8.31,7.99,16.12,8.6,54.7,4.25,19.46,14.8,20.42,42.98,31.68-56.21,44.33-2.66,15.04,64.47l2.15,2.15c13.82-22.54,25.2-46.87,29.01-73.07q19.34,2.15,38.68,4.3c.91.55,1.81,8.25,3.22,12.89,14.73,48.6,30.79,98.95,95.63,88.11,77.9-13.01,58.82-128.78,112.83-139.69,27.07-5.47,36.66,11.67,60.17,4.3l66.62-10.75c-3.29-5.34-28.59-40.86-31.16-40.83-3.89.05-7.03,19.05-13.97,15.04-8.59.07-17.19-.1-25.79,0-25.04.29-56.89-3.92-81.66-8.6-5.51-1.04-14.14.74-20.42,0-42.58-28.74-114.51-38.11-148.29,8.6,2.78-85.34,119.97-54.93,170.85-27.94.02-.43,5.41-.72,4.3-7.52-2.58-7.69-86.73-48.97-98.86-52.65-7.5-2.27-20.75-6.33-27.94-6.45Z" style="fill: #080707; stroke-width: 0px;"/>
              <g>
                <g>
                  <path d="m942.02,758.62c20.25,7.83,28.84,27.32,6.45-17.19-9.42-.13-5.94,10.08-6.45,17.19Z" style="fill: #f7e3cc; stroke-width: 0px;"/>
                  <path d="m1009.72,801.6c-39.91-7.73-34.52,27.82-8.6,32.24,36.86,6.28,27.23-28.62,8.6-32.24Z" style="fill: #41345f; stroke-width: 0px;"/>
                  <path d="m966.74,797.3c-1.18.02-10.94,11.7,2.15,19.34,2.17-1.64,1.97-19.4-2.15-19.34Z" style="fill: #f5c698; stroke-width: 0px;"/>
                </g>
                <g>
                  <path d="m1144.04,820.94c-11.96,14.76-37.37,19.37-55.88,19.34-.56.73-1.54,3.3-2.15,4.3-12.2,20.16-13.66,44.01-19.34,66.62,2.69,3.05.14,1.68,6.45,6.45,38.89,10.34,68.93-7.39,94.56-34.38,6.87-14.83,11.93-28.43,12.89-45.13-2.52.22-1.87-1.36-2.15-2.15-11.8-8.9-19.49-13.56-34.38-15.04Z" style="fill: #f5c698; stroke-width: 0px;"/>
                  <path d="m1103.2,760.77c-49.55,7.96-54.88,55.17-60.17,96.71,3.11,20.09,9.99,38.25,23.64,53.73,5.68-22.61,7.14-46.46,19.34-66.62h-2.15c-24.53-62.37,44.15-81.84,79.52-38.68,14.56,17.76,11.18,19.31,15.04,30.09.28.79-.37,2.37,2.15,2.15.77-13.44-1.32-25.66-4.3-38.68-16.62-27.8-40.41-43.93-73.07-38.68Z" style="fill: #d25536; stroke-width: 0px;"/>
                  <path d="m1043.03,857.48c5.29-41.54,10.62-88.74,60.17-96.71l-2.15-4.3c-60.67,6.8-66.31,47.47-58.02,101.01Z" style="fill: #ed8f5b; stroke-width: 0px;"/>
                  <path d="m1073.12,917.65c38.88,29.39,76.7,4.16,94.56-34.38-25.63,27-55.67,44.72-94.56,34.38Z" style="fill: #f5e0b5; stroke-width: 0px;"/>
                  <path d="m1101.05,756.47l2.15,4.3c32.66-5.25,56.45,10.89,73.07,38.68-8.92-39.03-36.91-47.28-75.22-42.98Z" style="fill: #f5c698; stroke-width: 0px;"/>
                  <path d="m1083.86,844.58h2.15c.6-1,1.58-3.57,2.15-4.3,14.23-18.32,33.98-21.53,55.88-19.34,14.9,1.49,22.58,6.14,34.38,15.04-3.86-10.78-.49-12.32-15.04-30.09-36.19-20.64-77.45-5.63-79.52,38.68Z" style="fill: #080707; stroke-width: 0px;"/>
                  <path d="m1088.16,840.28c18.51.02,43.91-4.58,55.88-19.34-21.9-2.18-41.65,1.02-55.88,19.34Z" style="fill: #f7e3cc; stroke-width: 0px;"/>
                  <path d="m1083.86,844.58c2.06-44.31,43.33-59.32,79.52-38.68-35.36-43.16-104.05-23.69-79.52,38.68Z" style="fill: #f5e0b5; stroke-width: 0px;"/>
                </g>
              </g>
            </g>
          </g>
        </g>
      </g>
      <g>
        <path d="m669.09,1392.59c51.54-38.59,108.03-76.72,152.58-123.57,8.45-8.89,61.23-78.99,62.32-85.96.4-2.56-1.84-4.92-4.3-5.37-50.53,89.85-137.17,150.1-214.91,213.83l4.3,1.07Z" style="fill: #f7e3cc; stroke-width: 0px;"/>
        <g>
          <path d="m443.44,1478.55c37.73,28.33,71.33,62.17,110.68,88.11l13.97,2.15c1.21-7.27-5.91-3-9.67-4.3-17.47-6.05-83.79-66.83-105.3-83.81-11.16-6.53-9.05-2.26-9.67-2.15Z" style="fill: #a18a7c; stroke-width: 0px;"/>
          <g>
            <path d="m271.52,1558.07c13.48,15.16,35.29,38.35,51.58,49.43.6.41,8.4,3.27,12.89,6.45-.31-1.06.16-2.9,0-4.3-19.04-6.9-51.65-46.7-64.47-51.58Z" style="fill: #684e3b; stroke-width: 0px;"/>
            <path d="m28.67,1530.13c13.1.48,18.38,6.11,19.34,6.45,13.91,4.84,29.11,8.24,42.98,12.89.23-2.36-1.07-1.86-2.15-2.15-20.62-5.57-38.94-20.03-60.17-17.19Z" style="fill: #98755f; stroke-width: 0px;"/>
            <path d="m149.02,1538.73c2.22,2.86,7.56,6.81,10.75,10.75l4.3-6.45c-13.64-9.08-40.54-37.07-15.04-4.3Z" style="fill: #9a6840; stroke-width: 0px;"/>
          </g>
          <path d="m202.75,1547.32h4.3q-15.58-12.89-31.16-25.79,13.43,12.89,26.86,25.79Z" style="fill: #a18a7c; stroke-width: 0px;"/>
          <path d="m265.07,1555.92c.7.12,1.46-.14,2.15,0q-.54-3.22-1.07-6.45l-1.07,6.45Z" style="fill: #433333; stroke-width: 0px;"/>
        </g>
      </g>
    </g>
  </g>
</svg>